<svg id="Capa_1" enable-background="new 0 0 502 502" height="512" viewBox="0 0 502 502" width="512" xmlns="http://www.w3.org/2000/svg" xmlns:xlink="http://www.w3.org/1999/xlink"><linearGradient id="lg1"><stop offset="0" stop-color="#7ed99e"/><stop offset=".2532" stop-color="#81daa3"/><stop offset=".5725" stop-color="#88ddb3"/><stop offset=".9261" stop-color="#95e2cd"/><stop offset="1" stop-color="#98e3d3"/></linearGradient><linearGradient id="SVGID_1_" gradientTransform="matrix(-1 0 0 1 910.632 0)" gradientUnits="userSpaceOnUse" x1="564.046" x2="463.083" xlink:href="#lg1" y1="361.16" y2="361.16"/><linearGradient id="lg2"><stop offset="0" stop-color="#cdd4d4"/><stop offset="1" stop-color="#f3f3f3"/></linearGradient><linearGradient id="SVGID_2_" gradientUnits="userSpaceOnUse" x1="203.035" x2="203.035" xlink:href="#lg2" y1="372.181" y2="473.727"/><linearGradient id="SVGID_3_" gradientUnits="userSpaceOnUse" x1="297.066" x2="297.066" xlink:href="#lg2" y1="363.155" y2="478.796"/><linearGradient id="lg3"><stop offset="0" stop-color="#e08243"/><stop offset="1" stop-color="#f0bb78"/></linearGradient><linearGradient id="SVGID_4_" gradientTransform="matrix(-1 0 0 1 911.094 0)" gradientUnits="userSpaceOnUse" x1="575.281" x2="616.101" xlink:href="#lg3" y1="480.323" y2="480.323"/><linearGradient id="SVGID_5_" gradientUnits="userSpaceOnUse" x1="157.436" x2="95.904" xlink:href="#lg2" y1="316.049" y2="316.049"/><linearGradient id="SVGID_6_" gradientTransform="matrix(-1 0 0 1 911.094 0)" gradientUnits="userSpaceOnUse" x1="808.246" x2="853.477" xlink:href="#lg3" y1="284.996" y2="284.996"/><linearGradient id="lg4"><stop offset="0" stop-color="#b39bdb"/><stop offset="1" stop-color="#d0c3e8"/></linearGradient><linearGradient id="SVGID_7_" gradientTransform="matrix(-1 0 0 1 910.632 0)" gradientUnits="userSpaceOnUse" x1="560.474" x2="443.593" xlink:href="#lg4" y1="164.135" y2="164.135"/><linearGradient id="SVGID_8_" gradientTransform="matrix(-1 0 0 1 910.632 0)" gradientUnits="userSpaceOnUse" x1="645.808" x2="645.808" xlink:href="#lg4" y1="91.812" y2="11.166"/><linearGradient id="SVGID_9_" gradientTransform="matrix(-1 0 0 1 911.094 0)" gradientUnits="userSpaceOnUse" x1="736.83" x2="736.83" xlink:href="#lg2" y1="126.572" y2="45.889"/><linearGradient id="SVGID_10_" gradientTransform="matrix(-1 0 0 1 910.632 0)" gradientUnits="userSpaceOnUse" x1="662.617" x2="662.617" xlink:href="#lg2" y1="245.976" y2="414.771"/><linearGradient id="SVGID_11_" gradientTransform="matrix(-1 0 0 1 910.632 0)" gradientUnits="userSpaceOnUse" x1="482.356" x2="792.674" y1="194.97" y2="194.97"><stop offset="0" stop-color="#d9e0e0"/><stop offset="1" stop-color="#f3f3f3"/></linearGradient><linearGradient id="SVGID_12_" gradientTransform="matrix(-1 0 0 1 911.094 0)" gradientUnits="userSpaceOnUse" x1="660.896" x2="760.474" y1="104.554" y2="104.554"><stop offset="0" stop-color="#f4d952"/><stop offset="1" stop-color="#f9edaf"/></linearGradient><linearGradient id="SVGID_13_" gradientTransform="matrix(-1 0 0 1 910.632 0)" gradientUnits="userSpaceOnUse" x1="660.431" x2="739.962" y1="65.918" y2="65.918"><stop offset="0" stop-color="#ec6f80"/><stop offset="1" stop-color="#eca0aa"/></linearGradient><linearGradient id="SVGID_14_" gradientTransform="matrix(-1 0 0 1 910.632 0)" gradientUnits="userSpaceOnUse" x1="676.027" x2="737.373" xlink:href="#lg1" y1="26.693" y2="26.693"/><linearGradient id="SVGID_15_" gradientTransform="matrix(-1 0 0 1 911.094 0)" gradientUnits="userSpaceOnUse" x1="591.799" x2="591.799" xlink:href="#lg2" y1="177.586" y2="82.081"/><linearGradient id="SVGID_16_" gradientUnits="userSpaceOnUse" x1="255.17" x2="255.17" xlink:href="#lg2" y1="366.347" y2="306.031"/><linearGradient id="SVGID_17_" gradientTransform="matrix(-1 0 0 1 911.094 0)" gradientUnits="userSpaceOnUse" x1="667.453" x2="722.374" xlink:href="#lg3" y1="277.475" y2="277.475"/><linearGradient id="SVGID_18_" gradientTransform="matrix(-1 0 0 1 911.094 0)" gradientUnits="userSpaceOnUse" x1="703.891" x2="755.792" xlink:href="#lg3" y1="469.085" y2="469.085"/><g><path d="m336.376 409.781c-27.463-12.806-39.345-45.451-26.538-72.913 12.806-27.463 45.451-39.344 72.913-26.538 23.668 11.036 37.426 38.117 64.767 39.506 9.516.483 15.225 10.877 10.089 18.903-30.315 47.376-85.881 57.526-121.231 41.042z" fill="url(#SVGID_1_)"/><g fill="#a7f2d2"><path d="m378.196 407.088c-5.06 0-9.401-3.827-9.935-8.97-.569-5.493 3.422-10.408 8.916-10.978 3.224-.334 6.53-.935 9.826-1.785 5.346-1.379 10.801 1.838 12.18 7.186s-1.838 10.801-7.186 12.18c-4.255 1.098-8.548 1.876-12.758 2.312-.35.037-.698.055-1.043.055z"/><path d="m421.846 389.127c-2.924 0-5.822-1.276-7.797-3.731-3.462-4.303-2.781-10.598 1.522-14.06 4.248-3.418 8.17-7.342 11.656-11.663 3.467-4.298 9.762-4.972 14.062-1.503 4.298 3.468 4.971 9.764 1.502 14.062-4.383 5.432-9.323 10.373-14.683 14.686-1.847 1.487-4.062 2.209-6.262 2.209z"/></g><path d="m247.42 378.3c-7.787-11.896-23.746-15.227-35.641-7.439-13.29 8.7-42.477 40.934-57.336 75.866 13.518 22.358 33.423 23.484 47.458 19.955 10.644-25.056 32.893-48.963 38.196-52.816 11.802-7.816 15.086-23.708 7.323-35.566z" fill="url(#SVGID_2_)"/><path d="m329.013 458.692c-9.541-33.893-12.402-47.559-12.402-75.642 0-14.219-11.527-25.746-25.745-25.746s-25.746 11.527-25.746 25.746c0 33.704 3.61 51.302 13.714 87.399 20.217 6.306 37.731.035 50.179-11.757z" fill="url(#SVGID_3_)"/><path d="m329.013 458.692c.929 3.3 1.918 6.782 2.977 10.498 3.897 13.674-4.028 27.919-17.702 31.817-13.673 3.897-27.919-4.026-31.817-17.702-1.298-4.554-2.507-8.816-3.638-12.857 11.478-6.902 33.495-12.362 50.18-11.756z" fill="url(#SVGID_4_)"/><path d="m196.855 302.331c-5.915-12.931-21.193-18.618-34.122-12.701-10.951 5.01-28.515 7.465-40.896 2.466-3.704-1.495-6.669-3.574-9.052-6.3-11.322-.8-39.09 2.898-47.072 22.36 8.407 14.426 20.957 25.271 36.846 31.686 25.92 10.467 57.299 7.726 81.595-3.389 12.93-5.915 18.616-21.192 12.701-34.122z" fill="url(#SVGID_5_)"/><path d="m74.858 263.608c13.236-5.199 28.177 1.318 33.375 14.552 1.178 2.999 2.692 5.51 4.551 7.636-8.624 9.681-28.378 22.925-47.072 22.36-2.05-3.517-3.862-7.241-5.406-11.173-5.197-13.235 1.318-28.177 14.552-33.375z" fill="url(#SVGID_6_)"/><path d="m269.793 142.161c-.126-40.119 32.663-74.062 72.783-74.072 40.216-.009 72.82 32.589 72.82 72.802 0 12.584.123 37.554 19.995 49.154 18.495 10.796 18.62 37.67.254 48.683-39.902 23.925-98.097 32.521-145.058 1.046-.002 0-20.562-23.519-20.794-97.613z" fill="url(#SVGID_7_)"/><circle cx="264.824" cy="85.019" fill="url(#SVGID_8_)" r="72.802"/><path d="m150.726 50.109c21.317-7.759 56.941 24.248 66.318 62.111 5.453 22.02-5.783 37.879-27.1 45.638s-40.118 2.832-50.095-17.541c-17.157-35.032-10.44-82.45 10.877-90.208z" fill="url(#SVGID_9_)"/><path d="m193.853 255.353c-66.276 64.358-57.609 129.632-39.256 148.979s48.431 28.104 93.418 28.104 75.065-8.757 93.418-28.104 27.02-84.621-39.256-148.979z" fill="url(#SVGID_10_)"/><path d="m51.656 219.624c2.894 55.294 44.751 85.296 155.223 85.296s150.934-43.354 150.934-106.168-42.632-113.733-125.99-113.733c-83.359 0-183.869 63.876-180.167 134.605z" fill="url(#SVGID_11_)"/><g><path d="m118.067 209.131c0 6.629-6.687 12.003-14.937 12.003-8.249 0-14.936-5.374-14.936-12.003s6.687-12.004 14.936-12.004 14.937 5.375 14.937 12.004z" fill="#eaadcd"/><path d="m293.838 209.131c0 6.629-6.687 12.003-14.936 12.003s-14.936-5.374-14.936-12.003 6.687-12.004 14.936-12.004 14.936 5.375 14.936 12.004z" fill="#eaadcd"/><circle cx="128.737" cy="179.513" fill="#fff" r="29.618"/><ellipse cx="116.771" cy="179.513" fill="#3b3b44" rx="17.652" ry="17.652" transform="matrix(.707 -.707 .707 .707 -92.733 135.148)"/><circle cx="253.294" cy="179.513" fill="#fff" r="29.618"/><g fill="#3b3b44"><ellipse cx="241.329" cy="179.513" rx="17.652" ry="17.652" transform="matrix(.23 -.973 .973 .23 11.172 373.142)"/><path d="m156.613 229.209h-15.181c-3.007 0-5.658 1.976-6.506 4.862-2.672 9.09-5.742 27.748 14.097 27.748 19.838 0 16.769-18.659 14.097-27.748-.849-2.886-3.499-4.862-6.507-4.862z"/></g></g><g><path d="m247.927 98.831c1.457 14.437-15.156 29.068-37.968 33.091-23.49 4.142-44.655-4.534-47.272-19.378-1.592-9.029-2.122-21.113-1.631-34.014 30.966-5.885 55.296-1.466 86.871 20.301z" fill="url(#SVGID_12_)"/><path d="m214.981 101.192c1.9-.937 3.362-1.909 4.37-2.738-.245-1.032-.529-2.115-.831-3.22 9.706-.86 17.474-.66 29.406 3.597 1.059 10.49-7.42 21.084-20.89 27.635-8.326 4.049-18.219-1.022-19.826-10.14l-.016-.091c-1.094-6.197 2.144-12.258 7.787-15.043z" fill="#fcb500"/><path d="m166.959 33.346c22.519-1.543 44.527 1.631 65.613 20.04 7.398 15.884 13.076 32.215 15.182 44.158.076.429.131.858.174 1.287-26.221-1.881-56.441-7.464-86.871-20.301.575-15.141 2.562-31.403 5.902-45.184z" fill="url(#SVGID_13_)"/><path d="m219.09 56.29c7.115-2.825 15.191.585 18.115 7.66 5.099 12.337 8.908 24.295 10.548 33.595.076.429.129.858.172 1.287-9.349-.67-19.212-1.824-29.406-3.597-1.665-6.091-4.161-13.215-7.191-20.552-2.984-7.231.493-15.507 7.762-18.393z" fill="#e05d6f"/><path d="m166.959 33.346c4.343-17.925 10.972-31.646 19.765-33.196 13.692-2.414 32.551 24.689 45.847 53.236-20.777-3.031-43.389-9.048-65.612-20.04z" fill="url(#SVGID_14_)"/></g><path d="m342.834 51.139c-21.317-7.759-56.942 24.248-66.318 62.111-5.453 22.02 5.783 37.879 27.1 45.638s40.118 2.832 50.095-17.541c17.157-35.032 10.44-82.45-10.877-90.208z" fill="url(#SVGID_15_)"/><path d="m288.709 300.002c-19.892-3.078-33.932-10.669-45.068-24.745-15.28-3.922-40.191 4.381-43.824 27.382 19.548 27.025 46.174 42.857 81.018 48.248 14.083 2.177 27.21-7.484 29.38-21.506 2.175-14.051-7.454-27.205-21.506-29.379z" fill="url(#SVGID_16_)"/><path d="m73.441 84.939-27.61-27.61c-4.491-4.491-4.491-11.772 0-16.264 4.491-4.491 11.773-4.491 16.264 0l27.61 27.61c4.491 4.491 4.491 11.772 0 16.264-4.491 4.491-11.773 4.492-16.264 0z" fill="#71c4d1"/><path d="m408.31 189.179c-4.491-4.491-4.491-11.773 0-16.264l27.611-27.61c4.491-4.491 11.772-4.491 16.264 0 4.491 4.491 4.491 11.772 0 16.264l-27.611 27.61c-4.491 4.491-11.772 4.491-16.264 0z" fill="#ffe05c"/><path d="m394.342 68.172c-4.491-4.491-4.491-11.772 0-16.264l21.686-21.686c4.491-4.491 11.772-4.492 16.264 0 4.491 4.491 4.491 11.772 0 16.264l-21.685 21.686c-4.492 4.49-11.774 4.491-16.265 0z" fill="#05c95a"/><path d="m201.435 255.827c12.262-7.199 28.038-3.095 35.237 9.167 2.202 3.751 4.517 7.162 6.97 10.263-9.306 12.547-27.224 28.2-43.824 27.382-2.644-3.655-5.162-7.509-7.55-11.575-7.199-12.262-3.095-28.038 9.167-35.237z" fill="url(#SVGID_17_)"/><path d="m150.31 457.671c1.2-3.662 2.589-7.318 4.132-10.945 14.536.744 37.885 11.698 47.458 19.955-.993 2.337-1.893 4.684-2.661 7.026-4.428 13.514-18.974 20.876-32.483 16.447-13.511-4.428-20.874-18.971-16.446-32.483z" fill="url(#SVGID_18_)"/></g></svg>