<svg id="Capa_1" enable-background="new 0 0 502 502" height="512" viewBox="0 0 502 502" width="512" xmlns="http://www.w3.org/2000/svg" xmlns:xlink="http://www.w3.org/1999/xlink"><linearGradient id="lg1"><stop offset="0" stop-color="#b39bdb"/><stop offset="1" stop-color="#d0c3e8"/></linearGradient><linearGradient id="SVGID_1_" gradientUnits="userSpaceOnUse" x1="127.106" x2="8.035" xlink:href="#lg1" y1="167.21" y2="167.21"/><linearGradient id="SVGID_2_" gradientUnits="userSpaceOnUse" x1="214.039" x2="214.039" xlink:href="#lg1" y1="93.532" y2="11.375"/><linearGradient id="lg2"><stop offset="0" stop-color="#cdd4d4"/><stop offset="1" stop-color="#f3f3f3"/></linearGradient><linearGradient id="SVGID_3_" gradientUnits="userSpaceOnUse" x1="306.296" x2="306.296" xlink:href="#lg2" y1="128.943" y2="46.748"/><linearGradient id="SVGID_4_" gradientUnits="userSpaceOnUse" x1="275.305" x2="275.305" y1="336.446" y2="141.227"><stop offset="0" stop-color="#d9e0e0"/><stop offset="1" stop-color="#f3f3f3"/></linearGradient><linearGradient id="SVGID_5_" gradientUnits="userSpaceOnUse" x1="228.944" x2="330.38" y1="106.506" y2="106.506"><stop offset="0" stop-color="#f4d952"/><stop offset="1" stop-color="#f9edaf"/></linearGradient><linearGradient id="SVGID_6_" gradientUnits="userSpaceOnUse" x1="228.94" x2="309.956" y1="67.148" y2="67.148"><stop offset="0" stop-color="#ec6f80"/><stop offset="1" stop-color="#eca0aa"/></linearGradient><linearGradient id="SVGID_7_" gradientUnits="userSpaceOnUse" x1="244.827" x2="307.318" y1="27.191" y2="27.191"><stop offset="0" stop-color="#7ed99e"/><stop offset=".2532" stop-color="#81daa3"/><stop offset=".5725" stop-color="#88ddb3"/><stop offset=".9261" stop-color="#95e2cd"/><stop offset="1" stop-color="#98e3d3"/></linearGradient><linearGradient id="SVGID_8_" gradientUnits="userSpaceOnUse" x1="158.547" x2="158.547" xlink:href="#lg2" y1="180.913" y2="83.619"/><linearGradient id="SVGID_9_" gradientUnits="userSpaceOnUse" x1="244.907" x2="244.907" y1="267.432" y2="506.832"><stop offset="0" stop-color="#53aae6"/><stop offset="1" stop-color="#a4d2f0"/></linearGradient><linearGradient id="SVGID_10_" gradientUnits="userSpaceOnUse" x1="244.907" x2="244.907" y1="350.421" y2="254.115"><stop offset="0" stop-color="#74d2e8"/><stop offset="1" stop-color="#baeaf5"/></linearGradient><g><path d="m208.977 144.824c.128-40.871-33.275-75.45-74.146-75.46-40.969-.01-74.184 33.199-74.184 74.166 0 12.82-.126 38.257-20.369 50.075-18.841 10.998-18.969 38.376-.258 49.595 40.649 24.374 99.935 33.13 147.776 1.066 0 0 20.944-23.96 21.181-99.442z" fill="url(#SVGID_1_)"/><circle cx="214.039" cy="86.612" fill="url(#SVGID_2_)" r="74.166"/><path d="m330.275 51.047c-21.716-7.904-58.008 24.702-67.56 63.275-5.555 22.433 5.892 38.589 27.608 46.493s40.87 2.886 51.034-17.869c17.477-35.689 10.634-83.995-11.082-91.899z" fill="url(#SVGID_3_)"/><path d="m431.201 223.739c-2.948 56.33-45.589 86.895-158.132 86.895s-153.762-44.167-153.762-108.157 43.43-115.865 128.351-115.865 187.314 65.073 183.543 137.127z" fill="url(#SVGID_4_)"/><g><path d="m231.257 100.676c-1.484 14.706 15.439 29.611 38.677 33.708 23.929 4.219 45.488-4.618 48.155-19.74 1.622-9.197 2.162-21.507 1.661-34.649-31.545-5.995-56.329-1.492-88.493 20.681z" fill="url(#SVGID_5_)"/><path d="m264.818 103.081c-1.935-.955-3.425-1.945-4.451-2.789.249-1.051.539-2.154.846-3.28-9.887-.877-17.8-.672-29.954 3.664-1.078 10.686 7.558 21.477 21.28 28.15 8.481 4.125 18.559-1.041 20.196-10.329l.016-.093c1.114-6.312-2.185-12.486-7.933-15.323z" fill="#fcb500"/><path d="m313.737 33.969c-22.939-1.572-45.358 1.661-66.837 20.414-7.536 16.18-13.32 32.816-15.465 44.982-.077.437-.133.874-.177 1.311 26.711-1.916 57.494-7.603 88.493-20.68-.589-15.424-2.613-31.99-6.014-46.027z" fill="url(#SVGID_6_)"/><path d="m260.632 57.34c-7.248-2.878-15.474.596-18.453 7.803-5.194 12.567-9.074 24.749-10.744 34.222-.077.437-.131.874-.176 1.311 9.523-.683 19.571-1.858 29.954-3.664 1.696-6.205 4.239-13.462 7.325-20.936 3.041-7.365-.501-15.796-7.906-18.736z" fill="#e05d6f"/><path d="m313.737 33.969c-4.425-18.26-11.178-32.237-20.134-33.816-13.948-2.459-33.158 25.149-46.703 54.23 21.164-3.089 44.198-9.218 66.837-20.414z" fill="url(#SVGID_7_)"/></g><path d="m134.567 52.097c21.716-7.904 58.008 24.702 67.56 63.275 5.555 22.433-5.892 38.589-27.608 46.493s-40.87 2.886-51.034-17.87c-17.476-35.689-10.634-83.994 11.082-91.898z" fill="url(#SVGID_8_)"/><g><path d="m424.454 135.351h-21.244c-7.917 0-12.713-8.808-8.378-15.459l10.676-16.385h-1.645c-5.523 0-10-4.477-10-10s4.477-10 10-10h20.096c7.917 0 12.713 8.808 8.378 15.459l-10.676 16.385h2.793c5.523 0 10 4.477 10 10s-4.477 10-10 10z" fill="#04a3db"/></g><g><path d="m465.934 71.38h-29.412c-7.917 0-12.713-8.808-8.378-15.459l18.655-28.63h-9.373c-5.523 0-10-4.477-10-10s4.477-10 10-10h27.824c7.918 0 12.713 8.808 8.378 15.459l-18.655 28.63h10.961c5.523 0 10 4.477 10 10s-4.477 10-10 10z" fill="#997bce"/></g><path d="m329.241 502h-168.669c-45.155 0-81.76-36.605-81.76-81.76v-139.793l332.188 27.993v111.8c.001 45.155-36.604 81.76-81.759 81.76z" fill="url(#SVGID_9_)"/><path d="m307.993 352.674c1.847-10.667-5.122-20.882-15.736-23.015-64.559-12.973-131.089-33.903-213.146-20.535-.1.016-.199.026-.299.041v40.172c9.492-.568 23.965-4.546 54.081-4.546 53.202 0 101.642 14.066 151.419 24.081 11.049 2.224 21.759-5.093 23.681-16.198z" fill="#04a3db"/><path d="m259.182 322.601c-54.865-12.11-111.598-24.631-180.071-13.476-14.296 2.33-27.774-7.372-30.104-21.669-2.329-14.297 7.372-27.775 21.669-30.104 78.398-12.773 142.902 1.465 199.812 14.027 50.483 11.142 94.08 20.765 138.506 10.462 14.112-3.275 28.203 5.514 31.475 19.624 3.272 14.111-5.513 28.203-19.624 31.475-55.592 12.892-106.353 1.869-161.663-10.339z" fill="url(#SVGID_10_)"/><g><ellipse cx="209.503" cy="205.537" fill="#eaadcd" rx="14.936" ry="12.003"/><ellipse cx="385.274" cy="205.537" fill="#eaadcd" rx="14.936" ry="12.003"/><circle cx="235.11" cy="175.919" fill="#fff" r="29.618"/><circle cx="359.667" cy="175.919" fill="#fff" r="29.618"/><path d="m244.893 186.35c-2.648 0-5.214-1.404-6.579-3.889-.941-1.71-2.554-1.895-3.204-1.895s-2.263.185-3.204 1.895c-1.995 3.629-6.556 4.956-10.185 2.959-3.63-1.995-4.955-6.556-2.959-10.185 3.278-5.964 9.543-9.669 16.348-9.669 6.806 0 13.07 3.705 16.349 9.669 1.996 3.629.67 8.19-2.959 10.185-1.146.631-2.386.93-3.607.93z" fill="#3b3b44"/><path d="m369.451 186.35c-2.647 0-5.213-1.404-6.579-3.888-.94-1.71-2.554-1.895-3.205-1.895-.65 0-2.264.185-3.204 1.895-1.995 3.629-6.555 4.956-10.185 2.959-3.63-1.995-4.955-6.556-2.96-10.185 3.278-5.964 9.543-9.669 16.348-9.669s13.07 3.705 16.349 9.668c1.996 3.63.671 8.19-2.959 10.186-1.145.63-2.384.929-3.605.929z" fill="#3b3b44"/><g><path d="m347.605 254.622h-23.342c-6.508 0-11.784-5.276-11.784-11.784 0-6.508 5.276-11.784 11.784-11.784h23.342c6.508 0 11.784 5.276 11.784 11.784 0 6.508-5.276 11.784-11.784 11.784z" fill="#3b3b44"/></g></g><g fill="#bdebff"><path d="m347.841 476.383c-3.955 0-7.7-2.361-9.274-6.253-2.071-5.12.401-10.949 5.521-13.02 2.668-1.079 5.228-2.456 7.608-4.093 4.552-3.128 10.777-1.975 13.906 2.576s1.976 10.777-2.576 13.906c-3.577 2.459-7.426 4.529-11.439 6.152-1.228.497-2.497.732-3.746.732z"/><path d="m307.293 480h-31.183c-5.523 0-10-4.477-10-10s4.477-10 10-10h31.182c5.523 0 10 4.477 10 10 .001 5.523-4.477 10-9.999 10z"/></g></g></svg>