<svg id="Capa_1" enable-background="new 0 0 502 502" height="512" viewBox="0 0 502 502" width="512" xmlns="http://www.w3.org/2000/svg" xmlns:xlink="http://www.w3.org/1999/xlink"><linearGradient id="lg1"><stop offset="0" stop-color="#cdd4d4"/><stop offset="1" stop-color="#f3f3f3"/></linearGradient><linearGradient id="SVGID_1_" gradientTransform="matrix(-1 0 0 1 302 0)" gradientUnits="userSpaceOnUse" x1="-77.058" x2="-77.058" xlink:href="#lg1" y1="184.953" y2="127.718"/><linearGradient id="lg2"><stop offset="0" stop-color="#d5738e"/><stop offset="1" stop-color="#e6a3c1"/></linearGradient><linearGradient id="SVGID_2_" gradientTransform="matrix(-1 0 0 1 302 0)" gradientUnits="userSpaceOnUse" x1="-56.465" x2="-112.748" xlink:href="#lg2" y1="165.77" y2="165.77"/><linearGradient id="SVGID_3_" gradientUnits="userSpaceOnUse" x1="122.942" x2="122.942" xlink:href="#lg1" y1="184.953" y2="127.718"/><linearGradient id="SVGID_4_" gradientUnits="userSpaceOnUse" x1="143.535" x2="87.252" xlink:href="#lg2" y1="165.77" y2="165.77"/><linearGradient id="lg3"><stop offset="0" stop-color="#f4d952"/><stop offset="1" stop-color="#f9edaf"/></linearGradient><linearGradient id="SVGID_5_" gradientUnits="userSpaceOnUse" x1="251" x2="251" xlink:href="#lg3" y1="164.422" y2="24.415"/><linearGradient id="SVGID_6_" gradientUnits="userSpaceOnUse" x1="251" x2="251" y1="561.809" y2="420.965"><stop offset="0" stop-color="#d9e0e0"/><stop offset="1" stop-color="#f3f3f3"/></linearGradient><linearGradient id="SVGID_7_" gradientUnits="userSpaceOnUse" x1="251" x2="251" y1="190.755" y2="323.358"><stop offset="0" stop-color="#74d2e8"/><stop offset="1" stop-color="#baeaf5"/></linearGradient><linearGradient id="SVGID_8_" gradientUnits="userSpaceOnUse" x1="251" x2="251" y1="261.182" y2="156.133"><stop offset="0" stop-color="#b39bdb"/><stop offset="1" stop-color="#d0c3e8"/></linearGradient><linearGradient id="SVGID_9_" gradientUnits="userSpaceOnUse" x1="251.027" x2="251.027" xlink:href="#lg3" y1="223.517" y2="155.463"/><linearGradient id="SVGID_10_" gradientUnits="userSpaceOnUse" x1="201.379" x2="301.032" y1="148.585" y2="148.585"><stop offset="0" stop-color="#ec6f80"/><stop offset="1" stop-color="#eca0aa"/></linearGradient><linearGradient id="SVGID_11_" gradientUnits="userSpaceOnUse" x1="217.498" x2="270.843" y1="108.739" y2="108.739"><stop offset="0" stop-color="#7ed99e"/><stop offset=".2532" stop-color="#81daa3"/><stop offset=".5725" stop-color="#88ddb3"/><stop offset=".9261" stop-color="#95e2cd"/><stop offset="1" stop-color="#98e3d3"/></linearGradient><g><g><path d="m349.083 184.364c-12.89-12.046-16.259-27.089-6.104-42.197 18.44-27.433 56.083-42.594 70.809-30.238 5.561 4.666 7.82 13.235 7.202 23.325-21.8 27.744-54.455 46.86-71.907 49.11z" fill="url(#SVGID_1_)"/><path d="m351.331 186.362c-.781-.656-1.527-1.323-2.249-1.998 16.263-32.581 49.227-45.525 71.906-49.11-1.02 16.628-9.863 37.392-24.684 51.659-13.848 13.331-30.247 11.805-44.973-.551z" fill="url(#SVGID_2_)"/></g><g><path d="m152.917 184.364c12.89-12.046 16.259-27.089 6.104-42.197-18.44-27.433-56.083-42.594-70.809-30.238-5.561 4.666-7.82 13.235-7.202 23.325 21.8 27.744 54.455 46.86 71.907 49.11z" fill="url(#SVGID_3_)"/><path d="m150.669 186.362c.781-.656 1.527-1.323 2.249-1.998-16.263-32.581-49.227-45.525-71.906-49.11 1.02 16.628 9.863 37.392 24.684 51.659 13.848 13.331 30.247 11.805 44.973-.551z" fill="url(#SVGID_4_)"/></g><path d="m198.73 52.27c0-28.868 23.402-52.27 52.27-52.27s52.27 23.402 52.27 52.27c0 65.515 64.776 62.885 64.776 111.214v33.222h-234.092v-33.222c0-48.329 64.776-45.699 64.776-111.214z" fill="url(#SVGID_5_)"/><path d="m401.629 342.884v-31.608c-40.303-32.87-204.288-72.197-301.258-.159v31.768c0 36.761-4.791 61.154-9.581 84.051-8.098 38.701 21.417 75.064 60.958 75.064h198.504c39.54 0 69.056-36.363 60.958-75.066-4.79-22.896-9.581-47.289-9.581-84.05z" fill="url(#SVGID_6_)"/><g><ellipse cx="163.114" cy="423.36" fill="#eaadcd" rx="14.936" ry="12.003"/><ellipse cx="338.886" cy="423.36" fill="#eaadcd" rx="14.936" ry="12.003"/><circle cx="188.721" cy="393.742" fill="#fff" r="29.618"/><circle cx="313.279" cy="393.742" fill="#fff" r="29.618"/><g fill="#3b3b44"><g><circle cx="188.721" cy="393.742" r="17.652"/><circle cx="313.279" cy="393.742" r="17.652"/></g><path d="m251 424.302c-5.247 0-10.495-1.984-14.775-5.954-2.025-1.877-2.145-5.041-.267-7.066 1.877-2.025 5.042-2.144 7.065-.267 4.697 4.354 11.256 4.354 15.953 0 2.023-1.876 5.188-1.759 7.065.267 1.878 2.025 1.759 5.188-.267 7.066-4.279 3.97-9.527 5.954-14.774 5.954z"/></g></g><path d="m401.629 311.276v-66.316h-301.258v66.156c97.983-30.026 214.169 80.539 301.258.16z" fill="url(#SVGID_7_)"/><path d="m368.046 163.484h-234.092c-30.118 0-54.533 24.415-54.533 54.533v6.223c0 16.984 13.768 30.752 30.752 30.752h281.654c16.984 0 30.752-13.768 30.752-30.752v-6.223c0-30.118-24.415-54.533-54.533-54.533z" fill="url(#SVGID_8_)"/><g><path d="m206.169 189.401c1.114 15.038 20.757 27.015 44.831 27.015 24.789 0 44.884-12.699 44.885-28.363 0-9.528-1.638-21.991-4.469-35.106-32.756-.436-56.86 8.478-85.247 36.454z" fill="url(#SVGID_9_)"/><path d="m277.22 107.768c-23.326 2.484-45.277 9.705-63.535 32.351-4.706 17.592-7.569 35.33-7.569 47.934 0 .452.021.901.054 1.348 26.497-6.657 56.418-17.825 85.246-36.455-3.323-15.392-8.292-31.677-14.196-45.178z" fill="url(#SVGID_10_)"/><path d="m277.22 107.768c-7.681-17.562-16.942-30.408-26.22-30.408-14.449 0-28.859 31.142-37.316 62.759 20.717-6.853 42.774-17.091 63.536-32.351z" fill="url(#SVGID_11_)"/></g><g fill="#fff"><path d="m344.15 482h-11.134c-5.522 0-10-4.477-10-10s4.478-10 10-10h11.134c5.523 0 10 4.477 10 10s-4.477 10-10 10z"/><path d="m378.444 465.424c-1.651 0-3.324-.41-4.868-1.272-4.821-2.693-6.547-8.786-3.854-13.607 2.609-4.67 3.438-10.146 2.335-15.42-1.131-5.406 2.334-10.705 7.74-11.836 5.404-1.131 10.705 2.334 11.836 7.74 2.091 9.995.511 20.389-4.45 29.27-1.831 3.278-5.234 5.125-8.739 5.125z"/></g><path d="m100.371 253.387v57.729c11.444-3.507 23.136-5.095 35.001-5.295v-15.829h92.58c9.665 0 17.5-7.835 17.5-17.5 0-9.665-7.835-17.5-17.5-17.5h-117.779c-3.429.001-6.722-.569-9.802-1.605z" fill="#43cad9"/><path d="m135.371 321.102v-15.28c-11.865.2-23.557 1.788-35.001 5.295v9.986c0 9.665 7.835 17.5 17.5 17.5 9.666-.001 17.501-7.836 17.501-17.501z" fill="#d2d9e0"/></g></svg>