<svg id="Capa_1" enable-background="new 0 0 502 502" height="512" viewBox="0 0 502 502" width="512" xmlns="http://www.w3.org/2000/svg" xmlns:xlink="http://www.w3.org/1999/xlink"><linearGradient id="lg1"><stop offset="0" stop-color="#b39bdb"/><stop offset="1" stop-color="#d0c3e8"/></linearGradient><linearGradient id="SVGID_1_" gradientUnits="userSpaceOnUse" x1="251" x2="251" xlink:href="#lg1" y1="256.84" y2="522.14"/><linearGradient id="lg2"><stop offset="0" stop-color="#74d2e8"/><stop offset="1" stop-color="#baeaf5"/></linearGradient><linearGradient id="SVGID_2_" gradientUnits="userSpaceOnUse" x1="251.035" x2="251.035" xlink:href="#lg2" y1="178.302" y2="475.679"/><linearGradient id="SVGID_3_" gradientUnits="userSpaceOnUse" x1="128.762" x2="128.762" xlink:href="#lg2" y1="199.668" y2="79.796"/><linearGradient id="SVGID_4_" gradientTransform="matrix(-1 0 0 1 102 0)" gradientUnits="userSpaceOnUse" x1="-271.238" x2="-271.238" xlink:href="#lg2" y1="199.668" y2="79.796"/><linearGradient id="SVGID_5_" gradientUnits="userSpaceOnUse" x1="251.038" x2="251.038" y1="219.078" y2="122.959"><stop offset="0" stop-color="#f4d952"/><stop offset="1" stop-color="#f9edaf"/></linearGradient><linearGradient id="SVGID_6_" gradientUnits="userSpaceOnUse" x1="180.915" x2="321.665" y1="113.243" y2="113.243"><stop offset="0" stop-color="#ec6f80"/><stop offset="1" stop-color="#eca0aa"/></linearGradient><linearGradient id="SVGID_7_" gradientUnits="userSpaceOnUse" x1="203.682" x2="279.027" y1="56.966" y2="56.966"><stop offset="0" stop-color="#7ed99e"/><stop offset=".2532" stop-color="#81daa3"/><stop offset=".5725" stop-color="#88ddb3"/><stop offset=".9261" stop-color="#95e2cd"/><stop offset="1" stop-color="#98e3d3"/></linearGradient><linearGradient id="SVGID_8_" gradientUnits="userSpaceOnUse" x1="-31.369" x2="547.919" xlink:href="#lg1" y1="199.705" y2="199.705"/><linearGradient id="SVGID_9_" gradientUnits="userSpaceOnUse" x1="125.038" x2="303.325" xlink:href="#lg2" y1="207.419" y2="207.419"/><g><path d="m387.856 489.355h-85.108l-51.748-12.156-51.678 12.156h-85.179c-37.787 0-68.42-30.633-68.42-68.42v-204.724h410.553v204.724c0 37.787-30.632 68.42-68.42 68.42z" fill="url(#SVGID_1_)"/><path d="m288.033 273.618c0-11.09-9.016-20.063-20.106-19.999-5.507.032-11.145.048-16.926.048-93.445 0-150.543-3.995-205.276-14.589v40.703c55.108 10.053 113.276 13.886 205.276 13.886 5.855 0 11.568-.016 17.152-.048 11.001-.064 19.88-8.999 19.88-20.001z" fill="#997bce"/><path d="m199.322 216.211h103.426v273.143h-103.426z" fill="url(#SVGID_2_)"/><path d="m267.926 253.619c-5.506.032-11.145.048-16.926.048-18.581 0-35.704-.161-51.678-.497v40.009c16.029.33 33.158.488 51.678.488 5.855 0 11.568-.016 17.152-.049 11.001-.064 19.88-8.999 19.88-20.001.001-11.089-9.015-20.062-20.106-19.998z" fill="#43cad9"/><path d="m59.58 36.217c30.203-30.203 79.172-30.203 109.375 0 51.644 51.644 66.271 115.239 36.068 145.442s-93.798 15.576-145.442-36.068c-30.204-30.202-30.204-79.171-.001-109.374z" fill="url(#SVGID_3_)"/><path d="m195.079 180.648c-2.56 0-5.118-.976-7.071-2.929l-68.156-68.157c-3.905-3.905-3.905-10.237 0-14.142 3.907-3.905 10.237-3.905 14.143 0l68.156 68.157c3.905 3.905 3.905 10.237 0 14.142-1.954 1.953-4.513 2.929-7.072 2.929z" fill="#43cad9"/><path d="m442.42 36.217c-30.203-30.203-79.172-30.203-109.375 0-51.644 51.644-66.271 115.239-36.068 145.442s93.798 15.576 145.442-36.068c30.204-30.202 30.204-79.171.001-109.374z" fill="url(#SVGID_4_)"/><path d="m306.921 180.648c-2.56 0-5.118-.976-7.071-2.929-3.905-3.905-3.905-10.237 0-14.142l68.156-68.157c3.906-3.905 10.236-3.906 14.142 0 3.905 3.905 3.905 10.237 0 14.142l-68.156 68.157c-1.953 1.953-4.512 2.929-7.071 2.929z" fill="#43cad9"/><g><path d="m187.681 170.893c1.574 21.24 29.317 38.156 63.319 38.156 35.012 0 63.395-17.936 63.395-40.061 0-13.457-2.314-31.06-6.313-49.584-46.263-.615-80.307 11.976-120.401 51.489z" fill="url(#SVGID_5_)"/><path d="m288.033 55.594c-32.945 3.509-63.95 13.707-89.738 45.693-6.646 24.846-10.69 49.9-10.69 67.701 0 .639.029 1.273.076 1.905 37.424-9.402 79.685-25.176 120.402-51.489-4.693-21.74-11.711-44.741-20.05-63.81z" fill="url(#SVGID_6_)"/><path d="m288.033 55.594c-10.848-24.805-23.928-42.949-37.033-42.949-20.408 0-40.76 43.985-52.705 88.642 29.261-9.679 60.414-24.14 89.738-45.693z" fill="url(#SVGID_7_)"/></g><path d="m501.033 183.145c-5.142-24.719-29.343-40.589-54.066-35.447-32.08 6.673-66.752 11.459-125.545 13.477-25.914 12.025-43.476 16.123-70.422 16.123s-44.508-4.098-70.422-16.123c-58.793-2.018-93.465-6.804-125.545-13.477-24.719-5.142-48.925 10.728-54.066 35.447-5.141 24.718 10.728 48.924 35.446 54.066 42.458 8.831 85.18 13.578 144.164 15.468v-.004c23.523-6.057 44.359-8.106 70.422-8.106s46.899 2.049 70.422 8.106v.004c58.984-1.89 101.707-6.637 144.164-15.468 24.719-5.142 40.589-29.348 35.448-54.066z" fill="url(#SVGID_8_)"/><path d="m180.578 161.174v91.501c21.145.678 44.359.992 70.422.992 26.092 0 49.328-.315 70.493-.995v-91.501c-20.32.699-43.516 1.067-70.493 1.067-26.946.001-50.119-.367-70.422-1.064z" fill="url(#SVGID_9_)"/><g><path d="m178.051 385.551c0 6.629-6.687 12.003-14.937 12.003-8.249 0-14.936-5.374-14.936-12.003s6.687-12.004 14.936-12.004c8.25 0 14.937 5.374 14.937 12.004z" fill="#efc5db"/><path d="m353.822 385.551c0 6.629-6.687 12.003-14.936 12.003s-14.936-5.374-14.936-12.003 6.687-12.004 14.936-12.004 14.936 5.374 14.936 12.004z" fill="#efc5db"/><circle cx="188.721" cy="355.933" fill="#fff" r="29.618"/><ellipse cx="176.756" cy="355.933" fill="#3b3b44" rx="17.652" ry="17.652" transform="matrix(.707 -.707 .707 .707 -199.912 229.236)"/><circle cx="313.279" cy="355.933" fill="#fff" r="29.618"/><g fill="#3b3b44"><ellipse cx="301.313" cy="355.933" rx="17.652" ry="17.652" transform="matrix(.23 -.973 .973 .23 -114.326 567.409)"/><path d="m258.59 363.127h-15.18c-3.007 0-5.658 1.976-6.506 4.862-2.672 9.09-5.742 27.748 14.097 27.748 19.838 0 16.769-18.659 14.097-27.748-.85-2.886-3.5-4.862-6.508-4.862z"/></g></g><g fill="#e1cef5"><path d="m382.747 469.355h-10.895c-5.522 0-10-4.477-10-10s4.478-10 10-10h10.895c5.522 0 10 4.477 10 10s-4.478 10-10 10z"/><path d="m418.882 453.549c-2.047 0-4.112-.626-5.892-1.926-4.459-3.258-5.434-9.514-2.176-13.974 3.573-4.891 5.462-10.671 5.462-16.715v-7.527c0-5.523 4.478-10 10-10s10 4.477 10 10v7.527c0 10.314-3.22 20.174-9.312 28.513-1.957 2.681-4.999 4.102-8.082 4.102z"/></g></g></svg>