<svg id="Capa_1" enable-background="new 0 0 502 502" height="512" viewBox="0 0 502 502" width="512" xmlns="http://www.w3.org/2000/svg" xmlns:xlink="http://www.w3.org/1999/xlink"><linearGradient id="lg1"><stop offset="0" stop-color="#7ed99e"/><stop offset=".2532" stop-color="#81daa3"/><stop offset=".5725" stop-color="#88ddb3"/><stop offset=".9261" stop-color="#95e2cd"/><stop offset="1" stop-color="#98e3d3"/></linearGradient><linearGradient id="SVGID_1_" gradientUnits="userSpaceOnUse" x1="160.332" x2="59.369" xlink:href="#lg1" y1="375.066" y2="375.066"/><linearGradient id="lg2"><stop offset="0" stop-color="#cdd4d4"/><stop offset="1" stop-color="#f3f3f3"/></linearGradient><linearGradient id="SVGID_2_" gradientUnits="userSpaceOnUse" x1="298.109" x2="298.109" xlink:href="#lg2" y1="366.654" y2="502"/><linearGradient id="SVGID_3_" gradientUnits="userSpaceOnUse" x1="298.075" x2="298.075" xlink:href="#lg2" y1="366.654" y2="473.087"/><linearGradient id="lg3"><stop offset="0" stop-color="#e08243"/><stop offset="1" stop-color="#f0bb78"/></linearGradient><linearGradient id="SVGID_4_" gradientUnits="userSpaceOnUse" x1="289.725" x2="350.12" xlink:href="#lg3" y1="481.918" y2="481.918"/><linearGradient id="SVGID_5_" gradientUnits="userSpaceOnUse" x1="208.971" x2="208.971" xlink:href="#lg2" y1="357.298" y2="478.952"/><linearGradient id="SVGID_6_" gradientUnits="userSpaceOnUse" x1="162.44" x2="211.429" xlink:href="#lg3" y1="476.516" y2="476.516"/><linearGradient id="SVGID_7_" gradientUnits="userSpaceOnUse" x1="344.257" x2="405.796" xlink:href="#lg2" y1="332.106" y2="332.106"/><linearGradient id="lg4"><stop offset="0" stop-color="#b39bdb"/><stop offset="1" stop-color="#d0c3e8"/></linearGradient><linearGradient id="SVGID_8_" gradientUnits="userSpaceOnUse" x1="147.657" x2="30.776" xlink:href="#lg4" y1="164.136" y2="164.136"/><linearGradient id="SVGID_9_" gradientUnits="userSpaceOnUse" x1="232.992" x2="232.992" xlink:href="#lg4" y1="91.812" y2="11.166"/><linearGradient id="SVGID_10_" gradientUnits="userSpaceOnUse" x1="323.552" x2="323.552" xlink:href="#lg2" y1="126.572" y2="45.889"/><linearGradient id="SVGID_11_" gradientUnits="userSpaceOnUse" x1="249.801" x2="249.801" xlink:href="#lg2" y1="274.909" y2="421.218"/><linearGradient id="lg5"><stop offset="0" stop-color="#d9e0e0"/><stop offset="1" stop-color="#f3f3f3"/></linearGradient><linearGradient id="SVGID_12_" gradientUnits="userSpaceOnUse" x1="214.672" x2="144.731" xlink:href="#lg5" y1="306.976" y2="306.976"/><linearGradient id="SVGID_13_" gradientUnits="userSpaceOnUse" x1="68.967" x2="68.967" xlink:href="#lg3" y1="342.229" y2="302.424"/><linearGradient id="SVGID_14_" gradientUnits="userSpaceOnUse" x1="69.539" x2="379.858" xlink:href="#lg5" y1="194.971" y2="194.971"/><linearGradient id="SVGID_15_" gradientUnits="userSpaceOnUse" x1="247.623" x2="347.194" y1="104.547" y2="104.547"><stop offset="0" stop-color="#f4d952"/><stop offset="1" stop-color="#f9edaf"/></linearGradient><linearGradient id="SVGID_16_" gradientUnits="userSpaceOnUse" x1="247.619" x2="327.145" y1="65.913" y2="65.913"><stop offset="0" stop-color="#ec6f80"/><stop offset="1" stop-color="#eca0aa"/></linearGradient><linearGradient id="SVGID_17_" gradientUnits="userSpaceOnUse" x1="263.214" x2="324.556" xlink:href="#lg1" y1="26.692" y2="26.692"/><linearGradient id="SVGID_18_" gradientUnits="userSpaceOnUse" x1="178.52" x2="178.52" xlink:href="#lg2" y1="177.587" y2="82.082"/><linearGradient id="SVGID_19_" gradientUnits="userSpaceOnUse" x1="435.034" x2="435.034" xlink:href="#lg3" y1="384.551" y2="335.277"/><g><path d="m170.543 423.687c27.463-12.806 39.345-45.451 26.538-72.914-12.806-27.463-45.451-39.345-72.914-26.538-23.667 11.036-37.426 38.117-64.767 39.506-9.516.483-15.225 10.877-10.089 18.903 30.315 47.377 85.882 57.527 121.232 41.043z" fill="url(#SVGID_1_)"/><g fill="#a7f2d2"><path d="m128.723 420.994c-.345 0-.693-.018-1.045-.054-2.803-.291-5.653-.734-8.471-1.316-5.409-1.119-8.886-6.41-7.768-11.818 1.119-5.409 6.41-8.887 11.818-7.768 2.164.448 4.346.787 6.485 1.009 5.493.57 9.484 5.485 8.915 10.979-.534 5.141-4.876 8.968-9.934 8.968z"/><path d="m85.073 403.033c-2.2 0-4.415-.723-6.263-2.21-5.359-4.313-10.299-9.253-14.683-14.685-3.468-4.298-2.796-10.594 1.502-14.063 4.299-3.468 10.595-2.794 14.063 1.502 3.487 4.322 7.409 8.246 11.657 11.664 4.303 3.462 4.984 9.757 1.522 14.06-1.977 2.455-4.874 3.732-7.798 3.732z"/></g><path d="m323.583 502c-15.97 0-28.037-14.324-25.426-29.984 2.197-13.174-7.046-36.288-40.322-58.073-11.896-7.788-15.227-23.745-7.439-35.642 7.788-11.896 23.746-15.228 35.642-7.439 8.183 5.357 23.951 16.721 37.613 32.644 20.887 24.342 29.634 50.96 25.297 76.977-2.1 12.592-13.008 21.517-25.365 21.517z" fill="url(#SVGID_2_)"/><path d="m298.422 466.693c19.411 9.823 38.275 7.767 51.54-2.339-.805-20.757-9.727-41.52-26.311-60.847-13.663-15.923-29.431-27.287-37.613-32.644-11.895-7.789-27.854-4.457-35.642 7.439s-4.457 27.854 7.439 35.642c29.161 19.09 39.864 39.201 40.587 52.749z" fill="url(#SVGID_3_)"/><path d="m298.422 466.693c.102 1.912.007 3.694-.265 5.323-2.611 15.66 9.456 29.984 25.426 29.984 12.356 0 23.265-8.924 25.364-21.516.894-5.359 1.223-10.745 1.014-16.13-14.73-3.974-35.058-3.281-51.539 2.339z" fill="url(#SVGID_4_)"/><path d="m177.769 451.036c12.439 16.71 24.74 25.48 43.216 27.916 24.488-35.323 22.631-64.663 10.551-103.54-4.22-13.579-18.648-21.168-32.225-16.947-13.579 4.219-21.166 18.647-16.947 32.225 8.861 28.517 9.706 40.854-4.595 60.346z" fill="url(#SVGID_5_)"/><path d="m177.769 451.036c-1.975 2.692-4.233 5.517-6.804 8.543-9.207 10.835-7.888 27.083 2.948 36.29 10.834 9.206 27.082 7.889 36.29-2.948 4.062-4.779 7.629-9.422 10.782-13.969-11.717-13.119-30.487-24.17-43.216-27.916z" fill="url(#SVGID_6_)"/><path d="m421.491 371.426c2.388-15.699 0-37.938-6.837-51.017-4.285.607-8.264.943-11.97 1.033-2.39.059-4.409-1.632-4.921-3.968-2.389-10.912-11.808-20.749-24.955-24.566-14.333-4.161-28.752.094-36.221 9.641-13.467-2.7-26.782 5.689-30.057 19.158-3.36 13.816 5.116 27.741 18.932 31.101 16.066 3.908 42.882 25.912 96.029 18.618z" fill="url(#SVGID_7_)"/><path d="m228.023 142.161c.126-40.119-32.663-74.063-72.783-74.072-40.216-.009-72.82 32.589-72.82 72.802 0 12.584-.123 37.554-19.995 49.154-18.495 10.796-18.62 37.671-.253 48.683 39.902 23.926 98.097 32.521 145.059 1.046 0 .001 20.559-23.518 20.792-97.613z" fill="url(#SVGID_8_)"/><circle cx="232.992" cy="85.02" fill="url(#SVGID_9_)" r="72.802"/><path d="m347.091 50.109c-21.317-7.759-56.942 24.248-66.318 62.112-5.453 22.02 5.783 37.879 27.1 45.638s40.119 2.832 50.096-17.541c17.156-35.033 10.439-82.45-10.878-90.209z" fill="url(#SVGID_10_)"/><path d="m303.963 255.354c66.276 64.358 57.61 129.633 39.256 148.98s-48.431 28.104-93.419 28.104-75.065-8.757-93.419-28.104-27.02-84.621 39.256-148.98z" fill="url(#SVGID_11_)"/><path d="m205.889 282.173c-8.343-8.941-21.561-10.606-31.711-4.726-2.288 1.326-5.161 1.221-7.243-.409-6.658-5.208-15.648-8.405-25.547-8.405-15.652 0-29.036 7.987-34.506 19.288-1.323 2.734-4.308 4.242-7.277 3.601-2.121-.458-4.216-.99-6.28-1.586-11.971 14.984-16.965 23.99-18.842 47.98 42.004 13.446 99.26 9.467 130.148-19.356 10.395-9.699 10.959-25.991 1.258-36.387z" fill="url(#SVGID_12_)"/><path d="m74.483 337.918c11.867-12.568 16.997-34.737 18.842-47.98-4.019-1.162-7.912-2.586-11.595-4.304-11.177-5.216-24.633-2.323-31.952 7.605-9.977 13.531-4.821 31.958 9.568 38.77 4.74 2.243 9.823 4.208 15.137 5.909z" fill="url(#SVGID_13_)"/><path d="m446.161 219.625c-2.894 55.294-44.751 85.297-155.224 85.297s-150.935-43.354-150.935-106.168 42.632-113.734 125.991-113.734 183.869 63.876 180.168 134.605z" fill="url(#SVGID_14_)"/><g><ellipse cx="221.049" cy="210.565" fill="#eaadcd" rx="14.925" ry="11.994"/><ellipse cx="396.68" cy="210.565" fill="#eaadcd" rx="14.925" ry="11.994"/><ellipse cx="371.093" cy="181.008" fill="#fff" rx="29.557" ry="29.557" transform="matrix(.16 -.987 .987 .16 132.98 518.316)"/><path d="m353.522 182.456c.755 9.046 8.331 16.153 17.572 16.153s16.817-7.108 17.572-16.153z" fill="#3b3b44"/><path d="m371.093 151.452c-16.324 0-29.557 13.233-29.557 29.557 0 .486.014.968.037 1.447h59.04c.023-.48.037-.962.037-1.447 0-16.324-13.233-29.557-29.557-29.557z" fill="#997bce"/><ellipse cx="246.635" cy="181.008" fill="#fff" rx="29.557" ry="29.557" transform="matrix(.16 -.987 .987 .16 28.457 395.464)"/><path d="m229.063 182.456c.755 9.046 8.331 16.153 17.572 16.153s16.817-7.108 17.572-16.153z" fill="#3b3b44"/><path d="m246.635 151.452c-16.324 0-29.557 13.233-29.557 29.557 0 .486.014.968.037 1.447h59.04c.023-.48.037-.962.037-1.447 0-16.324-13.233-29.557-29.557-29.557z" fill="#997bce"/><path d="m357.734 255.51c-1.825 0-3.654-.662-5.097-2-3.749-3.477-8.788-3.476-12.537 0-3.038 2.815-7.784 2.636-10.599-.401-2.816-3.038-2.637-7.783.401-10.599 9.541-8.847 23.392-8.846 32.933 0 3.038 2.816 3.217 7.561.401 10.599-1.478 1.594-3.487 2.401-5.502 2.401z" fill="#3b3b44"/></g><g><path d="m249.894 98.825c-1.457 14.436 15.155 29.066 37.966 33.089 23.489 4.142 44.652-4.534 47.269-19.377 1.592-9.028 2.122-21.111 1.631-34.012-30.966-5.885-55.294-1.466-86.866 20.3z" fill="url(#SVGID_15_)"/><path d="m282.837 101.186c-1.899-.937-3.362-1.909-4.369-2.738.245-1.032.529-2.114.831-3.22-9.705-.861-17.472-.66-29.404 3.596-1.059 10.49 7.419 21.082 20.888 27.633 8.326 4.049 18.217-1.022 19.825-10.139l.016-.091c1.093-6.196-2.145-12.256-7.787-15.041z" fill="#fcb500"/><path d="m330.856 33.344c-22.517-1.543-44.524 1.631-65.608 20.039-7.398 15.883-13.075 32.213-15.18 44.155-.076.429-.131.857-.174 1.287 26.219-1.881 56.437-7.464 86.866-20.3-.578-15.14-2.565-31.401-5.904-45.181z" fill="url(#SVGID_16_)"/><path d="m278.728 56.286c-7.115-2.825-15.19.585-18.113 7.659-5.099 12.336-8.907 24.294-10.547 33.593-.076.428-.129.857-.172 1.286 9.348-.67 19.211-1.824 29.404-3.596 1.665-6.091 4.161-13.215 7.19-20.551 2.984-7.229-.493-15.505-7.762-18.391z" fill="#e05d6f"/><path d="m330.856 33.344c-4.343-17.924-10.972-31.644-19.764-33.194-13.691-2.414-32.548 24.687-45.844 53.233 20.776-3.032 43.386-9.048 65.608-20.039z" fill="url(#SVGID_17_)"/></g><path d="m154.981 51.139c21.317-7.759 56.942 24.248 66.318 62.112 5.453 22.02-5.783 37.879-27.1 45.638s-40.119 2.832-50.096-17.541c-17.155-35.033-10.439-82.45 10.878-90.209z" fill="url(#SVGID_18_)"/><path d="m425.505 318.41c-3.841.865-7.44 1.516-10.852 2-3.764 12.884-2.501 35.873 6.837 51.017 5.05-.693 10.331-1.644 15.87-2.907 13.732-3.127 22.418-16.733 19.447-30.52-3.001-13.925-17.405-22.72-31.302-19.59z" fill="url(#SVGID_19_)"/><path d="m348.808 352.957c-2.783-4.771-8.907-6.383-13.676-3.599-4.594 2.679-12.231 4.5-17.342 2.599-1.415-.526-3.341-1.567-4.834-4.507 2.202-11.489.836-23.054-.146-26.47-1.526-5.308-7.071-8.375-12.374-6.848-5.265 1.514-8.324 6.977-6.884 12.246.785 3.558 1.402 18.058-2.911 24.96-3.042 4.866-25.856 4.557-41.547-2.16-5.077-2.174-10.955.181-13.128 5.258-2.173 5.078.181 10.955 5.258 13.128 7.055 3.02 21.796 7.04 35.97 7.04 10.054 0 19.82-2.028 26.354-7.868 11.677 8.818 29.116 7.217 41.662-.102 4.769-2.783 6.38-8.906 3.598-13.677z" fill="#c9d0d6"/></g></svg>