<svg id="Capa_1" enable-background="new 0 0 502 502" height="512" viewBox="0 0 502 502" width="512" xmlns="http://www.w3.org/2000/svg" xmlns:xlink="http://www.w3.org/1999/xlink"><linearGradient id="lg1"><stop offset="0" stop-color="#7ed99e"/><stop offset=".2532" stop-color="#81daa3"/><stop offset=".5725" stop-color="#88ddb3"/><stop offset=".9261" stop-color="#95e2cd"/><stop offset="1" stop-color="#98e3d3"/></linearGradient><linearGradient id="SVGID_1_" gradientUnits="userSpaceOnUse" x1="123.763" x2="22.799" xlink:href="#lg1" y1="361.164" y2="361.164"/><linearGradient id="lg2"><stop offset="0" stop-color="#cdd4d4"/><stop offset="1" stop-color="#f3f3f3"/></linearGradient><linearGradient id="SVGID_2_" gradientUnits="userSpaceOnUse" x1="176.406" x2="176.406" xlink:href="#lg2" y1="357.307" y2="474.887"/><linearGradient id="lg3"><stop offset="0" stop-color="#e08243"/><stop offset="1" stop-color="#f0bb78"/></linearGradient><linearGradient id="SVGID_3_" gradientUnits="userSpaceOnUse" x1="142.259" x2="195.121" xlink:href="#lg3" y1="483.503" y2="483.503"/><linearGradient id="SVGID_4_" gradientUnits="userSpaceOnUse" x1="258.796" x2="258.796" xlink:href="#lg2" y1="357.307" y2="474.887"/><linearGradient id="SVGID_5_" gradientUnits="userSpaceOnUse" x1="224.649" x2="277.511" xlink:href="#lg3" y1="483.503" y2="483.503"/><linearGradient id="SVGID_6_" gradientUnits="userSpaceOnUse" x1="318.315" x2="354.294" xlink:href="#lg2" y1="342.793" y2="342.793"/><linearGradient id="lg4"><stop offset="0" stop-color="#b39bdb"/><stop offset="1" stop-color="#d0c3e8"/></linearGradient><linearGradient id="SVGID_7_" gradientUnits="userSpaceOnUse" x1="120.191" x2="3.309" xlink:href="#lg4" y1="164.136" y2="164.136"/><linearGradient id="SVGID_8_" gradientUnits="userSpaceOnUse" x1="205.526" x2="205.526" xlink:href="#lg4" y1="91.812" y2="11.166"/><linearGradient id="SVGID_9_" gradientUnits="userSpaceOnUse" x1="296.087" x2="296.087" xlink:href="#lg2" y1="126.573" y2="45.889"/><linearGradient id="lg5"><stop offset="0" stop-color="#f4d952"/><stop offset="1" stop-color="#f9edaf"/></linearGradient><linearGradient id="SVGID_10_" gradientUnits="userSpaceOnUse" x1="308.363" x2="392.572" xlink:href="#lg5" y1="378.203" y2="378.203"/><linearGradient id="SVGID_11_" gradientUnits="userSpaceOnUse" x1="222.335" x2="222.335" xlink:href="#lg2" y1="245.979" y2="414.775"/><linearGradient id="lg6"><stop offset="0" stop-color="#d9e0e0"/><stop offset="1" stop-color="#f3f3f3"/></linearGradient><linearGradient id="SVGID_12_" gradientUnits="userSpaceOnUse" x1="42.072" x2="352.393" xlink:href="#lg6" y1="194.972" y2="194.972"/><linearGradient id="SVGID_13_" gradientUnits="userSpaceOnUse" x1="220.157" x2="319.728" xlink:href="#lg5" y1="104.548" y2="104.548"/><linearGradient id="SVGID_14_" gradientUnits="userSpaceOnUse" x1="220.153" x2="299.68" y1="65.914" y2="65.914"><stop offset="0" stop-color="#ec6f80"/><stop offset="1" stop-color="#eca0aa"/></linearGradient><linearGradient id="SVGID_15_" gradientUnits="userSpaceOnUse" x1="235.748" x2="297.091" xlink:href="#lg1" y1="26.692" y2="26.692"/><linearGradient id="SVGID_16_" gradientUnits="userSpaceOnUse" x1="151.054" x2="151.054" xlink:href="#lg2" y1="177.588" y2="82.082"/><linearGradient id="SVGID_17_" gradientUnits="userSpaceOnUse" x1="220.61" x2="220.61" xlink:href="#lg6" y1="369.295" y2="323.544"/><linearGradient id="SVGID_18_" gradientUnits="userSpaceOnUse" x1="280.652" x2="280.652" xlink:href="#lg3" y1="357.343" y2="305.7"/><g><path d="m357.087 141.992c-2.943 0-5.886-1.123-8.132-3.368-4.491-4.491-4.491-11.772 0-16.264l59.815-59.816c2.157-2.157 5.082-3.368 8.132-3.368h63.864c6.351 0 11.5 5.149 11.5 11.5s-5.149 11.5-11.5 11.5h-59.1l-56.447 56.447c-2.246 2.247-5.189 3.369-8.132 3.369z" fill="#05c95a"/><path d="m133.973 409.786c27.463-12.806 39.345-45.451 26.539-72.914s-45.451-39.345-72.914-26.539c-23.668 11.036-37.427 38.117-64.768 39.506-9.516.483-15.225 10.877-10.089 18.903 30.315 47.377 85.882 57.528 121.232 41.044z" fill="url(#SVGID_1_)"/><g fill="#a7f2d2"><path d="m92.153 407.093c-.345 0-.693-.018-1.043-.054-4.21-.436-8.502-1.214-12.758-2.312-5.348-1.379-8.565-6.833-7.186-12.18 1.379-5.348 6.835-8.566 12.18-7.186 3.296.85 6.602 1.451 9.826 1.785 5.494.57 9.485 5.485 8.915 10.978-.533 5.142-4.875 8.969-9.934 8.969z"/><path d="m48.502 389.131c-2.2 0-4.416-.723-6.263-2.21-5.36-4.314-10.3-9.254-14.682-14.685-3.468-4.298-2.795-10.594 1.502-14.062 4.299-3.468 10.595-2.794 14.062 1.503 3.486 4.32 7.408 8.244 11.657 11.663 4.303 3.462 4.983 9.757 1.521 14.06-1.975 2.455-4.873 3.731-7.797 3.731z"/></g><path d="m151.585 466.328c16.692 11.456 37.036 10.185 51.383 3.366 2.412-36.62.501-54.872-2.833-89.122-1.371-14.153-13.954-24.512-28.108-23.145-14.153 1.371-24.515 13.955-23.145 28.108 3.135 32.187 4.839 48.217 2.703 80.793z" fill="url(#SVGID_2_)"/><path d="m151.585 466.328c-.167 2.541-.354 5.171-.568 7.929-1.161 14.934 10.63 27.743 25.697 27.743 13.313 0 24.59-10.253 25.64-23.75.231-2.969.434-5.808.615-8.555-13.717-5.487-38.593-5.506-51.384-3.367z" fill="url(#SVGID_3_)"/><path d="m233.976 466.328c16.692 11.456 37.036 10.185 51.383 3.366 2.412-36.62.502-54.872-2.833-89.122-1.371-14.153-13.953-24.512-28.108-23.145-14.153 1.371-24.515 13.955-23.145 28.108 3.134 32.187 4.838 48.217 2.703 80.793z" fill="url(#SVGID_4_)"/><path d="m233.976 466.328c-.166 2.541-.354 5.171-.568 7.929-1.162 14.934 10.629 27.743 25.696 27.743 13.313 0 24.59-10.253 25.64-23.75.231-2.969.434-5.808.615-8.555-13.717-5.487-38.593-5.506-51.383-3.367z" fill="url(#SVGID_5_)"/><path d="m329.76 385.012c-14.674-26.508-24.445-39.81-43.563-48.556-12.93-5.915-18.617-21.193-12.702-34.123 5.915-12.931 21.194-18.618 34.123-12.701 34.874 15.954 51.682 42.425 67.191 70.443 6.887 12.441 2.384 28.108-10.056 34.994s-28.107 2.384-34.993-10.057z" fill="url(#SVGID_6_)"/><path d="m200.557 142.162c.126-40.119-32.664-74.063-72.783-74.073-40.216-.009-72.82 32.589-72.82 72.803 0 12.584-.123 37.554-19.995 49.154-18.495 10.796-18.62 37.671-.254 48.683 39.902 23.926 98.098 32.521 145.06 1.046 0 .001 20.559-23.518 20.792-97.613z" fill="url(#SVGID_7_)"/><circle cx="205.526" cy="85.02" fill="url(#SVGID_8_)" r="72.803"/><path d="m319.625 50.109c-21.317-7.759-56.942 24.248-66.318 62.112-5.453 22.02 5.783 37.88 27.101 45.638 21.317 7.759 40.119 2.832 50.096-17.541 17.156-35.032 10.439-82.45-10.879-90.209z" fill="url(#SVGID_9_)"/><path d="m321.607 424.137-23.308-23.308c-9.333-9.333-9.333-24.465 0-33.799l34.76-34.76c9.333-9.333 24.465-9.333 33.799 0l23.308 23.308c9.333 9.333 9.333 24.465 0 33.799l-34.76 34.76c-9.333 9.333-24.465 9.333-33.799 0z" fill="url(#SVGID_10_)"/><path d="m315.754 404.336c-2.254 2.375-4.686 4.589-7.299 6.649l13.152 13.152c3.024 3.024 6.659 5.052 10.506 6.116 1.864-1.69 3.67-3.441 5.405-5.27 10.637-11.213 17.626-27.724 20.243-46.542 1.291-9.284-6.198-17.454-15.56-17.002-7.17.346-13.116 5.732-14.094 12.843-1.86 13.533-6.634 24.025-12.353 30.054z" fill="#fcb500"/><path d="m276.498 255.355c66.277 64.359 57.61 129.634 39.256 148.98-18.354 19.347-48.431 28.104-93.419 28.104s-75.066-8.757-93.419-28.104c-18.354-19.347-27.021-84.622 39.256-148.98z" fill="url(#SVGID_11_)"/><path d="m418.696 219.627c-2.894 55.294-44.751 85.297-155.225 85.297s-150.936-43.355-150.936-106.169 42.633-113.735 125.992-113.735 183.871 63.877 180.169 134.607z" fill="url(#SVGID_12_)"/><g><path d="m222.428 98.825c-1.457 14.436 15.155 29.066 37.966 33.089 23.489 4.142 44.652-4.534 47.27-19.377 1.592-9.028 2.122-21.112 1.631-34.012-30.966-5.885-55.295-1.465-86.867 20.3z" fill="url(#SVGID_13_)"/><path d="m255.372 101.186c-1.899-.937-3.362-1.909-4.369-2.738.245-1.032.529-2.115.831-3.22-9.705-.86-17.473-.66-29.404 3.596-1.059 10.49 7.419 21.082 20.889 27.633 8.326 4.049 18.217-1.022 19.825-10.139l.016-.091c1.092-6.196-2.146-12.256-7.788-15.041z" fill="#fcb500"/><path d="m303.391 33.344c-22.518-1.543-44.524 1.631-65.609 20.039-7.398 15.883-13.075 32.213-15.181 44.155-.076.428-.131.857-.174 1.287 26.22-1.881 56.437-7.464 86.866-20.3-.576-15.14-2.563-31.401-5.902-45.181z" fill="url(#SVGID_14_)"/><path d="m251.262 56.286c-7.115-2.825-15.19.585-18.114 7.659-5.099 12.336-8.907 24.294-10.547 33.593-.076.428-.129.858-.172 1.286 9.348-.67 19.211-1.824 29.404-3.597 1.665-6.091 4.161-13.215 7.19-20.551 2.985-7.228-.491-15.504-7.761-18.39z" fill="#e05d6f"/><path d="m303.391 33.344c-4.343-17.924-10.972-31.644-19.764-33.194-13.691-2.414-32.549 24.687-45.845 53.233 20.776-3.031 43.387-9.048 65.609-20.039z" fill="url(#SVGID_15_)"/></g><path d="m127.515 51.139c21.317-7.759 56.942 24.248 66.318 62.112 5.453 22.02-5.783 37.88-27.101 45.638-21.317 7.759-40.119 2.832-50.096-17.541-17.155-35.032-10.438-82.45 10.879-90.209z" fill="url(#SVGID_16_)"/><path d="m280.277 350.664c-5.356-17.532-11.763-32.965-26.067-44.653-19.517 8.613-37.729 9.756-62.222 4.609-13.916-2.924-27.566 5.985-30.49 19.901-2.924 13.915 5.985 27.566 19.9 30.49 36.813 7.737 67.271 4.933 98.879-10.347z" fill="url(#SVGID_17_)"/><g><path d="m207.276 210.9c0 6.827-6.887 12.362-15.382 12.362s-15.382-5.534-15.382-12.362c0-6.827 6.887-12.361 15.382-12.361 8.495-.001 15.382 5.534 15.382 12.361z" fill="#eaadcd"/><path d="m388.291 210.9c0 6.827-6.887 12.362-15.382 12.362s-15.382-5.534-15.382-12.362c0-6.827 6.887-12.361 15.382-12.361s15.382 5.534 15.382 12.361z" fill="#eaadcd"/><ellipse cx="218.265" cy="180.398" fill="#fff" rx="30.501" ry="30.501" transform="matrix(.921 -.39 .39 .921 -53.063 99.379)"/><path d="m248.766 180.398c0 10.04-8.139 18.179-18.179 18.179s-18.179-8.139-18.179-18.179 8.139-18.179 18.179-18.179 18.179 8.139 18.179 18.179z" fill="#3b3b44"/><ellipse cx="346.538" cy="180.398" fill="#fff" rx="30.501" ry="30.501" transform="matrix(.934 -.358 .358 .934 -41.634 136.183)"/><g fill="#3b3b44"><path d="m376.975 180.398c0 10.04-8.139 18.179-18.179 18.179s-18.179-8.139-18.179-18.179 8.139-18.179 18.179-18.179c10.041 0 18.179 8.139 18.179 18.179z"/><ellipse cx="319.513" cy="247.962" rx="13.647" ry="17.87"/></g></g><path d="m476.644 143.833-10.379-14.754 8.398-11.922c3.658-5.192 2.414-12.367-2.778-16.024-5.193-3.658-12.367-2.414-16.024 2.778l-3.653 5.185-3.643-5.179c-3.655-5.195-10.829-6.443-16.022-2.789-5.195 3.654-6.443 10.828-2.789 16.023l8.384 11.918-10.396 14.757c-3.658 5.192-2.414 12.367 2.778 16.024 5.236 3.688 12.397 2.37 16.024-2.778l5.65-8.02 5.638 8.014c3.655 5.195 10.828 6.443 16.022 2.789 5.196-3.654 6.445-10.827 2.79-16.022z" fill="#e05d6f"/><path d="m467.239 312.994h-57.711c-6.351 0-11.5-5.149-11.5-11.5s5.149-11.5 11.5-11.5h57.711c6.351 0 11.5 5.149 11.5 11.5s-5.149 11.5-11.5 11.5z" fill="#71c4d1"/><path d="m67.492 31.317h-1.082c2.631-3.866 5.58-6.973 9.282-8.909 5.628-2.943 7.805-9.892 4.862-15.52-2.943-5.629-9.892-7.805-15.519-4.862-14.641 7.656-21.243 21.424-27.627 34.74-4.656 9.71-9.054 18.883-16.312 25.289-4.762 4.203-5.215 11.47-1.012 16.232 4.197 4.755 11.464 5.22 16.232 1.012 8.297-7.323 13.69-16.294 18.106-24.981h13.071c6.351 0 11.5-5.149 11.5-11.5s-5.15-11.501-11.501-11.501z" fill="#71c4d1"/><path d="m443.822 266.919c-6.351 0-11.5-5.149-11.5-11.5v-14.913c0-6.351 5.149-11.5 11.5-11.5s11.5 5.149 11.5 11.5v14.913c0 6.351-5.149 11.5-11.5 11.5z" fill="#05c95a"/><path d="m70.875 122.244h-4.982v-23.419c0-6.351-5.149-11.5-11.5-11.5s-11.5 5.149-11.5 11.5v23.419h-4.982c-15.537 0-28.177 12.641-28.177 28.178v32.964c0 15.537 12.64 28.177 28.177 28.177h32.964c15.537 0 28.178-12.64 28.178-28.177v-32.964c0-15.537-12.641-28.178-28.178-28.178zm5.178 61.142c0 2.854-2.323 5.177-5.178 5.177h-32.964c-2.854 0-5.177-2.323-5.177-5.177v-32.964c0-2.855 2.323-5.178 5.177-5.178h32.964c2.855 0 5.178 2.323 5.178 5.178z" fill="#ffe05c"/><path d="m303.492 307.749c-7.25-12.232-23.043-16.272-35.275-9.022-4.805 2.848-9.442 5.269-14.007 7.284 2.065 15.454 11.45 38.413 26.067 44.653 4.697-2.271 9.42-4.811 14.193-7.64 12.232-7.249 16.271-23.042 9.022-35.275z" fill="url(#SVGID_18_)"/></g></svg>