<svg id="Capa_1" enable-background="new 0 0 502 502" height="512" viewBox="0 0 502 502" width="512" xmlns="http://www.w3.org/2000/svg" xmlns:xlink="http://www.w3.org/1999/xlink"><linearGradient id="lg1"><stop offset="0" stop-color="#cdd4d4"/><stop offset="1" stop-color="#f3f3f3"/></linearGradient><linearGradient id="SVGID_1_" gradientUnits="userSpaceOnUse" x1="412.8" x2="412.8" xlink:href="#lg1" y1="224.069" y2="148.004"/><linearGradient id="lg2"><stop offset="0" stop-color="#d5738e"/><stop offset="1" stop-color="#e6a3c1"/></linearGradient><linearGradient id="SVGID_2_" gradientTransform="matrix(-1 -.003 -.003 1 1567.742 4.828)" gradientUnits="userSpaceOnUse" x1="1179.989" x2="1109.856" xlink:href="#lg2" y1="211.117" y2="211.117"/><linearGradient id="SVGID_3_" gradientTransform="matrix(-1 0 0 1 502.001 0)" gradientUnits="userSpaceOnUse" x1="412.8" x2="412.8" xlink:href="#lg1" y1="224.069" y2="148.004"/><linearGradient id="SVGID_4_" gradientTransform="matrix(1 -.003 .003 1 -1065.742 4.828)" gradientUnits="userSpaceOnUse" x1="1179.988" x2="1109.856" xlink:href="#lg2" y1="211.117" y2="211.117"/><linearGradient id="SVGID_5_" gradientUnits="userSpaceOnUse" x1="237.573" x2="237.644" y1="118.098" y2="118.098"><stop offset="0" stop-color="#74d2e8"/><stop offset="1" stop-color="#baeaf5"/></linearGradient><linearGradient id="SVGID_6_" gradientUnits="userSpaceOnUse" x1="259.608" x2="259.608" y1="251.444" y2="89.643"><stop offset="0" stop-color="#b39bdb"/><stop offset="1" stop-color="#d0c3e8"/></linearGradient><linearGradient id="lg3"><stop offset="0" stop-color="#f4d952"/><stop offset="1" stop-color="#f9edaf"/></linearGradient><linearGradient id="SVGID_7_" gradientUnits="userSpaceOnUse" x1="251" x2="251" xlink:href="#lg3" y1="356.58" y2="205.391"/><linearGradient id="lg4"><stop offset="0" stop-color="#7ed99e"/><stop offset=".2532" stop-color="#81daa3"/><stop offset=".5725" stop-color="#88ddb3"/><stop offset=".9261" stop-color="#95e2cd"/><stop offset="1" stop-color="#98e3d3"/></linearGradient><linearGradient id="SVGID_8_" gradientUnits="userSpaceOnUse" x1="251" x2="251" xlink:href="#lg4" y1="518.061" y2="293.132"/><linearGradient id="SVGID_9_" gradientTransform="matrix(1 .003 -.003 1 1.84 -1.195)" gradientUnits="userSpaceOnUse" x1="249.624" x2="249.624" xlink:href="#lg3" y1="172.387" y2="93.305"/><linearGradient id="SVGID_10_" gradientTransform="matrix(1 .003 -.003 1 1.84 -1.195)" gradientUnits="userSpaceOnUse" x1="191.929" x2="307.735" y1="85.309" y2="85.309"><stop offset="0" stop-color="#ec6f80"/><stop offset="1" stop-color="#eca0aa"/></linearGradient><linearGradient id="SVGID_11_" gradientTransform="matrix(1 .003 -.003 1 1.84 -1.195)" gradientUnits="userSpaceOnUse" x1="210.663" x2="272.656" xlink:href="#lg4" y1="39.005" y2="39.005"/><g><g><path d="m375.29 235.179c-16.01-15.063-20.146-33.822-7.43-52.604 23.091-34.105 70.059-52.839 88.356-37.381 6.91 5.837 9.689 16.523 8.876 29.093-27.278 34.479-68.047 58.161-89.802 60.892z" fill="url(#SVGID_1_)"/><path d="m378.083 237.677c-.97-.82-1.897-1.655-2.793-2.499 20.4-40.529 61.528-56.521 89.802-60.892-1.34 20.715-12.446 46.551-30.973 64.266-17.312 16.553-37.739 14.583-56.036-.875z" fill="url(#SVGID_2_)"/></g><g><path d="m126.711 235.179c16.011-15.063 20.146-33.822 7.43-52.604-23.091-34.105-70.059-52.839-88.356-37.381-6.91 5.837-9.689 16.523-8.876 29.093 27.277 34.479 68.046 58.161 89.802 60.892z" fill="url(#SVGID_3_)"/><path d="m123.917 237.677c.971-.82 1.896-1.655 2.793-2.499-20.4-40.529-61.528-56.521-89.802-60.892 1.34 20.715 12.446 46.551 30.973 64.266 17.312 16.553 37.739 14.583 56.036-.875z" fill="url(#SVGID_4_)"/></g><path d="m237.573 118.084c.024.01.048.02.071.029-.023-.01-.047-.019-.071-.029z" fill="url(#SVGID_5_)"/><path d="m348.892 242.37c38.218-23.781 61.302-79.727 33.323-137.765-14.857-30.819-57.016-36.355-79.134-10.253-8.993 10.613-19.99 17.124-26.645 20.723-12.568 6.799-41.604 5.347-48.473 2.941-38.388-15.566-82.164 2.862-97.843 41.246-16.107 39.429 4.59 84.174 44.404 99.304 22.806 8.667 50.101 12.383 74.094 11.989 36.663-.59 57.9-1.818 100.274-28.185z" fill="url(#SVGID_6_)"/><path d="m251 391.104c-61.037 0-114.119-17.968-162.28-54.931-32.939-25.28-39.148-72.476-13.868-105.415s72.478-39.148 105.415-13.868c21.492 16.495 43.306 23.85 70.732 23.85 27.425 0 49.24-7.355 70.732-23.85 32.941-25.28 80.137-19.069 105.415 13.869 25.28 32.939 19.071 80.135-13.868 105.415-48.161 36.963-101.242 54.93-162.278 54.93z" fill="url(#SVGID_7_)"/><path d="m230.572 329.078c1.139-11.715-7.575-22.106-19.313-22.968-79.729-5.855-91.806-28.743-136.073-28.743-5.358 0-10.643.381-15.838 1.082.379 14.491 4.923 28.786 13.385 40.967 8.454-.278 24.727 17.258 33.238 20.011 22.163 7.17 45.441 23.249 102.115 8.556 11.389.84 21.381-7.538 22.486-18.905z" fill="#fcb500"/><path d="m251 499.831c-115.978 0-169.372-24.161-198.937-33.727-39.507-12.78-61.173-55.166-48.393-94.673 12.78-39.506 55.166-61.175 94.672-48.393 26.85 8.687 61.24 26.428 152.658 26.428 90.919 0 125.051-17.497 152.658-26.428 39.504-12.779 81.893 8.886 94.673 48.393 12.779 39.507-8.888 81.893-48.394 94.672-25.5 8.249-80.624 33.728-198.937 33.728z" fill="url(#SVGID_8_)"/><g fill="#a7f2d2"><path d="m394.092 462.85c-4.384 0-8.406-2.905-9.632-7.336-1.473-5.323 1.648-10.832 6.972-12.304 11.168-3.089 20.277-6.15 26.966-8.472 5.214-1.813 10.915.95 12.727 6.168 1.811 5.217-.95 10.915-6.168 12.726-6.971 2.42-16.475 5.613-28.192 8.855-.893.245-1.79.363-2.673.363z"/><path d="m458.088 437.142c-2.621 0-5.238-1.024-7.201-3.061-3.833-3.977-3.716-10.307.261-14.14 2.134-2.056 4.007-4.383 5.568-6.917 2.896-4.702 9.055-6.166 13.76-3.268 4.701 2.897 6.165 9.058 3.268 13.759-2.442 3.963-5.375 7.606-8.717 10.827-1.941 1.87-4.442 2.8-6.939 2.8z"/></g><g><path d="m198.898 132.195c1.236 17.48 24.016 31.474 51.992 31.568 28.807.096 52.209-14.582 52.27-32.786.037-11.072-1.818-25.562-5.057-40.814-38.064-.632-66.109 9.633-99.205 42.032z" fill="url(#SVGID_9_)"/><path d="m281.781 37.608c-27.116 2.796-52.653 11.101-73.959 37.347-5.537 20.425-8.933 41.027-8.982 55.673-.002.526.021 1.047.057 1.567 30.818-7.633 65.632-20.494 99.204-42.031-3.8-17.9-9.511-36.844-16.32-52.556z" fill="url(#SVGID_10_)"/><path d="m281.781 37.608c-8.857-20.438-19.569-35.403-30.351-35.439-16.791-.056-33.658 36.077-43.608 72.786 24.102-7.882 49.774-19.695 73.959-37.347z" fill="url(#SVGID_11_)"/></g><g><ellipse cx="163.114" cy="434.216" fill="#ff8392" rx="14.936" ry="12.003"/><ellipse cx="338.886" cy="434.216" fill="#ff8392" rx="14.936" ry="12.003"/><circle cx="188.721" cy="404.598" fill="#fff" r="29.618"/><circle cx="313.279" cy="404.598" fill="#fff" r="29.618"/><g fill="#3b3b44"><g><circle cx="188.721" cy="404.598" r="17.652"/><circle cx="313.279" cy="404.598" r="17.652"/></g><path d="m251 435.158c-5.248 0-10.495-1.984-14.776-5.954-2.025-1.877-2.145-5.041-.267-7.066s5.041-2.145 7.066-.267c4.697 4.354 11.256 4.354 15.954 0 2.023-1.876 5.188-1.759 7.065.267 1.878 2.025 1.759 5.188-.267 7.066-4.28 3.969-9.528 5.954-14.775 5.954z"/></g></g><path d="m246.274 219.002c1.143-10.276-5.341-19.961-15.347-22.564-8.807-2.29-16.676-6.411-25.087-12.866-22.302-17.118-49.219-25.112-75.784-24.141-5.677 13.994-6.708 28.645-3.917 42.404 18.639-2.088 38.076 2.733 54.129 15.054 12.757 9.791 25.634 16.353 39.73 20.07 12.416 3.276 24.856-5.195 26.276-17.957z" fill="#997bce"/></g></svg>