<svg id="Capa_1" enable-background="new 0 0 502 502" height="512" viewBox="0 0 502 502" width="512" xmlns="http://www.w3.org/2000/svg" xmlns:xlink="http://www.w3.org/1999/xlink"><linearGradient id="lg1"><stop offset="0" stop-color="#ec6f80"/><stop offset="1" stop-color="#eca0aa"/></linearGradient><linearGradient id="SVGID_1_" gradientUnits="userSpaceOnUse" x1="109.766" x2="11.651" xlink:href="#lg1" y1="358.054" y2="358.054"/><linearGradient id="lg2"><stop offset="0" stop-color="#d9e0e0"/><stop offset="1" stop-color="#f3f3f3"/></linearGradient><linearGradient id="SVGID_2_" gradientUnits="userSpaceOnUse" x1="239.757" x2="239.757" xlink:href="#lg2" y1="363.391" y2="494.831"/><linearGradient id="lg3"><stop offset="0" stop-color="#cdd4d4"/><stop offset="1" stop-color="#f3f3f3"/></linearGradient><linearGradient id="SVGID_3_" gradientUnits="userSpaceOnUse" x1="239.421" x2="239.421" xlink:href="#lg3" y1="363.391" y2="466.923"/><linearGradient id="lg4"><stop offset="0" stop-color="#e08243"/><stop offset="1" stop-color="#f0bb78"/></linearGradient><linearGradient id="SVGID_4_" gradientUnits="userSpaceOnUse" x1="222.608" x2="271.178" xlink:href="#lg4" y1="475.713" y2="475.713"/><linearGradient id="SVGID_5_" gradientUnits="userSpaceOnUse" x1="161.784" x2="161.784" xlink:href="#lg3" y1="354.306" y2="467.195"/><linearGradient id="SVGID_6_" gradientUnits="userSpaceOnUse" x1="124.252" x2="170.847" xlink:href="#lg4" y1="475.156" y2="475.156"/><linearGradient id="SVGID_7_" gradientUnits="userSpaceOnUse" x1="295.896" x2="353.428" xlink:href="#lg3" y1="331.916" y2="331.916"/><linearGradient id="SVGID_8_" gradientUnits="userSpaceOnUse" x1="370.637" x2="370.637" xlink:href="#lg4" y1="379.955" y2="354.409"/><linearGradient id="SVGID_9_" gradientUnits="userSpaceOnUse" x1="387.664" x2="387.664" xlink:href="#lg1" y1="422.716" y2="229.977"/><linearGradient id="SVGID_10_" gradientUnits="userSpaceOnUse" x1="106.295" x2="-7.29" xlink:href="#lg1" y1="166.584" y2="166.584"/><linearGradient id="SVGID_11_" gradientUnits="userSpaceOnUse" x1="189.223" x2="189.223" xlink:href="#lg1" y1="96.301" y2="17.929"/><linearGradient id="SVGID_12_" gradientUnits="userSpaceOnUse" x1="303.873" x2="303.873" xlink:href="#lg3" y1="130.081" y2="51.673"/><linearGradient id="SVGID_13_" gradientUnits="userSpaceOnUse" x1="205.557" x2="205.557" xlink:href="#lg3" y1="246.118" y2="410.152"/><linearGradient id="SVGID_14_" gradientUnits="userSpaceOnUse" x1="30.38" x2="331.946" xlink:href="#lg2" y1="196.55" y2="196.55"/><linearGradient id="lg5"><stop offset="0" stop-color="#dd5c6e"/><stop offset="1" stop-color="#ec8290"/></linearGradient><linearGradient id="SVGID_15_" gradientUnits="userSpaceOnUse" x1="203.441" x2="300.203" xlink:href="#lg5" y1="108.677" y2="108.677"/><linearGradient id="SVGID_16_" gradientUnits="userSpaceOnUse" x1="203.437" x2="280.72" xlink:href="#lg1" y1="71.133" y2="71.133"/><linearGradient id="SVGID_17_" gradientUnits="userSpaceOnUse" x1="218.592" x2="278.204" xlink:href="#lg5" y1="33.017" y2="33.017"/><linearGradient id="SVGID_18_" gradientUnits="userSpaceOnUse" x1="134.286" x2="134.286" xlink:href="#lg3" y1="179.656" y2="86.845"/><linearGradient id="SVGID_19_" gradientUnits="userSpaceOnUse" x1="103.17" x2="103.17" xlink:href="#lg2" y1="352.582" y2="312.036"/><linearGradient id="SVGID_20_" gradientUnits="userSpaceOnUse" x1="22.97" x2="59.777" xlink:href="#lg4" y1="282.49" y2="282.49"/><g><path d="m119.688 405.303c26.688-12.445 38.235-44.169 25.79-70.857s-44.169-38.235-70.857-25.79c-23 10.725-36.37 37.042-62.94 38.392-9.248.47-14.795 10.57-9.804 18.37 29.459 46.041 83.458 55.904 117.811 39.885z" fill="url(#SVGID_1_)"/><g fill="#ffccd3"><path d="m79.048 402.969c-.345 0-.692-.018-1.044-.054-4.105-.426-8.29-1.185-12.438-2.254-5.348-1.379-8.565-6.833-7.187-12.18 1.379-5.347 6.827-8.567 12.181-7.186 3.189.822 6.389 1.403 9.509 1.727 5.493.57 9.484 5.485 8.914 10.979-.534 5.141-4.876 8.968-9.935 8.968z"/><path d="m36.629 385.514c-2.201 0-4.416-.723-6.264-2.21-5.226-4.205-10.04-9.021-14.31-14.314-3.469-4.298-2.796-10.594 1.503-14.063 4.295-3.467 10.594-2.796 14.062 1.503 3.375 4.183 7.172 7.981 11.285 11.292 4.303 3.462 4.983 9.757 1.522 14.06-1.977 2.456-4.875 3.732-7.798 3.732z"/></g><path d="m252.447 494.831c-13.817 0-25.02-11.202-25.02-25.02 0-22.739-11.352-54.66-16.548-62.318-9.505-8.044-11.739-22.099-4.745-32.783 7.568-11.561 23.077-14.798 34.637-7.229 3.662 2.398 14.808 9.695 26.285 44.689 6.616 20.17 10.409 41.179 10.409 57.641.002 13.818-11.2 25.02-25.018 25.02z" fill="url(#SVGID_2_)"/><path d="m227.169 463.577c14.165 6.223 36.347 3.618 49.627-6.591-1.358-13.871-4.742-29.581-9.739-44.816-11.477-34.995-22.623-42.291-26.285-44.689-11.561-7.569-27.069-4.332-34.637 7.229-6.994 10.685-4.76 24.74 4.745 32.784 4.736 6.979 14.582 34.114 16.289 56.083z" fill="url(#SVGID_3_)"/><path d="m277.467 469.811c0-4.028-.23-8.332-.67-12.825-15.687-1.665-38.379 2.275-49.627 6.591.166 2.134.259 4.221.259 6.234 0 13.818 11.202 25.02 25.02 25.02 13.816 0 25.018-11.202 25.018-25.02z" fill="url(#SVGID_4_)"/><path d="m133.937 455.54c13.53 11.811 34.864 13.759 49.134 9.779 9.537-38.54 5.864-56.481 5.864-85.993 0-13.818-11.202-25.02-25.02-25.02-13.817 0-25.019 11.202-25.019 25.02 0 31.532 3.429 43.639-4.959 76.214z" fill="url(#SVGID_5_)"/><path d="m149.104 493.956c13.286 3.789 27.132-3.913 30.92-17.202 1.145-4.017 2.15-7.81 3.047-11.436-11.781-6.311-33.665-10.817-49.134-9.779-.615 2.387-1.287 4.874-2.035 7.497-3.788 13.29 3.914 27.132 17.202 30.92z" fill="url(#SVGID_6_)"/><path d="m347.297 371.963c-13.177-13.594-7.677-45.455 11.159-49.561-22.744-.034-37.151-8.122-59.225-25.271-10.912-8.477-26.63-6.504-35.108 4.408-8.477 10.912-6.504 26.63 4.408 35.107 25.546 19.847 48.142 32.775 78.766 35.317z" fill="url(#SVGID_7_)"/><path d="m372.886 371.797c13.766-1.193 23.958-13.32 22.765-27.087-1.193-13.766-13.308-23.961-27.087-22.765-3.564.31-6.917.462-10.109.457-12.986 9.964-15.064 38.435-11.159 49.561 7.931.659 16.391.631 25.59-.166z" fill="url(#SVGID_8_)"/><path d="m497.105 275.802c-6.81-7.07-18.386-6.856-25.327.086l-19.796 19.796c-9.298 9.298-22.341 12.617-34.317 9.966-1.191-.264-1.603-1.76-.74-2.622l40.996-40.996c6.941-6.941 7.156-18.517.086-25.327-6.857-6.604-17.769-6.526-24.529.234l-41.321 41.321c-.863.863-2.359.451-2.622-.74-2.652-11.976.668-25.019 9.966-34.317l19.796-19.796c6.941-6.941 7.156-18.517.086-25.327-6.857-6.604-17.769-6.526-24.529.234l-20.121 20.121c-22.021 22.021-26.792 54.849-14.331 81.563 1.907 4.087 1.093 8.924-2.096 12.113l-79.678 79.678c-6.941 6.941-7.156 18.517-.086 25.327 6.856 6.604 17.769 6.526 24.529-.234l80.003-80.003c3.189-3.189 8.026-4.003 12.113-2.096 26.714 12.462 59.543 7.69 81.563-14.331l20.121-20.121c6.76-6.76 6.838-17.672.234-24.529z" fill="url(#SVGID_9_)"/><path d="m184.394 145.23c.122-38.988-31.742-71.974-70.73-71.983-39.081-.009-70.766 31.67-70.766 70.749 0 12.229-.12 36.495-19.431 47.768-17.973 10.492-18.095 36.608-.246 47.31 38.777 23.251 95.33 31.603 140.967 1.017 0-.001 19.98-22.857 20.206-94.861z" fill="url(#SVGID_10_)"/><circle cx="189.223" cy="89.7" fill="url(#SVGID_11_)" r="70.749"/><path d="m326.748 55.774c-20.716-7.54-55.336 23.564-64.448 60.36-5.299 21.399 5.62 36.811 26.336 44.351s38.987 2.753 48.683-17.046c16.672-34.045 10.145-80.125-10.571-87.665z" fill="url(#SVGID_12_)"/><path d="m258.192 255.23c64.407 62.543 55.985 125.976 38.149 144.777s-47.065 27.311-90.784 27.311-72.948-8.51-90.784-27.311-26.258-82.235 38.149-144.777z" fill="url(#SVGID_13_)"/><path d="m396.379 220.509c-2.812 53.735-43.489 82.891-150.846 82.891s-146.677-42.132-146.677-103.174 41.429-110.526 122.437-110.526 178.683 62.075 175.086 130.809z" fill="url(#SVGID_14_)"/><g><path d="m188.944 211.631c0 6.629-6.687 12.003-14.936 12.003s-14.936-5.374-14.936-12.003 6.687-12.003 14.936-12.003c8.249-.001 14.936 5.373 14.936 12.003z" fill="#eaadcd"/><path d="m364.715 211.631c0 6.629-6.687 12.003-14.936 12.003s-14.936-5.374-14.936-12.003 6.687-12.003 14.936-12.003c8.249-.001 14.936 5.373 14.936 12.003z" fill="#eaadcd"/><circle cx="199.614" cy="182.013" fill="#fff" r="29.618"/><path d="m229.232 182.013c0 9.749-7.903 17.652-17.652 17.652s-17.652-7.903-17.652-17.652 7.903-17.652 17.652-17.652 17.652 7.903 17.652 17.652z" fill="#3b3b44"/><circle cx="324.172" cy="182.013" fill="#fff" r="29.618"/><g fill="#3b3b44"><path d="m353.727 182.013c0 9.749-7.903 17.652-17.652 17.652s-17.652-7.903-17.652-17.652 7.903-17.652 17.652-17.652 17.652 7.903 17.652 17.652z"/><ellipse cx="304.202" cy="252.251" rx="13.252" ry="17.352"/></g></g><g><path d="m205.647 103.116c-1.416 14.029 14.727 28.246 36.895 32.155 22.826 4.025 43.393-4.406 45.936-18.83 1.547-8.773 2.062-20.516 1.585-33.052-30.091-5.72-53.734-1.425-84.416 19.727z" fill="url(#SVGID_15_)"/><path d="m237.662 105.41c-1.846-.911-3.267-1.855-4.246-2.661.238-1.003.514-2.055.808-3.129-9.432-.836-16.98-.641-28.574 3.495-1.029 10.194 7.21 20.488 20.299 26.853 8.091 3.935 17.704-.993 19.266-9.853l.016-.089c1.061-6.02-2.086-11.91-7.569-14.616z" fill="#d45566"/><path d="m284.327 39.482c-21.882-1.5-43.268 1.585-63.758 19.474-7.189 15.435-12.706 31.304-14.752 42.909-.073.416-.127.833-.169 1.25 25.48-1.828 54.845-7.253 84.416-19.727-.562-14.713-2.493-30.515-5.737-43.906z" fill="url(#SVGID_16_)"/><path d="m233.669 61.777c-6.914-2.745-14.761.569-17.602 7.443-4.955 11.988-8.656 23.608-10.249 32.645-.074.416-.125.833-.167 1.25 9.084-.651 18.669-1.772 28.574-3.495 1.618-5.919 4.044-12.842 6.987-19.972 2.9-7.024-.479-15.067-7.543-17.871z" fill="#e07281"/><path d="m284.327 39.482c-4.221-17.419-10.663-30.751-19.206-32.258-13.305-2.346-31.63 23.991-44.551 51.731 20.188-2.945 42.161-8.792 63.757-19.473z" fill="url(#SVGID_17_)"/></g><path d="m111.411 56.775c20.716-7.54 55.336 23.564 64.448 60.36 5.299 21.399-5.62 36.811-26.336 44.351s-38.987 2.753-48.683-17.046c-16.672-34.045-10.145-80.125 10.571-87.665z" fill="url(#SVGID_18_)"/><path d="m166.968 319.469c-1.74-13.707-14.253-23.41-27.972-21.668-25.827 3.28-45.916-2.026-55.214-14.008-15.719 0-34.97 9.305-44.611 23.193 7.596 12.529 18.828 22.941 32.796 30.132 17.836 9.182 42.473 14.242 73.333 10.324 13.708-1.742 23.408-14.265 21.668-27.973z" fill="url(#SVGID_19_)"/><path d="m83.782 283.792c-1.924-2.479-3.396-5.237-4.35-8.271-4.143-13.183-18.186-20.512-31.37-16.367-13.182 4.143-20.509 18.188-16.366 31.37 1.823 5.801 4.349 11.306 7.475 16.461 11.848-2.478 34.923-11.969 44.611-23.193z" fill="url(#SVGID_20_)"/><g fill="#e07987"><path d="m226.502 158.143c-11.602-.773-40.6-3.7-59.26-14.142-4.82-2.697-6.541-8.79-3.844-13.61s8.791-6.54 13.609-3.843c10.482 5.865 29.481 10.216 50.824 11.639 5.511.368 9.68 5.133 9.313 10.643-.367 5.523-5.145 9.68-10.642 9.313z"/><path d="m290.924 148.83c-.367-5.51 3.802-10.275 9.313-10.643 21.343-1.423 40.342-5.774 50.822-11.639 4.819-2.695 10.913-.978 13.61 3.843 2.697 4.819.977 10.913-3.843 13.61-18.66 10.442-47.658 13.369-59.26 14.142-5.501.368-10.275-3.795-10.642-9.313z"/></g></g></svg>