<svg id="Capa_1" enable-background="new 0 0 502 502" height="512" viewBox="0 0 502 502" width="512" xmlns="http://www.w3.org/2000/svg" xmlns:xlink="http://www.w3.org/1999/xlink"><linearGradient id="lg1"><stop offset="0" stop-color="#cdd4d4"/><stop offset="1" stop-color="#f3f3f3"/></linearGradient><linearGradient id="SVGID_1_" gradientTransform="matrix(-1 0 0 1 902 0)" gradientUnits="userSpaceOnUse" x1="535.907" x2="535.907" xlink:href="#lg1" y1="124.637" y2="69.134"/><linearGradient id="lg2"><stop offset="0" stop-color="#d5738e"/><stop offset="1" stop-color="#e6a3c1"/></linearGradient><linearGradient id="SVGID_2_" gradientUnits="userSpaceOnUse" x1="346.548" x2="405.763" xlink:href="#lg2" y1="126.587" y2="126.587"/><linearGradient id="SVGID_3_" gradientUnits="userSpaceOnUse" x1="135.907" x2="135.907" xlink:href="#lg1" y1="124.637" y2="69.134"/><linearGradient id="SVGID_4_" gradientTransform="matrix(-1 0 0 1 902 0)" gradientUnits="userSpaceOnUse" x1="746.548" x2="805.763" xlink:href="#lg2" y1="126.587" y2="126.587"/><linearGradient id="lg3"><stop offset="0" stop-color="#b39bdb"/><stop offset="1" stop-color="#d0c3e8"/></linearGradient><linearGradient id="SVGID_5_" gradientUnits="userSpaceOnUse" x1="250.999" x2="250.999" xlink:href="#lg3" y1="158.444" y2="12.844"/><linearGradient id="lg4"><stop offset="0" stop-color="#f4d952"/><stop offset="1" stop-color="#f9edaf"/></linearGradient><linearGradient id="SVGID_6_" gradientTransform="matrix(1 .003 -.003 1 -.245 -5.367)" gradientUnits="userSpaceOnUse" x1="251.753" x2="251.753" xlink:href="#lg4" y1="184.689" y2="107.857"/><linearGradient id="SVGID_8_" gradientTransform="matrix(1 .003 -.003 1 -.245 -5.367)" gradientUnits="userSpaceOnUse" x1="195.699" x2="308.212" y1="100.088" y2="100.088"><stop offset="0" stop-color="#ec6f80"/><stop offset="1" stop-color="#eca0aa"/></linearGradient><linearGradient id="SVGID_9_" gradientTransform="matrix(1 .003 -.003 1 -.245 -5.367)" gradientUnits="userSpaceOnUse" x1="213.901" x2="274.131" y1="55.101" y2="55.101"><stop offset="0" stop-color="#7ed99e"/><stop offset=".2532" stop-color="#81daa3"/><stop offset=".5725" stop-color="#88ddb3"/><stop offset=".9261" stop-color="#95e2cd"/><stop offset="1" stop-color="#98e3d3"/></linearGradient><linearGradient id="SVGID_10_" gradientUnits="userSpaceOnUse" x1="251" x2="251" xlink:href="#lg3" y1="243.744" y2="116.237"/><linearGradient id="SVGID_11_" gradientUnits="userSpaceOnUse" x1="251" x2="251" y1="328.767" y2="468.202"><stop offset="0" stop-color="#efc27b"/><stop offset="1" stop-color="#f3d5a6"/></linearGradient><linearGradient id="SVGID_12_" gradientUnits="userSpaceOnUse" x1="95.964" x2="382.731" xlink:href="#lg4" y1="271.023" y2="271.023"/><g><g><path d="m329.045 149.269c-15.813-14.878-19.898-33.405-7.338-51.956 22.807-33.685 69.196-52.188 87.267-36.921 6.825 5.765 9.57 16.32 8.767 28.735-26.941 34.054-67.209 57.444-88.696 60.142z" fill="url(#SVGID_1_)"/><path d="m331.804 151.737c-.958-.81-1.873-1.634-2.759-2.468 20.149-40.03 60.77-55.825 88.696-60.142-1.323 20.46-12.293 45.978-30.591 63.474-17.099 16.349-37.274 14.403-55.346-.864z" fill="url(#SVGID_2_)"/></g><g><path d="m172.955 149.269c15.813-14.878 19.898-33.405 7.338-51.956-22.807-33.685-69.196-52.188-87.268-36.921-6.825 5.765-9.57 16.32-8.767 28.735 26.942 34.054 67.21 57.444 88.697 60.142z" fill="url(#SVGID_3_)"/><path d="m170.196 151.737c.958-.81 1.873-1.634 2.759-2.468-20.149-40.03-60.77-55.825-88.696-60.142 1.323 20.46 12.293 45.978 30.591 63.474 17.099 16.349 37.274 14.403 55.346-.864z" fill="url(#SVGID_4_)"/></g><path d="m315.944 5.772c-11.466-10.102-29.313-6.458-36.299 7.133-10.203 19.851-33.588 30.114-73.881 30.114-18.515 0-38.612 8.733-51.301 25.362-21.605 28.316-16.164 68.785 12.152 90.389 24.44 18.647 53.62 28.504 84.384 28.504s59.944-9.857 84.384-28.504c16.829-12.841 25.577-32.345 25.369-52.001.001-42.523-13.934-73.795-44.808-100.997z" fill="url(#SVGID_5_)"/><path d="m142.51 120.134c15.863-2.299 32.602 1.524 46.352 12.014 17.984 13.72 39.471 20.973 62.138 20.973 12.456 0 24.551-2.199 35.906-6.453 7.629-2.859 11.508-11.363 8.78-19.04-2.818-7.931-11.58-11.916-19.471-8.99-7.977 2.959-16.471 4.483-25.215 4.483-16.036 0-31.23-5.126-43.942-14.825-18.71-14.274-41.348-20.335-63.328-18.519-2.843 9.957-3.21 20.374-1.22 30.357z" fill="#997bce"/><g><path d="m200.38 141.466c1.201 16.983 23.333 30.579 50.513 30.67 27.988.094 50.724-14.168 50.783-31.854.036-10.757-1.766-24.835-4.913-39.653-36.981-.614-64.228 9.359-96.383 40.837z" fill="url(#SVGID_6_)"/><path d="m200.38 141.466c1.201 16.983 23.333 30.579 50.513 30.67 27.988.094 50.724-14.168 50.783-31.854.036-10.757-1.766-24.835-4.913-39.653-36.981-.614-64.228 9.359-96.383 40.837z" fill="url(#SVGID_6_)"/><path d="m264.243 121.92c-3.082.563-6.215.927-9.387 1.091-18.031 7.911-35.762 13.694-52.359 17.912 14.818 7.999 31.315 12.198 48.503 12.198 6.406 0 12.717-.582 18.88-1.725 9.165-1.701 14.49-11.376 11.168-20.085-2.588-6.789-9.658-10.696-16.805-9.391z" fill="#fcb500"/><path d="m280.906 49.569c-26.345 2.717-51.156 10.786-71.856 36.285-5.379 19.844-8.679 39.86-8.727 54.09-.002.511.02 1.018.056 1.523 29.941-7.416 63.765-19.911 96.383-40.836-3.693-17.392-9.241-35.797-15.856-51.062z" fill="url(#SVGID_8_)"/><path d="m202.466 140.931c16.606-4.219 34.348-10.004 52.391-17.92-1.28.066-2.565.11-3.857.11-16.036 0-31.23-5.126-43.942-14.825-.918-.701-1.854-1.365-2.791-2.026-2.466 12.495-3.889 24.193-3.94 33.465.71.406 1.421.809 2.139 1.196z" fill="#e05d6f"/><path d="m280.906 49.569c-8.605-19.857-19.012-34.396-29.488-34.431-16.313-.055-32.7 35.051-42.368 70.716 23.417-7.659 48.358-19.135 71.856-36.285z" fill="url(#SVGID_9_)"/></g><path d="m251 276.717c-49.99 0-97.401-16.012-137.108-46.306-27.135-20.702-32.349-59.482-11.647-86.616s59.482-32.347 86.616-11.647c17.983 13.72 39.471 20.973 62.138 20.973s44.155-7.252 62.138-20.973c27.135-20.702 65.914-15.489 86.616 11.647 20.702 27.135 15.488 65.914-11.647 86.616-39.705 30.294-87.116 46.306-137.106 46.306z" fill="url(#SVGID_10_)"/><path d="m240.792 216.557c.198-8.19-6.213-15.012-14.398-15.34-41.287-1.655-83.308-7.033-108.448-12.092-9.489-1.908-18.91-1.941-27.902-.394 1.254 10.314 5.09 20.302 11.371 28.922 3.49-.108 7.045.165 10.615.883 26.287 5.289 70.14 10.911 113.172 12.651 8.368.337 15.388-6.257 15.59-14.63z" fill="#997bce"/><path d="m313.298 502h-124.596c-32.405 0-60.193-23.13-66.073-54.997l-32.385-175.51h321.512l-32.385 175.51c-5.88 31.867-33.668 54.997-66.073 54.997z" fill="url(#SVGID_11_)"/><path d="m251 324.43c-57.067 0-120.101-7.543-157.255-15.019-25.095-5.05-41.345-29.486-36.296-54.58 5.049-25.096 29.487-41.343 54.58-36.296 31.591 6.356 88.554 13.198 138.97 13.198s107.379-6.841 138.97-13.198c25.094-5.048 49.531 11.201 54.58 36.296 5.049 25.094-11.201 49.53-36.296 54.58-37.152 7.476-100.186 15.019-157.253 15.019z" fill="url(#SVGID_12_)"/><g><ellipse cx="163.114" cy="414.007" fill="#ff8392" rx="14.936" ry="12.003"/><ellipse cx="338.886" cy="414.007" fill="#ff8392" rx="14.936" ry="12.003"/><circle cx="188.721" cy="384.39" fill="#fff" r="29.618"/><circle cx="313.279" cy="384.39" fill="#fff" r="29.618"/><g fill="#3b3b44"><g><circle cx="188.721" cy="384.39" r="17.652"/><circle cx="313.279" cy="384.39" r="17.652"/></g><path d="m251 414.95c-5.248 0-10.495-1.985-14.776-5.954-2.025-1.877-2.145-5.041-.267-7.066s5.042-2.144 7.066-.267c4.697 4.355 11.257 4.355 15.954 0 2.023-1.877 5.188-1.759 7.066.267 1.877 2.025 1.758 5.189-.267 7.066-4.281 3.969-9.528 5.954-14.776 5.954z"/></g></g></g></svg>