<svg id="Capa_1" enable-background="new 0 0 502 502" height="512" viewBox="0 0 502 502" width="512" xmlns="http://www.w3.org/2000/svg" xmlns:xlink="http://www.w3.org/1999/xlink"><linearGradient id="lg1"><stop offset="0" stop-color="#f4d952"/><stop offset="1" stop-color="#f9edaf"/></linearGradient><linearGradient id="SVGID_1_" gradientUnits="userSpaceOnUse" x1="310.819" x2="69.37" xlink:href="#lg1" y1="303.914" y2="303.914"/><linearGradient id="lg2"><stop offset="0" stop-color="#7ed99e"/><stop offset=".2532" stop-color="#81daa3"/><stop offset=".5725" stop-color="#88ddb3"/><stop offset=".9261" stop-color="#95e2cd"/><stop offset="1" stop-color="#98e3d3"/></linearGradient><linearGradient id="SVGID_2_" gradientUnits="userSpaceOnUse" x1="259.064" x2="-41.101" xlink:href="#lg2" y1="238.166" y2="238.166"/><linearGradient id="SVGID_3_" gradientUnits="userSpaceOnUse" x1="336.33" x2="153.367" y1="345.533" y2="345.533"><stop offset="0" stop-color="#b39bdb"/><stop offset="1" stop-color="#d0c3e8"/></linearGradient><linearGradient id="lg3"><stop offset="0" stop-color="#cdd4d4"/><stop offset="1" stop-color="#f3f3f3"/></linearGradient><linearGradient id="SVGID_4_" gradientUnits="userSpaceOnUse" x1="290.57" x2="290.57" xlink:href="#lg3" y1="146.215" y2="78.933"/><linearGradient id="lg4"><stop offset="0" stop-color="#d5738e"/><stop offset="1" stop-color="#e6a3c1"/></linearGradient><linearGradient id="SVGID_5_" gradientTransform="matrix(1 -.003 .003 1 -1063.878 6.914)" gradientUnits="userSpaceOnUse" x1="1376.779" x2="1314.744" xlink:href="#lg4" y1="133.215" y2="133.215"/><linearGradient id="SVGID_6_" gradientTransform="matrix(-1 0 0 1 937.395 0)" gradientUnits="userSpaceOnUse" x1="490.57" x2="490.57" xlink:href="#lg3" y1="146.215" y2="78.933"/><linearGradient id="SVGID_7_" gradientTransform="matrix(-1 -.003 -.003 1 2001.273 6.914)" gradientUnits="userSpaceOnUse" x1="1576.777" x2="1514.742" xlink:href="#lg4" y1="133.875" y2="133.875"/><linearGradient id="SVGID_8_" gradientUnits="userSpaceOnUse" x1="368.789" x2="368.789" y1="334.623" y2="87.964"><stop offset="0" stop-color="#d9e0e0"/><stop offset="1" stop-color="#f3f3f3"/></linearGradient><linearGradient id="SVGID_9_" gradientTransform="matrix(1 .003 -.003 1 -.245 -3.281)" gradientUnits="userSpaceOnUse" x1="369.439" x2="369.439" xlink:href="#lg1" y1="146.51" y2="86.959"/><linearGradient id="SVGID_11_" gradientTransform="matrix(1 .003 -.003 1 -.245 -3.281)" gradientUnits="userSpaceOnUse" x1="325.993" x2="413.199" y1="80.937" y2="80.937"><stop offset="0" stop-color="#ec6f80"/><stop offset="1" stop-color="#eca0aa"/></linearGradient><linearGradient id="SVGID_12_" gradientTransform="matrix(1 .003 -.003 1 -.245 -3.281)" gradientUnits="userSpaceOnUse" x1="340.101" x2="386.784" xlink:href="#lg2" y1="46.069" y2="46.069"/><g><path d="m166.051 433.044c88.858-50.943 180.043-161.259 245.708-227.431l-14.874-38.275c-112.852-.184-303.859 107.548-330.537 188.557 2.996 2.954 4.832 7.086 4.746 11.649l-.675 35.816c-.451 23.935 21.915 41.79 45.155 36.048l37.028-9.148c4.917-1.216 9.776-.002 13.449 2.784z" fill="url(#SVGID_1_)"/><path d="m378.658 120.438c-175.908 50.246-274.947 94.848-368.921 180.382-20.326 18.501-6.636 52.292 20.833 51.335l24.035-.838c4.571-.159 8.74 1.618 11.743 4.578 61.39-59.526 214.577-150.806 330.537-188.555z" fill="url(#SVGID_2_)"/><path d="m411.759 205.614c-73.114 39.544-187.286 141.756-245.708 227.43 3.534 2.681 5.971 6.816 6.278 11.679l.986 15.581c1.602 25.315 34.198 34.446 48.722 13.65 57.865-82.845 126.307-158.375 212.963-208.538z" fill="url(#SVGID_3_)"/><path d="m358.737 314.122-39.732 11.425c-17.08 4.911-34.201-3.219-42.025-17.584-7.442 6.935-14.818 14.014-22.071 21.197 2.447 3.415 5.232 6.623 8.344 9.572 12.419 11.77 28.628 18.253 45.64 18.252 3.365 0 6.727-.267 10.06-.78 15.237-15.304 31.146-29.841 47.808-43.427-2.705.151-5.397.59-8.024 1.345z" fill="#997bce"/><g><path d="m323.749 156.042c14.162-13.324 17.82-29.917 6.572-46.53-20.425-30.167-61.969-46.738-78.154-33.065-6.112 5.163-8.57 14.616-7.851 25.734 24.128 30.498 60.19 51.446 79.433 53.861z" fill="url(#SVGID_4_)"/><path d="m321.278 158.252c.858-.725 1.678-1.464 2.471-2.21-18.044-35.849-54.423-49.994-79.433-53.861 1.185 18.323 11.009 41.176 27.396 56.845 15.314 14.642 33.382 12.899 49.566-.774z" fill="url(#SVGID_5_)"/></g><g><path d="m413.645 156.042c-14.162-13.324-17.82-29.917-6.572-46.53 20.425-30.167 61.969-46.738 78.154-33.065 6.112 5.163 8.57 14.616 7.851 25.734-24.128 30.498-60.19 51.446-79.433 53.861z" fill="url(#SVGID_6_)"/><path d="m416.116 158.252c-.858-.725-1.677-1.464-2.471-2.21 18.044-35.849 54.423-49.994 79.433-53.861-1.185 18.323-11.009 41.176-27.396 56.845-15.313 14.642-33.382 12.899-49.566-.774z" fill="url(#SVGID_7_)"/></g><path d="m358.737 314.122-39.732 11.425c-22.756 6.544-45.599-10.053-46.408-33.717l-1.412-41.318c-.233-6.831-2.387-13.458-6.213-19.121l-23.144-34.257c-13.255-19.62-4.53-46.474 17.726-54.556l38.859-14.111c6.424-2.333 12.062-6.429 16.266-11.818l25.428-32.597c14.564-18.669 42.799-18.669 57.363 0l25.428 32.597c4.204 5.389 9.841 9.485 16.266 11.818l38.859 14.111c22.256 8.082 30.982 34.935 17.726 54.556l-23.143 34.257c-3.826 5.663-5.979 12.29-6.213 19.121l-1.412 41.318c-.809 23.664-23.652 40.261-46.408 33.717l-39.732-11.425c-6.568-1.889-13.536-1.889-20.104 0z" fill="url(#SVGID_8_)"/><path d="m254.909 329.159c7.253-7.182 14.629-14.261 22.071-21.197-.955-1.753-1.78-3.593-2.44-5.52-2.147-6.26-8.104-10.403-14.719-10.177-9.945.34-16.956 10.133-13.787 19.566 2.075 6.178 5.062 12.007 8.875 17.328z" fill="#fcb500"/><g><path d="m329.555 114.462c.931 13.163 18.085 23.701 39.151 23.772 21.693.073 39.315-10.981 39.361-24.689.028-8.338-1.369-19.249-3.808-30.734-28.663-.477-49.781 7.253-74.704 31.651z" fill="url(#SVGID_9_)"/><path d="m329.555 114.462c.931 13.163 18.085 23.701 39.151 23.772 21.693.073 39.315-10.981 39.361-24.689.028-8.338-1.369-19.249-3.808-30.734-28.663-.477-49.781 7.253-74.704 31.651z" fill="url(#SVGID_9_)"/><path d="m391.969 43.234c-20.419 2.106-39.65 8.36-55.694 28.124-4.169 15.381-6.727 30.895-6.764 41.924-.001.396.016.789.043 1.18 23.207-5.748 49.423-15.433 74.704-31.651-2.862-13.479-7.162-27.745-12.289-39.577z" fill="url(#SVGID_11_)"/><path d="m391.969 43.234c-6.67-15.391-14.736-26.659-22.855-26.687-12.644-.042-25.345 27.167-32.838 54.81 18.149-5.935 37.48-14.83 55.693-28.123z" fill="url(#SVGID_12_)"/></g><g><ellipse cx="280.821" cy="218.992" fill="#eaadcd" rx="14.936" ry="12.003"/><ellipse cx="456.592" cy="218.992" fill="#eaadcd" rx="14.936" ry="12.003"/><path d="m306.427 193.34c7.183 0 13.813 1.589 19.159 4.273 4.544 2.281 9.962-.801 10.365-5.87.113-1.423.125-2.875.029-4.348-.991-15.146-13.602-27.24-28.775-27.629-16.713-.428-30.396 12.992-30.396 29.608 0 .843.035 1.678.105 2.503.422 5.01 5.857 7.994 10.349 5.738 5.348-2.685 11.979-4.275 19.164-4.275z" fill="#fff"/><path d="m368.706 229.178c-6.447 0-12.894-2.155-18.273-6.465-4.989-3.997-5.794-11.282-1.797-16.271 3.997-4.99 11.282-5.793 16.271-1.796 2.237 1.792 5.361 1.792 7.598 0 4.988-3.997 12.273-3.193 16.271 1.796 3.997 4.989 3.193 12.274-1.797 16.271-5.379 4.31-11.826 6.465-18.273 6.465z" fill="#3b3b44"/><path d="m306.427 193.34c5.926 0 11.473 1.082 16.237 2.967.911-2.129 1.415-4.47 1.415-6.933 0-9.749-7.903-17.652-17.652-17.652s-17.652 7.903-17.652 17.652c0 2.463.504 4.803 1.415 6.933 4.764-1.885 10.312-2.967 16.237-2.967z" fill="#3b3b44"/><path d="m430.985 193.34c7.183 0 13.813 1.589 19.159 4.273 4.544 2.281 9.962-.801 10.365-5.87.113-1.423.125-2.875.029-4.348-.991-15.146-13.602-27.24-28.775-27.629-16.713-.428-30.396 12.992-30.396 29.608 0 .843.035 1.678.105 2.503.422 5.01 5.856 7.994 10.349 5.738 5.347-2.685 11.979-4.275 19.164-4.275z" fill="#fff"/><path d="m430.985 193.34c5.926 0 11.473 1.082 16.237 2.967.911-2.129 1.415-4.47 1.415-6.933 0-9.749-7.903-17.652-17.652-17.652s-17.652 7.903-17.652 17.652c0 2.463.504 4.803 1.415 6.933 4.764-1.885 10.311-2.967 16.237-2.967z" fill="#3b3b44"/></g><g fill="#a7f2d2"><path d="m109.295 271.693c-3.291 0-6.513-1.623-8.424-4.598-2.984-4.648-1.636-10.834 3.011-13.818 8.444-5.422 17.228-10.744 26.11-15.818 4.794-2.74 10.904-1.074 13.644 3.723 2.739 4.795 1.073 10.904-3.723 13.644-8.584 4.903-17.07 10.045-25.225 15.281-1.671 1.074-3.543 1.586-5.393 1.586z"/><path d="m66.718 301.908c-2.974 0-5.917-1.321-7.889-3.847-3.398-4.353-2.625-10.637 1.729-14.036 2.921-2.281 5.892-4.555 8.827-6.76 4.416-3.316 10.686-2.425 14.001 1.991 3.316 4.417 2.425 10.685-1.991 14.001-2.837 2.13-5.707 4.328-8.53 6.533-1.827 1.427-3.995 2.118-6.147 2.118z"/></g></g></svg>