<svg id="Capa_1" enable-background="new 0 0 502 502" height="512" viewBox="0 0 502 502" width="512" xmlns="http://www.w3.org/2000/svg" xmlns:xlink="http://www.w3.org/1999/xlink"><linearGradient id="lg1"><stop offset="0" stop-color="#53aae6"/><stop offset="1" stop-color="#a4d2f0"/></linearGradient><linearGradient id="SVGID_1_" gradientTransform="matrix(-1 0 0 1 501.538 0)" gradientUnits="userSpaceOnUse" x1="126.912" x2="26.253" xlink:href="#lg1" y1="378.636" y2="378.636"/><linearGradient id="lg2"><stop offset="0" stop-color="#cdd4d4"/><stop offset="1" stop-color="#f3f3f3"/></linearGradient><linearGradient id="SVGID_2_" gradientUnits="userSpaceOnUse" x1="333.227" x2="333.227" xlink:href="#lg2" y1="357.746" y2="485.291"/><linearGradient id="lg3"><stop offset="0" stop-color="#e08243"/><stop offset="1" stop-color="#f0bb78"/></linearGradient><linearGradient id="SVGID_3_" gradientUnits="userSpaceOnUse" x1="384.902" x2="343.727" xlink:href="#lg3" y1="478.845" y2="478.845"/><linearGradient id="SVGID_4_" gradientUnits="userSpaceOnUse" x1="241.965" x2="241.965" xlink:href="#lg2" y1="357.746" y2="485.291"/><linearGradient id="SVGID_5_" gradientUnits="userSpaceOnUse" x1="293.64" x2="252.465" xlink:href="#lg3" y1="478.845" y2="478.845"/><linearGradient id="SVGID_6_" gradientUnits="userSpaceOnUse" x1="192.595" x2="147.747" xlink:href="#lg2" y1="341.281" y2="341.281"/><linearGradient id="SVGID_7_" gradientUnits="userSpaceOnUse" x1="122.476" x2="122.476" xlink:href="#lg3" y1="400.988" y2="350.589"/><linearGradient id="SVGID_8_" gradientTransform="matrix(-1 0 0 1 501.538 0)" gradientUnits="userSpaceOnUse" x1="112.537" x2="-3.992" xlink:href="#lg1" y1="170.859" y2="170.859"/><linearGradient id="SVGID_9_" gradientTransform="matrix(-1 0 0 1 501.538 0)" gradientUnits="userSpaceOnUse" x1="197.614" x2="197.614" xlink:href="#lg1" y1="98.754" y2="18.351"/><linearGradient id="SVGID_10_" gradientTransform="matrix(-1 0 0 1 502 0)" gradientUnits="userSpaceOnUse" x1="288.363" x2="288.363" xlink:href="#lg2" y1="133.409" y2="52.969"/><linearGradient id="lg4"><stop offset="0" stop-color="#74d2e8"/><stop offset="1" stop-color="#baeaf5"/></linearGradient><linearGradient id="SVGID_11_" gradientUnits="userSpaceOnUse" x1="289.48" x2="445.854" xlink:href="#lg4" y1="262.799" y2="262.799"/><linearGradient id="SVGID_12_" gradientTransform="matrix(-1 0 0 1 501.538 0)" gradientUnits="userSpaceOnUse" x1="214.372" x2="214.372" xlink:href="#lg2" y1="252.454" y2="420.74"/><linearGradient id="lg5"><stop offset="0" stop-color="#d9e0e0"/><stop offset="1" stop-color="#f3f3f3"/></linearGradient><linearGradient id="SVGID_13_" gradientTransform="matrix(-1 0 0 1 501.538 0)" gradientUnits="userSpaceOnUse" x1="34.654" x2="344.037" xlink:href="#lg5" y1="201.601" y2="201.601"/><linearGradient id="SVGID_14_" gradientTransform="matrix(-1 0 0 1 502 0)" gradientUnits="userSpaceOnUse" x1="227.377" x2="326.647" xlink:href="#lg4" y1="111.451" y2="111.451"/><linearGradient id="SVGID_15_" gradientTransform="matrix(-1 0 0 1 501.538 0)" gradientUnits="userSpaceOnUse" x1="204.941" x2="284.227" xlink:href="#lg4" y1="72.933" y2="72.933"/><linearGradient id="SVGID_16_" gradientTransform="matrix(-1 0 0 1 501.538 0)" gradientUnits="userSpaceOnUse" x1="240.596" x2="314.408" xlink:href="#lg4" y1="33.83" y2="33.83"/><linearGradient id="SVGID_17_" gradientTransform="matrix(-1 0 0 1 502 0)" gradientUnits="userSpaceOnUse" x1="143.769" x2="143.769" xlink:href="#lg2" y1="184.269" y2="89.053"/><linearGradient id="SVGID_18_" gradientUnits="userSpaceOnUse" x1="310.558" x2="310.558" xlink:href="#lg5" y1="403.895" y2="344.074"/><linearGradient id="SVGID_19_" gradientUnits="userSpaceOnUse" x1="253.999" x2="253.999" xlink:href="#lg3" y1="407.953" y2="355.201"/><g><path d="m364.447 427.111c-27.38-12.768-39.226-45.314-26.458-72.694s45.314-39.226 72.694-26.458c23.596 11.003 37.313 38.003 64.572 39.387 9.488.482 15.179 10.844 10.059 18.846-30.225 47.233-85.624 57.353-120.867 40.919z" fill="url(#SVGID_1_)"/><g fill="#bdebff"><path d="m406.142 424.456c-5.06 0-9.402-3.827-9.935-8.97-.569-5.494 3.422-10.408 8.916-10.977 3.209-.333 6.503-.931 9.791-1.779 5.347-1.379 10.801 1.838 12.181 7.186 1.379 5.348-1.839 10.801-7.187 12.18-4.248 1.096-8.529 1.872-12.725 2.306-.349.036-.698.054-1.041.054z"/><path d="m449.658 406.549c-2.924 0-5.822-1.276-7.798-3.732-3.462-4.303-2.779-10.598 1.523-14.06 4.231-3.404 8.14-7.314 11.618-11.623 3.47-4.298 9.766-4.968 14.061-1.501 4.298 3.469 4.97 9.765 1.501 14.063-4.374 5.419-9.301 10.347-14.644 14.645-1.846 1.485-4.061 2.208-6.261 2.208z"/></g><path d="m368.309 455.691c-15.73-19.594-18.828-40.895-18.828-72.277 0-14.176-11.491-25.668-25.668-25.668s-25.668 11.492-25.668 25.668c0 31.744 2.326 68.04 28.163 101.877 18.219-2.476 35.645-14.8 42.001-29.6z" fill="url(#SVGID_2_)"/><path d="m369.234 495.494c10.583-9.432 11.517-25.657 2.086-36.24-1.054-1.182-2.053-2.37-3.011-3.563-15.128 2.277-35.021 17.442-42.001 29.6 2.079 2.723 4.291 5.431 6.686 8.119 9.431 10.58 25.655 11.518 36.24 2.084z" fill="url(#SVGID_3_)"/><path d="m277.047 455.691c-15.73-19.594-18.828-40.895-18.828-72.277 0-14.176-11.491-25.668-25.668-25.668-14.176 0-25.668 11.492-25.668 25.668 0 31.744 2.326 68.04 28.163 101.877 11.677 0 33.31-11.502 42.001-29.6z" fill="url(#SVGID_4_)"/><path d="m277.972 495.494c10.583-9.432 11.517-25.657 2.086-36.24-1.054-1.182-2.053-2.37-3.011-3.563-15.128 2.277-35.021 17.442-42.001 29.6 2.079 2.723 4.291 5.431 6.686 8.119 9.431 10.58 25.655 11.518 36.24 2.084z" fill="url(#SVGID_5_)"/><path d="m230.109 300.346c-10.478-9.551-26.712-8.798-36.261 1.68-18.132 19.888-24.473 30.344-57.055 36.43-8.103 14.62-3.28 40.18 9.175 50.457 18.586-3.524 33.374-8.652 45.672-15.784 17.894-10.379 28.036-23.234 40.149-36.521 9.549-10.477 8.798-26.712-1.68-36.262z" fill="url(#SVGID_6_)"/><path d="m136.793 338.456c-4.541.848-9.589 1.612-15.253 2.305-14.071 1.72-24.084 14.521-22.364 28.593 1.723 14.098 14.551 24.082 28.593 22.364 6.455-.789 12.499-1.724 18.199-2.805.025-13.986-3.39-39.044-9.175-50.457z" fill="url(#SVGID_7_)"/><path d="m127.493 323.187h-83.214c-6.521 0-11.807-5.286-11.807-11.807s5.286-11.807 11.807-11.807h83.213c6.521 0 11.807 5.286 11.807 11.807.001 6.52-5.286 11.807-11.806 11.807z" fill="#a37460"/><path d="m85.886 401.754c-32.524 0-58.985-22.036-58.985-49.122 0-9.149 1.076-16.941 2.026-23.817 2.271-16.44 3.035-21.979-9.591-30.469-5.411-3.639-6.849-10.975-3.21-16.387 3.638-5.411 10.974-6.849 16.387-3.21 24.858 16.715 22.29 35.311 19.806 53.297-.887 6.42-1.804 13.059-1.804 20.586 0 13.826 16.197 25.507 35.37 25.507 19.172 0 35.37-11.681 35.37-25.507 0-7.527-.917-14.165-1.804-20.586-2.484-17.985-5.052-36.582 19.807-53.297 5.411-3.638 12.748-2.201 16.386 3.21 3.639 5.411 2.201 12.748-3.21 16.386-12.626 8.49-11.861 14.028-9.59 30.469.949 6.875 2.025 14.667 2.025 23.816.001 27.088-26.459 49.124-58.983 49.124z" fill="#ffe05c"/><path d="m308.878 148.951c-.126-39.998 32.565-73.839 72.563-73.849 40.094-.009 72.6 32.491 72.6 72.583 0 12.546.123 37.441 19.934 49.006 18.439 10.764 18.564 37.557.253 48.536-39.782 23.853-97.801 32.423-144.621 1.043 0 0-20.497-23.448-20.729-97.319z" fill="url(#SVGID_8_)"/><circle cx="303.924" cy="91.982" fill="url(#SVGID_9_)" r="72.583"/><path d="m190.17 57.176c21.253-7.735 56.77 24.174 66.118 61.924 5.436 21.954-5.766 37.765-27.019 45.5s-39.998 2.824-49.945-17.488c-17.104-34.926-10.407-82.2 10.846-89.936z" fill="url(#SVGID_10_)"/><path d="m443.267 198.113c-65.034.767-129.003 51.836-123.108 93.473 7.756 54.776 115.044 38.103 145.24 7.907 8.681-8.681 10.749-21.465 6.214-32.106-1.071-2.513-.648-5.451 1.152-7.505 5.841-6.664 9.346-15.425 9.225-25.011-.261-20.681-18.044-37.002-38.723-36.758z" fill="url(#SVGID_11_)"/><path d="m349.848 303.863c-3.31 0-6.592-1.42-8.866-4.169-4.05-4.893-3.365-12.142 1.527-16.192 18.939-15.672 57.72-35.046 76.844-38.39 6.261-1.094 12.215 3.092 13.309 9.348 1.094 6.257-3.092 12.215-9.348 13.309-13.935 2.436-49.185 19.421-66.141 33.453-2.146 1.775-4.743 2.641-7.325 2.641z" fill="#71c4d1"/><path d="m233.167 261.802c-66.076 64.164-57.436 129.242-39.138 148.53s48.285 28.019 93.137 28.019 74.839-8.73 93.137-28.019c18.298-19.288 26.939-84.366-39.138-148.53z" fill="url(#SVGID_12_)"/><path d="m91.398 226.181c2.885 55.127 44.616 85.039 154.756 85.039s150.479-43.223 150.479-105.848c0-62.624-42.503-113.391-125.611-113.391s-183.314 63.684-179.624 134.2z" fill="url(#SVGID_13_)"/><g><path d="m287.073 105.745c1.452 14.392-15.109 28.978-37.851 32.989-23.418 4.129-44.517-4.52-47.127-19.318-1.587-9.001-2.116-21.048-1.626-33.909 30.872-5.868 55.128-1.462 86.604 20.238z" fill="url(#SVGID_14_)"/><path d="m254.229 108.099c1.894-.934 3.352-1.903 4.356-2.73-.244-1.028-.527-2.108-.828-3.21 9.676-.858 17.42-.658 29.315 3.586 1.055 10.458-7.397 21.019-20.826 27.549-8.3 4.037-18.163-1.019-19.765-10.109l-.016-.091c-1.089-6.177 2.139-12.219 7.764-14.995z" fill="#65c5d4"/><path d="m206.355 40.462c22.449-1.539 44.389 1.626 65.41 19.978 7.375 15.835 13.035 32.115 15.135 44.022.075.427.13.855.174 1.283-26.14-1.875-56.267-7.441-86.603-20.239.574-15.094 2.555-31.306 5.884-45.044z" fill="url(#SVGID_15_)"/><path d="m258.326 63.335c7.093-2.816 15.144.583 18.059 7.636 5.083 12.299 8.88 24.22 10.515 33.492.075.427.129.855.172 1.283-9.32-.668-19.153-1.818-29.315-3.586-1.66-6.072-4.149-13.175-7.169-20.489-2.976-7.208.491-15.459 7.738-18.336z" fill="#83d0db"/><path d="m206.355 40.462c4.33-17.87 10.939-31.548 19.704-33.094 13.65-2.407 32.45 24.612 45.706 53.072-20.713-3.022-43.255-9.02-65.41-19.978z" fill="url(#SVGID_16_)"/></g><path d="m355.55 84.032c-18.532 0-36.141-3.555-49.582-10.012-16.195-7.78-25.115-19.145-25.115-32.004s8.92-24.225 25.115-32.004c13.441-6.456 31.05-10.012 49.582-10.012s36.141 3.556 49.582 10.012c16.195 7.78 25.115 19.146 25.115 32.004s-8.92 24.224-25.115 32.004c-13.441 6.457-31.05 10.012-49.582 10.012zm0-60.417c-33.702 0-51.082 12.899-51.082 18.402s17.38 18.401 51.082 18.401 51.082-12.898 51.082-18.401c0-5.504-17.38-18.402-51.082-18.402z" fill="#ffe05c"/><path d="m381.699 58.203c-21.253-7.735-56.77 24.174-66.118 61.924-5.436 21.954 5.766 37.765 27.019 45.5s39.997 2.824 49.945-17.488c17.103-34.926 10.407-82.2-10.846-89.936z" fill="url(#SVGID_17_)"/><path d="m342.376 318.628c-11.386-8.442-27.464-6.055-35.906 5.333-13.25 17.872-25.721 24.167-35.47 26.251-4.641 16.775-3.617 39.769 6.649 50.867 28.203-4.612 51.003-20.838 70.061-46.545 8.442-11.388 6.054-27.463-5.334-35.906z" fill="url(#SVGID_18_)"/><path d="m271 350.212c-5.86 1.252-10.737.984-14.208.792-14.119-.776-26.263 10.058-27.045 24.213s10.058 26.263 24.213 27.045c8.302.46 16.184.044 23.689-1.183 2.222-14.478-1.646-38.638-6.649-50.867z" fill="url(#SVGID_19_)"/><g><path d="m156.758 215.898c0 6.629-6.687 12.003-14.936 12.003s-14.936-5.374-14.936-12.003 6.687-12.003 14.936-12.003c8.249-.001 14.936 5.374 14.936 12.003z" fill="#eaadcd"/><path d="m332.529 215.898c0 6.629-6.687 12.003-14.936 12.003s-14.936-5.374-14.936-12.003 6.687-12.003 14.936-12.003 14.936 5.374 14.936 12.003z" fill="#eaadcd"/><circle cx="167.428" cy="186.28" fill="#fff" r="29.618"/><ellipse cx="155.463" cy="186.28" fill="#3b3b44" rx="17.652" ry="17.652" transform="matrix(.548 -.837 .837 .548 -85.537 214.353)"/><circle cx="291.986" cy="186.28" fill="#fff" r="29.618"/><g fill="#3b3b44"><ellipse cx="280.02" cy="186.28" rx="17.652" ry="17.652" transform="matrix(.287 -.958 .958 .287 21.181 401.022)"/><path d="m195.609 242.441h-15.181c-3.007 0-5.658 1.976-6.506 4.862-2.672 9.09-5.742 27.748 14.097 27.748 19.838 0 16.769-18.659 14.097-27.748-.85-2.886-3.5-4.862-6.507-4.862z"/></g></g></g></svg>