<svg id="Capa_1" enable-background="new 0 0 502 502" height="512" viewBox="0 0 502 502" width="512" xmlns="http://www.w3.org/2000/svg" xmlns:xlink="http://www.w3.org/1999/xlink"><linearGradient id="lg1"><stop offset="0" stop-color="#74d2e8"/><stop offset="1" stop-color="#baeaf5"/></linearGradient><linearGradient id="SVGID_1_" gradientUnits="userSpaceOnUse" x1="246.542" x2="246.542" xlink:href="#lg1" y1="419.339" y2="494.453"/><linearGradient id="lg2"><stop offset="0" stop-color="#cdd4d4"/><stop offset="1" stop-color="#f3f3f3"/></linearGradient><linearGradient id="SVGID_2_" gradientUnits="userSpaceOnUse" x1="369.351" x2="439.511" xlink:href="#lg2" y1="361.635" y2="361.635"/><linearGradient id="SVGID_3_" gradientUnits="userSpaceOnUse" x1="335.29" x2="335.29" xlink:href="#lg2" y1="404.567" y2="470.467"/><linearGradient id="SVGID_5_" gradientUnits="userSpaceOnUse" x1="331.962" x2="331.962" xlink:href="#lg2" y1="404.66" y2="460.643"/><linearGradient id="lg3"><stop offset="0" stop-color="#53aae6"/><stop offset="1" stop-color="#a4d2f0"/></linearGradient><linearGradient id="SVGID_6_" gradientUnits="userSpaceOnUse" x1="319.976" x2="374.241" xlink:href="#lg3" y1="478.594" y2="478.594"/><linearGradient id="SVGID_7_" gradientUnits="userSpaceOnUse" x1="357.018" x2="357.018" xlink:href="#lg2" y1="258.72" y2="205.17"/><linearGradient id="SVGID_8_" gradientUnits="userSpaceOnUse" x1="211.687" x2="424.188" xlink:href="#lg3" y1="342.308" y2="342.308"/><linearGradient id="SVGID_9_" gradientUnits="userSpaceOnUse" x1="232.541" x2="232.541" y1="327.273" y2="418.865"><stop offset="0" stop-color="#d9e0e0"/><stop offset="1" stop-color="#f3f3f3"/></linearGradient><linearGradient id="SVGID_10_" gradientUnits="userSpaceOnUse" x1="227.046" x2="227.046" xlink:href="#lg3" y1="451.333" y2="411.449"/><linearGradient id="SVGID_11_" gradientUnits="userSpaceOnUse" x1="204.106" x2="204.106" xlink:href="#lg1" y1="258.342" y2="22.342"/><linearGradient id="lg4"><stop offset="0" stop-color="#b39bdb"/><stop offset="1" stop-color="#d0c3e8"/></linearGradient><linearGradient id="SVGID_12_" gradientUnits="userSpaceOnUse" x1="146.837" x2="81.879" xlink:href="#lg4" y1="279.602" y2="279.602"/><linearGradient id="SVGID_13_" gradientUnits="userSpaceOnUse" x1="115.92" x2="115.92" xlink:href="#lg4" y1="209.713" y2="132.853"/><linearGradient id="SVGID_14_" gradientUnits="userSpaceOnUse" x1="198.03" x2="198.03" xlink:href="#lg2" y1="115.325" y2="70.149"/><linearGradient id="SVGID_15_" gradientUnits="userSpaceOnUse" x1="58.933" x2="294.806" y1="222.789" y2="222.789"><stop offset="0" stop-color="#d9e0e0"/><stop offset=".7622" stop-color="#f3f3f3"/></linearGradient><linearGradient id="lg5"><stop offset="0" stop-color="#f4d952"/><stop offset="1" stop-color="#f9edaf"/></linearGradient><linearGradient id="SVGID_16_" gradientUnits="userSpaceOnUse" x1="172.599" x2="172.599" xlink:href="#lg5" y1="179.463" y2="119.649"/><linearGradient id="SVGID_17_" gradientUnits="userSpaceOnUse" x1="147.487" x2="150.067" y1="172.879" y2="96.762"><stop offset="0" stop-color="#ec6f80"/><stop offset="1" stop-color="#eca0aa"/></linearGradient><linearGradient id="SVGID_18_" gradientUnits="userSpaceOnUse" x1="126.447" x2="126.447" y1="139.899" y2="66.667"><stop offset="0" stop-color="#7ed99e"/><stop offset=".2532" stop-color="#81daa3"/><stop offset=".5725" stop-color="#88ddb3"/><stop offset=".9261" stop-color="#95e2cd"/><stop offset="1" stop-color="#98e3d3"/></linearGradient><linearGradient id="SVGID_19_" gradientUnits="userSpaceOnUse" x1="91.164" x2="91.164" xlink:href="#lg2" y1="302.819" y2="206.583"/><linearGradient id="SVGID_20_" gradientUnits="userSpaceOnUse" x1="439.212" x2="439.212" xlink:href="#lg5" y1="117.946" y2="24.071"/><linearGradient id="SVGID_21_" gradientUnits="userSpaceOnUse" x1="62.788" x2="62.788" y1="467.236" y2="373.361"><stop offset="0" stop-color="#e08243"/><stop offset="1" stop-color="#f0bb78"/></linearGradient><linearGradient id="SVGID_22_" gradientUnits="userSpaceOnUse" x1="406.469" x2="406.469" xlink:href="#lg3" y1="247.421" y2="206.26"/><linearGradient id="SVGID_23_" gradientUnits="userSpaceOnUse" x1="452.215" x2="452.215" xlink:href="#lg3" y1="407.385" y2="364.818"/><g><path d="m305.283 444.418c10.066-27.657-4.194-58.238-31.851-68.304s-58.238 4.194-68.304 31.851c-8.675 23.835.475 51.883-17.349 71.615-6.204 6.868-2.986 17.927 6.054 19.912 53.359 11.718 98.493-19.474 111.45-55.074z" fill="url(#SVGID_1_)"/><path d="m451.19 346.233c-34.806-13.972-86.129-18.194-102.65-14.745-13.864 2.894-22.759 16.479-19.865 30.344 2.868 13.739 16.233 22.599 29.969 19.94 9.19-1.154 46.877 1.954 71.199 11.151 15.928-8.633 23.981-32.589 21.347-46.69z" fill="url(#SVGID_2_)"/><path d="m339.261 487.536c-20.528-36.899-27.386-48.476-48.493-69.583-10.015-10.016-10.015-26.253 0-36.268 10.015-10.014 26.253-10.014 36.268 0 25.802 25.802 34.805 40.94 57.046 80.915 6.886 12.377 2.434 27.993-9.943 34.879-12.378 6.886-27.993 2.431-34.878-9.943z" fill="url(#SVGID_3_)"/><path d="m339.261 487.536c-20.528-36.899-27.386-48.476-48.493-69.583-10.015-10.016-10.015-26.253 0-36.268 10.015-10.014 26.253-10.014 36.268 0 25.802 25.802 34.805 40.94 57.046 80.915 6.886 12.377 2.434 27.993-9.943 34.879-12.378 6.886-27.993 2.431-34.878-9.943z" fill="url(#SVGID_3_)"/><path d="m380.666 456.471c-19.816-35.465-29.193-50.35-53.629-74.787-10.015-10.014-26.253-10.014-36.268 0-10.015 10.015-10.015 26.252 0 36.268 19.944 19.944 27.172 31.392 45.226 63.722 15.976 0 35.906-13.78 44.671-25.203z" fill="url(#SVGID_5_)"/><path d="m384.082 462.599c-1.177-2.115-2.309-4.147-3.417-6.128-16.021.376-37.595 14.75-44.671 25.203 1.053 1.885 2.135 3.828 3.266 5.861 6.884 12.375 22.499 16.829 34.879 9.943 12.378-6.886 16.83-22.501 9.943-34.879z" fill="url(#SVGID_6_)"/><path d="m382.622 195.28c-24.256 11.663-43.439 27.741-66.898 55.413-9.158 10.804-7.825 26.987 2.979 36.145 10.855 9.202 27.031 7.772 36.146-2.979 18.552-21.885 32.131-33.628 49.528-42.12.483-18.951-9.434-38.521-21.755-46.459z" fill="url(#SVGID_7_)"/><path d="m281.649 240.47c89.72-1.317 128.598 49.466 129.281 75.358.682 25.893-13.961 52.564-44.858 83.462-30.897 30.897-57.569 45.541-83.462 44.859s-76.676-39.561-75.358-129.281z" fill="url(#SVGID_8_)"/><path d="m347.06 315.875c-14.483-13.934-45.033-32.83-57.775-38.284-5.839-2.499-8.546-9.258-6.047-15.097 2.498-5.838 9.256-8.549 15.098-6.047 14.435 6.178 47.59 26.421 64.67 42.854 4.577 4.404 4.718 11.684.314 16.261-4.399 4.571-11.68 4.72-16.26.313z" fill="#04a3db"/><path d="m252.093 414.558c-1.945-18.547 1.499-37.433 10.299-56.221 6.008-12.826.48-28.094-12.347-34.101-12.826-6.008-28.095-.48-34.101 12.347-12.724 27.168-17.716 54.898-14.935 82.558 15.934 8.77 38.719 7.473 51.084-4.583z" fill="url(#SVGID_9_)"/><path d="m252.758 419.725c-.274-1.719-.485-3.442-.666-5.167-18.551-5.696-39.896-.718-51.084 4.583.291 2.892.639 5.783 1.1 8.673 2.239 14.016 15.413 23.511 29.369 21.28 13.988-2.234 23.515-15.383 21.281-29.369z" fill="url(#SVGID_10_)"/><path d="m367.496 202.418c34.578-70.164 14.936-128.879-34.639-167.859-68.395-53.778-178.21-44.581-248.901 26.11-54.314 54.313-72.319 131.72-53.359 195.694 23.28-18.59 223.525-102.171 336.899-53.945z" fill="url(#SVGID_11_)"/><path d="m204.513 296.206s-2.033-30.273-52.761-81.321c-27.467-27.641-73.3-28.433-100.861-.885-11.866 11.86-18.621 26.889-20.295 42.364 5.717 19.29 14.79 37.361 27.249 53.207 36.643 46.603 85.749 71.725 150.715 44.924 3.596-20.682-.632-45.769-4.047-58.289z" fill="url(#SVGID_12_)"/><circle cx="115.92" cy="172.227" fill="url(#SVGID_13_)" r="70.712"/><path d="m170.306 69.887c-19.969 9.312-22.454 55.761-2.889 88.206 11.378 18.868 29.988 22.044 49.957 12.732s29.499-25.608 22.359-46.453c-12.278-35.844-49.457-63.797-69.427-54.485z" fill="url(#SVGID_14_)"/><path d="m354.772 118.27c-46.035-51.119-158.936-25.959-216.187 31.292s-51.558 121.503-8.418 164.644c31.203 31.203 54.819 43.383 78.392 40.297 29.38-12.121 62.003-34.859 98.187-71.043 28.272-28.273 48.123-55.42 60.75-81.041 14.384-33.675 8.528-60.551-12.724-84.149z" fill="url(#SVGID_15_)"/><g><path d="m200.961 258.145c4.688 4.688 3.759 13.216-2.074 19.049s-14.362 6.762-19.049 2.074c-4.688-4.688-3.759-13.216 2.074-19.049s14.361-6.762 19.049-2.074z" fill="#eaadcd"/><ellipse cx="314.688" cy="144.417" fill="#eaadcd" rx="14.936" ry="12.003" transform="matrix(.707 -.707 .707 .707 -9.95 264.813)"/><circle cx="187.563" cy="229.657" fill="#fff" r="29.618"/><circle cx="275.639" cy="141.581" fill="#fff" r="29.618"/><g fill="#3b3b44"><g><ellipse cx="187.563" cy="229.657" rx="17.652" ry="17.652" transform="matrix(.477 -.879 .879 .477 -103.768 284.868)"/><path d="m288.121 129.099c6.894 6.894 6.894 18.07 0 24.964s-18.07 6.894-24.964 0-6.894-18.07 0-24.964c6.893-6.893 18.07-6.893 24.964 0z"/></g><path d="m302.594 217.719c-2.675 0-4.892-2.116-4.993-4.811-.104-2.76 2.048-5.081 4.808-5.186 6.399-.242 11.039-4.881 11.281-11.281.104-2.759 2.388-4.925 5.186-4.808 2.759.105 4.911 2.426 4.807 5.186-.441 11.667-9.23 20.456-20.896 20.896-.065.003-.13.004-.193.004z"/></g></g><g><path d="m137.009 170.1c8.914 10.915 30.371 9.554 48.8-3.35 18.977-13.288 27.553-33.781 19.157-45.773-5.107-7.294-13.042-15.957-22.239-24.479-25.309 17.226-38.983 36.97-45.718 73.602z" fill="url(#SVGID_16_)"/><path d="m161.257 149.096c-1.948.661-3.62.998-4.881 1.12-.54-.877-1.089-1.815-1.641-2.782-7.257 6.075-12.453 11.547-17.725 22.665 6.477 7.932 19.575 9.384 33.325 4.632 8.499-2.937 11.81-13.214 6.652-20.58l-.052-.074c-3.505-5.005-9.891-6.943-15.678-4.981z" fill="#fcb500"/><path d="m147.642 69.523c-16.525 14.405-29.459 31.699-31.297 58.823 5.827 15.989 13.144 31.103 19.9 40.752.242.346.499.679.764 1.003 16.716-19.299 33.635-43.887 45.717-73.601-10.794-10.003-23.327-19.807-35.084-26.977z" fill="url(#SVGID_17_)"/><path d="m127.597 121.081c-6.826 2.946-10.031 10.834-7.18 17.701 4.971 11.974 10.568 22.803 15.828 30.315.242.346.5.678.765 1.002 5.96-6.881 11.941-14.447 17.725-22.665-3.04-5.326-6.218-11.934-9.176-19.053-2.916-7.014-10.987-10.31-17.962-7.3z" fill="#e05d6f"/><path d="m147.642 69.523c-15.294-9.327-29.269-14.197-36.372-9.224-11.061 7.745-5.399 39.309 5.075 68.046 12.187-16.351 23.584-36.012 31.297-58.822z" fill="url(#SVGID_18_)"/></g><path d="m39.073 202.535c9.312-19.969 55.761-22.454 88.206-2.889 18.868 11.378 22.043 29.988 12.732 49.957-9.312 19.969-25.608 29.499-46.453 22.359-35.844-12.278-63.797-49.457-54.485-69.427z" fill="url(#SVGID_19_)"/><path d="m435.744 108.219-13.707 3.941c-7.85 2.257-15.731-3.468-16.01-11.632l-.487-14.254c-.081-2.356-.823-4.643-2.143-6.596l-7.984-11.818c-4.573-6.769-1.563-16.033 6.115-18.821l13.406-4.868c2.216-.805 4.161-2.218 5.611-4.077l8.772-11.245c5.024-6.441 14.765-6.441 19.789 0l8.772 11.245c1.45 1.859 3.395 3.272 5.611 4.077l13.406 4.868c7.678 2.788 10.688 12.052 6.115 18.821l-7.984 11.818c-1.32 1.954-2.063 4.24-2.143 6.596l-.487 14.254c-.279 8.164-8.159 13.889-16.01 11.632l-13.707-3.941c-2.265-.652-4.669-.652-6.935 0z" fill="url(#SVGID_20_)"/><path d="m59.32 457.508-13.707 3.941c-7.85 2.257-15.731-3.468-16.01-11.632l-.487-14.254c-.081-2.357-.823-4.643-2.143-6.597l-7.984-11.818c-4.573-6.769-1.563-16.033 6.115-18.821l13.406-4.868c2.216-.805 4.161-2.218 5.611-4.077l8.772-11.245c5.024-6.441 14.765-6.441 19.789 0l8.772 11.245c1.45 1.859 3.395 3.272 5.611 4.077l13.406 4.868c7.678 2.788 10.688 12.052 6.115 18.821l-7.984 11.818c-1.32 1.954-2.063 4.24-2.143 6.597l-.487 14.254c-.279 8.164-8.16 13.889-16.01 11.632l-13.707-3.941c-2.265-.651-4.669-.651-6.935 0z" fill="url(#SVGID_21_)"/><path d="m395.213 189.779c-4.368 1.732-8.548 3.557-12.591 5.501 1.809 13.841 13.005 37.365 21.755 46.459 3.108-1.517 6.335-2.932 9.737-4.28 13.167-5.219 19.61-20.124 14.389-33.291-5.218-13.167-20.125-19.607-33.29-14.389z" fill="url(#SVGID_22_)"/><path d="m460.521 350.427c-2.935-1.486-6.062-2.883-9.332-4.195-12.906 9.001-21.455 35.619-21.347 46.69 2.682 1.014 5.209 2.099 7.51 3.265 12.694 6.426 28.098 1.281 34.464-11.295 6.399-12.636 1.342-28.066-11.295-34.465z" fill="url(#SVGID_23_)"/><g fill="#bdebff"><path d="m296.269 421.466c-4.271 0-8.225-2.756-9.551-7.05-1.631-5.276 1.324-10.876 6.601-12.507 1.483-.458 3.036-1.032 4.614-1.705 5.078-2.168 10.954.195 13.121 5.275s-.195 10.955-5.275 13.122c-2.21.942-4.415 1.756-6.554 2.417-.984.304-1.979.448-2.956.448z"/><path d="m335.18 396.264c-2.716 0-5.422-1.1-7.395-3.265-3.72-4.082-3.426-10.407.657-14.127 2.862-2.608 5.822-5.439 8.797-8.414 1.514-1.513 2.989-3.021 4.386-4.482 3.816-3.993 10.147-4.134 14.139-.318s4.135 10.147.318 14.139c-1.5 1.569-3.081 3.185-4.7 4.805-3.193 3.193-6.38 6.24-9.471 9.056-1.916 1.744-4.328 2.606-6.731 2.606z"/></g></g></svg>