<svg id="Capa_1" enable-background="new 0 0 502 502" height="512" viewBox="0 0 502 502" width="512" xmlns="http://www.w3.org/2000/svg" xmlns:xlink="http://www.w3.org/1999/xlink"><linearGradient id="lg1"><stop offset="0" stop-color="#81d676"/><stop offset="1" stop-color="#c3e6a1"/></linearGradient><linearGradient id="SVGID_1_" gradientUnits="userSpaceOnUse" x1="99.531" x2="99.531" xlink:href="#lg1" y1="458.356" y2="364.683"/><linearGradient id="lg2"><stop offset="0" stop-color="#6ac65e"/><stop offset="1" stop-color="#afd986"/></linearGradient><linearGradient id="SVGID_2_" gradientUnits="userSpaceOnUse" x1="99.531" x2="99.531" xlink:href="#lg2" y1="424.058" y2="372.129"/><linearGradient id="lg3"><stop offset="0" stop-color="#7ed99e"/><stop offset=".2532" stop-color="#81daa3"/><stop offset=".5725" stop-color="#88ddb3"/><stop offset=".9261" stop-color="#95e2cd"/><stop offset="1" stop-color="#98e3d3"/></linearGradient><linearGradient id="SVGID_3_" gradientTransform="matrix(-1 0 0 1 101.538 0)" gradientUnits="userSpaceOnUse" x1="-248.851" x2="-349.813" xlink:href="#lg3" y1="361.16" y2="361.16"/><linearGradient id="lg4"><stop offset="0" stop-color="#cdd4d4"/><stop offset="1" stop-color="#f3f3f3"/></linearGradient><linearGradient id="SVGID_4_" gradientUnits="userSpaceOnUse" x1="217" x2="217" xlink:href="#lg4" y1="366.652" y2="475.393"/><linearGradient id="lg5"><stop offset="0" stop-color="#e08243"/><stop offset="1" stop-color="#f0bb78"/></linearGradient><linearGradient id="SVGID_5_" gradientUnits="userSpaceOnUse" x1="239.242" x2="193.592" xlink:href="#lg5" y1="480.892" y2="480.892"/><linearGradient id="SVGID_6_" gradientUnits="userSpaceOnUse" x1="292.064" x2="292.064" xlink:href="#lg4" y1="357.304" y2="478.135"/><linearGradient id="SVGID_7_" gradientUnits="userSpaceOnUse" x1="330.753" x2="294.536" xlink:href="#lg5" y1="481.99" y2="481.99"/><linearGradient id="SVGID_8_" gradientUnits="userSpaceOnUse" x1="154.663" x2="113.495" xlink:href="#lg4" y1="330.7" y2="330.7"/><linearGradient id="SVGID_9_" gradientUnits="userSpaceOnUse" x1="160.296" x2="126.117" xlink:href="#lg5" y1="380.726" y2="380.726"/><linearGradient id="lg6"><stop offset="0" stop-color="#b39bdb"/><stop offset="1" stop-color="#d0c3e8"/></linearGradient><linearGradient id="SVGID_10_" gradientTransform="matrix(-1 0 0 1 101.538 0)" gradientUnits="userSpaceOnUse" x1="-252.422" x2="-369.303" xlink:href="#lg6" y1="164.135" y2="164.135"/><linearGradient id="SVGID_11_" gradientTransform="matrix(-1 0 0 1 101.538 0)" gradientUnits="userSpaceOnUse" x1="-167.088" x2="-167.088" xlink:href="#lg6" y1="91.811" y2="11.166"/><linearGradient id="SVGID_12_" gradientTransform="matrix(-1 0 0 1 102 0)" gradientUnits="userSpaceOnUse" x1="-76.067" x2="-76.067" xlink:href="#lg2" y1="126.572" y2="45.888"/><linearGradient id="SVGID_13_" gradientTransform="matrix(-1 0 0 1 101.538 0)" gradientUnits="userSpaceOnUse" x1="-150.28" x2="-150.28" xlink:href="#lg4" y1="245.976" y2="414.771"/><linearGradient id="SVGID_14_" gradientTransform="matrix(-1 0 0 1 101.538 0)" gradientUnits="userSpaceOnUse" x1="-330.541" x2="-20.223" xlink:href="#lg1" y1="194.97" y2="194.97"/><linearGradient id="SVGID_15_" gradientTransform="matrix(-1 0 0 1 102 0)" gradientUnits="userSpaceOnUse" x1="-151.996" x2="-52.425" y1="104.547" y2="104.547"><stop offset="0" stop-color="#f4d952"/><stop offset="1" stop-color="#f9edaf"/></linearGradient><linearGradient id="SVGID_16_" gradientTransform="matrix(-1 0 0 1 101.538 0)" gradientUnits="userSpaceOnUse" x1="-152.462" x2="-72.936" y1="65.913" y2="65.913"><stop offset="0" stop-color="#ec6f80"/><stop offset="1" stop-color="#eca0aa"/></linearGradient><linearGradient id="SVGID_17_" gradientTransform="matrix(-1 0 0 1 101.538 0)" gradientUnits="userSpaceOnUse" x1="-136.867" x2="-75.525" xlink:href="#lg3" y1="26.691" y2="26.691"/><linearGradient id="SVGID_18_" gradientTransform="matrix(-1 0 0 1 102 0)" gradientUnits="userSpaceOnUse" x1="-221.098" x2="-221.098" xlink:href="#lg2" y1="177.586" y2="82.081"/><linearGradient id="SVGID_19_" gradientUnits="userSpaceOnUse" x1="273.249" x2="273.249" y1="408.521" y2="344.582"><stop offset="0" stop-color="#d9e0e0"/><stop offset="1" stop-color="#f3f3f3"/></linearGradient><linearGradient id="SVGID_20_" gradientUnits="userSpaceOnUse" x1="63.189" x2="63.189" xlink:href="#lg1" y1="129.452" y2="44.36"/><linearGradient id="SVGID_21_" gradientUnits="userSpaceOnUse" x1="63.189" x2="63.189" xlink:href="#lg2" y1="98.296" y2="51.124"/><linearGradient id="SVGID_22_" gradientUnits="userSpaceOnUse" x1="438.811" x2="438.811" xlink:href="#lg1" y1="306.235" y2="221.144"/><linearGradient id="SVGID_23_" gradientUnits="userSpaceOnUse" x1="438.811" x2="438.811" xlink:href="#lg2" y1="275.079" y2="227.908"/><linearGradient id="SVGID_24_" gradientUnits="userSpaceOnUse" x1="222.854" x2="222.854" xlink:href="#lg5" y1="406.694" y2="360.29"/><g><path d="m106.964 349.552 2.549-1.534c8.899-5.352 20.368.171 21.731 10.465l.391 2.949c.701 5.291 4.267 9.763 9.27 11.624l2.788 1.037c9.733 3.62 12.566 16.03 5.367 23.515l-2.062 2.144c-3.7 3.847-4.973 9.423-3.308 14.495l.928 2.827c3.238 9.867-4.699 19.819-15.038 18.858l-2.962-.275c-5.315-.494-10.468 1.987-13.395 6.451l-1.632 2.488c-5.695 8.684-18.425 8.684-24.12 0l-1.632-2.488c-2.927-4.463-8.08-6.945-13.395-6.451l-2.962.275c-10.34.961-18.277-8.991-15.038-18.858l.928-2.827c1.664-5.072.392-10.648-3.308-14.495l-2.064-2.142c-7.198-7.485-4.366-19.895 5.367-23.515l2.789-1.037c5.003-1.861 8.569-6.332 9.27-11.624l.391-2.949c1.364-10.295 12.832-15.818 21.731-10.465l2.549 1.534c4.574 2.75 10.293 2.75 14.867-.002z" fill="url(#SVGID_1_)"/><path d="m102.495 376.568 7.863-2.895c6.866-2.528 13.541 4.148 11.013 11.013l-2.895 7.863c-.704 1.913-.704 4.015 0 5.928l2.895 7.863c2.528 6.866-4.148 13.541-11.013 11.013l-7.863-2.895c-1.913-.704-4.015-.704-5.928 0l-7.863 2.895c-6.866 2.528-13.541-4.148-11.013-11.013l2.896-7.863c.704-1.913.704-4.015 0-5.928l-2.896-7.863c-2.528-6.866 4.148-13.541 11.013-11.013l7.863 2.895c1.913.704 4.014.704 5.928 0z" fill="url(#SVGID_2_)"/><path d="m340.178 409.781c-27.463-12.806-39.344-45.451-26.538-72.913 12.806-27.463 45.451-39.344 72.913-26.538 23.668 11.036 37.426 38.117 64.767 39.506 9.516.483 15.225 10.877 10.089 18.903-30.315 47.376-85.881 57.526-121.231 41.042z" fill="url(#SVGID_3_)"/><g fill="#a7f2d2"><path d="m381.999 407.088c-5.059 0-9.401-3.827-9.934-8.969-.57-5.494 3.421-10.409 8.915-10.979 3.222-.334 6.527-.935 9.826-1.785 5.353-1.378 10.802 1.839 12.181 7.186 1.379 5.348-1.839 10.801-7.186 12.18-4.258 1.098-8.551 1.876-12.758 2.313-.351.036-.699.054-1.044.054z"/><path d="m425.647 389.127c-2.924 0-5.82-1.276-7.797-3.731-3.462-4.303-2.781-10.598 1.521-14.06 4.247-3.418 8.17-7.342 11.658-11.665 3.469-4.298 9.766-4.967 14.061-1.501 4.298 3.469 4.97 9.765 1.501 14.063-4.384 5.432-9.323 10.372-14.682 14.684-1.845 1.487-4.061 2.21-6.262 2.21z"/></g><path d="m251.223 378.3c-7.789-11.896-23.746-15.228-35.643-7.439-19.569 12.811-35.159 52.921-37.011 93.643 18.051 12.965 36.892 13.978 51.341 5.028.691-30.289 11.585-52.019 15.302-56.596 10.723-8.092 13.477-23.23 6.011-34.636z" fill="url(#SVGID_4_)"/><path d="m178.57 464.504c-.122 2.682-.185 5.367-.185 8.046 0 14.219 11.527 25.746 25.745 25.746s25.746-11.527 25.746-25.746c0-1.015.012-2.021.035-3.018-11.442-4.765-37.149-7.707-51.341-5.028z" fill="url(#SVGID_5_)"/><path d="m274.87 475.787c20.817 6.203 39.455-.393 49.604-13.807-10.286-36.334-13.33-49.958-13.33-78.931 0-14.219-11.526-25.746-25.746-25.746-14.219 0-25.745 11.527-25.745 25.746 0 35.322 3.965 52.953 15.217 92.738z" fill="url(#SVGID_6_)"/><path d="m326.523 469.19c-.714-2.504-1.395-4.9-2.049-7.21-18.703-.027-37.809 6.717-49.604 13.807.686 2.424 1.395 4.921 2.136 7.518 3.891 13.652 18.116 21.605 31.817 17.702 13.673-3.898 21.598-18.142 17.7-31.817z" fill="url(#SVGID_7_)"/><path d="m200.658 302.33c-5.914-12.929-21.192-18.618-34.123-12.701-18.316 8.379-41.036 27.364-49.976 70.268 10.77 12.174 31.081 17.453 50.067 12.174 2.738-14.231 8.648-29.817 21.33-35.618 12.93-5.916 18.616-21.193 12.702-34.123z" fill="url(#SVGID_8_)"/><path d="m114.431 372.461c-1.847 14.098 8.083 27.025 22.181 28.874 14.078 1.846 27.022-8.063 28.873-22.181.3-2.285.676-4.665 1.141-7.083-14.37-9.866-39.758-12.17-50.067-12.174-.83 3.984-1.551 8.157-2.128 12.564z" fill="url(#SVGID_9_)"/><path d="m273.595 142.16c-.126-40.119 32.663-74.062 72.783-74.072 40.216-.009 72.82 32.589 72.82 72.802 0 12.584.123 37.554 19.995 49.154 18.495 10.796 18.62 37.67.253 48.683-39.902 23.925-98.097 32.52-145.058 1.046-.001 0-20.56-23.519-20.793-97.613z" fill="url(#SVGID_10_)"/><circle cx="268.626" cy="85.019" fill="url(#SVGID_11_)" r="72.802"/><path d="m154.528 50.109c21.317-7.759 56.941 24.247 66.318 62.111 5.453 22.02-5.783 37.879-27.1 45.638s-40.118 2.832-50.095-17.541c-17.157-35.032-10.44-82.45 10.877-90.208z" fill="url(#SVGID_12_)"/><path d="m197.655 255.352c-66.276 64.358-57.609 129.632-39.256 148.979s48.431 28.104 93.418 28.104 75.065-8.757 93.418-28.104 27.02-84.621-39.256-148.979z" fill="url(#SVGID_13_)"/><path d="m55.458 219.624c2.894 55.294 44.751 85.296 155.223 85.296s150.934-43.354 150.934-106.167-42.631-113.734-125.99-113.734-183.868 63.876-180.167 134.605z" fill="url(#SVGID_14_)"/><g><ellipse cx="104.171" cy="210.251" fill="#ff8392" rx="14.936" ry="12.003"/><ellipse cx="279.942" cy="210.251" fill="#ff8392" rx="14.936" ry="12.003"/><circle cx="129.778" cy="180.634" fill="#fff" r="29.618"/><circle cx="254.335" cy="180.634" fill="#fff" r="29.618"/><path d="m139.562 191.064c-2.647 0-5.214-1.404-6.579-3.888-.94-1.71-2.554-1.895-3.204-1.895s-2.264.185-3.204 1.895c-1.995 3.629-6.556 4.955-10.186 2.959s-4.954-6.556-2.959-10.186c3.278-5.964 9.543-9.669 16.349-9.669s13.07 3.705 16.349 9.669c1.995 3.63.671 8.19-2.959 10.186-1.148.63-2.386.929-3.607.929z" fill="#3b3b44"/><path d="m264.118 191.064c-2.647 0-5.214-1.405-6.579-3.889-.94-1.71-2.554-1.895-3.203-1.895-.65 0-2.264.185-3.204 1.895-1.995 3.63-6.557 4.956-10.185 2.96-3.63-1.996-4.955-6.556-2.96-10.186 3.278-5.964 9.542-9.669 16.349-9.669 6.806 0 13.069 3.705 16.348 9.669 1.995 3.63.67 8.19-2.96 10.186-1.146.631-2.384.929-3.606.929z" fill="#3b3b44"/><g><path d="m167.675 261.933h-23.342c-6.508 0-11.784-5.276-11.784-11.784 0-6.508 5.276-11.784 11.784-11.784h23.342c6.508 0 11.784 5.276 11.784 11.784 0 6.508-5.276 11.784-11.784 11.784z" fill="#3b3b44"/></g></g><g><path d="m251.725 98.824c1.457 14.436-15.155 29.066-37.965 33.088-23.489 4.142-44.652-4.534-47.269-19.377-1.592-9.028-2.122-21.111-1.631-34.011 30.964-5.885 55.293-1.465 86.865 20.3z" fill="url(#SVGID_15_)"/><path d="m218.781 101.185c1.899-.937 3.362-1.909 4.369-2.738-.245-1.032-.529-2.114-.831-3.22 9.705-.861 17.472-.66 29.404 3.596 1.059 10.49-7.419 21.082-20.888 27.633-8.326 4.049-18.217-1.022-19.825-10.139l-.016-.091c-1.093-6.196 2.145-12.256 7.787-15.041z" fill="#fcb500"/><path d="m170.762 33.344c22.517-1.543 44.524 1.631 65.608 20.039 7.398 15.883 13.075 32.212 15.18 44.155.076.429.131.857.174 1.287-26.219-1.881-56.437-7.464-86.865-20.3.577-15.141 2.565-31.402 5.903-45.181z" fill="url(#SVGID_16_)"/><path d="m222.89 56.286c7.114-2.825 15.189.585 18.113 7.659 5.099 12.336 8.907 24.294 10.547 33.593.076.428.129.857.172 1.286-9.348-.67-19.211-1.824-29.404-3.597-1.665-6.09-4.161-13.215-7.19-20.551-2.983-7.229.493-15.504 7.762-18.39z" fill="#e05d6f"/><path d="m170.762 33.344c4.344-17.924 10.973-31.644 19.764-33.194 13.691-2.414 32.548 24.687 45.844 53.233-20.775-3.032-43.386-9.048-65.608-20.039z" fill="url(#SVGID_17_)"/></g><path d="m346.636 51.139c-21.317-7.759-56.941 24.247-66.318 62.111-5.453 22.02 5.783 37.879 27.1 45.638s40.118 2.832 50.095-17.541c17.157-35.033 10.44-82.45-10.877-90.208z" fill="url(#SVGID_18_)"/><path d="m301.221 303.019c-12.388-6.985-28.089-2.605-35.072 9.78-10.065 17.849-16.908 27.289-32.144 31.448-3.06 14.541-4.369 38.299 13.47 49.667 34.533-9.397 50.381-32.513 63.526-55.823 6.984-12.386 2.605-28.087-9.78-35.072z" fill="url(#SVGID_19_)"/><path d="m69.941 30.616 2.316-1.393c8.084-4.862 18.502.155 19.741 9.507l.355 2.679c.637 4.807 3.876 8.869 8.42 10.559l2.533.942c8.841 3.289 11.415 14.562 4.876 21.361l-1.873 1.948c-3.361 3.495-4.517 8.56-3.005 13.167l.843 2.568c2.942 8.963-4.268 18.003-13.661 17.13l-2.691-.25c-4.828-.449-9.509 1.805-12.168 5.86l-1.482 2.26c-5.174 7.888-16.737 7.888-21.91 0l-1.482-2.26c-2.659-4.054-7.34-6.309-12.168-5.86l-2.691.25c-9.393.873-16.602-8.167-13.661-17.13l.843-2.568c1.512-4.607.356-9.672-3.005-13.167l-1.873-1.948c-6.539-6.799-3.966-18.072 4.875-21.361l2.533-.942c4.545-1.69 7.784-5.752 8.42-10.559l.355-2.679c1.239-9.352 11.657-14.369 19.74-9.507l2.316 1.393c4.154 2.499 9.349 2.499 13.504 0z" fill="url(#SVGID_20_)"/><path d="m65.881 55.156 7.143-2.63c6.237-2.296 12.301 3.768 10.004 10.004l-2.63 7.143c-.64 1.738-.64 3.647 0 5.385l2.63 7.143c2.296 6.237-3.768 12.301-10.004 10.004l-7.143-2.63c-1.738-.64-3.647-.64-5.385 0l-7.143 2.63c-6.237 2.296-12.301-3.768-10.004-10.004l2.63-7.143c.64-1.738.64-3.647 0-5.385l-2.63-7.143c-2.297-6.237 3.768-12.301 10.004-10.004l7.143 2.63c1.738.64 3.647.64 5.385 0z" fill="url(#SVGID_21_)"/><path d="m445.564 207.399 2.316-1.393c8.084-4.862 18.502.155 19.74 9.507l.355 2.679c.637 4.807 3.876 8.869 8.421 10.559l2.533.942c8.841 3.289 11.414 14.562 4.875 21.361l-1.873 1.948c-3.361 3.495-4.517 8.56-3.005 13.167l.843 2.568c2.941 8.963-4.268 18.003-13.661 17.13l-2.691-.25c-4.828-.449-9.509 1.805-12.168 5.86l-1.482 2.26c-5.174 7.888-16.737 7.888-21.91 0l-1.482-2.26c-2.659-4.054-7.34-6.309-12.168-5.86l-2.691.25c-9.393.873-16.602-8.167-13.661-17.13l.843-2.568c1.512-4.607.356-9.672-3.005-13.167l-1.873-1.948c-6.539-6.799-3.966-18.072 4.875-21.361l2.533-.942c4.544-1.69 7.784-5.752 8.42-10.559l.355-2.679c1.239-9.352 11.657-14.369 19.741-9.507l2.316 1.393c4.154 2.499 9.349 2.499 13.504 0z" fill="url(#SVGID_22_)"/><path d="m441.504 231.939 7.143-2.63c6.237-2.296 12.301 3.768 10.004 10.004l-2.63 7.143c-.64 1.738-.64 3.647 0 5.385l2.63 7.143c2.297 6.237-3.768 12.301-10.004 10.004l-7.143-2.63c-1.738-.64-3.647-.64-5.385 0l-7.143 2.63c-6.237 2.297-12.301-3.768-10.004-10.004l2.63-7.143c.64-1.738.64-3.647 0-5.385l-2.63-7.143c-2.297-6.237 3.768-12.301 10.004-10.004l7.143 2.63c1.738.64 3.647.64 5.385 0z" fill="url(#SVGID_23_)"/><path d="m234.005 344.246c-3.608.985-7.684 1.676-12.388 2.11-14.158 1.306-24.578 13.842-23.273 28.001 1.304 14.137 13.814 24.576 28.001 23.273 7.747-.715 14.756-1.982 21.13-3.717-.589-16.431-5.763-40.312-13.47-49.667z" fill="url(#SVGID_24_)"/></g></svg>