<svg id="Capa_1" enable-background="new 0 0 502 502" height="512" viewBox="0 0 502 502" width="512" xmlns="http://www.w3.org/2000/svg" xmlns:xlink="http://www.w3.org/1999/xlink"><linearGradient id="lg1"><stop offset="0" stop-color="#cdd4d4"/><stop offset="1" stop-color="#f3f3f3"/></linearGradient><linearGradient id="SVGID_1_" gradientUnits="userSpaceOnUse" x1="101.377" x2="101.377" xlink:href="#lg1" y1="178.509" y2="86.629"/><linearGradient id="lg2"><stop offset="0" stop-color="#d5738e"/><stop offset="1" stop-color="#e6a3c1"/></linearGradient><linearGradient id="SVGID_2_" gradientTransform="matrix(1 -.003 .003 1 -1061.792 8.999)" gradientUnits="userSpaceOnUse" x1="1193.74" x2="1109.026" xlink:href="#lg2" y1="158.933" y2="158.933"/><linearGradient id="SVGID_3_" gradientTransform="matrix(-1 0 0 1 902.981 0)" gradientUnits="userSpaceOnUse" x1="502.358" x2="502.358" xlink:href="#lg1" y1="178.509" y2="86.629"/><linearGradient id="SVGID_4_" gradientTransform="matrix(-1 -.003 -.003 1 1964.774 8.999)" gradientUnits="userSpaceOnUse" x1="1594.717" x2="1510.002" xlink:href="#lg2" y1="160.256" y2="160.256"/><linearGradient id="SVGID_5_" gradientUnits="userSpaceOnUse" x1="251" x2="251" y1="427.083" y2="13.775"><stop offset="0" stop-color="#b39bdb"/><stop offset="1" stop-color="#d0c3e8"/></linearGradient><linearGradient id="SVGID_6_" gradientUnits="userSpaceOnUse" x1="251" x2="251" y1="500.601" y2="175.898"><stop offset="0" stop-color="#c3ace6"/><stop offset="1" stop-color="#dbd1ed"/></linearGradient><linearGradient id="lg3"><stop offset="0" stop-color="#ec6f80"/><stop offset="1" stop-color="#eca0aa"/></linearGradient><linearGradient id="SVGID_7_" gradientUnits="userSpaceOnUse" x1="251" x2="251" xlink:href="#lg3" y1="449.89" y2="211.933"/><linearGradient id="SVGID_8_" gradientTransform="matrix(1 .003 -.003 1 -2.331 -5.367)" gradientUnits="userSpaceOnUse" x1="253.894" x2="253.894" y1="208.722" y2="113.648"><stop offset="0" stop-color="#f4d952"/><stop offset="1" stop-color="#f9edaf"/></linearGradient><linearGradient id="SVGID_9_" gradientTransform="matrix(1 .003 -.003 1 -2.331 -5.367)" gradientUnits="userSpaceOnUse" x1="184.531" x2="323.757" xlink:href="#lg3" y1="104.035" y2="104.035"/><linearGradient id="SVGID_10_" gradientTransform="matrix(1 .003 -.003 1 -2.331 -5.367)" gradientUnits="userSpaceOnUse" x1="207.055" x2="281.584" y1="48.368" y2="48.368"><stop offset="0" stop-color="#7ed99e"/><stop offset=".2532" stop-color="#81daa3"/><stop offset=".5725" stop-color="#88ddb3"/><stop offset=".9261" stop-color="#95e2cd"/><stop offset="1" stop-color="#98e3d3"/></linearGradient><g><g><path d="m146.686 191.928c19.339-18.195 24.335-40.854 8.974-63.541-27.892-41.196-84.625-63.825-106.726-45.153-8.346 7.051-11.703 19.959-10.722 35.142 32.95 41.648 82.195 70.253 108.474 73.552z" fill="url(#SVGID_1_)"/><path d="m143.312 194.946c1.172-.99 2.291-1.999 3.374-3.018-24.641-48.956-74.32-68.272-108.473-73.552 1.618 25.022 15.034 56.229 37.412 77.627 20.911 19.994 45.585 17.615 67.687-1.057z" fill="url(#SVGID_2_)"/></g><g><path d="m355.314 191.928c-19.339-18.195-24.334-40.854-8.974-63.541 27.892-41.196 84.625-63.825 106.726-45.154 8.346 7.051 11.703 19.959 10.721 35.142-32.949 41.649-82.194 70.254-108.473 73.553z" fill="url(#SVGID_3_)"/><path d="m358.688 194.946c-1.172-.99-2.291-1.999-3.374-3.018 24.641-48.956 74.32-68.272 108.473-73.552-1.618 25.022-15.033 56.229-37.412 77.627-20.911 19.994-45.586 17.615-67.687-1.057z" fill="url(#SVGID_4_)"/></g><path d="m170.899 475.866c-67.999-49.624-142.323-122.367-142.323-206.923 0-82.359 67.004-149.363 149.364-149.363 25.595 0 50.862 6.682 73.061 19.1 22.197-12.418 47.465-19.1 73.061-19.1 82.359 0 149.364 67.004 149.364 149.363 0 84.576-74.36 157.325-142.323 206.924-47.276 34.5-111.99 35.186-160.204-.001z" fill="url(#SVGID_5_)"/><path d="m238.84 213.421c1.874-10.093-4.214-19.941-14.065-22.831-20.724-6.079-35.339-19.076-36.414-34.268-.044-.625-.071-1.252-.069-1.884.032-9.651 1.28-21.46 3.492-34.2-4.594-.432-9.213-.658-13.845-.658-9.193 0-18.193.84-26.932 2.438-1.737 11.837-2.684 22.835-2.715 32.296-.083 26.438 15.643 49.08 38.453 62.979 8.074 4.92 17.149 8.843 26.837 11.672 11.357 3.317 23.098-3.912 25.258-15.544z" fill="#997bce"/><path d="m327.734 161.058c-24.606 0-47.248 8.402-65.217 22.493-6.788 5.323-16.245 5.323-23.034 0-14.197-11.133-31.319-18.694-50.014-21.387-3.677 7.027-10.038 10.53-15.203 10.53-8.71 0-16.77 0-25.271-8.591-46.218 11.33-80.511 53.025-80.511 102.736 0 69.05 72.365 135.086 128.505 176.057 32.174 23.48 75.847 23.48 108.02 0 56.14-40.971 128.505-107.007 128.505-176.057.001-58.421-47.359-105.781-105.78-105.781z" fill="url(#SVGID_6_)"/><path d="m238.84 213.421c1.874-10.093-4.214-19.941-14.065-22.831-18.01-5.283-31.401-15.792-35.306-28.425-4.967-.715-10.038-1.107-15.203-1.107-8.71 0-17.172 1.061-25.271 3.046 3.285 22.208 17.81 41.039 37.75 53.189 8.074 4.92 17.149 8.843 26.837 11.672 11.357 3.317 23.098-3.912 25.258-15.544z" fill="#c5a6e3"/><path d="m327.734 201.058c-14.864 0-28.88 4.831-40.535 13.97-10.293 8.071-23.148 12.516-36.199 12.516-6.256 0-12.463-1.032-18.369-2.984-10.126 0-19.532-2.653-33.48-9.144-8.899-4.141-25.125-11.639-31.832-13.987-33.018 3.482-58.834 31.486-58.834 65.411 0 39.368 40.854 91.762 112.085 143.747 8.893 6.49 19.415 9.92 30.43 9.92s21.537-3.43 30.43-9.92c71.232-51.985 112.085-104.378 112.085-143.747 0-36.273-29.509-65.782-65.781-65.782z" fill="url(#SVGID_7_)"/><path d="m214.801 215.028c-11.654-9.139-25.671-13.97-40.535-13.97-2.347 0-4.663.129-6.947.37 5.561 6.074 12.129 11.419 19.426 15.866 8.074 4.92 17.149 8.843 26.837 11.672 6.976 2.037 14.093.091 19.049-4.406-6.414-2.121-12.472-5.33-17.83-9.532z" fill="#e05d6f"/><g><path d="m188.361 156.321c1.486 21.015 28.873 37.839 62.506 37.952 34.632.116 62.767-17.531 62.84-39.416.044-13.311-2.186-30.731-6.08-49.067-45.76-.761-79.476 11.58-119.266 50.531z" fill="url(#SVGID_8_)"/><path d="m288.006 42.605c-32.6 3.362-63.301 13.346-88.915 44.9-6.656 24.555-10.74 49.324-10.799 66.932-.002.632.025 1.259.069 1.884 37.05-9.176 78.904-24.639 119.266-50.531-4.57-21.52-11.435-44.295-19.621-63.185z" fill="url(#SVGID_9_)"/><path d="m288.006 42.605c-10.648-24.571-23.526-42.562-36.488-42.605-20.186-.068-40.464 43.373-52.427 87.505 28.975-9.476 59.839-23.677 88.915-44.9z" fill="url(#SVGID_10_)"/></g><g><ellipse cx="163.114" cy="295.131" fill="#efc5db" rx="14.936" ry="12.003"/><ellipse cx="338.885" cy="295.131" fill="#efc5db" rx="14.936" ry="12.003"/><ellipse cx="188.721" cy="265.513" fill="#fff" rx="29.618" ry="29.618" transform="matrix(.368 -.93 .93 .368 -127.578 343.409)"/><ellipse cx="313.279" cy="265.513" fill="#fff" rx="29.618" ry="29.618" transform="matrix(.368 -.93 .93 .368 -48.811 459.244)"/><g fill="#3b3b44"><g><ellipse cx="188.721" cy="265.513" rx="17.652" ry="17.652" transform="matrix(.16 -.987 .987 .16 -103.529 409.397)"/><ellipse cx="313.279" cy="265.513" rx="17.652" ry="17.652" transform="matrix(.229 -.974 .974 .229 -16.892 509.703)"/></g><path d="m251 296.073c-5.248 0-10.495-1.984-14.776-5.954-2.025-1.877-2.145-5.041-.267-7.066s5.042-2.145 7.066-.267c4.697 4.355 11.257 4.355 15.954 0 2.024-1.877 5.188-1.758 7.066.267 1.877 2.025 1.758 5.188-.267 7.066-4.281 3.97-9.528 5.954-14.776 5.954z"/></g></g><g fill="#e1cef5"><path d="m293.228 436.742c-3.085 0-6.128-1.422-8.086-4.105-3.256-4.461-2.279-10.717 2.183-13.973 8.334-6.082 16.502-12.375 24.276-18.702 4.283-3.486 10.582-2.839 14.068 1.444 3.486 4.284 2.839 10.582-1.444 14.068-8.045 6.547-16.494 13.056-25.11 19.344-1.779 1.299-3.842 1.924-5.887 1.924z"/><path d="m348.448 390.782c-2.623 0-5.242-1.025-7.205-3.064-3.831-3.979-3.711-10.309.267-14.14 2.773-2.67 5.501-5.374 8.109-8.036 3.866-3.946 10.197-4.011 14.141-.146 3.945 3.865 4.011 10.196.146 14.141-2.744 2.801-5.612 5.643-8.524 8.448-1.939 1.868-4.438 2.797-6.934 2.797z"/></g></g></svg>