<svg id="Capa_1" enable-background="new 0 0 502 502" height="512" viewBox="0 0 502 502" width="512" xmlns="http://www.w3.org/2000/svg" xmlns:xlink="http://www.w3.org/1999/xlink"><linearGradient id="lg1"><stop offset="0" stop-color="#cdd4d4"/><stop offset="1" stop-color="#f3f3f3"/></linearGradient><linearGradient id="SVGID_1_" gradientUnits="userSpaceOnUse" x1="143.669" x2="82.008" xlink:href="#lg1" y1="323.184" y2="323.184"/><linearGradient id="lg2"><stop offset="0" stop-color="#7ed99e"/><stop offset=".2532" stop-color="#81daa3"/><stop offset=".5725" stop-color="#88ddb3"/><stop offset=".9261" stop-color="#95e2cd"/><stop offset="1" stop-color="#98e3d3"/></linearGradient><linearGradient id="SVGID_2_" gradientTransform="matrix(-1 0 0 1 501.538 0)" gradientUnits="userSpaceOnUse" x1="159.498" x2="58.534" xlink:href="#lg2" y1="361.164" y2="361.164"/><linearGradient id="lg3"><stop offset="0" stop-color="#d9e0e0"/><stop offset="1" stop-color="#f3f3f3"/></linearGradient><linearGradient id="SVGID_3_" gradientUnits="userSpaceOnUse" x1="209.281" x2="209.281" xlink:href="#lg3" y1="366.653" y2="476.689"/><linearGradient id="SVGID_4_" gradientUnits="userSpaceOnUse" x1="280.009" x2="280.009" xlink:href="#lg3" y1="357.307" y2="476.378"/><linearGradient id="lg4"><stop offset="0" stop-color="#e08243"/><stop offset="1" stop-color="#f0bb78"/></linearGradient><linearGradient id="SVGID_5_" gradientUnits="userSpaceOnUse" x1="314.584" x2="265.354" xlink:href="#lg4" y1="483.583" y2="483.583"/><linearGradient id="lg5"><stop offset="0" stop-color="#b39bdb"/><stop offset="1" stop-color="#d0c3e8"/></linearGradient><linearGradient id="SVGID_6_" gradientTransform="matrix(-1 0 0 1 501.538 0)" gradientUnits="userSpaceOnUse" x1="155.926" x2="39.044" xlink:href="#lg5" y1="164.137" y2="164.137"/><linearGradient id="SVGID_7_" gradientTransform="matrix(-1 0 0 1 501.538 0)" gradientUnits="userSpaceOnUse" x1="241.261" x2="241.261" xlink:href="#lg5" y1="91.812" y2="11.166"/><linearGradient id="SVGID_8_" gradientTransform="matrix(-1 0 0 1 502 0)" gradientUnits="userSpaceOnUse" x1="332.284" x2="332.284" xlink:href="#lg1" y1="126.573" y2="45.889"/><linearGradient id="SVGID_9_" gradientTransform="matrix(-1 0 0 1 501.538 0)" gradientUnits="userSpaceOnUse" x1="258.07" x2="258.07" xlink:href="#lg1" y1="245.979" y2="414.776"/><linearGradient id="SVGID_10_" gradientTransform="matrix(-1 0 0 1 501.538 0)" gradientUnits="userSpaceOnUse" x1="77.807" x2="388.128" xlink:href="#lg3" y1="194.972" y2="194.972"/><linearGradient id="SVGID_11_" gradientTransform="matrix(-1 0 0 1 502 0)" gradientUnits="userSpaceOnUse" x1="256.354" x2="355.926" y1="104.548" y2="104.548"><stop offset="0" stop-color="#f4d952"/><stop offset="1" stop-color="#f9edaf"/></linearGradient><linearGradient id="SVGID_12_" gradientTransform="matrix(-1 0 0 1 501.538 0)" gradientUnits="userSpaceOnUse" x1="255.888" x2="335.415" y1="65.914" y2="65.914"><stop offset="0" stop-color="#ec6f80"/><stop offset="1" stop-color="#eca0aa"/></linearGradient><linearGradient id="SVGID_13_" gradientTransform="matrix(-1 0 0 1 501.538 0)" gradientUnits="userSpaceOnUse" x1="271.483" x2="332.826" xlink:href="#lg2" y1="26.692" y2="26.692"/><linearGradient id="SVGID_14_" gradientTransform="matrix(-1 0 0 1 502 0)" gradientUnits="userSpaceOnUse" x1="187.251" x2="187.251" xlink:href="#lg1" y1="177.588" y2="82.082"/><linearGradient id="SVGID_15_" gradientUnits="userSpaceOnUse" x1="257.298" x2="257.298" xlink:href="#lg3" y1="387.377" y2="325.629"/><linearGradient id="SVGID_16_" gradientUnits="userSpaceOnUse" x1="72.887" x2="72.887" xlink:href="#lg4" y1="357.906" y2="318.479"/><linearGradient id="SVGID_17_" gradientUnits="userSpaceOnUse" x1="205.162" x2="205.162" xlink:href="#lg4" y1="396.275" y2="354.06"/><linearGradient id="SVGID_18_" gradientUnits="userSpaceOnUse" x1="241.655" x2="192.066" xlink:href="#lg4" y1="483.931" y2="483.931"/><g><path d="m181.853 307.44c-5.979-12.901-21.285-18.512-34.185-12.534-8.869 4.11-29.539 7.719-57.363 7.45-7.675 13.787-7.675 36.134.715 51.492 25.954.149 57.253-2.47 78.298-12.223 12.902-5.979 18.514-21.284 12.535-34.185z" fill="url(#SVGID_1_)"/><path d="m331.83 409.786c-27.463-12.806-39.345-45.451-26.539-72.914s45.451-39.345 72.914-26.539c23.668 11.036 37.426 38.118 64.768 39.507 9.516.483 15.225 10.877 10.089 18.903-30.315 47.377-85.882 57.527-121.232 41.043z" fill="url(#SVGID_2_)"/><g fill="#a7f2d2"><path d="m373.651 407.093c-5.061 0-9.402-3.827-9.936-8.971-.568-5.494 3.424-10.408 8.917-10.977 3.221-.333 6.526-.934 9.825-1.785 5.353-1.38 10.802 1.839 12.181 7.186 1.379 5.348-1.839 10.801-7.187 12.18-4.26 1.099-8.553 1.876-12.759 2.312-.348.037-.697.055-1.041.055z"/><path d="m417.3 389.132c-2.924 0-5.821-1.276-7.797-3.732-3.462-4.303-2.78-10.598 1.523-14.06 4.247-3.417 8.169-7.341 11.656-11.663 3.469-4.298 9.764-4.971 14.062-1.502 4.299 3.468 4.972 9.764 1.503 14.062-4.384 5.433-9.324 10.375-14.684 14.687-1.848 1.485-4.063 2.208-6.263 2.208z"/></g><path d="m228.193 470.288c-.88-27.76 5.583-53.583 11.652-67.735 5.604-13.068-.447-28.205-13.516-33.808-13.067-5.605-28.204.447-33.808 13.516-8.276 19.299-16.373 51.32-15.873 86.098 14.095 11.025 37.039 10.519 51.545 1.929z" fill="url(#SVGID_3_)"/><path d="m254.929 469.946c17.836 9.412 38.186 8.179 51.498-1.634-2.301-33.527-2.738-47.819.387-82.979 1.259-14.163-9.201-26.665-23.364-27.924-14.166-1.258-26.665 9.203-27.924 23.365-3.292 37.014-2.971 53.947-.597 89.172z" fill="url(#SVGID_4_)"/><path d="m306.853 474.456c-.149-2.124-.29-4.162-.426-6.144-13.34-5.243-38.776-3.405-51.498 1.634.175 2.6.36 5.29.557 8.104.994 14.202 13.312 24.876 27.481 23.886 14.184-.993 24.878-13.296 23.886-27.48z" fill="url(#SVGID_5_)"/><path d="m265.246 142.162c-.126-40.119 32.664-74.063 72.783-74.073 40.216-.009 72.82 32.589 72.82 72.803 0 12.584.123 37.554 19.995 49.154 18.495 10.796 18.62 37.671.254 48.684-39.902 23.926-98.098 32.521-145.06 1.046 0 0-20.56-23.519-20.792-97.614z" fill="url(#SVGID_6_)"/><circle cx="260.277" cy="85.02" fill="url(#SVGID_7_)" r="72.803"/><path d="m146.177 50.109c21.317-7.759 56.942 24.248 66.319 62.112 5.453 22.02-5.783 37.88-27.101 45.638-21.317 7.759-40.119 2.832-50.096-17.541-17.156-35.032-10.439-82.45 10.878-90.209z" fill="url(#SVGID_8_)"/><path d="m189.305 255.356c-66.277 64.359-57.61 129.634-39.256 148.98 18.354 19.347 48.432 28.104 93.419 28.104s75.066-8.757 93.419-28.104 27.02-84.622-39.256-148.98z" fill="url(#SVGID_9_)"/><path d="m47.106 219.627c2.894 55.295 44.751 85.297 155.225 85.297s150.936-43.355 150.936-106.169-42.632-113.735-125.992-113.735c-83.359 0-183.87 63.877-180.169 134.607z" fill="url(#SVGID_10_)"/><g><ellipse cx="95.663" cy="208.775" fill="#eaadcd" rx="15.382" ry="12.361"/><ellipse cx="276.678" cy="208.775" fill="#eaadcd" rx="15.382" ry="12.361"/><circle cx="122.034" cy="178.274" fill="#fff" r="30.501"/><ellipse cx="109.711" cy="178.274" fill="#3b3b44" rx="18.179" ry="18.179" transform="matrix(.707 -.707 .707 .707 -93.925 129.793)"/><circle cx="250.307" cy="178.274" fill="#fff" r="30.501"/><g fill="#3b3b44"><ellipse cx="237.985" cy="178.274" rx="18.179" ry="18.179" transform="matrix(.16 -.987 .987 .16 23.892 384.629)"/><path d="m151.836 237.942h-15.634c-3.097 0-5.827 2.035-6.7 5.007-2.752 9.361-5.913 28.576 14.517 28.576s17.269-19.215 14.517-28.576c-.873-2.972-3.603-5.007-6.7-5.007z"/></g></g><g><path d="m243.375 98.825c1.457 14.436-15.155 29.066-37.966 33.089-23.489 4.142-44.652-4.534-47.27-19.377-1.592-9.028-2.122-21.112-1.631-34.012 30.966-5.885 55.295-1.465 86.867 20.3z" fill="url(#SVGID_11_)"/><path d="m210.431 101.186c1.899-.937 3.362-1.909 4.369-2.738-.245-1.032-.529-2.115-.831-3.22 9.705-.86 17.473-.66 29.404 3.596 1.059 10.49-7.419 21.082-20.889 27.633-8.326 4.049-18.218-1.022-19.825-10.139l-.016-.091c-1.092-6.196 2.146-12.256 7.788-15.041z" fill="#fcb500"/><path d="m162.412 33.344c22.518-1.543 44.524 1.631 65.609 20.039 7.398 15.883 13.075 32.213 15.181 44.155.076.429.131.857.174 1.287-26.22-1.881-56.437-7.464-86.866-20.3.576-15.14 2.563-31.401 5.902-45.181z" fill="url(#SVGID_12_)"/><path d="m214.54 56.286c7.115-2.825 15.19.585 18.114 7.659 5.099 12.336 8.907 24.294 10.547 33.593.076.428.129.858.172 1.287-9.348-.671-19.211-1.824-29.404-3.597-1.665-6.091-4.161-13.215-7.19-20.551-2.985-7.229.492-15.505 7.761-18.391z" fill="#e05d6f"/><path d="m162.412 33.344c4.343-17.924 10.972-31.644 19.764-33.194 13.691-2.414 32.549 24.687 45.845 53.233-20.776-3.032-43.387-9.048-65.609-20.039z" fill="url(#SVGID_13_)"/></g><path d="m338.288 51.139c-21.317-7.759-56.942 24.248-66.319 62.112-5.453 22.02 5.783 37.88 27.101 45.638 21.317 7.759 40.119 2.832 50.096-17.541 17.156-35.032 10.439-82.45-10.878-90.209z" fill="url(#SVGID_14_)"/><path d="m299.175 308.019c-9.625-10.465-25.913-11.146-36.379-1.52-13.088 12.039-34.551 23.304-53.422 30.752-4.211 22.322 10.248 35.292 20.993 47.091 26.524-10.653 51.334-25.27 67.288-39.945 10.465-9.626 11.145-25.912 1.52-36.378z" fill="url(#SVGID_15_)"/><path d="m147.743 169.707-37.94-17.692c-5.005-2.334-7.171-8.284-4.837-13.289 2.334-5.006 8.285-7.171 13.289-4.837l37.94 17.692c5.005 2.334 7.171 8.284 4.837 13.289-2.341 5.021-8.299 7.165-13.289 4.837z" fill="#c9d0d6"/><path d="m203.937 164.87c-2.334-5.005-.168-10.955 4.837-13.289l37.94-17.692c5.006-2.333 10.954-.169 13.289 4.837 2.334 5.005.168 10.955-4.837 13.289l-37.94 17.692c-4.984 2.324-10.944.191-13.289-4.837z" fill="#c9d0d6"/><path d="m87.565 113.518c-5.523 0-10-4.477-10-10v-22.634l-23.518-13.618c-7.319-4.237-6.382-15.133 1.574-18.045l25.943-9.494-19.563-9.74c-4.944-2.461-6.957-8.464-4.495-13.409 2.461-4.944 8.465-6.957 13.409-4.495l40.366 20.097c7.843 3.904 7.204 15.332-1.021 18.343l-27.705 10.139 10.021 5.803c3.088 1.788 4.989 5.086 4.989 8.654v28.399c0 5.523-4.477 10-10 10z" fill="#e07281"/><path d="m76.706 353.486c4.497.204 9.308.334 14.315.363 4.601-14.251 2.381-41.06-.715-51.492-3.639-.035-7.395-.134-11.269-.309-14.204-.656-26.242 10.349-26.885 24.553-.644 14.204 10.349 26.241 24.554 26.885z" fill="url(#SVGID_16_)"/><path d="m209.373 337.252c-4.054 1.6-7.99 3.027-11.696 4.244-13.51 4.436-20.865 18.984-16.428 32.493 4.426 13.478 18.953 20.876 32.493 16.428 5.573-1.83 11.135-3.869 16.624-6.074-1.351-18.078-11.081-36.126-20.993-47.091z" fill="url(#SVGID_17_)"/><path d="m228.39 474.708c-.089-1.478-.15-2.951-.197-4.42-13.725-5.539-37.465-5.519-51.545-1.93.045 3.128.153 6.276.343 9.441.822 13.667 12.163 24.201 25.676 24.201 14.862 0 26.613-12.497 25.723-27.292z" fill="url(#SVGID_18_)"/></g></svg>