<svg id="Capa_1" enable-background="new 0 0 502 502" height="512" viewBox="0 0 502 502" width="512" xmlns="http://www.w3.org/2000/svg" xmlns:xlink="http://www.w3.org/1999/xlink"><linearGradient id="lg1"><stop offset="0" stop-color="#7ed99e"/><stop offset=".2532" stop-color="#81daa3"/><stop offset=".5725" stop-color="#88ddb3"/><stop offset=".9261" stop-color="#95e2cd"/><stop offset="1" stop-color="#98e3d3"/></linearGradient><linearGradient id="SVGID_1_" gradientUnits="userSpaceOnUse" x1="117.575" x2="15.254" xlink:href="#lg1" y1="366.019" y2="366.019"/><linearGradient id="lg2"><stop offset="0" stop-color="#cdd4d4"/><stop offset="1" stop-color="#f3f3f3"/></linearGradient><linearGradient id="SVGID_2_" gradientUnits="userSpaceOnUse" x1="260.605" x2="260.605" xlink:href="#lg2" y1="371.588" y2="480.797"/><linearGradient id="lg3"><stop offset="0" stop-color="#e08243"/><stop offset="1" stop-color="#f0bb78"/></linearGradient><linearGradient id="SVGID_3_" gradientUnits="userSpaceOnUse" x1="247.376" x2="298.212" xlink:href="#lg3" y1="482.59" y2="482.59"/><linearGradient id="SVGID_4_" gradientUnits="userSpaceOnUse" x1="174.62" x2="174.62" xlink:href="#lg2" y1="371.236" y2="486.761"/><linearGradient id="SVGID_5_" gradientUnits="userSpaceOnUse" x1="314.205" x2="367.383" xlink:href="#lg2" y1="325.718" y2="325.718"/><linearGradient id="SVGID_6_" gradientTransform="matrix(.985 -.174 -.174 -.985 66.255 971.055)" gradientUnits="userSpaceOnUse" x1="431.021" x2="431.021" xlink:href="#lg3" y1="525.554" y2="620.829"/><linearGradient id="lg4"><stop offset="0" stop-color="#b39bdb"/><stop offset="1" stop-color="#d0c3e8"/></linearGradient><linearGradient id="SVGID_7_" gradientUnits="userSpaceOnUse" x1="113.955" x2="-4.498" xlink:href="#lg4" y1="166.343" y2="166.343"/><linearGradient id="SVGID_8_" gradientUnits="userSpaceOnUse" x1="200.437" x2="200.437" xlink:href="#lg4" y1="93.047" y2="11.316"/><linearGradient id="SVGID_9_" gradientUnits="userSpaceOnUse" x1="292.215" x2="292.215" xlink:href="#lg2" y1="128.274" y2="46.506"/><linearGradient id="SVGID_10_" gradientUnits="userSpaceOnUse" x1="217.472" x2="217.472" xlink:href="#lg2" y1="249.285" y2="420.351"/><linearGradient id="lg5"><stop offset="0" stop-color="#d9e0e0"/><stop offset="1" stop-color="#f3f3f3"/></linearGradient><linearGradient id="SVGID_11_" gradientUnits="userSpaceOnUse" x1="34.786" x2="349.278" xlink:href="#lg5" y1="197.593" y2="197.593"/><linearGradient id="SVGID_12_" gradientUnits="userSpaceOnUse" x1="215.265" x2="316.175" y1="105.953" y2="105.953"><stop offset="0" stop-color="#f4d952"/><stop offset="1" stop-color="#f9edaf"/></linearGradient><linearGradient id="SVGID_13_" gradientUnits="userSpaceOnUse" x1="215.261" x2="295.857" y1="66.8" y2="66.8"><stop offset="0" stop-color="#ec6f80"/><stop offset="1" stop-color="#eca0aa"/></linearGradient><linearGradient id="SVGID_14_" gradientUnits="userSpaceOnUse" x1="231.066" x2="293.233" xlink:href="#lg1" y1="27.05" y2="27.05"/><linearGradient id="SVGID_15_" gradientUnits="userSpaceOnUse" x1="145.233" x2="145.233" xlink:href="#lg2" y1="179.975" y2="83.186"/><linearGradient id="SVGID_16_" gradientUnits="userSpaceOnUse" x1="139.701" x2="139.701" xlink:href="#lg5" y1="405.363" y2="345.012"/><linearGradient id="SVGID_17_" gradientUnits="userSpaceOnUse" x1="124.114" x2="124.114" xlink:href="#lg3" y1="432.414" y2="391.31"/><linearGradient id="SVGID_18_" gradientUnits="userSpaceOnUse" x1="213.577" x2="213.577" y1="241.885" y2="162.676"><stop offset="0" stop-color="#6ac65e"/><stop offset="1" stop-color="#afd986"/></linearGradient><g><path d="m127.922 415.294c27.832-12.978 39.874-46.062 26.895-73.894-12.978-27.832-46.062-39.874-73.894-26.895-23.986 11.185-37.929 38.63-65.638 40.038-9.644.49-15.429 11.023-10.225 19.157 30.723 48.013 87.037 58.299 122.862 41.594z" fill="url(#SVGID_1_)"/><g fill="#a7f2d2"><path d="m85.539 412.43c-.344 0-.691-.018-1.042-.054-4.257-.441-8.6-1.228-12.909-2.339-5.349-1.378-8.566-6.832-7.188-12.18 1.379-5.347 6.833-8.567 12.18-7.187 3.351.864 6.707 1.474 9.978 1.813 5.494.569 9.485 5.484 8.916 10.978-.533 5.142-4.874 8.969-9.935 8.969z"/><path d="m41.304 394.227c-2.201 0-4.415-.723-6.263-2.209-5.425-4.365-10.425-9.366-14.86-14.863-3.469-4.298-2.796-10.594 1.503-14.063 4.295-3.467 10.593-2.796 14.061 1.503 3.539 4.387 7.521 8.37 11.833 11.84 4.304 3.462 4.984 9.757 1.522 14.06-1.975 2.456-4.873 3.732-7.796 3.732z"/></g><path d="m307.397 463.219c-12.855-36.076-37.554-71.762-48.463-83.391-9.86-10.51-26.374-11.037-36.88-1.177-10.51 9.859-11.037 26.371-1.177 36.881 6.741 7.186 27.064 36.379 37.265 64.915 17.976 2.143 37.178-5.811 49.255-17.228z" fill="url(#SVGID_2_)"/><path d="m308.951 467.737c-.493-1.506-1.017-3.012-1.554-4.518-13.861-.111-37.697 9.083-49.255 17.228.422 1.182.834 2.363 1.22 3.541 4.488 13.694 19.226 21.157 32.921 16.669 13.693-4.488 21.155-19.227 16.668-32.92z" fill="url(#SVGID_3_)"/><path d="m150.121 501.272c-6.228-2.267-9.44-9.155-7.173-15.384l7.095-19.491c2.269-6.229 9.155-9.443 15.384-7.173 6.228 2.267 9.44 9.155 7.173 15.383l-7.095 19.491c-2.26 6.21-9.135 9.448-15.384 7.174z" fill="#a37460"/><path d="m159.789 476.337c-13.697-4.476-21.172-19.209-16.697-32.906 6.188-18.914 9.478-26.969 12.275-57.601 1.31-14.351 14.027-24.92 28.357-23.611 14.351 1.311 24.922 14.006 23.611 28.357-3.355 36.731-8.175 49.251-14.64 69.065-4.483 13.718-19.227 21.166-32.906 16.696z" fill="url(#SVGID_4_)"/><path d="m279.013 339.249c-12.148-7.751-15.713-23.882-7.963-36.03 7.749-12.149 23.881-15.714 36.03-7.963 19.478 12.427 36.937 14.95 77.85 11.255 14.348-1.301 27.037 9.285 28.334 23.638 1.297 14.352-9.286 27.037-23.638 28.334-42.757 3.863-75.499 3.167-110.613-19.234z" fill="url(#SVGID_5_)"/><g><path d="m430.889 336.943-12.582 2.218c-6.532 1.148-12.753-3.207-13.904-9.736-1.151-6.528 3.207-12.753 9.736-13.904l16.771-2.957c8.516-1.501 17.026 3.216 20.233 11.218 2.253 5.622 8.426 8.785 14.363 7.356 10.143-2.445 12.864-15.951 4.136-22.063-5.43-3.802-6.75-11.286-2.948-16.716 3.801-5.431 11.285-6.75 16.715-2.948 8.195 5.738 13.71 14.716 15.127 24.631 2.625 18.334-9.412 36.095-27.407 40.432-15.837 3.819-32.372-3.552-40.24-17.531z" fill="#c9d0d6"/><path d="m364.159 336.522c1.903 10.79 5.43 25.1 11.379 36.891 3.221 6.384 10.975 9.019 17.407 5.894 18.335-8.907 29.25-30.11 25.333-52.328-3.918-22.218-21.426-38.409-41.702-40.508-7.113-.736-13.499 4.391-14.342 11.492-1.557 13.116.023 27.768 1.925 38.559z" fill="url(#SVGID_6_)"/></g><path d="m195.402 144.073c.128-40.659-33.103-75.059-73.762-75.068-40.757-.01-73.799 33.027-73.799 73.781 0 12.753-.125 38.059-20.264 49.815-18.743 10.941-18.871 38.177-.257 49.338 40.439 24.247 99.416 32.958 147.01 1.06 0 0 20.836-23.835 21.072-98.926z" fill="url(#SVGID_7_)"/><circle cx="200.437" cy="86.163" fill="url(#SVGID_8_)" r="73.781"/><path d="m316.07 50.783c-21.604-7.863-57.708 24.574-67.21 62.947-5.526 22.316 5.861 38.389 27.465 46.252s40.658 2.87 50.769-17.777c17.387-35.504 10.58-83.559-11.024-91.422z" fill="url(#SVGID_9_)"/><path d="m272.363 258.788c67.168 65.224 58.384 131.376 39.784 150.983s-49.082 28.482-94.675 28.482-76.075-8.875-94.675-28.482-27.384-85.759 39.784-150.983z" fill="url(#SVGID_10_)"/><path d="m416.473 222.579c-2.933 56.038-45.353 86.444-157.312 86.444s-152.965-43.937-152.965-107.596c0-63.658 43.205-115.264 127.685-115.264 84.481 0 186.343 64.735 182.592 136.416z" fill="url(#SVGID_11_)"/><g><ellipse cx="187.97" cy="212.147" fill="#eaadcd" rx="14.936" ry="12.003"/><ellipse cx="363.741" cy="212.147" fill="#eaadcd" rx="14.936" ry="12.003"/><circle cx="213.577" cy="182.53" fill="#fff" r="29.618"/><ellipse cx="225.542" cy="182.53" fill="#3b3b44" rx="17.652" ry="17.652" transform="matrix(.24 -.971 .971 .24 -5.836 357.603)"/><circle cx="338.134" cy="182.53" fill="#fff" r="29.618"/><g fill="#3b3b44"><ellipse cx="350.037" cy="182.53" rx="17.652" ry="17.652" transform="matrix(.795 -.607 .607 .795 -38.949 249.859)"/><ellipse cx="318.257" cy="253.161" rx="13.252" ry="17.352"/></g></g><g><path d="m217.566 100.154c-1.476 14.63 15.359 29.457 38.476 33.534 23.805 4.197 45.253-4.595 47.905-19.637 1.613-9.149 2.151-21.395 1.653-34.469-31.381-5.965-56.037-1.487-88.034 20.572z" fill="url(#SVGID_12_)"/><path d="m250.953 102.546c-1.925-.95-3.407-1.934-4.428-2.775.248-1.046.536-2.143.842-3.263-9.836-.872-17.707-.669-29.799 3.645-1.073 10.631 7.519 21.366 21.169 28.004 8.438 4.103 18.463-1.036 20.092-10.276l.016-.092c1.108-6.279-2.174-12.42-7.892-15.243z" fill="#fcb500"/><path d="m299.618 33.792c-22.82-1.564-45.122 1.653-66.49 20.308-7.497 16.097-13.251 32.646-15.385 44.749-.077.434-.133.869-.176 1.304 26.572-1.906 57.196-7.564 88.034-20.573-.586-15.343-2.599-31.823-5.983-45.788z" fill="url(#SVGID_13_)"/><path d="m246.788 57.043c-7.21-2.863-15.394.593-18.357 7.762-5.167 12.502-9.027 24.62-10.689 34.045-.077.434-.131.869-.175 1.304 9.474-.679 19.469-1.848 29.799-3.645 1.687-6.173 4.217-13.392 7.287-20.827 3.026-7.327-.498-15.714-7.865-18.639z" fill="#e05d6f"/><path d="m299.618 33.792c-4.402-18.165-11.12-32.069-20.03-33.64-13.875-2.447-32.986 25.019-46.461 53.949 21.055-3.073 43.97-9.17 66.491-20.309z" fill="url(#SVGID_14_)"/></g><path d="m121.378 51.826c21.604-7.863 57.708 24.574 67.21 62.947 5.526 22.316-5.861 38.389-27.465 46.252s-40.658 2.871-50.769-17.777c-17.387-35.503-10.58-83.558 11.024-91.422z" fill="url(#SVGID_15_)"/><path d="m178.758 319.374c-5.771-13.204-21.154-19.23-34.358-13.459-27.001 11.801-42.759 47.307-45.947 78.685 7.743 15.754 36.929 16.792 51.928 4.854 1.816-17.389 10.207-33.203 14.917-35.723 13.205-5.77 19.231-21.153 13.46-34.357z" fill="url(#SVGID_16_)"/><path d="m98.454 384.6c-.474 4.662-.675 9.234-.59 13.622.278 14.234 11.904 25.582 26.077 25.582.172 0 .348-.002.521-.005 14.407-.282 25.859-12.19 25.576-26.597-.051-2.592.077-5.186.344-7.748-13.059-6.37-40.729-7.55-51.928-4.854z" fill="url(#SVGID_17_)"/><path d="m96.611 211.89c-.934-5.443 2.722-10.613 8.165-11.547 67.351-11.555 174.816-44.882 222.438-94.432 3.827-3.984 10.158-4.107 14.14-.281 3.981 3.827 4.107 10.157.28 14.139-25.621 26.658-66.626 50.313-121.878 70.308-41.958 15.184-85.158 25.441-111.597 29.978-5.42.93-10.609-2.698-11.548-8.165z" fill="#a37460"/><path d="m229.472 148.631h-31.792c-9.943 0-18.003 8.06-18.003 18.003v15.896c0 18.722 15.177 33.899 33.899 33.899 18.722 0 33.899-15.177 33.899-33.899v-15.896c0-9.943-8.06-18.003-18.003-18.003z" fill="url(#SVGID_18_)"/></g></svg>