<svg id="Capa_1" enable-background="new 0 0 502 502" height="512" viewBox="0 0 502 502" width="512" xmlns="http://www.w3.org/2000/svg" xmlns:xlink="http://www.w3.org/1999/xlink"><linearGradient id="lg1"><stop offset="0" stop-color="#cdd4d4"/><stop offset="1" stop-color="#f3f3f3"/></linearGradient><linearGradient id="SVGID_1_" gradientTransform="matrix(-1 0 0 1 -4153.019 0)" gradientUnits="userSpaceOnUse" x1="-4602.209" x2="-4602.209" xlink:href="#lg1" y1="192.459" y2="127.98"/><linearGradient id="lg2"><stop offset="0" stop-color="#d5738e"/><stop offset="1" stop-color="#e6a3c1"/></linearGradient><linearGradient id="SVGID_2_" gradientTransform="matrix(-1 -.003 -.003 1 -3091.227 .657)" gradientUnits="userSpaceOnUse" x1="-3527.046" x2="-3597.689" xlink:href="#lg2" y1="182.43" y2="182.43"/><linearGradient id="SVGID_3_" gradientUnits="userSpaceOnUse" x1="52.81" x2="52.81" xlink:href="#lg1" y1="192.459" y2="127.98"/><linearGradient id="SVGID_4_" gradientTransform="matrix(1 -.003 .003 1 3193.226 .657)" gradientUnits="userSpaceOnUse" x1="-3127.051" x2="-3197.693" xlink:href="#lg2" y1="183.75" y2="183.75"/><linearGradient id="lg3"><stop offset="0" stop-color="#b39bdb"/><stop offset="1" stop-color="#d0c3e8"/></linearGradient><linearGradient id="SVGID_5_" gradientUnits="userSpaceOnUse" x1="251" x2="251" xlink:href="#lg3" y1="328.773" y2="524.698"/><linearGradient id="SVGID_7_" gradientUnits="userSpaceOnUse" x1="251" x2="251" y1="519.575" y2="231.493"><stop offset="0" stop-color="#74d2e8"/><stop offset="1" stop-color="#baeaf5"/></linearGradient><linearGradient id="lg4"><stop offset="0" stop-color="#f4d952"/><stop offset="1" stop-color="#f9edaf"/></linearGradient><linearGradient id="SVGID_8_" gradientUnits="userSpaceOnUse" x1="185.722" x2="359.949" xlink:href="#lg4" y1="369.928" y2="369.928"/><linearGradient id="SVGID_9_" gradientUnits="userSpaceOnUse" x1="251" x2="251" xlink:href="#lg3" y1="354.752" y2="403.319"/><linearGradient id="SVGID_10_" gradientUnits="userSpaceOnUse" x1="251" x2="251" xlink:href="#lg4" y1="154.489" y2="13.429"/><linearGradient id="SVGID_11_" gradientTransform="matrix(1 .003 -.003 1 -2.331 2.976)" gradientUnits="userSpaceOnUse" x1="254.055" x2="254.055" xlink:href="#lg4" y1="246.768" y2="178.682"/><linearGradient id="SVGID_12_" gradientTransform="matrix(1 .003 -.003 1 -2.331 2.976)" gradientUnits="userSpaceOnUse" x1="204.382" x2="304.087" y1="171.798" y2="171.798"><stop offset="0" stop-color="#ec6f80"/><stop offset="1" stop-color="#eca0aa"/></linearGradient><linearGradient id="SVGID_13_" gradientTransform="matrix(1 .003 -.003 1 -2.331 2.976)" gradientUnits="userSpaceOnUse" x1="220.512" x2="273.885" y1="131.932" y2="131.932"><stop offset="0" stop-color="#7ed99e"/><stop offset=".2532" stop-color="#81daa3"/><stop offset=".5725" stop-color="#88ddb3"/><stop offset=".9261" stop-color="#95e2cd"/><stop offset="1" stop-color="#98e3d3"/></linearGradient><g><g><path d="m411.407 217.982c-16.127-15.173-20.292-34.068-7.484-52.986 23.259-34.353 70.568-53.223 88.998-37.653 6.96 5.88 9.759 16.644 8.94 29.305-27.475 34.729-68.541 58.583-90.454 61.334z" fill="url(#SVGID_1_)"/><path d="m414.221 220.499c-.977-.826-1.91-1.667-2.814-2.517 20.548-40.824 61.975-56.931 90.455-61.335-1.349 20.866-12.536 46.889-31.198 64.733-17.438 16.673-38.013 14.689-56.443-.881z" fill="url(#SVGID_2_)"/></g><g><path d="m90.593 217.982c16.127-15.173 20.292-34.068 7.484-52.986-23.259-34.353-70.568-53.223-88.998-37.653-6.96 5.88-9.759 16.644-8.941 29.305 27.476 34.729 68.542 58.583 90.455 61.334z" fill="url(#SVGID_3_)"/><path d="m87.779 220.499c.978-.826 1.91-1.667 2.814-2.517-20.548-40.824-61.975-56.931-90.455-61.335 1.35 20.866 12.536 46.889 31.198 64.733 17.438 16.673 38.013 14.689 56.443-.881z" fill="url(#SVGID_4_)"/></g><path d="m453.14 239.756h-404.281v152.088c0 38.876 31.516 70.392 70.392 70.392h263.497c38.876 0 70.392-31.516 70.392-70.392z" fill="url(#SVGID_5_)"/><path d="m453.14 239.756h-404.281v152.088c0 38.876 31.516 70.392 70.392 70.392h263.497c38.876 0 70.392-31.516 70.392-70.392z" fill="url(#SVGID_5_)"/><path d="m320.444 369.928h-138.888c-79.553 0-144.044-64.49-144.044-144.044v-15.37c0-22.759 18.45-41.209 41.209-41.209h344.558c22.759 0 41.209 18.45 41.209 41.209v15.37c-.001 79.553-64.491 144.044-144.044 144.044z" fill="url(#SVGID_7_)"/><path d="m288.77 325.864h-75.54c-13.925 0-25.213 11.288-25.213 25.213v37.701c0 13.925 11.288 25.213 25.213 25.213h75.54c13.925 0 25.213-11.288 25.213-25.213v-37.701c0-13.924-11.288-25.213-25.213-25.213z" fill="url(#SVGID_8_)"/><path d="m274.354 349.883h-46.708c-5.117 0-9.265 4.148-9.265 9.265v21.558c0 5.117 4.148 9.265 9.265 9.265h46.708c5.117 0 9.265-4.148 9.265-9.265v-21.558c0-5.116-4.148-9.265-9.265-9.265z" fill="url(#SVGID_9_)"/><path d="m381.269 169.305h-54.68v-36.326c0-21.248-17.287-38.535-38.536-38.535h-74.106c-21.248 0-38.536 17.287-38.536 38.535v36.326h-54.68v-36.326c0-51.399 41.816-93.215 93.216-93.215h74.106c51.399 0 93.216 41.816 93.216 93.215z" fill="url(#SVGID_10_)"/><g><path d="m206.142 216.299c1.064 15.05 20.677 27.098 44.763 27.179 24.802.083 44.95-12.555 45.002-28.228.032-9.533-1.565-22.008-4.354-35.139-32.771-.544-56.916 8.293-85.411 36.188z" fill="url(#SVGID_11_)"/><path d="m277.502 134.863c-23.346 2.408-45.332 9.558-63.676 32.155-4.767 17.585-7.691 35.323-7.733 47.932-.001.452.018.902.05 1.349 26.533-6.572 56.506-17.645 85.411-36.187-3.274-15.412-8.19-31.722-14.052-45.249z" fill="url(#SVGID_12_)"/><path d="m277.502 134.863c-7.625-17.597-16.848-30.48-26.131-30.511-14.456-.048-28.978 31.061-37.545 62.666 20.75-6.787 42.853-16.957 63.676-32.155z" fill="url(#SVGID_13_)"/></g><path d="m200.65 426.104c3.095-6.218 1.44-13.665-3.831-18.187-5.389-4.623-8.803-11.482-8.803-19.139v-18.85h-6.461c-59.641 0-110.815-36.247-132.697-87.913v56.362c27.329 32.185 66.131 54.34 110.024 60.075 2.291 12.902 9.075 24.268 18.671 32.417 7.41 6.291 18.766 3.936 23.097-4.765z" fill="#997bce"/><g><ellipse cx="163.184" cy="306.231" fill="#ff8392" rx="14.925" ry="11.994"/><ellipse cx="338.816" cy="306.231" fill="#ff8392" rx="14.925" ry="11.994"/><ellipse cx="313.229" cy="276.674" fill="#fff" rx="29.557" ry="29.557" transform="matrix(.159 -.987 .987 .159 -9.654 542.019)"/><path d="m295.657 278.122c.755 9.046 8.331 16.153 17.572 16.153s16.817-7.108 17.572-16.153z" fill="#3b3b44"/><path d="m313.229 247.118c-16.324 0-29.557 13.233-29.557 29.557 0 .486.013.968.037 1.447h59.04c.023-.48.037-.962.037-1.447 0-16.324-13.233-29.557-29.557-29.557z" fill="#a37460"/><ellipse cx="188.771" cy="276.674" fill="#fff" rx="29.557" ry="29.557" transform="matrix(.159 -.987 .987 .159 -114.358 419.138)"/><path d="m171.199 278.122c.755 9.046 8.331 16.153 17.571 16.153 9.241 0 16.817-7.108 17.572-16.153z" fill="#3b3b44"/><path d="m188.771 247.118c-16.324 0-29.557 13.233-29.557 29.557 0 .486.014.968.037 1.447h59.04c.023-.48.037-.962.037-1.447 0-16.324-13.234-29.557-29.557-29.557z" fill="#a37460"/><path d="m262.365 309.68c-1.824 0-3.653-.662-5.098-2-3.748-3.477-8.787-3.477-12.535 0-3.037 2.816-7.782 2.637-10.6-.401-2.816-3.037-2.637-7.783.4-10.599 9.543-8.846 23.391-8.846 32.934 0 3.037 2.816 3.217 7.562.4 10.599-1.476 1.594-3.486 2.401-5.501 2.401z" fill="#3b3b44"/></g><g fill="#dff7fa"><path d="m381.921 331.903c-3.291 0-6.512-1.622-8.423-4.596-2.985-4.647-1.639-10.833 3.008-13.819 2.035-1.308 4.056-2.708 6.006-4.162 4.428-3.302 10.693-2.387 13.994 2.041s2.387 10.693-2.041 13.994c-2.319 1.729-4.725 3.396-7.148 4.953-1.673 1.075-3.546 1.589-5.396 1.589z"/><path d="m416.184 297.767c-1.864 0-3.751-.521-5.433-1.611-4.633-3.006-5.953-9.199-2.947-13.832 3.098-4.775 5.817-9.833 8.084-15.036 2.207-5.064 8.101-7.379 13.162-5.173 5.063 2.206 7.38 8.099 5.174 13.162-2.704 6.206-5.948 12.239-9.641 17.933-1.915 2.951-5.124 4.557-8.399 4.557z"/></g></g></svg>