<svg id="Capa_1" enable-background="new 0 0 502 502" height="512" viewBox="0 0 502 502" width="512" xmlns="http://www.w3.org/2000/svg" xmlns:xlink="http://www.w3.org/1999/xlink"><linearGradient id="lg1"><stop offset="0" stop-color="#7ed99e"/><stop offset=".2532" stop-color="#81daa3"/><stop offset=".5725" stop-color="#88ddb3"/><stop offset=".9261" stop-color="#95e2cd"/><stop offset="1" stop-color="#98e3d3"/></linearGradient><linearGradient id="SVGID_1_" gradientUnits="userSpaceOnUse" x1="145.458" x2="44.494" xlink:href="#lg1" y1="361.165" y2="361.165"/><linearGradient id="lg2"><stop offset="0" stop-color="#cdd4d4"/><stop offset="1" stop-color="#f3f3f3"/></linearGradient><linearGradient id="SVGID_2_" gradientUnits="userSpaceOnUse" x1="206.917" x2="206.917" xlink:href="#lg2" y1="357.302" y2="478.284"/><linearGradient id="lg3"><stop offset="0" stop-color="#e08243"/><stop offset="1" stop-color="#f0bb78"/></linearGradient><linearGradient id="SVGID_3_" gradientUnits="userSpaceOnUse" x1="176.732" x2="218.941" xlink:href="#lg3" y1="483.91" y2="483.91"/><linearGradient id="SVGID_4_" gradientUnits="userSpaceOnUse" x1="343.194" x2="387.571" xlink:href="#lg2" y1="326.985" y2="326.985"/><linearGradient id="SVGID_5_" gradientUnits="userSpaceOnUse" x1="402.814" x2="402.814" xlink:href="#lg3" y1="382.85" y2="354.745"/><linearGradient id="lg4"><stop offset="0" stop-color="#b39bdb"/><stop offset="1" stop-color="#d0c3e8"/></linearGradient><linearGradient id="SVGID_6_" gradientUnits="userSpaceOnUse" x1="141.887" x2="25.004" xlink:href="#lg4" y1="164.137" y2="164.137"/><linearGradient id="SVGID_7_" gradientUnits="userSpaceOnUse" x1="227.222" x2="227.222" xlink:href="#lg4" y1="91.813" y2="11.166"/><linearGradient id="SVGID_8_" gradientUnits="userSpaceOnUse" x1="317.783" x2="317.783" xlink:href="#lg2" y1="116.102" y2="35.417"/><linearGradient id="SVGID_9_" gradientUnits="userSpaceOnUse" x1="282.034" x2="282.034" xlink:href="#lg2" y1="357.302" y2="478.284"/><linearGradient id="SVGID_10_" gradientUnits="userSpaceOnUse" x1="251.85" x2="294.058" xlink:href="#lg3" y1="483.91" y2="483.91"/><linearGradient id="SVGID_11_" gradientUnits="userSpaceOnUse" x1="244.031" x2="244.031" xlink:href="#lg2" y1="245.979" y2="414.776"/><linearGradient id="lg5"><stop offset="0" stop-color="#d9e0e0"/><stop offset="1" stop-color="#f3f3f3"/></linearGradient><linearGradient id="SVGID_12_" gradientUnits="userSpaceOnUse" x1="63.767" x2="374.089" xlink:href="#lg5" y1="194.972" y2="194.972"/><linearGradient id="lg6"><stop offset="0" stop-color="#f4d952"/><stop offset="1" stop-color="#f9edaf"/></linearGradient><linearGradient id="SVGID_13_" gradientUnits="userSpaceOnUse" x1="241.853" x2="341.425" xlink:href="#lg6" y1="104.548" y2="104.548"/><linearGradient id="lg7"><stop offset="0" stop-color="#ec6f80"/><stop offset="1" stop-color="#eca0aa"/></linearGradient><linearGradient id="SVGID_14_" gradientUnits="userSpaceOnUse" x1="241.849" x2="321.376" xlink:href="#lg7" y1="65.914" y2="65.914"/><linearGradient id="SVGID_15_" gradientUnits="userSpaceOnUse" x1="257.444" x2="318.787" xlink:href="#lg1" y1="26.692" y2="26.692"/><linearGradient id="SVGID_16_" gradientUnits="userSpaceOnUse" x1="172.75" x2="172.75" xlink:href="#lg2" y1="151.381" y2="55.875"/><linearGradient id="SVGID_17_" gradientUnits="userSpaceOnUse" x1="238.602" x2="238.602" xlink:href="#lg5" y1="379.27" y2="319.542"/><linearGradient id="SVGID_18_" gradientUnits="userSpaceOnUse" x1="298.803" x2="298.803" xlink:href="#lg3" y1="337.435" y2="292.448"/><linearGradient id="SVGID_19_" gradientUnits="userSpaceOnUse" x1="314.161" x2="102.483" y1="136.126" y2="136.126"><stop offset="0" stop-color="#efc27b"/><stop offset="1" stop-color="#f3d5a6"/></linearGradient><linearGradient id="SVGID_20_" gradientUnits="userSpaceOnUse" x1="361.929" x2="361.929" y1="166.626" y2="68.995"><stop offset="0" stop-color="#74d2e8"/><stop offset="1" stop-color="#baeaf5"/></linearGradient><linearGradient id="SVGID_21_" gradientUnits="userSpaceOnUse" x1="361.929" x2="361.929" y1="130.03" y2="80.598"><stop offset="0" stop-color="#53aae6"/><stop offset="1" stop-color="#a4d2f0"/></linearGradient><linearGradient id="SVGID_22_" gradientUnits="userSpaceOnUse" x1="419.602" x2="419.602" xlink:href="#lg7" y1="359.318" y2="271.698"/><linearGradient id="SVGID_23_" gradientUnits="userSpaceOnUse" x1="439.354" x2="439.354" xlink:href="#lg6" y1="338.735" y2="274.638"/><g><path d="m155.669 409.787c27.463-12.806 39.345-45.451 26.539-72.914s-45.451-39.345-72.914-26.539c-23.668 11.036-37.426 38.118-64.768 39.507-9.516.483-15.225 10.877-10.089 18.903 30.314 47.377 85.881 57.527 121.232 41.043z" fill="url(#SVGID_1_)"/><g fill="#a7f2d2"><path d="m113.848 407.094c-.345 0-.693-.018-1.043-.054-4.21-.437-8.502-1.214-12.758-2.312-5.348-1.379-8.565-6.832-7.186-12.18s6.834-8.566 12.18-7.186c3.296.85 6.602 1.451 9.826 1.785 5.494.57 9.485 5.485 8.916 10.978-.534 5.142-4.876 8.969-9.935 8.969z"/><path d="m70.198 389.132c-2.2 0-4.415-.723-6.263-2.209-5.359-4.313-10.299-9.253-14.683-14.685-3.468-4.298-2.796-10.594 1.502-14.063 4.299-3.468 10.595-2.795 14.063 1.502 3.487 4.322 7.409 8.246 11.657 11.664 4.303 3.462 4.984 9.757 1.522 14.06-1.977 2.455-4.874 3.731-7.798 3.731z"/></g><path d="m184.582 468.132c14.549 13.448 36.156 13.266 51.483 1.047.888-30.008.164-61.679-7.93-92.637-3.597-13.758-17.671-21.995-31.42-18.397-13.757 3.596-21.993 17.664-18.397 31.421 6.533 24.99 7.056 52.31 6.264 78.566z" fill="url(#SVGID_2_)"/><path d="m235.796 477.236c.102-2.669.19-5.358.27-8.056-12.331-4.573-37.706-4.027-51.483-1.047-.072 2.389-.151 4.772-.241 7.14-.542 14.208 10.537 26.167 24.746 26.709 14.27.536 26.168-10.592 26.708-24.746z" fill="url(#SVGID_3_)"/><path d="m391.816 316.401c-24.095-5.42-38.594-15.831-62.501-26.767-12.931-5.914-28.208-.23-34.123 12.702-5.915 12.93-.229 28.207 12.702 34.123 22.323 10.213 41.36 23.19 72.797 30.219 17.373-11.12 17.373-32.581 11.125-50.277z" fill="url(#SVGID_4_)"/><path d="m402.834 318.412c-3.908-.559-7.562-1.234-11.018-2.012-5.853 11.084-10.391 35.901-11.125 50.275 4.663 1.042 9.593 1.957 14.853 2.709 14.117 2.022 27.125-7.809 29.132-21.841 2.013-14.075-7.766-27.118-21.842-29.131z" fill="url(#SVGID_5_)"/><path d="m222.253 142.162c.126-40.12-32.664-74.063-72.784-74.073-40.216-.009-72.821 32.589-72.821 72.803 0 12.584-.123 37.554-19.995 49.154-18.495 10.796-18.62 37.671-.253 48.684 39.902 23.926 98.098 32.521 145.06 1.046.001.001 20.56-23.519 20.793-97.614z" fill="url(#SVGID_6_)"/><circle cx="227.222" cy="85.02" fill="url(#SVGID_7_)" r="72.803"/><path d="m341.321 50.109c-21.317-7.759-56.942 24.248-66.319 62.112-5.453 22.02 5.783 37.88 27.101 45.638 21.317 7.759 40.119 2.832 50.096-17.541 17.157-35.032 10.44-82.45-10.878-90.209z" fill="url(#SVGID_8_)"/><path d="m259.7 468.132c14.549 13.448 36.156 13.266 51.483 1.047.888-30.008.164-61.679-7.93-92.637-3.597-13.758-17.671-21.995-31.421-18.397-13.757 3.596-21.993 17.664-18.397 31.421 6.534 24.99 7.057 52.31 6.265 78.566z" fill="url(#SVGID_9_)"/><path d="m310.913 477.236c.102-2.669.19-5.358.27-8.056-12.331-4.573-37.706-4.027-51.483-1.047-.072 2.389-.151 4.772-.241 7.14-.542 14.208 10.537 26.167 24.746 26.709 14.271.536 26.168-10.592 26.708-24.746z" fill="url(#SVGID_10_)"/><path d="m298.194 255.356c66.277 64.359 57.61 129.634 39.256 148.981s-48.432 28.104-93.419 28.104c-44.988 0-75.066-8.757-93.419-28.104-18.354-19.347-27.021-84.622 39.256-148.981z" fill="url(#SVGID_11_)"/><path d="m440.393 219.627c-2.894 55.295-44.751 85.297-155.225 85.297s-150.937-43.354-150.937-106.168 42.632-113.736 125.992-113.736 183.871 63.877 180.17 134.607z" fill="url(#SVGID_12_)"/><g><ellipse cx="211.036" cy="222.347" fill="#eaadcd" rx="15.382" ry="12.361"/><ellipse cx="392.052" cy="222.347" fill="#eaadcd" rx="15.382" ry="12.361"/><ellipse cx="237.407" cy="191.845" fill="#fff" rx="30.501" ry="30.501" transform="matrix(.23 -.973 .973 .23 -3.851 378.825)"/><ellipse cx="249.73" cy="191.845" fill="#3b3b44" rx="18.179" ry="18.179" transform="matrix(.23 -.973 .973 .23 5.64 390.818)"/><ellipse cx="365.681" cy="191.845" fill="#fff" rx="30.501" ry="30.501" transform="matrix(.16 -.987 .987 .16 117.737 522.074)"/><g fill="#3b3b44"><ellipse cx="377.939" cy="191.845" rx="18.179" ry="18.179" transform="matrix(.462 -.887 .887 .462 33.24 438.473)"/><ellipse cx="340.849" cy="261.677" rx="13.647" ry="17.87"/></g></g><g><path d="m244.124 98.825c-1.457 14.436 15.155 29.066 37.966 33.089 23.489 4.142 44.652-4.534 47.27-19.377 1.592-9.028 2.122-21.112 1.631-34.012-30.966-5.885-55.295-1.465-86.867 20.3z" fill="url(#SVGID_13_)"/><path d="m277.068 101.187c-1.9-.937-3.362-1.909-4.369-2.738.245-1.032.529-2.115.831-3.22-9.705-.861-17.473-.66-29.404 3.596-1.059 10.49 7.419 21.082 20.889 27.633 8.326 4.049 18.218-1.022 19.825-10.139l.016-.091c1.092-6.196-2.147-12.257-7.788-15.041z" fill="#fcb500"/><path d="m325.087 33.344c-22.518-1.543-44.524 1.631-65.609 20.039-7.398 15.883-13.075 32.213-15.181 44.155-.076.429-.131.857-.174 1.287 26.22-1.881 56.438-7.464 86.866-20.3-.576-15.14-2.563-31.401-5.902-45.181z" fill="url(#SVGID_14_)"/><path d="m272.958 56.286c-7.115-2.825-15.19.585-18.113 7.659-5.099 12.336-8.907 24.294-10.547 33.593-.076.428-.129.857-.172 1.286 9.348-.671 19.211-1.824 29.404-3.596 1.665-6.091 4.161-13.215 7.19-20.551 2.984-7.229-.493-15.505-7.762-18.391z" fill="#e05d6f"/><path d="m325.087 33.344c-4.343-17.924-10.972-31.644-19.764-33.194-13.691-2.414-32.549 24.687-45.845 53.233 20.776-3.031 43.387-9.048 65.609-20.039z" fill="url(#SVGID_15_)"/></g><path d="m149.211 51.139c21.317-7.759 56.942 24.248 66.319 62.112 5.453 22.02-5.783 37.88-27.101 45.638-21.317 7.759-40.119 2.832-50.096-17.541-17.156-35.032-10.44-82.45 10.878-90.209z" fill="url(#SVGID_16_)"/><path d="m273.897 283.491c-18.776 5.686-43.63 11.797-67.471 15.486-14.052 2.174-23.681 15.328-21.506 29.38 2.169 14.022 15.296 23.684 29.38 21.506 28.611-4.427 56.632-11.565 76.89-17.818 4.618-14.291-2.434-39.72-17.293-48.554z" fill="url(#SVGID_17_)"/><path d="m306.65 326.926c13.384-4.802 20.341-19.544 15.539-32.928-4.802-13.383-19.544-20.339-32.928-15.539-4.409 1.582-9.604 3.287-15.364 5.031 1.874 17.637 9.275 39.794 17.292 48.554 5.86-1.808 11.075-3.544 15.461-5.118z" fill="url(#SVGID_18_)"/><path d="m134.231 170.494c-11.375 0-20.597-9.221-20.597-20.597s9.222-20.477 20.597-20.597c16.546-.175 137.154.565 206.143-26.149 10.605-4.107 22.537 1.161 26.644 11.769 4.108 10.608-1.162 22.537-11.769 26.645-68.004 26.333-150.144 28.929-221.018 28.929z" fill="url(#SVGID_19_)"/><circle cx="361.929" cy="104.548" fill="url(#SVGID_20_)" r="50.323"/><circle cx="361.929" cy="104.548" fill="url(#SVGID_21_)" r="19.696"/><g><path d="m397.855 346.275c-11.192-11.192-11.192-29.337 0-40.529l11.358-11.358 40.529 40.529-11.358 11.358c-11.192 11.192-29.337 11.192-40.529 0z" fill="url(#SVGID_22_)"/><path d="m461.101 283.03c-11.192-11.192-29.337-11.192-40.529 0l-11.358 11.358 40.529 40.529 11.358-11.358c11.191-11.192 11.191-29.338 0-40.529z" fill="url(#SVGID_23_)"/></g></g></svg>