<svg id="Capa_1" enable-background="new 0 0 502 502" height="512" viewBox="0 0 502 502" width="512" xmlns="http://www.w3.org/2000/svg" xmlns:xlink="http://www.w3.org/1999/xlink"><linearGradient id="lg1"><stop offset="0" stop-color="#cdd4d4"/><stop offset="1" stop-color="#f3f3f3"/></linearGradient><linearGradient id="SVGID_1_" gradientUnits="userSpaceOnUse" x1="84.295" x2="84.295" xlink:href="#lg1" y1="197.387" y2="115.71"/><linearGradient id="lg2"><stop offset="0" stop-color="#d5738e"/><stop offset="1" stop-color="#e6a3c1"/></linearGradient><linearGradient id="SVGID_2_" gradientTransform="matrix(1 -.003 .003 1 4.347 6.914)" gradientUnits="userSpaceOnUse" x1="99.104" x2="-5.918" xlink:href="#lg2" y1="201.86" y2="201.86"/><linearGradient id="SVGID_3_" gradientTransform="matrix(-1 0 0 1 -361.019 0)" gradientUnits="userSpaceOnUse" x1="-778.724" x2="-778.724" xlink:href="#lg1" y1="197.387" y2="115.71"/><linearGradient id="SVGID_4_" gradientTransform="matrix(-1 -.003 -.003 1 698.688 6.914)" gradientUnits="userSpaceOnUse" x1="300.137" x2="195.116" xlink:href="#lg2" y1="202.524" y2="202.524"/><linearGradient id="SVGID_5_" gradientUnits="userSpaceOnUse" x1="250.358" x2="250.358" y1="261.726" y2="465.342"><stop offset="0" stop-color="#b39bdb"/><stop offset="1" stop-color="#d0c3e8"/></linearGradient><linearGradient id="lg3"><stop offset="0" stop-color="#74d2e8"/><stop offset="1" stop-color="#baeaf5"/></linearGradient><linearGradient id="SVGID_6_" gradientUnits="userSpaceOnUse" x1="250.358" x2="250.358" xlink:href="#lg3" y1="293.526" y2="205.033"/><linearGradient id="SVGID_7_" gradientUnits="userSpaceOnUse" x1="266.519" x2="58.046" xlink:href="#lg3" y1="382.77" y2="382.77"/><linearGradient id="lg4"><stop offset="0" stop-color="#f4d952"/><stop offset="1" stop-color="#f9edaf"/></linearGradient><linearGradient id="SVGID_8_" gradientUnits="userSpaceOnUse" x1="291.648" x2="477.418" xlink:href="#lg4" y1="382.77" y2="382.77"/><linearGradient id="SVGID_9_" gradientTransform="matrix(-1 0 0 1 702 0)" gradientUnits="userSpaceOnUse" x1="589.621" x2="589.621" y1="287.985" y2="161.285"><stop offset="0" stop-color="#53aae6"/><stop offset="1" stop-color="#a4d2f0"/></linearGradient><linearGradient id="lg5"><stop offset="0" stop-color="#ec6f80"/><stop offset="1" stop-color="#eca0aa"/></linearGradient><linearGradient id="SVGID_10_" gradientTransform="matrix(-1 0 0 1 702 0)" gradientUnits="userSpaceOnUse" x1="313.663" x2="313.663" xlink:href="#lg5" y1="276.76" y2="134.569"/><linearGradient id="SVGID_11_" gradientTransform="matrix(1 .003 -.003 1 -4.417 -3.281)" gradientUnits="userSpaceOnUse" x1="255.394" x2="255.394" xlink:href="#lg4" y1="230.157" y2="124.13"/><linearGradient id="SVGID_12_" gradientTransform="matrix(1 .003 -.003 1 -4.417 -3.281)" gradientUnits="userSpaceOnUse" x1="178.04" x2="333.306" xlink:href="#lg5" y1="113.409" y2="113.409"/><linearGradient id="SVGID_13_" gradientTransform="matrix(1 .003 -.003 1 -4.417 -3.281)" gradientUnits="userSpaceOnUse" x1="203.158" x2="286.275" y1="51.328" y2="51.328"><stop offset="0" stop-color="#7ed99e"/><stop offset=".2532" stop-color="#81daa3"/><stop offset=".5725" stop-color="#88ddb3"/><stop offset=".9261" stop-color="#95e2cd"/><stop offset="1" stop-color="#98e3d3"/></linearGradient><g><g><path d="m140.465 243.017c23.975-22.557 30.168-50.647 11.126-78.772-34.578-51.071-104.91-79.125-132.309-55.977-10.347 8.74-14.509 24.743-13.292 43.565 40.847 51.632 101.898 87.094 134.475 91.184z" fill="url(#SVGID_1_)"/><path d="m136.282 246.759c1.453-1.228 2.84-2.478 4.183-3.742-30.548-60.691-92.135-84.637-134.475-91.184 2.006 31.02 18.637 69.708 46.381 96.235 25.924 24.788 56.512 21.838 83.911-1.309z" fill="url(#SVGID_2_)"/></g><g><path d="m361.535 243.017c-23.975-22.557-30.168-50.647-11.125-78.772 34.578-51.071 104.91-79.125 132.309-55.977 10.347 8.741 14.509 24.743 13.292 43.566-40.848 51.631-101.899 87.093-134.476 91.183z" fill="url(#SVGID_3_)"/><path d="m365.718 246.759c-1.453-1.228-2.84-2.478-4.183-3.742 30.548-60.691 92.135-84.637 134.475-91.184-2.006 31.02-18.637 69.708-46.381 96.235-25.923 24.788-56.512 21.838-83.911-1.309z" fill="url(#SVGID_4_)"/></g><g><path d="m123.815 265.329c-.943 9.478.738 19.156 5.155 28.14l103.856 206.742c11.558 2.386 23.508 2.386 35.066 0l103.856-206.742c4.417-8.984 6.097-18.662 5.155-28.14z" fill="url(#SVGID_5_)"/><path d="m133.71 239.427c-5.682 7.923-8.992 16.821-9.895 25.902h253.087c-.903-9.081-4.213-17.979-9.895-25.902l-68.112-86.4h-97.072z" fill="url(#SVGID_6_)"/></g><path d="m200.252 242.276c8.704 3.524 18.631-.658 22.339-9.285l.09-.209c3.882-9.033-.555-19.366-9.677-23.034-16.705-6.717-28.608-17.774-31.744-30.638l-24.012 30.46c9.982 14.428 25.428 25.59 43.004 32.706z" fill="#65c5d4"/><path d="m138.061 265.329c-.836 9.478.655 19.156 4.574 28.14l90.19 206.742c-16.488-3.404-32.172-11.65-44.747-24.765l-141.213-147.28c-16.824-17.547-24.742-40.342-23.928-62.837z" fill="url(#SVGID_7_)"/><path d="m362.655 265.329c.837 9.478-.655 19.156-4.574 28.14l-90.19 206.742c16.488-3.404 32.172-11.65 44.747-24.765l141.213-147.28c16.824-17.547 24.742-40.342 23.929-62.837z" fill="url(#SVGID_8_)"/><path d="m138.061 265.329h-115.124c.791-21.879 9.84-43.476 27.051-59.687l30.942-29.143c16.008-15.077 37.167-23.472 59.157-23.472h61.735l-54.98 86.4c-5.042 7.923-7.979 16.821-8.781 25.902z" fill="url(#SVGID_9_)"/><path d="m353.875 239.427-54.98-86.4h61.735c21.99 0 43.15 8.396 59.157 23.472l30.942 29.143c17.211 16.21 26.26 37.807 27.051 59.687h-115.125c-.801-9.081-3.738-17.979-8.78-25.902z" fill="url(#SVGID_10_)"/><g><path d="m180.503 174.331c1.658 23.436 32.2 42.199 69.707 42.325 38.622.129 69.998-19.551 70.08-43.958.05-14.845-2.438-34.272-6.78-54.72-51.032-.849-88.633 12.914-133.007 56.353z" fill="url(#SVGID_11_)"/><path d="m291.628 47.514c-36.355 3.749-70.594 14.884-99.16 50.073-7.423 27.384-11.977 55.007-12.043 74.643-.002.705.028 1.404.077 2.101 41.318-10.233 87.995-27.477 133.007-56.353-5.096-23.999-12.752-49.398-21.881-70.464z" fill="url(#SVGID_12_)"/><path d="m291.628 47.514c-11.875-27.403-26.236-47.466-40.692-47.514-22.512-.075-45.126 48.37-58.467 97.587 32.314-10.568 66.733-26.406 99.159-50.073z" fill="url(#SVGID_13_)"/></g><path d="m182.592 183.247c-1.155-2.872-1.872-5.853-2.089-8.916-.049-.697-.079-1.397-.077-2.101.019-5.777.432-12.253 1.188-19.203h-35.167c-.65 6.821-1.002 13.234-1.021 19.081-.054 16.856 6.258 31.556 16.531 43.566z" fill="#04a3db"/><path d="m401.106 356.275c-2.483 0-4.969-.919-6.906-2.769-3.994-3.815-4.139-10.145-.324-14.138l18.775-19.655c3.814-3.994 10.145-4.139 14.138-.324 3.994 3.814 4.139 10.145.324 14.138l-18.775 19.655c-1.963 2.057-4.596 3.093-7.232 3.093z" fill="#fffde3"/><path d="m367.109 391.759c-2.518 0-5.037-.945-6.982-2.842-3.953-3.857-4.032-10.188-.175-14.141l5.871-6.018c3.856-3.953 10.187-4.032 14.141-.175 3.953 3.857 4.032 10.188.175 14.141l-5.871 6.018c-1.959 2.008-4.558 3.017-7.159 3.017z" fill="#fffde3"/><g><ellipse cx="163.115" cy="314.592" fill="#efc5db" rx="14.936" ry="12.003"/><ellipse cx="338.886" cy="314.592" fill="#efc5db" rx="14.936" ry="12.003"/><circle cx="188.721" cy="284.974" fill="#fff" r="29.618"/><circle cx="313.279" cy="284.974" fill="#fff" r="29.618"/><g fill="#3b3b44"><g><circle cx="188.721" cy="284.974" r="17.652"/><circle cx="313.279" cy="284.974" r="17.652"/></g><path d="m251 315.534c-5.248 0-10.495-1.984-14.776-5.954-2.025-1.878-2.145-5.041-.267-7.066 1.877-2.025 5.041-2.145 7.066-.267 4.697 4.354 11.257 4.354 15.954 0 2.025-1.876 5.188-1.757 7.066.267 1.877 2.025 1.758 5.188-.267 7.066-4.281 3.969-9.528 5.954-14.776 5.954z"/></g></g></g></svg>