<svg id="Capa_1" enable-background="new 0 0 502 502" height="512" viewBox="0 0 502 502" width="512" xmlns="http://www.w3.org/2000/svg" xmlns:xlink="http://www.w3.org/1999/xlink"><linearGradient id="lg1"><stop offset="0" stop-color="#7ed99e"/><stop offset=".2532" stop-color="#81daa3"/><stop offset=".5725" stop-color="#88ddb3"/><stop offset=".9261" stop-color="#95e2cd"/><stop offset="1" stop-color="#98e3d3"/></linearGradient><linearGradient id="SVGID_1_" gradientTransform="matrix(-1 0 0 1 505.741 0)" gradientUnits="userSpaceOnUse" x1="164.213" x2="63.816" xlink:href="#lg1" y1="359.135" y2="359.135"/><linearGradient id="lg2"><stop offset="0" stop-color="#cdd4d4"/><stop offset="1" stop-color="#f3f3f3"/></linearGradient><linearGradient id="SVGID_2_" gradientUnits="userSpaceOnUse" x1="211.62" x2="211.62" xlink:href="#lg2" y1="364.593" y2="478.855"/><linearGradient id="lg3"><stop offset="0" stop-color="#e08243"/><stop offset="1" stop-color="#f0bb78"/></linearGradient><linearGradient id="SVGID_3_" gradientUnits="userSpaceOnUse" x1="230.368" x2="179.153" xlink:href="#lg3" y1="485.598" y2="485.598"/><linearGradient id="SVGID_4_" gradientUnits="userSpaceOnUse" x1="288.592" x2="288.592" xlink:href="#lg2" y1="355.301" y2="479.361"/><linearGradient id="SVGID_5_" gradientUnits="userSpaceOnUse" x1="154.466" x2="116.898" xlink:href="#lg2" y1="329.197" y2="329.197"/><linearGradient id="SVGID_6_" gradientUnits="userSpaceOnUse" x1="72.299" x2="72.299" xlink:href="#lg3" y1="374.898" y2="328.165"/><linearGradient id="lg4"><stop offset="0" stop-color="#b39bdb"/><stop offset="1" stop-color="#d0c3e8"/></linearGradient><linearGradient id="SVGID_7_" gradientTransform="matrix(-1 0 0 1 505.741 0)" gradientUnits="userSpaceOnUse" x1="160.661" x2="44.435" xlink:href="#lg4" y1="163.214" y2="163.214"/><linearGradient id="SVGID_8_" gradientTransform="matrix(-1 0 0 1 505.741 0)" gradientUnits="userSpaceOnUse" x1="245.517" x2="245.517" xlink:href="#lg4" y1="91.297" y2="11.103"/><linearGradient id="SVGID_9_" gradientTransform="matrix(-1 0 0 1 506.203 0)" gradientUnits="userSpaceOnUse" x1="336.03" x2="336.03" xlink:href="#lg2" y1="125.862" y2="45.631"/><linearGradient id="SVGID_10_" gradientTransform="matrix(-1 0 0 1 505.741 0)" gradientUnits="userSpaceOnUse" x1="262.231" x2="262.231" xlink:href="#lg2" y1="244.597" y2="412.445"/><linearGradient id="lg5"><stop offset="0" stop-color="#d9e0e0"/><stop offset="1" stop-color="#f3f3f3"/></linearGradient><linearGradient id="SVGID_11_" gradientTransform="matrix(-1 0 0 1 505.741 0)" gradientUnits="userSpaceOnUse" x1="82.981" x2="391.558" xlink:href="#lg5" y1="193.877" y2="193.877"/><linearGradient id="SVGID_12_" gradientTransform="matrix(-1 0 0 1 506.203 0)" gradientUnits="userSpaceOnUse" x1="260.527" x2="359.539" y1="103.961" y2="103.961"><stop offset="0" stop-color="#f4d952"/><stop offset="1" stop-color="#f9edaf"/></linearGradient><linearGradient id="SVGID_13_" gradientTransform="matrix(-1 0 0 1 505.741 0)" gradientUnits="userSpaceOnUse" x1="260.061" x2="339.141" y1="65.544" y2="65.544"><stop offset="0" stop-color="#ec6f80"/><stop offset="1" stop-color="#eca0aa"/></linearGradient><linearGradient id="SVGID_14_" gradientTransform="matrix(-1 0 0 1 505.741 0)" gradientUnits="userSpaceOnUse" x1="275.569" x2="336.567" xlink:href="#lg1" y1="26.542" y2="26.542"/><linearGradient id="SVGID_15_" gradientTransform="matrix(-1 0 0 1 506.203 0)" gradientUnits="userSpaceOnUse" x1="191.813" x2="191.813" xlink:href="#lg2" y1="176.59" y2="81.621"/><linearGradient id="SVGID_16_" gradientUnits="userSpaceOnUse" x1="118.753" x2="118.753" y1="362.71" y2="307.47"><stop offset="0" stop-color="#6ac65e"/><stop offset="1" stop-color="#afd986"/></linearGradient><linearGradient id="lg6"><stop offset="0" stop-color="#f9edaf"/><stop offset="1" stop-color="#fffcdd"/></linearGradient><linearGradient id="SVGID_17_" gradientUnits="userSpaceOnUse" x1="161.586" x2="161.586" xlink:href="#lg6" y1="347.902" y2="298.354"/><linearGradient id="SVGID_18_" gradientUnits="userSpaceOnUse" x1="138.49" x2="138.49" y1="372.272" y2="470.59"><stop offset="0" stop-color="#74d2e8"/><stop offset="1" stop-color="#baeaf5"/></linearGradient><linearGradient id="SVGID_19_" gradientUnits="userSpaceOnUse" x1="230.47" x2="87.584" y1="363.9" y2="363.9"><stop offset="0" stop-color="#4e5660"/><stop offset="1" stop-color="#64768d"/></linearGradient><linearGradient id="SVGID_20_" gradientUnits="userSpaceOnUse" x1="264.08" x2="264.08" xlink:href="#lg5" y1="392.452" y2="335.491"/><linearGradient id="SVGID_21_" gradientUnits="userSpaceOnUse" x1="221.197" x2="221.197" xlink:href="#lg3" y1="402.84" y2="364.623"/><linearGradient id="SVGID_22_" gradientUnits="userSpaceOnUse" x1="215.095" x2="215.095" xlink:href="#lg6" y1="296.685" y2="266.889"/><linearGradient id="SVGID_23_" gradientUnits="userSpaceOnUse" x1="324.566" x2="274.634" xlink:href="#lg3" y1="482.636" y2="482.636"/><g><path d="m331.376 407.483c-27.309-12.734-39.124-45.196-26.39-72.505s45.196-39.124 72.505-26.39c23.535 10.974 37.216 37.904 64.404 39.285 9.463.48 15.139 10.816 10.033 18.797-30.146 47.112-85.401 57.205-120.552 40.813z" fill="url(#SVGID_1_)"/><g fill="#a7f2d2"><path d="m372.962 404.862c-5.061 0-9.402-3.827-9.935-8.97-.569-5.494 3.422-10.408 8.916-10.978 3.2-.332 6.484-.928 9.762-1.773 5.348-1.379 10.8 1.838 12.181 7.186 1.379 5.348-1.839 10.801-7.186 12.18-4.237 1.093-8.509 1.867-12.695 2.301-.351.036-.699.054-1.043.054z"/><path d="m416.366 387.002c-2.924 0-5.82-1.276-7.797-3.731-3.462-4.303-2.781-10.598 1.521-14.06 4.222-3.397 8.118-7.297 11.583-11.59 3.468-4.298 9.764-4.97 14.063-1.502 4.298 3.468 4.971 9.764 1.502 14.062-4.36 5.404-9.275 10.32-14.608 14.611-1.848 1.486-4.064 2.21-6.264 2.21z"/></g><path d="m179.205 470.721c15.759 11.915 38.797 8.64 51.163 3.408.268-34.662 6.625-63.378 11.169-72.911 6.084-12.763.67-28.042-12.093-34.126-12.764-6.087-28.043-.67-34.126 12.093-9.187 19.271-15.505 55.497-16.113 91.536z" fill="url(#SVGID_2_)"/><path d="m179.205 470.721c-.032 1.892-.053 3.783-.053 5.671 0 14.139 11.462 25.601 25.601 25.601s25.601-11.462 25.601-25.601c0-.758.007-1.51.013-2.263-12.221-5.476-37.33-6.03-51.162-3.408z" fill="url(#SVGID_3_)"/><path d="m267.775 476.586c20.303 7.234 39.243-.612 49.593-12.702-7.104-26.9-6.652-41.939-6.041-62.268.194-6.439.394-13.098.394-20.714 0-14.139-11.462-25.601-25.601-25.601s-25.601 11.462-25.601 25.601c0 30.943-4.042 52.602 7.256 95.684z" fill="url(#SVGID_4_)"/><path d="m192.637 300.635c-5.882-12.858-21.076-18.513-33.932-12.629-29.217 13.367-33.506 31.203-71.757 33.823-11.159 22.78-6.219 40.333 5.828 50.889 51.989-4.329 68.324-29.5 87.231-38.15 12.858-5.884 18.512-21.076 12.63-33.933z" fill="url(#SVGID_5_)"/><path d="m92.777 372.717c1.875-15.422-1.157-40.24-5.828-50.889-3.127.214-6.477.328-10.09.328-14.139 0-25.601 11.462-25.601 25.601s11.462 25.601 25.601 25.601c5.657 0 10.947-.227 15.918-.641z" fill="url(#SVGID_6_)"/><path d="m265.166 141.363c-.125-39.894 32.48-73.647 72.374-73.657 39.99-.009 72.411 32.406 72.411 72.394 0 12.513.123 37.343 19.883 48.878 18.391 10.736 18.516 37.459.252 48.41-39.678 23.791-97.547 32.338-144.245 1.04 0 .001-20.444-23.386-20.675-97.065z" fill="url(#SVGID_7_)"/><circle cx="260.225" cy="84.542" fill="url(#SVGID_8_)" r="72.394"/><path d="m146.766 49.828c21.197-7.715 56.622 24.112 65.946 61.763 5.422 21.897-5.751 37.667-26.948 45.382s-39.893 2.817-49.815-17.442c-17.059-34.837-10.38-81.988 10.817-89.703z" fill="url(#SVGID_9_)"/><path d="m189.652 253.921c-65.904 63.997-57.286 128.905-39.036 148.144 18.25 19.238 48.159 27.946 92.894 27.946s74.644-8.708 92.894-27.946 26.869-84.147-39.036-148.144z" fill="url(#SVGID_10_)"/><path d="m48.252 218.393c2.877 54.984 44.5 84.818 154.353 84.818s150.088-43.111 150.088-105.572-42.393-113.096-125.284-113.096c-82.891-.001-182.838 63.517-179.157 133.85z" fill="url(#SVGID_11_)"/><g><ellipse cx="98.973" cy="208.29" fill="#eaadcd" rx="14.936" ry="12.003"/><ellipse cx="274.744" cy="208.29" fill="#eaadcd" rx="14.936" ry="12.003"/><path d="m124.58 182.639c7.183 0 13.812 1.589 19.159 4.273 4.544 2.281 9.962-.802 10.365-5.87.113-1.423.125-2.875.029-4.348-.991-15.146-13.602-27.24-28.775-27.629-16.713-.428-30.396 12.992-30.396 29.608 0 .843.035 1.678.105 2.503.422 5.01 5.857 7.995 10.349 5.738 5.347-2.685 11.979-4.275 19.164-4.275z" fill="#fff"/><path d="m147.192 262.495c-6.447 0-12.894-2.155-18.274-6.465-4.989-3.997-5.794-11.282-1.797-16.271 3.997-4.99 11.282-5.793 16.271-1.797 2.237 1.792 5.361 1.792 7.598 0 4.988-3.997 12.273-3.193 16.271 1.797 3.997 4.989 3.193 12.274-1.797 16.271-5.378 4.31-11.825 6.465-18.272 6.465z" fill="#3b3b44"/><path d="m124.58 182.639c5.926 0 11.473 1.082 16.237 2.967.911-2.129 1.415-4.47 1.415-6.933 0-9.749-7.903-17.652-17.652-17.652s-17.652 7.903-17.652 17.652c0 2.463.504 4.803 1.415 6.933 4.764-1.885 10.311-2.967 16.237-2.967z" fill="#3b3b44"/><path d="m249.137 182.639c7.183 0 13.813 1.589 19.158 4.273 4.544 2.281 9.962-.802 10.365-5.87.113-1.423.125-2.875.029-4.348-.991-15.146-13.602-27.24-28.775-27.629-16.713-.428-30.396 12.992-30.396 29.608 0 .843.035 1.678.105 2.503.422 5.01 5.857 7.995 10.349 5.738 5.349-2.685 11.98-4.275 19.165-4.275z" fill="#fff"/><path d="m249.137 182.639c5.926 0 11.473 1.082 16.237 2.967.911-2.129 1.415-4.47 1.415-6.933 0-9.749-7.903-17.652-17.652-17.652s-17.652 7.903-17.652 17.652c0 2.463.504 4.803 1.415 6.933 4.764-1.885 10.312-2.967 16.237-2.967z" fill="#3b3b44"/></g><g><path d="m243.418 98.27c1.449 14.355-15.07 28.903-37.752 32.903-23.357 4.118-44.402-4.508-47.004-19.268-1.583-8.977-2.11-20.993-1.621-33.821 30.79-5.852 54.982-1.457 86.377 20.186z" fill="url(#SVGID_12_)"/><path d="m210.659 100.618c1.889-.932 3.343-1.898 4.345-2.723-.243-1.026-.526-2.103-.826-3.202 9.651-.856 17.374-.656 29.239 3.576 1.053 10.431-7.378 20.964-20.771 27.478-8.279 4.026-18.115-1.016-19.714-10.082l-.016-.091c-1.087-6.161 2.133-12.187 7.743-14.956z" fill="#fcb500"/><path d="m162.91 33.157c22.391-1.534 44.274 1.622 65.24 19.926 7.356 15.794 13.001 32.032 15.095 43.907.075.426.13.853.173 1.28-26.072-1.87-56.12-7.422-86.378-20.186.573-15.055 2.549-31.225 5.87-44.927z" fill="url(#SVGID_13_)"/><path d="m214.745 55.97c7.075-2.809 15.104.582 18.012 7.616 5.07 12.267 8.857 24.157 10.488 33.404.075.426.128.853.171 1.279-9.296-.667-19.103-1.813-29.239-3.576-1.655-6.056-4.138-13.14-7.15-20.436-2.967-7.188.49-15.417 7.718-18.287z" fill="#e05d6f"/><path d="m162.91 33.157c4.319-17.824 10.911-31.466 19.653-33.008 13.614-2.401 32.366 24.548 45.587 52.934-20.659-3.014-43.143-8.997-65.24-19.926z" fill="url(#SVGID_14_)"/></g><path d="m337.797 50.852c-21.197-7.715-56.622 24.111-65.946 61.763-5.422 21.896 5.751 37.667 26.948 45.382s39.893 2.816 49.815-17.443c17.06-34.836 10.381-81.987-10.817-89.702z" fill="url(#SVGID_15_)"/><path d="m164.772 362.68-27.312 27.312-58.044-50.173c-8.486-7.335-8.958-20.332-1.027-28.264l7.946-7.946c7.931-7.931 20.929-7.459 28.264 1.026z" fill="url(#SVGID_16_)"/><path d="m196.806 310.158c-.825-12.109-10.642-21.976-22.748-22.845-13.78-.989-25.228 9.31-26.367 22.387-.266 3.052-2.169 5.706-4.863 7.165-10.434 5.65-17.32 17.016-16.444 29.904 1.059 15.583 13.706 28.202 29.291 29.227 18.36 1.208 33.628-13.326 33.628-31.427 0-2.602-.318-5.13-.915-7.548-.745-3.017-.068-6.238 2.029-8.531 4.36-4.769 6.87-11.257 6.389-18.332z" fill="url(#SVGID_17_)"/><path d="m208.937 368.314h-140.894v68.147c0 14.593 11.83 26.422 26.423 26.422h88.049c14.593 0 26.423-11.83 26.423-26.422v-68.147z" fill="url(#SVGID_18_)"/><path d="m198.841 380.059c-.004-.011-.007-.022-.01-.033h-46.323c-6.904 0-12.5 5.596-12.5 12.5 0 6.904 5.596 12.5 12.5 12.5h32.336c6.348 7.335 14.714 12.716 24.093 15.449v-27.265c-4.574-3.036-8.212-7.553-10.096-13.151z" fill="#65c5d4"/><path d="m206.644 380.026h-136.309c-7.164 0-12.972-5.808-12.972-12.973v-6.306c0-7.164 5.808-12.973 12.972-12.973h136.309c7.165 0 12.973 5.808 12.973 12.973v6.306c0 7.165-5.808 12.973-12.973 12.973z" fill="url(#SVGID_19_)"/><path d="m288.46 299.436c-13.356-4.641-27.945 2.43-32.582 15.785-4.502 12.964-14.466 22.011-32.724 29.386-2.965 17.571 3.972 36.427 21.743 46.487 18.901-7.957 47.343-24.504 59.349-59.075 4.638-13.357-2.43-27.945-15.786-32.583z" fill="url(#SVGID_20_)"/><path d="m223.153 344.607c-2.571 1.039-5.305 2.044-8.213 3.023-13.4 4.509-20.609 19.028-16.099 32.429 4.501 13.378 19.004 20.616 32.429 16.099 3.247-1.093 8.022-2.705 13.626-5.064-1.481-18.49-12.503-38.241-21.743-46.487z" fill="url(#SVGID_21_)"/><circle cx="215.095" cy="275.193" fill="url(#SVGID_22_)" r="18.231"/><path d="m318.877 469.374c-.537-1.885-1.039-3.714-1.509-5.49-13.808-2.79-38.183 4.399-49.593 12.702.583 2.222 1.194 4.484 1.861 6.824 3.869 13.575 18.014 21.484 31.638 17.603 13.599-3.877 21.479-18.041 17.603-31.639z" fill="url(#SVGID_23_)"/></g></svg>