<svg id="Capa_1" enable-background="new 0 0 502 502" height="512" viewBox="0 0 502 502" width="512" xmlns="http://www.w3.org/2000/svg" xmlns:xlink="http://www.w3.org/1999/xlink"><linearGradient id="lg1"><stop offset="0" stop-color="#cdd4d4"/><stop offset="1" stop-color="#f3f3f3"/></linearGradient><linearGradient id="SVGID_1_" gradientTransform="matrix(-1 0 0 1 -2889.019 0)" gradientUnits="userSpaceOnUse" x1="-3279.698" x2="-3279.698" xlink:href="#lg1" y1="121.817" y2="60.309"/><linearGradient id="lg2"><stop offset="0" stop-color="#d5738e"/><stop offset="1" stop-color="#e6a3c1"/></linearGradient><linearGradient id="SVGID_2_" gradientTransform="matrix(-1 -.003 -.003 1 -1829.312 2.743)" gradientUnits="userSpaceOnUse" x1="-2199.512" x2="-2256.223" xlink:href="#lg2" y1="102.098" y2="102.098"/><linearGradient id="SVGID_3_" gradientUnits="userSpaceOnUse" x1="111.321" x2="111.321" xlink:href="#lg1" y1="121.817" y2="60.309"/><linearGradient id="SVGID_4_" gradientTransform="matrix(1 -.003 .003 1 2131.312 2.743)" gradientUnits="userSpaceOnUse" x1="-1999.514" x2="-2056.225" xlink:href="#lg2" y1="102.758" y2="102.758"/><linearGradient id="lg3"><stop offset="0" stop-color="#f4d952"/><stop offset="1" stop-color="#f9edaf"/></linearGradient><linearGradient id="SVGID_5_" gradientUnits="userSpaceOnUse" x1="251" x2="251" xlink:href="#lg3" y1="166.753" y2="451.696"/><linearGradient id="lg4"><stop offset="0" stop-color="#f4c22c"/><stop offset="1" stop-color="#f9e198"/></linearGradient><linearGradient id="SVGID_6_" gradientUnits="userSpaceOnUse" x1="197.27" x2="197.27" xlink:href="#lg4" y1="271.141" y2="408.297"/><linearGradient id="SVGID_7_" gradientTransform="matrix(-1 0 0 1 302 0)" gradientUnits="userSpaceOnUse" x1="-2.73" x2="-2.73" xlink:href="#lg4" y1="271.141" y2="408.297"/><linearGradient id="SVGID_8_" gradientUnits="userSpaceOnUse" x1="251" x2="251" y1="228.584" y2="54.482"><stop offset="0" stop-color="#b39bdb"/><stop offset="1" stop-color="#d0c3e8"/></linearGradient><linearGradient id="SVGID_9_" gradientTransform="matrix(1 .003 -.003 1 -4.417 .89)" gradientUnits="userSpaceOnUse" x1="255.832" x2="255.832" xlink:href="#lg3" y1="155.128" y2="82.092"/><linearGradient id="SVGID_10_" gradientTransform="matrix(1 .003 -.003 1 -4.417 .89)" gradientUnits="userSpaceOnUse" x1="202.547" x2="309.501" y1="74.707" y2="74.707"><stop offset="0" stop-color="#ec6f80"/><stop offset="1" stop-color="#eca0aa"/></linearGradient><linearGradient id="SVGID_11_" gradientTransform="matrix(1 .003 -.003 1 -4.417 .89)" gradientUnits="userSpaceOnUse" x1="219.849" x2="277.104" y1="31.943" y2="31.943"><stop offset="0" stop-color="#7ed99e"/><stop offset=".2532" stop-color="#81daa3"/><stop offset=".5725" stop-color="#88ddb3"/><stop offset=".9261" stop-color="#95e2cd"/><stop offset="1" stop-color="#98e3d3"/></linearGradient><linearGradient id="SVGID_12_" gradientUnits="userSpaceOnUse" x1="251" x2="251" y1="378.257" y2="475.023"><stop offset="0" stop-color="#ad7d63"/><stop offset="1" stop-color="#cb9d82"/></linearGradient><g><g><path d="m360.348 130.8c-12.946-12.18-16.29-27.349-6.008-42.536 18.672-27.578 56.651-42.727 71.446-30.227 5.587 4.72 7.835 13.361 7.177 23.525-22.057 27.88-55.023 47.03-72.615 49.238z" fill="url(#SVGID_1_)"/><path d="m362.607 132.821c-.785-.663-1.534-1.338-2.259-2.021 16.496-32.772 49.752-45.703 72.615-49.238-1.083 16.751-10.064 37.642-25.045 51.966-13.998 13.385-30.516 11.792-45.311-.707z" fill="url(#SVGID_2_)"/></g><g><path d="m141.652 130.8c12.946-12.18 16.29-27.349 6.008-42.536-18.672-27.578-56.651-42.727-71.446-30.227-5.587 4.72-7.835 13.361-7.177 23.525 22.057 27.88 55.023 47.03 72.615 49.238z" fill="url(#SVGID_3_)"/><path d="m139.393 132.821c.785-.663 1.534-1.338 2.259-2.021-16.496-32.772-49.752-45.703-72.615-49.238 1.083 16.751 10.064 37.642 25.045 51.966 13.998 13.385 30.516 11.792 45.311-.707z" fill="url(#SVGID_4_)"/></g><path d="m341.018 402.195h-180.036c-31.884 0-57.731-25.847-57.731-57.731v-145.438c0-81.599 66.149-147.749 147.749-147.749 81.6 0 147.749 66.15 147.749 147.749v145.438c0 31.884-25.847 57.731-57.731 57.731z" fill="url(#SVGID_5_)"/><g><path d="m226.023 402.195h-57.506v-112.626c0-15.88 12.873-28.753 28.753-28.753 15.88 0 28.753 12.873 28.753 28.753z" fill="url(#SVGID_6_)"/><path d="m275.977 402.195h57.506v-112.626c0-15.88-12.873-28.753-28.753-28.753-15.88 0-28.753 12.873-28.753 28.753z" fill="url(#SVGID_7_)"/></g><path d="m250.069 39.545c-88.004.505-158.552 73.23-158.552 161.235 0 8.18 9.03 13.104 15.934 8.717 59.171-37.599 94.589 5.738 143.549 5.738s84.379-43.337 143.549-5.738c6.904 4.387 15.934-.537 15.934-8.717v-1.755c0-88.249-72.049-159.987-160.414-159.48z" fill="url(#SVGID_8_)"/><g><path d="m202.881 120.087c1.142 16.144 22.18 29.068 48.017 29.155 26.605.089 48.218-13.468 48.274-30.28.034-10.226-1.679-23.608-4.671-37.694-35.153-.584-61.054 8.896-91.62 38.819z" fill="url(#SVGID_9_)"/><path d="m279.428 32.73c-25.043 2.583-48.629 10.253-68.306 34.493-5.113 18.863-8.25 37.891-8.296 51.417-.002.485.019.967.053 1.447 28.462-7.049 60.615-18.928 91.621-38.819-3.509-16.531-8.783-34.027-15.072-48.538z" fill="url(#SVGID_10_)"/><path d="m279.428 32.73c-8.179-18.876-18.073-32.697-28.03-32.73-15.507-.052-31.085 33.319-40.275 67.222 22.259-7.28 45.969-18.189 68.305-34.492z" fill="url(#SVGID_11_)"/></g><path d="m293.653 402.195h-85.307v67.668c0 17.749 14.388 32.137 32.137 32.137h21.034c17.749 0 32.137-14.388 32.137-32.137v-67.668z" fill="url(#SVGID_12_)"/><path d="m286.119 226.134c-2.538-8.421-10.929-13.757-19.599-12.274-5.046.863-10.203 1.375-15.52 1.375-48.961 0-84.379-43.337-143.549-5.738-1.347.856-2.774 1.347-4.2 1.539v35.076c8.131-.244 16.045-2.675 22.972-7.075 23.92-15.2 38.268-10.6 65.379-1.297 17.071 5.857 36.42 12.496 59.398 12.496 7.546 0 14.699-.717 21.509-1.888 10.276-1.767 16.619-12.23 13.61-22.214z" fill="#fcb500"/><g fill="#fffde3"><path d="m361.526 373.106c-2.401 0-4.81-.859-6.726-2.603-4.086-3.716-4.385-10.041-.669-14.126 1.386-1.523 2.485-3.251 3.27-5.137 2.121-5.1 7.978-7.514 13.073-5.393 5.1 2.121 7.515 7.974 5.394 13.074-1.67 4.014-4.005 7.685-6.941 10.914-1.974 2.169-4.683 3.271-7.401 3.271z"/><path d="m368.749 324.444c-5.522 0-10-4.477-10-10v-21.818c0-5.523 4.478-10 10-10s10 4.477 10 10v21.818c0 5.523-4.478 10-10 10z"/></g></g></svg>