<svg id="Capa_1" enable-background="new 0 0 502 502" height="512" viewBox="0 0 502 502" width="512" xmlns="http://www.w3.org/2000/svg" xmlns:xlink="http://www.w3.org/1999/xlink"><linearGradient id="lg1"><stop offset="0" stop-color="#cdd4d4"/><stop offset="1" stop-color="#f3f3f3"/></linearGradient><linearGradient id="SVGID_1_" gradientTransform="matrix(-1 0 0 1 901.481 0)" gradientUnits="userSpaceOnUse" x1="536.057" x2="536.057" xlink:href="#lg1" y1="167.244" y2="95.433"/><linearGradient id="lg2"><stop offset="0" stop-color="#d5738e"/><stop offset="1" stop-color="#e6a3c1"/></linearGradient><linearGradient id="SVGID_2_" gradientTransform="matrix(-1 -.003 -.003 1 1959.102 8.997)" gradientUnits="userSpaceOnUse" x1="1617.479" x2="1551.268" xlink:href="#lg2" y1="152.24" y2="152.24"/><linearGradient id="SVGID_3_" gradientUnits="userSpaceOnUse" x1="135.076" x2="135.076" xlink:href="#lg1" y1="167.244" y2="95.433"/><linearGradient id="SVGID_4_" gradientTransform="matrix(1 -.003 .003 1 -1058.602 8.997)" gradientUnits="userSpaceOnUse" x1="1217.483" x2="1151.272" xlink:href="#lg2" y1="150.92" y2="150.92"/><linearGradient id="SVGID_5_" gradientUnits="userSpaceOnUse" x1="250.25" x2="250.25" y1="445.794" y2="499.691"><stop offset="0" stop-color="#4e5660"/><stop offset="1" stop-color="#64768d"/></linearGradient><linearGradient id="SVGID_6_" gradientUnits="userSpaceOnUse" x1="129.788" x2="433.44" y1="232.1" y2="232.1"><stop offset="0" stop-color="#74d2e8"/><stop offset="1" stop-color="#baeaf5"/></linearGradient><linearGradient id="SVGID_7_" gradientUnits="userSpaceOnUse" x1="163.992" x2="362.405" y1="410.376" y2="410.376"><stop offset="0" stop-color="#b39bdb"/><stop offset="1" stop-color="#d0c3e8"/></linearGradient><linearGradient id="SVGID_8_" gradientTransform="matrix(1 .003 -.003 1 -6.502 -5.364)" gradientUnits="userSpaceOnUse" x1="257.258" x2="257.258" y1="187.656" y2="102.384"><stop offset="0" stop-color="#f4d952"/><stop offset="1" stop-color="#f9edaf"/></linearGradient><linearGradient id="SVGID_9_" gradientTransform="matrix(1 .003 -.003 1 -6.502 -5.364)" gradientUnits="userSpaceOnUse" x1="195.047" x2="319.919" y1="93.762" y2="93.762"><stop offset="0" stop-color="#ec6f80"/><stop offset="1" stop-color="#eca0aa"/></linearGradient><linearGradient id="SVGID_10_" gradientTransform="matrix(1 .003 -.003 1 -6.502 -5.364)" gradientUnits="userSpaceOnUse" x1="215.248" x2="282.094" y1="43.834" y2="43.834"><stop offset="0" stop-color="#7ed99e"/><stop offset=".2532" stop-color="#81daa3"/><stop offset=".5725" stop-color="#88ddb3"/><stop offset=".9261" stop-color="#95e2cd"/><stop offset="1" stop-color="#98e3d3"/></linearGradient><g><g><path d="m330.012 177.732c-15.115-14.221-19.019-31.93-7.014-49.662 21.8-32.198 66.141-49.884 83.414-35.291 6.523 5.511 9.147 15.6 8.38 27.466-25.752 32.552-64.241 54.909-84.78 57.487z" fill="url(#SVGID_1_)"/><path d="m332.649 180.091c-.916-.774-1.79-1.562-2.637-2.359 19.259-38.262 58.087-53.359 84.78-57.487-1.265 19.557-11.75 43.947-29.241 60.671-16.343 15.629-35.628 13.769-52.902-.825z" fill="url(#SVGID_2_)"/></g><g><path d="m170.488 177.732c15.115-14.221 19.019-31.93 7.014-49.662-21.8-32.198-66.141-49.884-83.414-35.291-6.523 5.511-9.147 15.6-8.38 27.466 25.752 32.552 64.241 54.909 84.78 57.487z" fill="url(#SVGID_3_)"/><path d="m167.851 180.091c.916-.774 1.79-1.562 2.637-2.359-19.259-38.262-58.087-53.359-84.78-57.487 1.265 19.557 11.75 43.947 29.241 60.671 16.343 15.629 35.628 13.769 52.902-.825z" fill="url(#SVGID_4_)"/></g><ellipse cx="250.25" cy="445.225" fill="url(#SVGID_5_)" rx="59.427" ry="56.775"/><path d="m116.991 211.287c0 65.325 55.554 91.541 55.554 165.792h155.411c0-74.251 55.554-100.467 55.554-165.792 0-68.575-59.662-124.165-133.259-124.165s-133.26 55.59-133.26 124.165z" fill="url(#SVGID_6_)"/><path d="m303.117 451.684h-105.734c-25.592 0-46.339-20.747-46.339-46.339v-13.807c0-12.41 10.061-22.471 22.471-22.471h149.161c14.79 0 26.78 11.99 26.78 26.78v9.498c0 25.593-20.747 46.339-46.339 46.339z" fill="url(#SVGID_7_)"/><g><path d="m194.07 140.204c1.333 18.848 25.896 33.938 56.061 34.039 31.062.104 56.295-15.724 56.361-35.352.04-11.939-1.96-27.563-5.453-44.008-41.042-.683-71.282 10.386-106.969 45.321z" fill="url(#SVGID_8_)"/><path d="m283.441 38.213c-29.239 3.015-56.775 11.97-79.748 40.271-5.97 22.023-9.632 44.238-9.685 60.031-.002.567.022 1.129.062 1.69 33.23-8.23 70.769-22.098 106.97-45.322-4.1-19.301-10.257-39.728-17.599-56.67z" fill="url(#SVGID_9_)"/><path d="m283.441 38.213c-9.55-22.039-21.101-38.174-32.727-38.213-18.105-.061-36.292 38.901-47.021 78.483 25.988-8.499 53.669-21.236 79.748-40.27z" fill="url(#SVGID_10_)"/></g><path d="m337.581 53.019c-4.491-4.491-4.491-11.772 0-16.264l23.333-23.333c4.492-4.49 11.773-4.492 16.264 0 4.491 4.491 4.491 11.772 0 16.264l-23.333 23.333c-4.491 4.49-11.773 4.493-16.264 0z" fill="#ffe05c"/><path d="m146.655 53.019-23.334-23.333c-4.491-4.491-4.491-11.772 0-16.264 4.491-4.49 11.772-4.49 16.264 0l23.333 23.333c4.491 4.491 4.491 11.772 0 16.264s-11.771 4.491-16.263 0z" fill="#71c4d1"/><path d="m79.86 230.68h-28.655c-5.523 0-10-4.478-10-10 0-5.523 4.477-10 10-10h28.655c5.523 0 10 4.477 10 10 0 5.522-4.477 10-10 10z" fill="#997bce"/><path d="m449.295 232.18h-28.655c-6.351 0-11.5-5.148-11.5-11.5s5.149-11.5 11.5-11.5h28.655c6.351 0 11.5 5.148 11.5 11.5 0 6.351-5.149 11.5-11.5 11.5z" fill="#05c95a"/><path d="m302.367 348.936c-.764 0-1.54-.088-2.316-.271-5.374-1.275-8.697-6.665-7.422-12.038.597-2.517 1.266-5.077 1.988-7.611 1.513-5.311 7.041-8.391 12.358-6.877 5.311 1.514 8.39 7.047 6.876 12.357-.641 2.25-1.234 4.52-1.762 6.746-1.091 4.598-5.194 7.694-9.722 7.694z" fill="#dff7fa"/><path d="m319.678 303.946c-1.559 0-3.14-.365-4.617-1.136-4.896-2.555-6.795-8.595-4.241-13.491 3.289-6.305 6.601-12.124 9.689-17.475 2.761-4.784 8.876-6.423 13.66-3.661 4.783 2.761 6.422 8.876 3.661 13.659-2.978 5.159-6.163 10.756-9.278 16.727-1.783 3.419-5.267 5.377-8.874 5.377z" fill="#dff7fa"/><path d="m221.006 185.711c3.43-7.204.652-15.925-6.424-19.611-11.945-6.223-19.775-15.483-20.512-25.896-.04-.561-.064-1.123-.062-1.69.038-11.459 1.984-26.303 5.326-41.998-12.243 4.721-23.569 11.088-33.654 18.813-.975 7.645-2.06 19.563-1.536 26.992 1.492 21.085 15.386 39.093 36.298 50.164 7.542 3.994 16.895.932 20.564-6.774z" fill="#65c5d4"/><g><ellipse cx="162.364" cy="250.965" fill="#efc5db" rx="14.936" ry="12.003"/><ellipse cx="338.135" cy="250.965" fill="#efc5db" rx="14.936" ry="12.003"/><circle cx="187.971" cy="221.347" fill="#fff" r="29.618"/><ellipse cx="199.937" cy="221.347" fill="#3b3b44" rx="17.652" ry="17.652" transform="matrix(.099 -.995 .995 .099 -40.034 398.5)"/><circle cx="312.529" cy="221.347" fill="#fff" r="29.618"/><g fill="#3b3b44"><ellipse cx="324.432" cy="221.347" rx="17.652" ry="17.652" transform="matrix(.16 -.987 .987 .16 53.975 506.134)"/><ellipse cx="250.25" cy="243.799" rx="13.252" ry="17.352"/></g></g></g></svg>