<svg id="Capa_1" enable-background="new 0 0 502 502" height="512" viewBox="0 0 502 502" width="512" xmlns="http://www.w3.org/2000/svg" xmlns:xlink="http://www.w3.org/1999/xlink"><linearGradient id="lg1"><stop offset="0" stop-color="#7ed99e"/><stop offset=".2532" stop-color="#81daa3"/><stop offset=".5725" stop-color="#88ddb3"/><stop offset=".9261" stop-color="#95e2cd"/><stop offset="1" stop-color="#98e3d3"/></linearGradient><linearGradient id="SVGID_1_" gradientUnits="userSpaceOnUse" x1="159.961" x2="58.998" xlink:href="#lg1" y1="361.16" y2="361.16"/><linearGradient id="lg2"><stop offset="0" stop-color="#cdd4d4"/><stop offset="1" stop-color="#f3f3f3"/></linearGradient><linearGradient id="SVGID_2_" gradientUnits="userSpaceOnUse" x1="299.903" x2="299.903" xlink:href="#lg2" y1="366.655" y2="475.255"/><linearGradient id="SVGID_3_" gradientUnits="userSpaceOnUse" x1="211.817" x2="211.817" xlink:href="#lg2" y1="357.303" y2="475.785"/><linearGradient id="SVGID_4_" gradientUnits="userSpaceOnUse" x1="356.825" x2="406.339" xlink:href="#lg2" y1="317.385" y2="317.385"/><linearGradient id="lg3"><stop offset="0" stop-color="#e08243"/><stop offset="1" stop-color="#f0bb78"/></linearGradient><linearGradient id="SVGID_5_" gradientUnits="userSpaceOnUse" x1="427.265" x2="427.265" xlink:href="#lg3" y1="338.548" y2="301.391"/><linearGradient id="lg4"><stop offset="0" stop-color="#b39bdb"/><stop offset="1" stop-color="#d0c3e8"/></linearGradient><linearGradient id="SVGID_6_" gradientUnits="userSpaceOnUse" x1="157.419" x2="40.538" xlink:href="#lg4" y1="164.135" y2="164.135"/><linearGradient id="SVGID_7_" gradientUnits="userSpaceOnUse" x1="241.723" x2="241.723" xlink:href="#lg4" y1="91.811" y2="11.166"/><linearGradient id="SVGID_8_" gradientUnits="userSpaceOnUse" x1="332.283" x2="332.283" xlink:href="#lg2" y1="126.572" y2="45.888"/><linearGradient id="SVGID_9_" gradientUnits="userSpaceOnUse" x1="258.532" x2="258.532" xlink:href="#lg2" y1="245.976" y2="414.77"/><linearGradient id="lg5"><stop offset="0" stop-color="#ec6f80"/><stop offset="1" stop-color="#eca0aa"/></linearGradient><linearGradient id="SVGID_10_" gradientUnits="userSpaceOnUse" x1="284.871" x2="284.871" xlink:href="#lg5" y1="289.19" y2="385.436"/><linearGradient id="lg6"><stop offset="0" stop-color="#d9e0e0"/><stop offset="1" stop-color="#f3f3f3"/></linearGradient><linearGradient id="SVGID_11_" gradientUnits="userSpaceOnUse" x1="78.271" x2="388.588" xlink:href="#lg6" y1="194.97" y2="194.97"/><linearGradient id="SVGID_12_" gradientUnits="userSpaceOnUse" x1="256.354" x2="355.924" y1="104.547" y2="104.547"><stop offset="0" stop-color="#f4d952"/><stop offset="1" stop-color="#f9edaf"/></linearGradient><linearGradient id="SVGID_13_" gradientUnits="userSpaceOnUse" x1="256.35" x2="335.876" xlink:href="#lg5" y1="65.913" y2="65.913"/><linearGradient id="SVGID_14_" gradientUnits="userSpaceOnUse" x1="271.945" x2="333.287" xlink:href="#lg1" y1="26.691" y2="26.691"/><linearGradient id="SVGID_15_" gradientUnits="userSpaceOnUse" x1="187.252" x2="187.252" xlink:href="#lg2" y1="177.585" y2="82.081"/><linearGradient id="SVGID_16_" gradientUnits="userSpaceOnUse" x1="158.4" x2="158.4" xlink:href="#lg6" y1="354.55" y2="323.081"/><linearGradient id="SVGID_17_" gradientUnits="userSpaceOnUse" x1="102.914" x2="102.914" xlink:href="#lg3" y1="339.713" y2="296.597"/><linearGradient id="SVGID_18_" gradientUnits="userSpaceOnUse" x1="90.138" x2="90.138" y1="356.471" y2="211.756"><stop offset="0" stop-color="#ad7d63"/><stop offset="1" stop-color="#cb9d82"/></linearGradient><linearGradient id="SVGID_19_" gradientUnits="userSpaceOnUse" x1="172.993" x2="218.944" xlink:href="#lg3" y1="480.736" y2="480.736"/><linearGradient id="SVGID_20_" gradientUnits="userSpaceOnUse" x1="289.954" x2="335.57" xlink:href="#lg3" y1="478.797" y2="478.797"/><g><path d="m170.171 409.781c27.463-12.806 39.344-45.451 26.538-72.913-12.806-27.463-45.451-39.344-72.913-26.538-23.667 11.036-37.426 38.117-64.767 39.506-9.516.483-15.225 10.877-10.089 18.903 30.315 47.376 85.881 57.526 121.231 41.042z" fill="url(#SVGID_1_)"/><g fill="#a7f2d2"><path d="m128.351 407.088c-.345 0-.693-.018-1.044-.055-4.204-.436-8.496-1.213-12.755-2.311-5.348-1.377-8.567-6.83-7.189-12.178 1.378-5.349 6.828-8.57 12.179-7.189 3.302.851 6.609 1.451 9.829 1.785 5.494.569 9.485 5.484 8.915 10.978-.534 5.143-4.876 8.97-9.935 8.97z"/><path d="m84.702 389.127c-2.2 0-4.416-.723-6.263-2.209-5.358-4.313-10.298-9.253-14.682-14.686-3.469-4.298-2.796-10.594 1.502-14.063 4.297-3.468 10.593-2.796 14.062 1.502 3.488 4.322 7.411 8.247 11.658 11.664 4.303 3.463 4.983 9.758 1.521 14.061-1.977 2.456-4.875 3.731-7.798 3.731z"/></g><path d="m295.453 472.219c19.327 7.686 43.399.011 49.432-14.408-10.848-34.989-34.038-69.673-44.613-82.097-9.215-10.828-25.464-12.133-36.293-2.919-10.828 9.216-12.134 25.465-2.918 36.293 6.44 7.565 25.871 36.126 34.392 63.131z" fill="url(#SVGID_2_)"/><path d="m182.19 459.473c8.302 16.867 36.934 19.324 49.714 13.391 10.375-39.484 9.523-57.593 9.523-89.814 0-14.219-11.527-25.746-25.745-25.746-14.219 0-25.745 11.526-25.745 25.746-.001 30.54.809 43.857-7.747 76.423z" fill="url(#SVGID_3_)"/><path d="m402.718 287.676c-16.587 8.392-35.394 12.709-58.904 1.953-12.93-5.915-28.208-.228-34.122 12.702-5.915 12.93-.229 28.207 12.701 34.123 35.94 16.44 70.192 13.752 103.929-3.11-3.943-23.998-10.264-34.472-23.604-45.668z" fill="url(#SVGID_4_)"/><path d="m412.676 282.091c-3.239 1.971-6.553 3.862-9.958 5.585 1.38 14.955 11.445 39.174 23.604 45.668 4.383-2.191 8.757-4.609 13.125-7.268 12.146-7.393 16-23.232 8.607-35.378-7.392-12.145-23.23-15.999-35.378-8.607z" fill="url(#SVGID_5_)"/><path d="m237.784 142.16c.126-40.119-32.663-74.062-72.782-74.072-40.215-.009-72.819 32.589-72.819 72.802 0 12.584-.123 37.554-19.995 49.154-18.495 10.796-18.62 37.67-.253 48.683 39.902 23.925 98.097 32.52 145.058 1.046-.001 0 20.558-23.519 20.791-97.613z" fill="url(#SVGID_6_)"/><circle cx="241.723" cy="85.019" fill="url(#SVGID_7_)" r="72.802"/><path d="m355.821 50.108c-21.317-7.759-56.941 24.248-66.318 62.111-5.453 22.02 5.783 37.879 27.1 45.638s40.118 2.832 50.095-17.541c17.157-35.032 10.44-82.449-10.877-90.208z" fill="url(#SVGID_8_)"/><path d="m312.694 255.352c66.276 64.358 57.609 129.632 39.256 148.979s-48.431 28.104-93.418 28.104-75.065-8.757-93.418-28.104-27.02-84.621 39.256-148.979z" fill="url(#SVGID_9_)"/><path d="m212.124 266.797c14.84 64.731 41.085 105.41 83.205 121.852 7.84 3.061 16.765 2.27 23.73-2.455 23.169-15.721 40.282-52.56 38.421-110.898z" fill="url(#SVGID_10_)"/><path d="m454.891 219.624c-2.894 55.294-44.751 85.296-155.223 85.296s-150.934-43.354-150.934-106.167 42.632-113.734 125.99-113.734 183.868 63.876 180.167 134.605z" fill="url(#SVGID_11_)"/><g><ellipse cx="230.657" cy="209.976" fill="#eaadcd" rx="14.936" ry="12.003"/><ellipse cx="406.428" cy="209.976" fill="#eaadcd" rx="14.936" ry="12.003"/><circle cx="256.264" cy="180.358" fill="#fff" r="29.618"/><ellipse cx="268.229" cy="180.358" fill="#3b3b44" rx="17.652" ry="17.652" transform="matrix(.228 -.974 .974 .228 31.459 400.394)"/><circle cx="380.821" cy="180.358" fill="#fff" r="29.618"/><g fill="#3b3b44"><ellipse cx="392.725" cy="180.358" rx="17.652" ry="17.652" transform="matrix(.707 -.707 .707 .707 -12.506 330.524)"/><ellipse cx="356.617" cy="250.157" rx="13.252" ry="17.352"/></g></g><g><path d="m258.625 98.824c-1.457 14.436 15.155 29.066 37.965 33.088 23.489 4.142 44.652-4.534 47.269-19.377 1.592-9.028 2.122-21.111 1.63-34.011-30.964-5.885-55.292-1.465-86.864 20.3z" fill="url(#SVGID_12_)"/><path d="m291.568 101.185c-1.9-.937-3.362-1.909-4.369-2.738.245-1.032.529-2.115.831-3.22-9.705-.861-17.472-.66-29.404 3.596-1.059 10.49 7.419 21.082 20.888 27.633 8.326 4.049 18.217-1.022 19.825-10.139l.016-.091c1.093-6.196-2.145-12.256-7.787-15.041z" fill="#fcb500"/><path d="m339.587 33.344c-22.517-1.543-44.524 1.631-65.608 20.039-7.398 15.883-13.075 32.213-15.18 44.155-.076.429-.131.857-.174 1.287 26.219-1.881 56.437-7.464 86.865-20.3-.577-15.141-2.564-31.402-5.903-45.181z" fill="url(#SVGID_13_)"/><path d="m287.459 56.286c-7.114-2.825-15.189.585-18.113 7.659-5.099 12.336-8.907 24.293-10.547 33.593-.076.428-.129.857-.172 1.286 9.348-.671 19.211-1.824 29.404-3.596 1.665-6.09 4.161-13.215 7.19-20.551 2.984-7.23-.493-15.505-7.762-18.391z" fill="#e05d6f"/><path d="m339.587 33.344c-4.343-17.924-10.972-31.644-19.764-33.194-13.691-2.414-32.548 24.687-45.844 53.232 20.776-3.031 43.386-9.047 65.608-20.038z" fill="url(#SVGID_14_)"/></g><path d="m163.713 51.139c21.317-7.759 56.941 24.247 66.318 62.111 5.453 22.02-5.783 37.879-27.1 45.638s-40.118 2.832-50.095-17.541c-17.156-35.033-10.44-82.45 10.877-90.208z" fill="url(#SVGID_15_)"/><path d="m209.283 324.928c-.96-14.186-13.234-24.883-27.426-23.948-17.273 1.17-35.295-2.104-52.081-9.291-17.789 8.096-24.796 28.913-21.552 46.783 24.476 10.694 51.18 15.634 77.112 13.883 14.186-.962 24.908-13.241 23.947-27.427z" fill="url(#SVGID_16_)"/><path d="m129.776 291.689c-5.043-2.159-9.979-4.656-14.744-7.511-12.195-7.308-28.009-3.345-35.317 8.853-7.308 12.197-3.344 28.009 8.853 35.317 6.341 3.799 12.914 7.179 19.655 10.124 8.276-9.533 18.877-32.727 21.553-46.783z" fill="url(#SVGID_17_)"/><path d="m133.068 219.87c0-27.873-19.221-65.807-42.93-65.807-23.71 0-42.93 37.934-42.93 65.807 0 15.686 6.092 25.347 15.642 30.801 3.624 2.07 5.842 5.934 5.556 10.098l-4.326 62.985c-.889 12.949 9.375 23.942 22.354 23.942h7.41c12.979 0 23.243-10.993 22.354-23.942l-4.326-62.985c-.286-4.164 1.932-8.028 5.556-10.098 9.549-5.454 15.64-15.116 15.64-30.801z" fill="url(#SVGID_18_)"/><path d="m90.138 240.553c12.718 0 23.029-9.181 23.029-20.506 0-20.799-10.31-42.497-23.029-42.497-12.718 0-23.029 21.698-23.029 42.497 0 11.325 10.311 20.506 23.029 20.506z" fill="#a37460"/><path d="m179.526 469.19c-3.898 13.674 4.027 27.919 17.701 31.817 13.671 3.899 27.919-4.026 31.817-17.701 1.041-3.653 1.986-7.115 2.86-10.442-8.998-7.632-34.347-12.993-49.714-13.391-.804 3.062-1.686 6.283-2.664 9.717z" fill="url(#SVGID_19_)"/><path d="m347.76 468.345c-.815-3.5-1.784-7.018-2.874-10.534-18.854-1.497-40.444 8.055-49.432 14.408.828 2.625 1.559 5.237 2.159 7.812 3.221 13.823 17.04 22.462 30.916 19.231 13.848-3.228 22.458-17.069 19.231-30.917z" fill="url(#SVGID_20_)"/><path d="m283.262 304.572c-25.13-1.062-46.22-4.61-63.678-10.309 4.071 12.754 8.733 24.329 14.04 34.713 14.702 3.002 30.822 4.857 48.435 5.586 8.919.369 16.171-7.133 15.554-16.038-.529-7.627-6.713-13.629-14.351-13.952z" fill="#e05d6f"/></g></svg>