<svg id="Capa_1" enable-background="new 0 0 502 502" height="512" viewBox="0 0 502 502" width="512" xmlns="http://www.w3.org/2000/svg" xmlns:xlink="http://www.w3.org/1999/xlink"><linearGradient id="lg1"><stop offset="0" stop-color="#cdd4d4"/><stop offset="1" stop-color="#f3f3f3"/></linearGradient><linearGradient id="SVGID_1_" gradientTransform="matrix(-1 0 0 1 -1625.019 0)" gradientUnits="userSpaceOnUse" x1="-1984.682" x2="-1984.682" xlink:href="#lg1" y1="174.43" y2="112.345"/><linearGradient id="lg2"><stop offset="0" stop-color="#d5738e"/><stop offset="1" stop-color="#e6a3c1"/></linearGradient><linearGradient id="SVGID_2_" gradientTransform="matrix(-1 -.003 -.003 1 -567.398 4.828)" gradientUnits="userSpaceOnUse" x1="-906.567" x2="-963.81" xlink:href="#lg2" y1="156.802" y2="156.802"/><linearGradient id="SVGID_3_" gradientUnits="userSpaceOnUse" x1="142.337" x2="142.337" xlink:href="#lg1" y1="174.43" y2="112.345"/><linearGradient id="SVGID_4_" gradientTransform="matrix(1 -.003 .003 1 1069.398 4.828)" gradientUnits="userSpaceOnUse" x1="-906.567" x2="-963.81" xlink:href="#lg2" y1="156.802" y2="156.802"/><linearGradient id="SVGID_5_" gradientUnits="userSpaceOnUse" x1="251" x2="251" y1="330.423" y2="515.605"><stop offset="0" stop-color="#d9e0e0"/><stop offset="1" stop-color="#f3f3f3"/></linearGradient><linearGradient id="SVGID_6_" gradientUnits="userSpaceOnUse" x1="251" x2="251" y1="318.766" y2="30.15"><stop offset="0" stop-color="#b39bdb"/><stop offset="1" stop-color="#d0c3e8"/></linearGradient><linearGradient id="lg3"><stop offset="0" stop-color="#f4d952"/><stop offset="1" stop-color="#f9edaf"/></linearGradient><linearGradient id="SVGID_7_" gradientUnits="userSpaceOnUse" x1="103.785" x2="438.567" xlink:href="#lg3" y1="211.098" y2="211.098"/><linearGradient id="SVGID_8_" gradientTransform="matrix(1 .003 -.003 1 -6.502 -1.195)" gradientUnits="userSpaceOnUse" x1="257.928" x2="257.928" xlink:href="#lg3" y1="158.68" y2="84.958"/><linearGradient id="SVGID_9_" gradientTransform="matrix(1 .003 -.003 1 -6.502 -1.195)" gradientUnits="userSpaceOnUse" x1="204.143" x2="312.102" y1="77.504" y2="77.504"><stop offset="0" stop-color="#ec6f80"/><stop offset="1" stop-color="#eca0aa"/></linearGradient><linearGradient id="SVGID_10_" gradientTransform="matrix(1 .003 -.003 1 -6.502 -1.195)" gradientUnits="userSpaceOnUse" x1="221.608" x2="279.4" y1="34.338" y2="34.338"><stop offset="0" stop-color="#7ed99e"/><stop offset=".2532" stop-color="#81daa3"/><stop offset=".5725" stop-color="#88ddb3"/><stop offset=".9261" stop-color="#95e2cd"/><stop offset="1" stop-color="#98e3d3"/></linearGradient><g><g><path d="m329.047 183.498c-13.068-12.295-16.443-27.606-6.064-42.936 18.847-27.837 57.183-43.128 72.117-30.511 5.64 4.764 7.908 13.487 7.245 23.746-22.265 28.142-55.541 47.472-73.298 49.701z" fill="url(#SVGID_1_)"/><path d="m331.327 185.537c-.792-.669-1.548-1.351-2.28-2.04 16.65-33.08 50.219-46.133 73.297-49.701-1.093 16.908-10.158 37.995-25.28 52.454-14.13 13.512-30.803 11.904-45.737-.713z" fill="url(#SVGID_2_)"/></g><g><path d="m172.953 183.498c13.068-12.295 16.443-27.606 6.064-42.936-18.847-27.837-57.183-43.128-72.117-30.511-5.64 4.764-7.908 13.487-7.245 23.746 22.265 28.142 55.541 47.472 73.298 49.701z" fill="url(#SVGID_3_)"/><path d="m170.673 185.537c.792-.669 1.548-1.351 2.28-2.04-16.65-33.08-50.219-46.133-73.297-49.701 1.093 16.908 10.158 37.995 25.28 52.454 14.13 13.512 30.803 11.904 45.737-.713z" fill="url(#SVGID_4_)"/></g><path d="m289.256 297.507h-76.511v175.543c0 15.989 12.961 28.95 28.95 28.95h18.611c15.989 0 28.95-12.961 28.95-28.95z" fill="url(#SVGID_5_)"/><circle cx="251" cy="211.098" fill="url(#SVGID_6_)" r="120.13"/><path d="m371.385 178.885h-240.77c-17.16 0-31.071 13.911-31.071 31.071v2.284c0 17.16 13.911 31.071 31.071 31.071h240.771c17.16 0 31.071-13.911 31.071-31.071v-2.284c-.001-17.16-13.912-31.071-31.072-31.071z" fill="url(#SVGID_7_)"/><path d="m267.961 391.868h21.294v28.564h-21.294c-6.596 0-11.944-5.347-11.944-11.944v-4.677c0-6.595 5.348-11.943 11.944-11.943z" fill="#c9d0d6"/><g><path d="m202.429 121.215c1.153 16.295 22.389 29.341 48.468 29.429 26.855.09 48.671-13.594 48.728-30.564.034-10.322-1.695-23.829-4.714-38.048-35.484-.591-61.629 8.979-92.482 39.183z" fill="url(#SVGID_8_)"/><path d="m279.695 33.037c-25.278 2.607-49.085 10.349-68.947 34.816-5.161 19.04-8.328 38.247-8.373 51.9-.002.49.019.976.054 1.461 28.729-7.116 61.184-19.105 92.482-39.183-3.545-16.686-8.868-34.346-15.216-48.994z" fill="url(#SVGID_9_)"/><path d="m279.695 33.037c-8.256-19.053-18.242-33.003-28.294-33.037-15.653-.052-31.376 33.632-40.653 67.853 22.469-7.348 46.401-18.36 68.947-34.816z" fill="url(#SVGID_10_)"/></g><g fill="#fffde3"><path d="m324.087 211.706h-26.044c-5.523 0-10-4.478-10-10s4.477-10 10-10h26.044c5.523 0 10 4.478 10 10s-4.478 10-10 10z"/><path d="m369.485 211.706h-5.114c-5.522 0-10-4.478-10-10s4.478-10 10-10h5.114c5.522 0 10 4.478 10 10s-4.477 10-10 10z"/></g><path d="m241.466 243.311h-106.221c6.334 22.808 19.23 42.879 36.525 58.063 6.117 5.371 15.459 4.694 20.88-1.378l.106-.118c5.568-6.236 4.855-15.74-1.41-21.276-1.908-1.685-3.743-3.451-5.501-5.291h56.045c8.525 0 15.388-7.111 14.983-15.725-.38-8.068-7.33-14.275-15.407-14.275z" fill="#997bce"/><path d="m212.744 324.989v31.274c12.219 3.226 25.036 4.964 38.256 4.964 2.64 0 5.265-.069 7.872-.206 9.361-.49 15.966-9.388 13.768-18.501-1.697-7.039-8.177-11.824-15.408-11.453-2.064.106-4.142.16-6.232.16-13.378 0-26.238-2.201-38.256-6.238z" fill="#c9d0d6"/></g></svg>