<svg id="Capa_1" enable-background="new 0 0 502 502" height="512" viewBox="0 0 502 502" width="512" xmlns="http://www.w3.org/2000/svg" xmlns:xlink="http://www.w3.org/1999/xlink"><linearGradient id="SVGID_1_" gradientUnits="userSpaceOnUse" x1="251" x2="251" y1="451.336" y2="90.488"><stop offset="0" stop-color="#6ac65e"/><stop offset="1" stop-color="#afd986"/></linearGradient><linearGradient id="lg1"><stop offset="0" stop-color="#81d676"/><stop offset="1" stop-color="#c3e6a1"/></linearGradient><linearGradient id="SVGID_2_" gradientUnits="userSpaceOnUse" x1="251" x2="251" xlink:href="#lg1" y1="147.393" y2="404.874"/><linearGradient id="lg2"><stop offset="0" stop-color="#b39bdb"/><stop offset="1" stop-color="#d0c3e8"/></linearGradient><linearGradient id="SVGID_3_" gradientUnits="userSpaceOnUse" x1="163.914" x2="61.83" xlink:href="#lg2" y1="221.05" y2="221.05"/><linearGradient id="SVGID_4_" gradientUnits="userSpaceOnUse" x1="238.444" x2="238.444" xlink:href="#lg2" y1="157.883" y2="87.447"/><linearGradient id="lg3"><stop offset="0" stop-color="#cdd4d4"/><stop offset="1" stop-color="#f3f3f3"/></linearGradient><linearGradient id="SVGID_5_" gradientUnits="userSpaceOnUse" x1="317.539" x2="317.539" xlink:href="#lg3" y1="188.242" y2="117.774"/><linearGradient id="SVGID_6_" gradientUnits="userSpaceOnUse" x1="95.685" x2="366.716" y1="247.981" y2="247.981"><stop offset="0" stop-color="#d9e0e0"/><stop offset="1" stop-color="#f3f3f3"/></linearGradient><linearGradient id="SVGID_7_" gradientUnits="userSpaceOnUse" x1="251.223" x2="338.187" y1="169.006" y2="169.006"><stop offset="0" stop-color="#f4d952"/><stop offset="1" stop-color="#f9edaf"/></linearGradient><linearGradient id="SVGID_8_" gradientUnits="userSpaceOnUse" x1="251.219" x2="320.677" y1="135.263" y2="135.263"><stop offset="0" stop-color="#ec6f80"/><stop offset="1" stop-color="#eca0aa"/></linearGradient><linearGradient id="SVGID_9_" gradientUnits="userSpaceOnUse" x1="264.84" x2="318.416" y1="101.007" y2="101.007"><stop offset="0" stop-color="#7ed99e"/><stop offset=".2532" stop-color="#81daa3"/><stop offset=".5725" stop-color="#88ddb3"/><stop offset=".9261" stop-color="#95e2cd"/><stop offset="1" stop-color="#98e3d3"/></linearGradient><linearGradient id="SVGID_10_" gradientUnits="userSpaceOnUse" x1="190.869" x2="190.869" xlink:href="#lg3" y1="232.798" y2="149.384"/><linearGradient id="SVGID_11_" gradientUnits="userSpaceOnUse" x1="-32.611" x2="53.774" xlink:href="#lg1" y1="171.121" y2="171.121"/><linearGradient id="SVGID_12_" gradientTransform="matrix(-1 0 0 1 902 0)" gradientUnits="userSpaceOnUse" x1="367.389" x2="453.774" xlink:href="#lg1" y1="171.121" y2="171.121"/><linearGradient id="SVGID_13_" gradientTransform="matrix(-1 0 0 1 902 0)" gradientUnits="userSpaceOnUse" x1="862.94" x2="862.94" xlink:href="#lg1" y1="439.757" y2="363.976"/><linearGradient id="SVGID_14_" gradientUnits="userSpaceOnUse" x1="462.94" x2="462.94" xlink:href="#lg1" y1="439.757" y2="363.976"/><g><path d="m502 347.514v-138.662c-17.147-13.718-61.582-55.46-76.791-76.791h-348.418c-15.209 21.331-59.644 63.073-76.791 76.791v138.663c17.147 13.718 61.582 55.46 76.791 76.791h348.418c15.209-21.331 59.644-63.074 76.791-76.792z" fill="url(#SVGID_1_)"/><path d="m289.053 379.011c35.751 0 64.559-3.282 88.03-10.159 9.906-2.902 15.087-13.785 11.219-23.356-3.383-8.372-12.557-12.753-21.229-10.232-19.88 5.778-45.555 8.747-78.02 8.747-61.143 0-97.723-15.21-116.324-40.311-18.871 2.79-37.961.625-55.331-4.872-7.735-2.448-16.143.618-20.356 7.552-5.915 9.735-1.078 22.37 9.783 25.804 16.625 5.256 34.191 8 51.628 7.713 28.315 25.973 72.123 39.114 130.6 39.114z" fill="#04b048"/><path d="m76.794 270.628c-1.39-.491-2.805-1.002-4.222-1.529v-24.97c2.907 1.04 4.598 2.473 4.734 2.592 2.655 2.381 7.242 3.088 10.32.01s2.678-8.923-.228-11.106c-.341-.315-5.824-5.254-14.827-6.99v-4.445c0-4.143-3.358-7.5-7.5-7.5s-7.5 3.357-7.5 7.5v4.971c-21.107 5.397-25.736 32.17-11.711 43.168 3.033 2.379 6.736 4.56 11.711 6.832v32.943c-3.624-.483-6.345-1.673-10.593-4.452-3.466-2.267-8.115-1.297-10.382 2.17-2.268 3.467-1.296 8.115 2.17 10.383 7.353 4.811 12.522 6.469 18.805 6.987v4.984c0 4.143 3.358 7.5 7.5 7.5s7.5-3.357 7.5-7.5v-5.692c12.819-3.178 21.038-14.095 22.848-24.86 2.354-13.999-4.957-26.165-18.625-30.996zm-21.676-10.101c-3.711-2.912-2.886-11.497 2.455-15.232v16.932c-.889-.556-1.718-1.122-2.455-1.7zm25.51 38.609c-.73 4.342-3.46 8.92-8.056 11.401v-25.471c8.791 3.524 8.577 10.969 8.056 14.07z" fill="#c7f0b6"/><path d="m447.565 270.628c-1.39-.491-2.805-1.002-4.222-1.529v-24.97c2.907 1.04 4.598 2.473 4.734 2.592 2.655 2.381 7.242 3.088 10.32.01s2.678-8.923-.227-11.106c-.341-.315-5.824-5.254-14.827-6.99v-4.445c0-4.143-3.358-7.5-7.5-7.5s-7.5 3.357-7.5 7.5v4.971c-21.107 5.397-25.736 32.17-11.711 43.168 3.033 2.379 6.736 4.56 11.711 6.832v32.943c-3.624-.483-6.345-1.673-10.593-4.452-3.466-2.267-8.115-1.297-10.382 2.17-2.268 3.467-1.296 8.115 2.17 10.383 7.353 4.811 12.522 6.469 18.805 6.987v4.984c0 4.143 3.358 7.5 7.5 7.5s7.5-3.357 7.5-7.5v-5.692c12.82-3.178 21.039-14.095 22.848-24.86 2.353-13.999-4.958-26.165-18.626-30.996zm-21.676-10.101c-3.712-2.912-2.886-11.497 2.455-15.232v16.932c-.889-.556-1.718-1.122-2.455-1.7zm25.51 38.609c-.73 4.342-3.46 8.92-8.056 11.401v-25.471c8.791 3.524 8.578 10.969 8.056 14.07z" fill="#c7f0b6"/><circle cx="251" cy="278.183" fill="url(#SVGID_2_)" r="121.72"/><path d="m357.137 337.797c-18.291 4.106-40.777 6.214-68.084 6.214-61.143 0-97.723-15.21-116.324-40.311-13.81 2.042-27.734 1.421-41.018-1.209 2.691 13.277 7.547 25.766 14.177 37.091 4.186.273 8.38.384 12.566.315 28.314 25.972 72.122 39.113 130.599 39.113 11.181 0 21.683-.321 31.555-.973 14.995-10.471 27.519-24.233 36.529-40.24z" fill="#a4d376"/><g><path d="m234.104 201.857c.11-35.04-28.528-64.686-63.568-64.694-35.124-.008-63.6 28.463-63.6 63.585 0 10.991-.108 32.799-17.463 42.931-16.153 9.429-16.263 32.901-.222 42.52 34.85 20.896 85.677 28.403 126.694.914 0-.001 17.956-20.542 18.159-85.256z" fill="url(#SVGID_3_)"/><circle cx="238.444" cy="151.95" fill="url(#SVGID_4_)" r="63.585"/><path d="m338.097 121.459c-18.618-6.777-49.733 21.178-57.922 54.248-4.763 19.232 5.051 33.083 23.669 39.86s35.039 2.474 43.753-15.32c14.985-30.597 9.118-72.011-9.5-78.788z" fill="url(#SVGID_5_)"/><path d="m424.625 269.514c-2.527 48.294-39.085 74.497-135.572 74.497s-131.825-37.865-131.825-92.726 37.234-99.335 110.04-99.335c72.804 0 160.589 55.789 157.357 117.564z" fill="url(#SVGID_6_)"/><g><ellipse cx="218.168" cy="267.848" fill="#eaadcd" rx="14.936" ry="12.003"/><ellipse cx="393.939" cy="267.848" fill="#eaadcd" rx="14.936" ry="12.003"/><circle cx="243.775" cy="238.231" fill="#fff" r="29.618"/><circle cx="368.332" cy="238.231" fill="#fff" r="29.618"/><g fill="#3b3b44"><g><circle cx="243.775" cy="238.231" r="17.652"/><circle cx="368.332" cy="238.231" r="17.652"/></g><path d="m339.982 305.303c-5.247 0-10.495-1.984-14.776-5.953-2.025-1.878-2.145-5.041-.267-7.066 1.877-2.025 5.042-2.143 7.066-.268 4.696 4.355 11.258 4.355 15.954 0 2.025-1.877 5.188-1.757 7.066.268 1.877 2.025 1.758 5.189-.267 7.066-4.281 3.968-9.529 5.953-14.776 5.953z"/></g></g><g><path d="m253.206 164.007c-1.272 12.608 13.236 25.386 33.159 28.899 20.515 3.617 38.999-3.96 41.285-16.923 1.39-7.885 1.853-18.439 1.424-29.706-27.045-5.139-48.293-1.279-75.868 17.73z" fill="url(#SVGID_7_)"/><path d="m281.979 166.07c-1.659-.819-2.937-1.667-3.816-2.391.214-.901.462-1.847.726-2.812-8.477-.752-15.26-.576-25.681 3.141-.925 9.162 6.48 18.413 18.244 24.134 7.272 3.536 15.911-.893 17.315-8.856l.014-.08c.954-5.411-1.875-10.704-6.802-13.136z" fill="#fcb500"/><path d="m323.918 106.817c-19.667-1.348-38.887 1.424-57.302 17.502-6.461 13.872-11.419 28.134-13.258 38.565-.066.374-.114.749-.152 1.124 22.9-1.643 49.292-6.519 75.868-17.73-.504-13.223-2.239-27.426-5.156-39.461z" fill="url(#SVGID_8_)"/><path d="m278.39 126.854c-6.214-2.467-13.267.511-15.82 6.689-4.453 10.774-7.78 21.218-9.212 29.34-.066.374-.113.749-.15 1.124 8.165-.586 16.779-1.593 25.681-3.141 1.454-5.319 3.634-11.541 6.28-17.949 2.606-6.314-.431-13.542-6.779-16.063z" fill="#e05d6f"/><path d="m323.918 106.817c-3.794-15.655-9.583-27.637-17.262-28.991-11.958-2.109-28.427 21.561-40.04 46.493 18.146-2.648 37.894-7.902 57.302-17.502z" fill="url(#SVGID_9_)"/></g><path d="m170.31 122.359c18.618-6.776 49.733 21.178 57.922 54.248 4.763 19.232-5.051 33.083-23.669 39.86s-35.039 2.474-43.753-15.32c-14.984-30.597-9.118-72.011 9.5-78.788z" fill="url(#SVGID_10_)"/></g><path d="m0 184.824v24.027c22.135 4.122 44.4-1.307 59.942-16.849s20.97-37.807 16.849-59.942h-24.027c-29.141.001-52.764 23.624-52.764 52.764z" fill="url(#SVGID_11_)"/><path d="m502 184.824v24.027c-22.135 4.122-44.4-1.307-59.942-16.849s-20.971-37.807-16.849-59.942h24.027c29.141.001 52.764 23.624 52.764 52.764z" fill="url(#SVGID_12_)"/><path d="m0 371.542v-24.027c22.135-4.122 44.4 1.307 59.942 16.849s20.97 37.807 16.849 59.942h-24.027c-29.141-.001-52.764-23.624-52.764-52.764z" fill="url(#SVGID_13_)"/><path d="m502 371.542v-24.027c-22.135-4.122-44.4 1.307-59.942 16.849s-20.971 37.807-16.849 59.942h24.027c29.141-.001 52.764-23.624 52.764-52.764z" fill="url(#SVGID_14_)"/></g></svg>