<svg id="Capa_1" enable-background="new 0 0 502 502" height="512" viewBox="0 0 502 502" width="512" xmlns="http://www.w3.org/2000/svg" xmlns:xlink="http://www.w3.org/1999/xlink"><linearGradient id="lg1"><stop offset="0" stop-color="#7ed99e"/><stop offset=".2532" stop-color="#81daa3"/><stop offset=".5725" stop-color="#88ddb3"/><stop offset=".9261" stop-color="#95e2cd"/><stop offset="1" stop-color="#98e3d3"/></linearGradient><linearGradient id="SVGID_1_" gradientTransform="matrix(-1 0 0 1 701.538 0)" gradientUnits="userSpaceOnUse" x1="354.349" x2="253.385" xlink:href="#lg1" y1="361.163" y2="361.163"/><linearGradient id="lg2"><stop offset="0" stop-color="#cdd4d4"/><stop offset="1" stop-color="#f3f3f3"/></linearGradient><linearGradient id="SVGID_2_" gradientUnits="userSpaceOnUse" x1="210.019" x2="210.019" xlink:href="#lg2" y1="366.655" y2="476.63"/><linearGradient id="SVGID_3_" gradientUnits="userSpaceOnUse" x1="286.621" x2="286.621" xlink:href="#lg2" y1="357.3" y2="477.522"/><linearGradient id="SVGID_4_" gradientUnits="userSpaceOnUse" x1="151.626" x2="90.24" xlink:href="#lg2" y1="319.854" y2="319.854"/><linearGradient id="lg3"><stop offset="0" stop-color="#e08243"/><stop offset="1" stop-color="#f0bb78"/></linearGradient><linearGradient id="SVGID_5_" gradientUnits="userSpaceOnUse" x1="126.613" x2="69.884" xlink:href="#lg3" y1="303.748" y2="303.748"/><linearGradient id="lg4"><stop offset="0" stop-color="#b39bdb"/><stop offset="1" stop-color="#d0c3e8"/></linearGradient><linearGradient id="SVGID_6_" gradientTransform="matrix(-1 0 0 1 701.538 0)" gradientUnits="userSpaceOnUse" x1="350.777" x2="233.895" xlink:href="#lg4" y1="164.136" y2="164.136"/><linearGradient id="SVGID_7_" gradientTransform="matrix(-1 0 0 1 701.538 0)" gradientUnits="userSpaceOnUse" x1="436.112" x2="436.112" xlink:href="#lg4" y1="91.812" y2="11.166"/><linearGradient id="SVGID_8_" gradientTransform="matrix(-1 0 0 1 702 0)" gradientUnits="userSpaceOnUse" x1="527.134" x2="527.134" xlink:href="#lg2" y1="126.573" y2="45.889"/><linearGradient id="SVGID_9_" gradientTransform="matrix(-1 0 0 1 701.538 0)" gradientUnits="userSpaceOnUse" x1="452.921" x2="452.921" xlink:href="#lg2" y1="245.978" y2="414.774"/><linearGradient id="lg5"><stop offset="0" stop-color="#d9e0e0"/><stop offset="1" stop-color="#f3f3f3"/></linearGradient><linearGradient id="SVGID_10_" gradientTransform="matrix(-1 0 0 1 701.538 0)" gradientUnits="userSpaceOnUse" x1="272.658" x2="582.978" xlink:href="#lg5" y1="194.971" y2="194.971"/><linearGradient id="SVGID_11_" gradientUnits="userSpaceOnUse" x1="175.673" x2="175.673" y1="319.379" y2="108.21"><stop offset="0" stop-color="#81d676"/><stop offset="1" stop-color="#c3e6a1"/></linearGradient><linearGradient id="SVGID_12_" gradientTransform="matrix(-1 0 0 1 702 0)" gradientUnits="userSpaceOnUse" x1="451.204" x2="550.776" y1="104.548" y2="104.548"><stop offset="0" stop-color="#f4d952"/><stop offset="1" stop-color="#f9edaf"/></linearGradient><linearGradient id="SVGID_13_" gradientTransform="matrix(-1 0 0 1 701.538 0)" gradientUnits="userSpaceOnUse" x1="450.739" x2="530.265" y1="65.914" y2="65.914"><stop offset="0" stop-color="#ec6f80"/><stop offset="1" stop-color="#eca0aa"/></linearGradient><linearGradient id="SVGID_14_" gradientTransform="matrix(-1 0 0 1 701.538 0)" gradientUnits="userSpaceOnUse" x1="466.334" x2="527.676" xlink:href="#lg1" y1="26.692" y2="26.692"/><linearGradient id="SVGID_15_" gradientTransform="matrix(-1 0 0 1 702 0)" gradientUnits="userSpaceOnUse" x1="382.102" x2="382.102" xlink:href="#lg2" y1="177.587" y2="82.082"/><linearGradient id="SVGID_16_" gradientUnits="userSpaceOnUse" x1="246.266" x2="246.266" xlink:href="#lg5" y1="375.469" y2="327.558"/><linearGradient id="SVGID_17_" gradientUnits="userSpaceOnUse" x1="216.025" x2="216.025" y1="321.945" y2="401.965"><stop offset="0" stop-color="#74d2e8"/><stop offset="1" stop-color="#baeaf5"/></linearGradient><linearGradient id="SVGID_18_" gradientUnits="userSpaceOnUse" x1="216.025" x2="216.025" y1="364.138" y2="416.145"><stop offset="0" stop-color="#53aae6"/><stop offset="1" stop-color="#a4d2f0"/></linearGradient><linearGradient id="SVGID_19_" gradientUnits="userSpaceOnUse" x1="228.101" x2="172.052" xlink:href="#lg3" y1="481.798" y2="481.798"/><linearGradient id="SVGID_20_" gradientUnits="userSpaceOnUse" x1="325.043" x2="271.268" xlink:href="#lg3" y1="483.65" y2="483.65"/><g><path d="m336.979 409.784c-27.463-12.806-39.345-45.451-26.539-72.914s45.451-39.345 72.914-26.539c23.668 11.036 37.426 38.118 64.767 39.506 9.516.483 15.225 10.877 10.089 18.903-30.314 47.378-85.881 57.528-121.231 41.044z" fill="url(#SVGID_1_)"/><g fill="#a7f2d2"><path d="m378.799 407.091c-5.06 0-9.401-3.826-9.935-8.97-.569-5.493 3.422-10.408 8.916-10.978 3.226-.335 6.532-.936 9.826-1.785 5.346-1.379 10.801 1.839 12.18 7.186 1.379 5.348-1.838 10.801-7.186 12.181-4.253 1.097-8.546 1.874-12.758 2.311-.349.037-.698.055-1.043.055z"/><path d="m422.449 389.13c-2.924 0-5.821-1.275-7.797-3.73-3.462-4.303-2.782-10.598 1.521-14.061 4.249-3.419 8.171-7.344 11.657-11.663 3.467-4.3 9.762-4.972 14.062-1.503 4.298 3.468 4.971 9.764 1.502 14.061-4.382 5.431-9.322 10.372-14.683 14.686-1.846 1.487-4.062 2.21-6.262 2.21z"/></g><path d="m238.117 370.603c-12.04-7.564-27.932-3.933-35.496 8.107-13.283 21.146-25.036 51.084-32.756 83.174 13.286 17.006 35.632 16.763 50.106 11.82 8.982-37.48 21.192-59.55 26.252-67.605 7.564-12.04 3.934-27.933-8.106-35.496z" fill="url(#SVGID_2_)"/><path d="m311.926 465.76c-6.927-39.41-5.677-47.074 3.836-74.182 4.708-13.417-2.352-28.11-15.769-32.819-13.415-4.707-28.11 2.352-32.818 15.768-12.897 36.754-14.154 52.942-6.108 99.283 13.899 7.988 44.22 2.054 50.859-8.05z" fill="url(#SVGID_3_)"/><path d="m193.36 296.02c-9.401-10.667-25.67-11.694-36.338-2.291-4.217 3.717-19.896 9.178-34.829 6.366-3.335-.628-5.891-1.544-7.867-2.56-15.491-1.572-38.55 9.189-41.278 32.693 30.934 31.85 90.315 26.548 118.021 2.13 10.666-9.402 11.692-25.671 2.291-36.338z" fill="url(#SVGID_4_)"/><path d="m114.325 297.535c-4.498-2.31-5.966-5.141-6.569-6.311-6.514-12.64-22.042-17.604-34.68-11.089-12.639 6.515-17.603 22.042-11.089 34.68 3.033 5.884 6.776 11.002 11.06 15.413 12.707-4.445 31.277-18.141 41.278-32.693z" fill="url(#SVGID_5_)"/><path d="m270.395 142.162c-.126-40.119 32.664-74.063 72.783-74.073 40.216-.009 72.82 32.589 72.82 72.803 0 12.584.123 37.554 19.995 49.154 18.495 10.796 18.62 37.671.254 48.683-39.902 23.926-98.097 32.521-145.059 1.046-.001 0-20.56-23.519-20.793-97.613z" fill="url(#SVGID_6_)"/><circle cx="265.426" cy="85.02" fill="url(#SVGID_7_)" r="72.803"/><path d="m151.327 50.109c21.317-7.759 56.942 24.248 66.318 62.112 5.453 22.02-5.783 37.879-27.1 45.638s-40.119 2.833-50.096-17.541c-17.156-35.033-10.439-82.45 10.878-90.209z" fill="url(#SVGID_8_)"/><path d="m194.455 255.354c-66.277 64.358-57.61 129.633-39.256 148.98s48.431 28.104 93.419 28.104c44.987 0 75.065-8.757 93.419-28.104s27.02-84.622-39.256-148.98z" fill="url(#SVGID_9_)"/><path d="m52.257 219.626c2.894 55.294 44.751 85.297 155.225 85.297s150.935-43.354 150.935-106.168-42.632-113.735-125.991-113.735c-83.36 0-183.871 63.876-180.169 134.606z" fill="url(#SVGID_10_)"/><path d="m238.667 135.138c-43.777 2.053-47.756 26.515-71.105 14.758-12.224-6.155-16.097-19.265-19.644-32.458-3.138-11.671-16.495-17.171-26.952-11.113-17.173 9.95-32.743 21.895-45.488 35.323-23.321 24.574-34.907 51.724-33.505 78.514 1.706 32.594 15.56 56.059 42.354 71.735 13.138 7.686 29.507 13.436 49.374 17.304 19.592 3.814 39.508-5.224 49.242-22.648 7.158-12.812 14.02-26.953 36.069-34.266 35.778-11.866 60.81 14.873 81.747-21.901 27.72-48.684-15.384-97.439-62.092-95.248z" fill="url(#SVGID_11_)"/><g><ellipse cx="103.659" cy="209.7" fill="#ff8392" rx="14.936" ry="12.003"/><ellipse cx="279.43" cy="209.7" fill="#ff8392" rx="14.936" ry="12.003"/><ellipse cx="129.266" cy="180.082" fill="#fff" rx="29.618" ry="29.618" transform="matrix(.386 -.922 .922 .386 -86.765 229.78)"/><ellipse cx="253.823" cy="180.082" fill="#fff" rx="29.618" ry="29.618" transform="matrix(.386 -.922 .922 .386 -10.307 344.676)"/><g fill="#3b3b44"><g><ellipse cx="129.266" cy="180.082" rx="17.652" ry="17.652" transform="matrix(.19 -.982 .982 .19 -72.069 272.836)"/><ellipse cx="253.823" cy="180.082" rx="17.652" ry="17.652" transform="matrix(.291 -.957 .957 .291 7.652 370.491)"/></g><path d="m149.169 259.597c-5.247 0-10.495-1.984-14.776-5.954-2.025-1.877-2.145-5.041-.267-7.065 1.878-2.025 5.042-2.145 7.066-.267 4.697 4.354 11.257 4.354 15.954 0 2.024-1.877 5.189-1.758 7.066.267 1.877 2.024 1.758 5.188-.267 7.065-4.28 3.969-9.528 5.954-14.776 5.954z"/></g></g><g><path d="m248.525 98.825c1.457 14.436-15.155 29.066-37.966 33.089-23.489 4.142-44.652-4.534-47.27-19.377-1.592-9.028-2.122-21.111-1.63-34.012 30.965-5.885 55.293-1.466 86.866 20.3z" fill="url(#SVGID_12_)"/><path d="m215.581 101.186c1.899-.937 3.362-1.909 4.369-2.738-.245-1.032-.529-2.115-.831-3.22 9.705-.861 17.472-.66 29.404 3.596 1.059 10.49-7.419 21.082-20.889 27.633-8.326 4.049-18.218-1.022-19.825-10.139l-.016-.091c-1.092-6.196 2.146-12.256 7.788-15.041z" fill="#fcb500"/><path d="m167.562 33.344c22.518-1.543 44.524 1.631 65.608 20.039 7.398 15.883 13.075 32.213 15.18 44.155.076.429.131.857.174 1.287-26.22-1.881-56.437-7.464-86.866-20.3.578-15.14 2.565-31.401 5.904-45.181z" fill="url(#SVGID_13_)"/><path d="m219.69 56.286c7.115-2.825 15.19.585 18.113 7.659 5.099 12.336 8.907 24.294 10.547 33.593.076.428.129.857.172 1.286-9.348-.67-19.211-1.824-29.404-3.596-1.665-6.091-4.161-13.215-7.19-20.551-2.984-7.229.493-15.505 7.762-18.391z" fill="#e05d6f"/><path d="m167.562 33.344c4.343-17.924 10.972-31.644 19.764-33.194 13.691-2.414 32.548 24.687 45.844 53.233-20.776-3.032-43.386-9.048-65.608-20.039z" fill="url(#SVGID_14_)"/></g><path d="m343.437 51.139c-21.317-7.759-56.942 24.248-66.318 62.112-5.453 22.02 5.783 37.879 27.1 45.638s40.119 2.832 50.096-17.541c17.156-35.033 10.439-82.45-10.878-90.209z" fill="url(#SVGID_15_)"/><path d="m226.102 381.87c-8.055 0-16.262-.895-24.511-2.722-13.882-3.075-22.643-16.823-19.567-30.705 3.076-13.883 16.822-22.64 30.705-19.568 12.226 2.71 35.354 4.119 52.896-16.854 9.122-10.908 25.358-12.354 36.266-3.233 10.907 9.123 12.354 25.359 3.232 36.266-19.951 23.857-48.375 36.816-79.021 36.816z" fill="url(#SVGID_16_)"/><path d="m253.897 376.022v-30.206c0-13.184-10.688-23.872-23.872-23.872h-27.999c-13.184 0-23.872 10.688-23.872 23.872v18.795c25.191 32.479 59.168 39.18 75.743 11.411z" fill="url(#SVGID_17_)"/><path d="m253.897 390.651v-14.628c-30.06 10.119-41.877-15.638-75.743-11.411v9.929c0 22.978 18.627 41.605 41.605 41.605h8.644c14.08-.002 25.494-11.416 25.494-25.495z" fill="url(#SVGID_18_)"/><path d="m219.972 473.704c-12.333-8.121-37.102-11.714-50.106-11.82-.691 2.872-1.353 5.759-1.977 8.661-2.991 13.901 5.852 27.595 19.753 30.586 13.867 2.986 27.588-5.823 30.586-19.753.564-2.627 1.147-5.184 1.744-7.674z" fill="url(#SVGID_19_)"/><path d="m312.978 471.662c-.372-2.053-.718-4.002-1.052-5.902-14.781-1.991-40.511 2.802-50.86 8.05.395 2.276.805 4.601 1.245 7.029 2.537 14.003 15.938 23.273 29.923 20.744 13.991-2.533 23.279-15.93 20.744-29.921z" fill="url(#SVGID_20_)"/></g></svg>