<svg id="Capa_1" enable-background="new 0 0 502 502" height="512" viewBox="0 0 502 502" width="512" xmlns="http://www.w3.org/2000/svg" xmlns:xlink="http://www.w3.org/1999/xlink"><linearGradient id="lg1"><stop offset="0" stop-color="#f4d952"/><stop offset="1" stop-color="#f9edaf"/></linearGradient><linearGradient id="SVGID_1_" gradientUnits="userSpaceOnUse" x1="244.536" x2="557.505" xlink:href="#lg1" y1="372.37" y2="372.37"/><linearGradient id="lg2"><stop offset="0" stop-color="#ec6f80"/><stop offset="1" stop-color="#eca0aa"/></linearGradient><linearGradient id="SVGID_2_" gradientUnits="userSpaceOnUse" x1="397.256" x2="397.256" xlink:href="#lg2" y1="484.513" y2="357.384"/><linearGradient id="lg3"><stop offset="0" stop-color="#cdd4d4"/><stop offset="1" stop-color="#f3f3f3"/></linearGradient><linearGradient id="SVGID_3_" gradientUnits="userSpaceOnUse" x1="93.207" x2="38.846" xlink:href="#lg3" y1="199.775" y2="199.775"/><linearGradient id="lg4"><stop offset="0" stop-color="#d5738e"/><stop offset="1" stop-color="#e6a3c1"/></linearGradient><linearGradient id="SVGID_4_" gradientUnits="userSpaceOnUse" x1="89.063" x2="26.587" xlink:href="#lg4" y1="233.672" y2="233.672"/><linearGradient id="SVGID_5_" gradientUnits="userSpaceOnUse" x1="197.476" x2="197.476" xlink:href="#lg3" y1="107.488" y2="36.913"/><linearGradient id="SVGID_6_" gradientUnits="userSpaceOnUse" x1="188.114" x2="244.03" xlink:href="#lg4" y1="77.05" y2="77.05"/><linearGradient id="SVGID_7_" gradientUnits="userSpaceOnUse" x1="225.423" x2="225.423" y1="378.988" y2="49.548"><stop offset="0" stop-color="#b39bdb"/><stop offset="1" stop-color="#d0c3e8"/></linearGradient><linearGradient id="SVGID_8_" gradientUnits="userSpaceOnUse" x1="298.777" x2="106.553" xlink:href="#lg1" y1="231.615" y2="231.615"/><linearGradient id="SVGID_9_" gradientTransform="matrix(.709 -.705 .705 .709 12.051 204.72)" gradientUnits="userSpaceOnUse" x1="134.753" x2="134.753" xlink:href="#lg1" y1="71.376" y2="-4.579"/><linearGradient id="SVGID_10_" gradientUnits="userSpaceOnUse" x1="133.797" x2="133.797" xlink:href="#lg1" y1="176.782" y2="90.734"/><linearGradient id="SVGID_11_" gradientUnits="userSpaceOnUse" x1="98.312" x2="98.312" xlink:href="#lg2" y1="166.842" y2="73.785"/><linearGradient id="lg5"><stop offset="0" stop-color="#7ed99e"/><stop offset=".2532" stop-color="#81daa3"/><stop offset=".5725" stop-color="#88ddb3"/><stop offset=".9261" stop-color="#95e2cd"/><stop offset="1" stop-color="#98e3d3"/></linearGradient><linearGradient id="SVGID_12_" gradientUnits="userSpaceOnUse" x1="63.156" x2="63.156" xlink:href="#lg5" y1="129.421" y2="62.766"/><linearGradient id="SVGID_13_" gradientTransform="matrix(-1 0 0 1 1566 0)" gradientUnits="userSpaceOnUse" x1="1163.466" x2="1163.466" xlink:href="#lg1" y1="155.634" y2="48.719"/><linearGradient id="SVGID_14_" gradientTransform="matrix(-1 0 0 1 1566 0)" gradientUnits="userSpaceOnUse" x1="1468.713" x2="1468.713" xlink:href="#lg5" y1="464.366" y2="392.195"/><linearGradient id="SVGID_15_" gradientTransform="matrix(-1 0 0 1 1566 0)" gradientUnits="userSpaceOnUse" x1="1108.855" x2="1108.855" xlink:href="#lg5" y1="276.418" y2="200.195"/><g><path d="m484.469 404.341-40.512-40.512s-23.151 11.032-46.701-14.206-38.105-70.6-38.105-70.6l-33.984-33.984-82.428 82.428 107.816 107.816s27.055 8.296 40.744 20.024 23.457 24.294 28.97 42.443c15.135 4.65 32.274.996 44.25-10.98l19.95-19.95c17.253-17.255 17.253-45.227 0-62.479z" fill="url(#SVGID_1_)"/><path d="m350.555 435.281c2.908-13.518 5.373-27.569 7.244-42.254l-15.591-15.591c6.081-4.763 11.912-9.922 17.46-15.47.388-.388.766-.782 1.15-1.173 1.104-18.326 1.23-37.635.122-58.106-6.852 12.38-15.516 24.024-26.021 34.529-14.58 14.58-31.348 25.634-49.244 33.184z" fill="#fcc435"/><path d="m350.555 435.281 51.487 51.487c5.277 5.277 11.559 8.931 18.227 10.98 13.025-45.402 21.091-88.815 23.688-133.92l-84.807-84.807c5.888 60.614 1.064 111.351-8.595 156.26z" fill="url(#SVGID_2_)"/><g><path d="m133.629 212.224c.74-24.282-10.687-42.172-35.3-46.911-44.694-8.606-96.034 13.456-98.253 39.832-.838 9.961 5.341 20.483 15.798 29.67 48.258 5.627 98.621-7.725 117.755-22.591z" fill="url(#SVGID_3_)"/><path d="m133.398 216.359c.118-1.399.189-2.775.23-4.135-47.611-15.729-92.245 3.913-117.755 22.591 17.234 15.14 46.101 26.65 74.421 26.015 26.463-.593 40.886-18.095 43.104-44.471z" fill="url(#SVGID_4_)"/></g><g><path d="m209.925 135.928c-24.282.74-42.171-10.687-46.911-35.3-8.607-44.694 13.456-96.034 39.832-98.253 9.961-.838 20.483 5.341 29.67 15.798 5.627 48.258-7.726 98.621-22.591 117.755z" fill="url(#SVGID_5_)"/><path d="m214.06 135.697c-1.399.118-2.775.189-4.135.23-15.73-47.611 3.913-92.245 22.591-117.755 15.14 17.234 26.65 46.101 26.015 74.421-.593 26.463-18.095 40.886-44.471 43.104z" fill="url(#SVGID_6_)"/></g><circle cx="225.423" cy="227.722" fill="url(#SVGID_7_)" r="154.85"/><path d="m264.008 274.21-11.062 19.991c-6.336 11.45-21.748 13.891-31.311 4.959l-16.698-15.594c-2.76-2.578-6.192-4.326-9.9-5.044l-22.431-4.343c-12.847-2.487-19.931-16.391-14.392-28.246l9.671-20.699c1.599-3.422 2.201-7.226 1.738-10.974l-2.801-22.675c-1.604-12.987 9.429-24.021 22.416-22.416l22.675 2.801c3.749.463 7.552-.139 10.974-1.738l20.699-9.671c11.855-5.539 25.759 1.545 28.246 14.392l4.343 22.431c.718 3.708 2.466 7.14 5.044 9.9l15.594 16.698c8.931 9.564 6.49 24.976-4.959 31.311l-19.991 11.062c-3.304 1.827-6.026 4.55-7.855 7.855z" fill="url(#SVGID_8_)"/><g><path d="m95.592 168.651c12.711 11.032 37.687 5.065 56.75-13.871 19.63-19.499 25.554-45.361 13.232-57.766-7.495-7.545-18.595-16.126-31.153-24.284-26.281 25.421-38.356 51.439-38.829 95.921z" fill="url(#SVGID_9_)"/><path d="m95.592 168.651c12.711 11.032 37.687 5.065 56.75-13.871 19.63-19.499 25.554-45.361 13.232-57.766-7.495-7.545-18.595-16.126-31.153-24.284-26.281 25.421-38.356 51.439-38.829 95.921z" fill="url(#SVGID_10_)"/><path d="m87.643 48.121c-16.517 20.315-28.22 43.299-24.865 75.594 10.111 17.632 21.797 33.931 31.71 43.911.356.358.726.697 1.103 1.025 15.746-26.114 30.655-58.493 38.829-95.921-14.738-9.575-31.482-18.562-46.777-24.609z" fill="url(#SVGID_11_)"/><path d="m87.643 48.121c-19.896-7.866-37.334-10.754-44.681-3.456-11.442 11.365 1.643 47.361 19.816 79.05 11.015-21.722 20.428-47.18 24.865-75.594z" fill="url(#SVGID_12_)"/></g><path d="m381.156 116.839 6.321 12.504c6.242 12.346 23.872 12.346 30.114 0l6.321-12.504c4.313-8.532 11.242-15.461 19.775-19.775l12.504-6.321c12.346-6.242 12.346-23.873 0-30.114l-12.504-6.321c-8.532-4.313-15.461-11.242-19.775-19.775l-6.321-12.504c-6.241-12.346-23.872-12.346-30.114 0l-6.321 12.504c-4.313 8.532-11.242 15.461-19.775 19.775l-12.504 6.321c-12.346 6.241-12.346 23.872 0 30.114l12.504 6.321c8.532 4.314 15.461 11.243 19.775 19.775z" fill="url(#SVGID_13_)"/><path d="m82.857 438.178 4.267 8.44c4.213 8.334 16.115 8.334 20.328 0l4.267-8.44c2.912-5.759 7.589-10.437 13.348-13.348l8.44-4.267c8.334-4.213 8.334-16.115 0-20.328l-8.44-4.267c-5.759-2.912-10.437-7.589-13.348-13.348l-4.267-8.44c-4.213-8.334-16.114-8.334-20.328 0l-4.267 8.44c-2.912 5.76-7.589 10.437-13.348 13.348l-8.441 4.267c-8.334 4.213-8.334 16.115 0 20.328l8.441 4.267c5.759 2.911 10.436 7.588 13.348 13.348z" fill="url(#SVGID_14_)"/><path d="m441.905 248.759 4.506 8.914c4.45 8.802 17.019 8.802 21.469 0l4.507-8.914c3.075-6.083 8.015-11.023 14.098-14.098l8.914-4.506c8.802-4.45 8.802-17.019 0-21.469l-8.914-4.506c-6.083-3.075-11.023-8.015-14.098-14.098l-4.507-8.914c-4.45-8.802-17.019-8.802-21.469 0l-4.506 8.914c-3.075 6.083-8.015 11.023-14.098 14.098l-8.914 4.506c-8.802 4.45-8.802 17.019 0 21.469l8.914 4.506c6.083 3.076 11.023 8.016 14.098 14.098z" fill="url(#SVGID_15_)"/><g fill="#e05d6f"><path d="m360.94 302.688c1.108 20.47.981 39.779-.122 58.106 13.682-13.915 24.963-29.57 33.641-46.464l-26.356-26.356c-2.111 5.002-4.505 9.911-7.163 14.714z"/><path d="m378.252 438.229c6.834-6.834 6.834-17.915 0-24.749l-20.453-20.453c-1.871 14.685-4.336 28.736-7.244 42.254l2.948 2.948c6.834 6.834 17.914 6.834 24.749 0z"/></g><g fill="#e1cef5"><path d="m322.659 159.356c-2.919 0-5.813-1.271-7.789-3.721-5.474-6.785-11.726-12.953-18.583-18.333-4.345-3.409-5.104-9.694-1.694-14.04 3.41-4.344 9.695-5.102 14.04-1.694 8.045 6.312 15.381 13.549 21.804 21.509 3.468 4.299 2.794 10.594-1.504 14.063-1.85 1.49-4.069 2.216-6.274 2.216z"/><path d="m266.322 119.725c-1.085 0-2.189-.178-3.271-.553-4.059-1.405-8.244-2.594-12.44-3.53-5.39-1.205-8.783-6.55-7.579-11.94s6.553-8.783 11.94-7.579c4.931 1.103 9.85 2.498 14.621 4.149 5.219 1.808 7.985 7.503 6.179 12.722-1.432 4.135-5.306 6.731-9.45 6.731z"/></g></g></svg>