<svg id="Capa_1" enable-background="new 0 0 502 502" height="512" viewBox="0 0 502 502" width="512" xmlns="http://www.w3.org/2000/svg" xmlns:xlink="http://www.w3.org/1999/xlink"><linearGradient id="lg1"><stop offset="0" stop-color="#7ed99e"/><stop offset=".2532" stop-color="#81daa3"/><stop offset=".5725" stop-color="#88ddb3"/><stop offset=".9261" stop-color="#95e2cd"/><stop offset="1" stop-color="#98e3d3"/></linearGradient><linearGradient id="SVGID_1_" gradientTransform="matrix(-1 0 0 1 301.538 0)" gradientUnits="userSpaceOnUse" x1="-86.664" x2="-187.627" xlink:href="#lg1" y1="361.16" y2="361.16"/><linearGradient id="lg2"><stop offset="0" stop-color="#cdd4d4"/><stop offset="1" stop-color="#f3f3f3"/></linearGradient><linearGradient id="SVGID_2_" gradientUnits="userSpaceOnUse" x1="253.556" x2="253.556" xlink:href="#lg2" y1="366.652" y2="471.754"/><linearGradient id="SVGID_3_" gradientUnits="userSpaceOnUse" x1="332.738" x2="332.738" xlink:href="#lg2" y1="357.304" y2="477.676"/><linearGradient id="SVGID_4_" gradientUnits="userSpaceOnUse" x1="198.696" x2="140.735" xlink:href="#lg2" y1="325.449" y2="325.449"/><linearGradient id="lg3"><stop offset="0" stop-color="#ad7d63"/><stop offset="1" stop-color="#cb9d82"/></linearGradient><linearGradient id="SVGID_5_" gradientTransform="matrix(.707 -.707 .707 .707 -75.677 34.945)" gradientUnits="userSpaceOnUse" x1="-93.307" x2="-24.029" xlink:href="#lg3" y1="345.558" y2="345.558"/><linearGradient id="lg4"><stop offset="0" stop-color="#f4d952"/><stop offset="1" stop-color="#f9edaf"/></linearGradient><linearGradient id="SVGID_6_" gradientTransform="matrix(.707 -.707 .707 .707 -75.677 34.945)" gradientUnits="userSpaceOnUse" x1="-128.395" x2="28.359" xlink:href="#lg4" y1="263.935" y2="263.935"/><linearGradient id="lg5"><stop offset="0" stop-color="#74d2e8"/><stop offset="1" stop-color="#baeaf5"/></linearGradient><linearGradient id="SVGID_7_" gradientUnits="userSpaceOnUse" x1="64.624" x2="64.624" xlink:href="#lg5" y1="334.053" y2="229.912"/><linearGradient id="SVGID_8_" gradientUnits="userSpaceOnUse" x1="34.084" x2="151.771" xlink:href="#lg5" y1="268.644" y2="268.644"/><linearGradient id="lg6"><stop offset="0" stop-color="#b39bdb"/><stop offset="1" stop-color="#d0c3e8"/></linearGradient><linearGradient id="SVGID_9_" gradientTransform="matrix(-1 0 0 1 301.538 0)" gradientUnits="userSpaceOnUse" x1="-90.236" x2="-207.117" xlink:href="#lg6" y1="164.134" y2="164.134"/><linearGradient id="SVGID_10_" gradientTransform="matrix(-1 0 0 1 301.538 0)" gradientUnits="userSpaceOnUse" x1="-4.902" x2="-4.902" xlink:href="#lg6" y1="91.811" y2="11.166"/><linearGradient id="SVGID_11_" gradientTransform="matrix(-1 0 0 1 302 0)" gradientUnits="userSpaceOnUse" x1="86.12" x2="86.12" xlink:href="#lg2" y1="126.571" y2="45.888"/><linearGradient id="SVGID_12_" gradientTransform="matrix(-1 0 0 1 301.538 0)" gradientUnits="userSpaceOnUse" x1="11.907" x2="11.907" xlink:href="#lg2" y1="245.976" y2="414.77"/><linearGradient id="lg7"><stop offset="0" stop-color="#d9e0e0"/><stop offset="1" stop-color="#f3f3f3"/></linearGradient><linearGradient id="SVGID_13_" gradientTransform="matrix(-1 0 0 1 301.538 0)" gradientUnits="userSpaceOnUse" x1="-159.159" x2="151.158" xlink:href="#lg7" y1="193.839" y2="193.839"/><linearGradient id="SVGID_14_" gradientTransform="matrix(-1 0 0 1 302 0)" gradientUnits="userSpaceOnUse" x1="10.191" x2="109.761" xlink:href="#lg4" y1="104.547" y2="104.547"/><linearGradient id="SVGID_15_" gradientTransform="matrix(-1 0 0 1 301.538 0)" gradientUnits="userSpaceOnUse" x1="9.725" x2="89.251" y1="65.913" y2="65.913"><stop offset="0" stop-color="#ec6f80"/><stop offset="1" stop-color="#eca0aa"/></linearGradient><linearGradient id="SVGID_16_" gradientTransform="matrix(-1 0 0 1 301.538 0)" gradientUnits="userSpaceOnUse" x1="25.32" x2="86.662" xlink:href="#lg1" y1="26.691" y2="26.691"/><linearGradient id="SVGID_17_" gradientTransform="matrix(-1 0 0 1 302 0)" gradientUnits="userSpaceOnUse" x1="-58.911" x2="-58.911" xlink:href="#lg2" y1="177.585" y2="82.081"/><linearGradient id="SVGID_18_" gradientUnits="userSpaceOnUse" x1="237.504" x2="306.781" xlink:href="#lg3" y1="269.857" y2="269.857"/><linearGradient id="SVGID_19_" gradientUnits="userSpaceOnUse" x1="202.416" x2="359.169" xlink:href="#lg4" y1="188.235" y2="188.235"/><linearGradient id="SVGID_20_" gradientUnits="userSpaceOnUse" x1="265.292" x2="265.292" xlink:href="#lg5" y1="254.386" y2="150.245"/><linearGradient id="SVGID_21_" gradientUnits="userSpaceOnUse" x1="301.029" x2="301.029" xlink:href="#lg7" y1="362.607" y2="309.604"/><linearGradient id="SVGID_22_" gradientUnits="userSpaceOnUse" x1="234.753" x2="352.439" xlink:href="#lg5" y1="188.978" y2="188.978"/><linearGradient id="lg8"><stop offset="0" stop-color="#e08243"/><stop offset="1" stop-color="#f0bb78"/></linearGradient><linearGradient id="SVGID_23_" gradientUnits="userSpaceOnUse" x1="229.208" x2="292.468" xlink:href="#lg8" y1="292.175" y2="292.175"/><linearGradient id="SVGID_24_" gradientUnits="userSpaceOnUse" x1="370.923" x2="322.425" xlink:href="#lg8" y1="482.191" y2="482.191"/><linearGradient id="SVGID_25_" gradientUnits="userSpaceOnUse" x1="271.373" x2="223.154" xlink:href="#lg8" y1="476.283" y2="476.283"/><g><path d="m377.992 409.781c-27.463-12.806-39.345-45.451-26.538-72.913 12.806-27.463 45.451-39.345 72.913-26.538 23.667 11.036 37.426 38.117 64.767 39.506 9.516.483 15.225 10.877 10.089 18.903-30.315 47.375-85.881 57.525-121.231 41.042z" fill="url(#SVGID_1_)"/><g fill="#a7f2d2"><path d="m419.813 407.088c-5.06 0-9.401-3.826-9.935-8.97-.57-5.493 3.421-10.408 8.915-10.978 3.222-.334 6.527-.935 9.826-1.786 5.352-1.378 10.802 1.839 12.181 7.187s-1.839 10.802-7.186 12.181c-4.258 1.098-8.551 1.876-12.758 2.311-.35.037-.699.055-1.043.055z"/><path d="m463.461 389.126c-2.924 0-5.821-1.275-7.797-3.732-3.462-4.303-2.781-10.598 1.522-14.06 4.245-3.416 8.167-7.341 11.657-11.664 3.471-4.297 9.767-4.967 14.063-1.5 4.297 3.469 4.969 9.765 1.5 14.063-4.386 5.433-9.325 10.373-14.683 14.684-1.847 1.486-4.062 2.209-6.262 2.209z"/></g><path d="m280.645 370.913c-11.867-7.833-27.836-4.559-35.668 7.309-9.583 14.525-22.134 43.614-30.077 77.933 12.459 17.242 36.101 18.105 49.945 12.55 6.844-30.143 17.336-53.371 23.111-62.124 7.829-11.869 4.557-27.838-7.311-35.668z" fill="url(#SVGID_2_)"/><path d="m311.553 474.87c22.603 7.322 39.418-.693 49.966-12.427-8.949-34.25-5.352-46.625-5.352-79.393 0-14.219-11.527-25.746-25.746-25.746-14.218 0-25.746 11.526-25.746 25.746 0 6.958-.193 13.15-.379 19.138-.661 21.277-1.231 39.887 7.257 72.682z" fill="url(#SVGID_3_)"/><path d="m126.033 357.414c-14.057-2.142-23.715-15.274-21.573-29.331 2.143-14.056 15.276-23.71 29.331-21.573 35.869 5.471 62.446-5.175 75.098-12.006 12.514-6.756 28.131-2.084 34.885 10.427 6.753 12.513 2.085 28.131-10.427 34.885-30.183 16.292-68.029 23.584-107.314 17.598z" fill="url(#SVGID_4_)"/><g><path d="m110.257 281.237-32.298 32.298 34.024 41.421c9.055 11.024 25.643 11.835 35.731 1.748l5.712-5.712c10.088-10.088 9.276-26.676-1.748-35.731z" fill="url(#SVGID_5_)"/><circle cx="64.624" cy="267.901" fill="url(#SVGID_6_)" r="63.777"/><circle cx="64.624" cy="267.901" fill="url(#SVGID_7_)" r="40.075"/><path d="m27.352 253.178 51.995 51.995c9.156-3.62 16.656-10.511 21.062-19.237l-53.82-53.82c-8.726 4.406-15.617 11.906-19.237 21.062z" fill="url(#SVGID_8_)"/></g><path d="m311.409 142.16c-.126-40.119 32.663-74.062 72.782-74.072 40.215-.009 72.819 32.589 72.819 72.802 0 12.584.123 37.554 19.995 49.154 18.495 10.796 18.62 37.67.254 48.683-39.902 23.925-98.097 32.52-145.058 1.046-.001 0-20.56-23.519-20.792-97.613z" fill="url(#SVGID_9_)"/><circle cx="306.44" cy="85.019" fill="url(#SVGID_10_)" r="72.802"/><path d="m192.342 50.108c21.317-7.759 56.941 24.248 66.318 62.111 5.453 22.02-5.783 37.879-27.1 45.638s-40.118 2.832-50.095-17.541c-17.157-35.032-10.44-82.449 10.877-90.208z" fill="url(#SVGID_11_)"/><path d="m235.469 255.352c-66.276 64.358-57.609 129.632-39.256 148.979s48.431 28.103 93.418 28.103 75.065-8.757 93.418-28.103c18.353-19.347 27.02-84.621-39.256-148.979z" fill="url(#SVGID_12_)"/><path d="m84.077 218.493c2.894 55.294 44.751 85.296 155.223 85.296s150.934-43.354 150.934-106.167-42.632-113.734-125.99-113.734-183.868 63.876-180.167 134.605z" fill="url(#SVGID_13_)"/><g><ellipse cx="132.165" cy="205.842" fill="#eaadcd" rx="14.936" ry="12.003"/><ellipse cx="307.936" cy="205.842" fill="#eaadcd" rx="14.936" ry="12.003"/><circle cx="157.772" cy="176.225" fill="#fff" r="29.618"/><ellipse cx="169.738" cy="176.225" fill="#3b3b44" rx="17.652" ry="17.652" transform="matrix(.23 -.973 .973 .23 -40.771 300.934)"/><circle cx="282.329" cy="176.225" fill="#fff" r="29.618"/><g fill="#3b3b44"><ellipse cx="294.233" cy="176.225" rx="17.652" ry="17.652" transform="matrix(.707 -.707 .707 .707 -38.431 259.669)"/><ellipse cx="180.462" cy="249.225" rx="13.252" ry="17.352"/></g></g><g><path d="m289.538 98.824c1.457 14.436-15.155 29.066-37.965 33.088-23.489 4.142-44.652-4.534-47.269-19.377-1.592-9.028-2.122-21.111-1.63-34.011 30.964-5.885 55.292-1.465 86.864 20.3z" fill="url(#SVGID_14_)"/><path d="m256.595 101.185c1.899-.937 3.362-1.909 4.369-2.738-.245-1.032-.529-2.114-.831-3.22 9.705-.861 17.472-.66 29.404 3.596 1.059 10.49-7.419 21.082-20.888 27.633-8.326 4.049-18.217-1.022-19.825-10.139l-.016-.091c-1.093-6.196 2.145-12.256 7.787-15.041z" fill="#fcb500"/><path d="m208.576 33.344c22.517-1.543 44.524 1.631 65.608 20.039 7.398 15.883 13.075 32.212 15.18 44.155.076.429.131.858.174 1.287-26.219-1.881-56.437-7.463-86.865-20.3.577-15.141 2.564-31.402 5.903-45.181z" fill="url(#SVGID_15_)"/><path d="m260.704 56.285c7.114-2.825 15.189.585 18.113 7.659 5.099 12.336 8.907 24.293 10.547 33.593.076.428.129.858.172 1.286-9.348-.67-19.211-1.824-29.404-3.596-1.665-6.091-4.161-13.215-7.19-20.551-2.984-7.229.493-15.505 7.762-18.391z" fill="#e05d6f"/><path d="m208.576 33.344c4.343-17.924 10.972-31.644 19.764-33.194 13.691-2.414 32.548 24.687 45.844 53.232-20.776-3.031-43.386-9.047-65.608-20.038z" fill="url(#SVGID_16_)"/></g><path d="m384.45 51.138c-21.317-7.759-56.941 24.247-66.318 62.111-5.453 22.02 5.783 37.879 27.1 45.638s40.118 2.832 50.095-17.541c17.156-35.032 10.44-82.449-10.877-90.208z" fill="url(#SVGID_17_)"/><g><path d="m288.13 229.932h-45.676l-5.231 53.348c-1.392 14.198 9.764 26.501 24.03 26.501h8.078c14.266 0 25.422-12.303 24.03-26.501z" fill="url(#SVGID_18_)"/><circle cx="265.292" cy="188.235" fill="url(#SVGID_19_)" r="63.777"/><circle cx="265.292" cy="188.235" fill="url(#SVGID_20_)" r="40.075"/></g><path d="m332.95 313.168c-11.905-1.815-29.624-10.121-46.999-27.791-15.129-.348-37.491 9.214-38.712 33.967 16.138 16.84 43.554 39.481 77.949 44.725 14.012 2.142 27.182-7.473 29.332-21.57 2.144-14.055-7.513-27.187-21.57-29.331z" fill="url(#SVGID_21_)"/><path d="m228.021 173.511 51.995 51.995c9.156-3.62 16.655-10.511 21.062-19.237l-53.82-53.82c-8.726 4.407-15.617 11.906-19.237 21.062z" fill="url(#SVGID_22_)"/><path d="m236.265 306.869c2.668 3.323 6.363 7.664 10.974 12.476 10.743-5.866 30.648-21.413 38.712-33.967-3.203-3.258-6.394-6.833-9.535-10.745-8.902-11.088-25.106-12.86-36.194-3.957-11.087 8.901-12.859 25.105-3.957 36.193z" fill="url(#SVGID_23_)"/><path d="m363.363 469.189c-.668-2.346-1.279-4.586-1.844-6.747-16.578-.72-40.164 5.147-49.966 12.427.703 2.715 1.46 5.516 2.292 8.435 3.897 13.673 18.143 21.602 31.817 17.701 13.674-3.896 21.599-18.142 17.701-31.816z" fill="url(#SVGID_24_)"/><path d="m214.899 456.155c-.722 3.118-1.409 6.275-2.049 9.473-2.791 13.942 6.249 27.506 20.192 30.297 13.876 2.782 27.495-6.186 30.297-20.192.477-2.383.981-4.723 1.505-7.029-11.079-7.074-35.701-12.948-49.945-12.549z" fill="url(#SVGID_25_)"/></g></svg>