<svg id="Capa_1" enable-background="new 0 0 502 502" height="512" viewBox="0 0 502 502" width="512" xmlns="http://www.w3.org/2000/svg" xmlns:xlink="http://www.w3.org/1999/xlink"><linearGradient id="lg1"><stop offset="0" stop-color="#7ed99e"/><stop offset=".2532" stop-color="#81daa3"/><stop offset=".5725" stop-color="#88ddb3"/><stop offset=".9261" stop-color="#95e2cd"/><stop offset="1" stop-color="#98e3d3"/></linearGradient><linearGradient id="SVGID_1_" gradientUnits="userSpaceOnUse" x1="160.899" x2="61.345" xlink:href="#lg1" y1="356.122" y2="356.122"/><linearGradient id="lg2"><stop offset="0" stop-color="#cdd4d4"/><stop offset="1" stop-color="#f3f3f3"/></linearGradient><linearGradient id="SVGID_2_" gradientUnits="userSpaceOnUse" x1="289.19" x2="289.19" xlink:href="#lg2" y1="361.54" y2="477.892"/><linearGradient id="lg3"><stop offset="0" stop-color="#d9e0e0"/><stop offset="1" stop-color="#f3f3f3"/></linearGradient><linearGradient id="SVGID_3_" gradientUnits="userSpaceOnUse" x1="192.035" x2="192.035" xlink:href="#lg3" y1="352.313" y2="478.449"/><linearGradient id="SVGID_4_" gradientUnits="userSpaceOnUse" x1="207.611" x2="207.611" xlink:href="#lg2" y1="352.313" y2="478.424"/><linearGradient id="SVGID_5_" gradientUnits="userSpaceOnUse" x1="344.066" x2="399.794" xlink:href="#lg2" y1="336.791" y2="336.791"/><linearGradient id="lg4"><stop offset="0" stop-color="#e08243"/><stop offset="1" stop-color="#f0bb78"/></linearGradient><linearGradient id="SVGID_6_" gradientUnits="userSpaceOnUse" x1="410.426" x2="410.426" xlink:href="#lg4" y1="397.373" y2="356.003"/><linearGradient id="lg5"><stop offset="0" stop-color="#b39bdb"/><stop offset="1" stop-color="#d0c3e8"/></linearGradient><linearGradient id="SVGID_7_" gradientUnits="userSpaceOnUse" x1="157.377" x2="42.127" xlink:href="#lg5" y1="161.845" y2="161.845"/><linearGradient id="SVGID_8_" gradientUnits="userSpaceOnUse" x1="241.521" x2="241.521" xlink:href="#lg5" y1="90.531" y2="11.01"/><linearGradient id="SVGID_9_" gradientUnits="userSpaceOnUse" x1="330.818" x2="330.818" xlink:href="#lg2" y1="124.806" y2="45.248"/><linearGradient id="SVGID_10_" gradientUnits="userSpaceOnUse" x1="258.095" x2="258.095" xlink:href="#lg2" y1="242.545" y2="408.985"/><linearGradient id="SVGID_11_" gradientUnits="userSpaceOnUse" x1="80.349" x2="386.338" xlink:href="#lg3" y1="192.25" y2="192.25"/><linearGradient id="SVGID_12_" gradientUnits="userSpaceOnUse" x1="255.948" x2="354.129" y1="103.089" y2="103.089"><stop offset="0" stop-color="#f4d952"/><stop offset="1" stop-color="#f9edaf"/></linearGradient><linearGradient id="lg6"><stop offset="0" stop-color="#ec6f80"/><stop offset="1" stop-color="#eca0aa"/></linearGradient><linearGradient id="SVGID_13_" gradientUnits="userSpaceOnUse" x1="255.944" x2="334.361" xlink:href="#lg6" y1="64.994" y2="64.994"/><linearGradient id="SVGID_14_" gradientUnits="userSpaceOnUse" x1="271.321" x2="331.808" xlink:href="#lg1" y1="26.319" y2="26.319"/><linearGradient id="SVGID_15_" gradientUnits="userSpaceOnUse" x1="187.809" x2="187.809" xlink:href="#lg2" y1="175.109" y2="80.936"/><linearGradient id="SVGID_16_" gradientUnits="userSpaceOnUse" x1="254.495" x2="254.495" xlink:href="#lg3" y1="340.223" y2="299.038"/><linearGradient id="SVGID_17_" gradientUnits="userSpaceOnUse" x1="67.1" x2="67.1" xlink:href="#lg6" y1="106.195" y2="24.585"/><linearGradient id="SVGID_18_" gradientUnits="userSpaceOnUse" x1="448.193" x2="448.193" xlink:href="#lg6" y1="125.789" y2="67.829"/><linearGradient id="SVGID_19_" gradientUnits="userSpaceOnUse" x1="58.98" x2="58.98" xlink:href="#lg6" y1="324.036" y2="258.725"/><linearGradient id="SVGID_20_" gradientUnits="userSpaceOnUse" x1="258.548" x2="309.431" xlink:href="#lg4" y1="289.362" y2="289.362"/><linearGradient id="SVGID_21_" gradientUnits="userSpaceOnUse" x1="160.047" x2="160.047" xlink:href="#lg4" y1="487.321" y2="441.582"/><linearGradient id="SVGID_22_" gradientUnits="userSpaceOnUse" x1="263.891" x2="311.774" xlink:href="#lg4" y1="484.09" y2="484.09"/><g><path d="m170.967 404.065c27.08-12.628 38.796-44.817 26.168-71.896-12.627-27.08-44.817-38.796-71.896-26.168-23.337 10.883-36.904 37.586-63.864 38.955-9.383.477-15.012 10.725-9.948 18.639 29.892 46.716 84.683 56.724 119.54 40.47z" fill="url(#SVGID_1_)"/><g fill="#a7f2d2"><path d="m129.73 401.55c-.345 0-.693-.018-1.045-.055-4.156-.432-8.394-1.2-12.599-2.283-5.348-1.379-8.565-6.832-7.187-12.181 1.379-5.347 6.827-8.564 12.181-7.187 3.244.837 6.498 1.428 9.671 1.758 5.493.57 9.483 5.485 8.913 10.979-.533 5.143-4.874 8.969-9.934 8.969z"/><path d="m86.689 383.839c-2.201 0-4.416-.723-6.264-2.209-5.292-4.259-10.17-9.138-14.498-14.503-3.469-4.298-2.796-10.594 1.503-14.062 4.295-3.468 10.593-2.797 14.062 1.503 3.433 4.254 7.293 8.116 11.473 11.479 4.303 3.463 4.983 9.758 1.521 14.061-1.975 2.455-4.874 3.731-7.797 3.731z"/></g><path d="m273.107 470.028c16.132 11.218 37.984 10.459 50.738-2.435-.729-34.113-5.915-75.666-24.776-97.333-9.205-10.576-25.242-11.688-35.816-2.48-10.575 9.206-11.686 25.241-2.48 35.816 4.723 5.426 11.626 27.434 12.334 66.432z" fill="url(#SVGID_2_)"/><path d="m158.968 476.681c-13.744-2.769-22.643-16.155-19.874-29.899 2.769-13.743 16.149-22.643 29.899-19.874 5.296 1.066 15.009 1.951 20.568-4.106 6.183-6.738 6.9-20.932 1.916-37.966-3.937-13.457 3.78-27.557 17.236-31.494 13.465-3.938 27.557 3.78 31.494 17.236 21.115 72.17-24.287 117.576-81.239 106.103z" fill="url(#SVGID_3_)"/><path d="m240.207 370.578c-3.937-13.456-18.029-21.174-31.494-17.236-13.456 3.937-21.173 18.037-17.236 31.494 4.984 17.034 4.267 31.227-1.916 37.966-2.86 3.116-6.818 4.388-10.709 4.75-8.399 10.946-14.976 36.494-.939 50.872 47.493-.98 81.002-43.905 62.294-107.846z" fill="url(#SVGID_4_)"/><path d="m398.9 340.745c-10.049-2.681-15.315-9.913-23.739-22.572-7.85-11.794-16.746-25.161-32.973-32.585-12.75-5.832-27.814-.224-33.647 12.525-5.832 12.75-.225 27.814 12.525 33.647 10.646 4.87 22.001 47.8 66.896 58.54 12.411-7.422 18.421-27.276 10.938-49.555z" fill="url(#SVGID_5_)"/><path d="m434.95 367.343c0-14.02-11.365-25.387-25.386-25.387-4.143 0-7.62-.4-10.664-1.211-10.826 10.612-16.249 35.76-10.937 49.555 6.471 1.548 13.638 2.429 21.601 2.429 14.021 0 25.386-11.366 25.386-25.386z" fill="url(#SVGID_6_)"/><path d="m236.621 140.178c.124-39.559-32.208-73.029-71.767-73.039-39.654-.01-71.804 32.134-71.804 71.786 0 12.408-.121 37.03-19.716 48.468-18.237 10.646-18.36 37.145-.25 48.004 39.345 23.592 96.728 32.067 143.035 1.032.001 0 20.273-23.191 20.502-96.251z" fill="url(#SVGID_7_)"/><circle cx="241.521" cy="83.833" fill="url(#SVGID_8_)" r="71.787"/><path d="m354.028 49.41c-21.02-7.651-56.147 23.909-65.393 61.245-5.377 21.713 5.703 37.351 26.722 45.001 21.02 7.651 39.559 2.793 49.397-17.296 16.916-34.544 10.293-81.3-10.726-88.95z" fill="url(#SVGID_9_)"/><path d="m311.502 251.791c65.352 63.46 56.806 127.824 38.708 146.901-18.097 19.077-47.755 27.711-92.115 27.711s-74.018-8.635-92.115-27.711c-18.097-19.077-26.643-83.441 38.708-146.901z" fill="url(#SVGID_10_)"/><path d="m451.716 216.561c-2.853 54.523-44.127 84.106-153.058 84.106-108.932 0-148.829-42.749-148.829-104.687 0-61.937 42.037-112.147 124.233-112.147 82.195 0 181.303 62.985 177.654 132.728z" fill="url(#SVGID_11_)"/><g><ellipse cx="229.457" cy="207.124" fill="#eaadcd" rx="14.936" ry="12.003"/><ellipse cx="405.228" cy="207.124" fill="#eaadcd" rx="14.936" ry="12.003"/><path d="m255.064 181.472c7.183 0 13.813 1.589 19.159 4.273 4.544 2.281 9.962-.801 10.365-5.87.113-1.423.125-2.875.029-4.348-.991-15.146-13.602-27.24-28.775-27.629-16.713-.428-30.396 12.992-30.396 29.608 0 .843.036 1.678.105 2.503.422 5.01 5.857 7.995 10.349 5.738 5.347-2.685 11.979-4.275 19.164-4.275z" fill="#fff"/><path d="m354.697 258.169c-6.447 0-12.894-2.155-18.273-6.465-4.989-3.997-5.794-11.282-1.797-16.271 3.997-4.99 11.282-5.793 16.271-1.797 2.237 1.792 5.361 1.792 7.598 0 4.988-3.997 12.273-3.193 16.271 1.797 3.997 4.989 3.193 12.274-1.797 16.271-5.379 4.31-11.826 6.465-18.273 6.465z" fill="#3b3b44"/><path d="m255.064 181.472c5.926 0 11.473 1.082 16.237 2.967.911-2.129 1.415-4.47 1.415-6.933 0-9.749-7.903-17.652-17.652-17.652s-17.652 7.903-17.652 17.652c0 2.463.504 4.803 1.415 6.933 4.763-1.885 10.311-2.967 16.237-2.967z" fill="#3b3b44"/><path d="m379.621 181.472c7.183 0 13.813 1.589 19.158 4.273 4.544 2.281 9.962-.801 10.365-5.87.113-1.423.126-2.875.029-4.348-.991-15.146-13.602-27.24-28.775-27.629-16.713-.428-30.396 12.992-30.396 29.608 0 .843.035 1.678.105 2.503.422 5.01 5.857 7.995 10.349 5.738 5.349-2.685 11.98-4.275 19.165-4.275z" fill="#fff"/><path d="m379.621 181.472c5.926 0 11.473 1.082 16.237 2.967.911-2.129 1.415-4.47 1.415-6.933 0-9.749-7.903-17.652-17.652-17.652s-17.652 7.903-17.652 17.652c0 2.463.504 4.803 1.415 6.933 4.764-1.885 10.312-2.967 16.237-2.967z" fill="#3b3b44"/></g><g><path d="m258.187 97.446c-1.436 14.234 14.943 28.661 37.436 32.627 23.161 4.084 44.029-4.47 46.61-19.106 1.57-8.902 2.092-20.817 1.608-33.537-30.533-5.804-54.523-1.446-85.654 20.016z" fill="url(#SVGID_12_)"/><path d="m290.671 99.774c-1.873-.924-3.315-1.882-4.308-2.7.241-1.017.521-2.085.819-3.175-9.57-.849-17.229-.65-28.993 3.546-1.044 10.344 7.316 20.788 20.597 27.247 8.209 3.992 17.963-1.008 19.548-9.998l.016-.09c1.077-6.109-2.116-12.084-7.679-14.83z" fill="#fcb500"/><path d="m338.02 32.879c-22.203-1.522-43.902 1.608-64.693 19.759-7.295 15.661-12.892 31.763-14.969 43.539-.075.423-.129.846-.172 1.269 25.854-1.854 55.65-7.359 85.653-20.017-.567-14.929-2.527-30.963-5.819-44.55z" fill="url(#SVGID_13_)"/><path d="m286.619 55.5c-7.015-2.785-14.978.577-17.861 7.552-5.028 12.164-8.783 23.955-10.4 33.124-.075.423-.127.846-.17 1.268 9.218-.661 18.943-1.798 28.993-3.546 1.641-6.006 4.103-13.03 7.09-20.264 2.944-7.128-.484-15.288-7.652-18.134z" fill="#e05d6f"/><path d="m338.02 32.879c-4.283-17.674-10.819-31.202-19.488-32.731-13.5-2.38-32.094 24.342-45.205 52.49 20.486-2.989 42.781-8.922 64.693-19.759z" fill="url(#SVGID_14_)"/></g><path d="m164.599 50.425c21.02-7.651 56.147 23.909 65.393 61.245 5.377 21.713-5.703 37.351-26.722 45.001-21.02 7.651-39.559 2.793-49.397-17.296-16.916-34.543-10.293-81.299 10.726-88.95z" fill="url(#SVGID_15_)"/><path d="m274.596 282.479c-10.862 8.233-29.822 14.413-51.181 13.089-14.001-.895-26.038 9.78-26.902 23.774-.865 13.993 9.78 26.038 23.774 26.902 32.277 2.003 68.97-7.337 92.239-29.36-2.432-12.71-13-31.79-37.93-34.405z" fill="url(#SVGID_16_)"/><path d="m112.972 47.442c0-14.683-11.903-26.587-26.586-26.587-6.184 0-11.875 2.112-16.391 5.653-1.706 1.338-4.083 1.338-5.789 0-4.516-3.542-10.207-5.653-16.391-5.653-14.683 0-26.586 11.903-26.586 26.587 0 17.355 18.188 33.952 32.298 44.249 8.086 5.901 19.063 5.901 27.149 0 14.108-10.297 32.296-26.894 32.296-44.249z" fill="url(#SVGID_17_)"/><path d="m480.772 84.062c0-10.428-8.454-18.882-18.882-18.882-4.392 0-8.434 1.5-11.641 4.015-1.212.95-2.9.95-4.112 0-3.207-2.515-7.249-4.015-11.641-4.015-10.428 0-18.882 8.454-18.882 18.882 0 12.326 12.917 24.113 22.938 31.426 5.743 4.191 13.539 4.191 19.282 0 10.021-7.313 22.938-19.1 22.938-31.426z" fill="url(#SVGID_18_)"/><path d="m95.691 277.017c0-11.751-9.526-21.277-21.277-21.277-4.949 0-9.503 1.69-13.118 4.524-1.366 1.071-3.268 1.071-4.633 0-3.614-2.834-8.168-4.524-13.118-4.524-11.751 0-21.277 9.526-21.277 21.277 0 13.889 14.556 27.171 25.847 35.412 6.471 4.723 15.256 4.723 21.727 0 11.294-8.241 25.849-21.523 25.849-35.412z" fill="url(#SVGID_19_)"/><path d="m316.956 265.337c-12.09-7.097-27.646-3.05-34.746 9.04-1.638 2.791-4.24 5.544-7.614 8.101 6.043 11.829 22.415 30.046 37.93 34.405 5.235-4.955 9.797-10.546 13.469-16.801 7.099-12.09 3.051-27.647-9.039-34.745z" fill="url(#SVGID_20_)"/><path d="m178.853 427.551c-3.674.342-7.288-.126-9.859-.644-13.75-2.77-27.131 6.13-29.9 19.874-2.768 13.744 6.13 27.131 19.874 29.9 6.493 1.308 12.834 1.869 18.946 1.743 6.015-12.539 3.134-39.389.939-50.873z" fill="url(#SVGID_21_)"/><path d="m273.107 470.028c.039 2.148.064 4.335.064 6.586 0 14.021 11.366 25.387 25.387 25.387s25.387-11.366 25.387-25.387c0-2.931-.033-5.948-.099-9.02-12.895-2.87-37.325-1.025-50.739 2.434z" fill="url(#SVGID_22_)"/></g></svg>