<svg id="Capa_1" enable-background="new 0 0 502 502" height="512" viewBox="0 0 502 502" width="512" xmlns="http://www.w3.org/2000/svg" xmlns:xlink="http://www.w3.org/1999/xlink"><linearGradient id="lg1"><stop offset="0" stop-color="#cdd4d4"/><stop offset="1" stop-color="#f3f3f3"/></linearGradient><linearGradient id="SVGID_1_" gradientUnits="userSpaceOnUse" x1="149.508" x2="149.508" xlink:href="#lg1" y1="179.454" y2="113.434"/><linearGradient id="lg2"><stop offset="0" stop-color="#d5738e"/><stop offset="1" stop-color="#e6a3c1"/></linearGradient><linearGradient id="SVGID_2_" gradientUnits="userSpaceOnUse" x1="162.435" x2="103.256" xlink:href="#lg2" y1="169.165" y2="169.165"/><linearGradient id="SVGID_3_" gradientTransform="matrix(-1 0 0 1 902.981 0)" gradientUnits="userSpaceOnUse" x1="536.484" x2="536.484" xlink:href="#lg1" y1="179.454" y2="113.434"/><linearGradient id="SVGID_4_" gradientTransform="matrix(-1 0 0 1 902 0)" gradientUnits="userSpaceOnUse" x1="548.431" x2="489.252" xlink:href="#lg2" y1="169.165" y2="169.165"/><linearGradient id="lg3"><stop offset="0" stop-color="#b39bdb"/><stop offset="1" stop-color="#d0c3e8"/></linearGradient><linearGradient id="SVGID_5_" gradientUnits="userSpaceOnUse" x1="260.808" x2="260.808" xlink:href="#lg3" y1="141.354" y2="31.378"/><linearGradient id="SVGID_6_" gradientUnits="userSpaceOnUse" x1="258.002" x2="258.002" xlink:href="#lg3" y1="200.284" y2="111.058"/><linearGradient id="lg4"><stop offset="0" stop-color="#74d2e8"/><stop offset="1" stop-color="#baeaf5"/></linearGradient><linearGradient id="SVGID_7_" gradientUnits="userSpaceOnUse" x1="258.002" x2="258.002" xlink:href="#lg4" y1="403.087" y2="459.134"/><linearGradient id="SVGID_8_" gradientUnits="userSpaceOnUse" x1="258.002" x2="258.002" xlink:href="#lg4" y1="555.654" y2="310.407"/><linearGradient id="SVGID_9_" gradientUnits="userSpaceOnUse" x1="258.002" x2="258.002" xlink:href="#lg4" y1="267.511" y2="186.319"/><linearGradient id="SVGID_10_" gradientUnits="userSpaceOnUse" x1="81.285" x2="351.81" xlink:href="#lg4" y1="477.84" y2="477.84"/><linearGradient id="SVGID_11_" gradientTransform="matrix(1 .003 -.003 1 -10.673 -5.367)" gradientUnits="userSpaceOnUse" x1="269.12" x2="269.12" y1="164.688" y2="90.093"><stop offset="0" stop-color="#f4d952"/><stop offset="1" stop-color="#f9edaf"/></linearGradient><linearGradient id="SVGID_12_" gradientTransform="matrix(1 .003 -.003 1 -10.673 -5.367)" gradientUnits="userSpaceOnUse" x1="214.699" x2="323.934" y1="82.551" y2="82.551"><stop offset="0" stop-color="#ec6f80"/><stop offset="1" stop-color="#eca0aa"/></linearGradient><linearGradient id="SVGID_13_" gradientTransform="matrix(1 .003 -.003 1 -10.673 -5.367)" gradientUnits="userSpaceOnUse" x1="232.37" x2="290.846" y1="38.874" y2="38.874"><stop offset="0" stop-color="#7ed99e"/><stop offset=".2532" stop-color="#81daa3"/><stop offset=".5725" stop-color="#88ddb3"/><stop offset=".9261" stop-color="#95e2cd"/><stop offset="1" stop-color="#98e3d3"/></linearGradient><g><g><path d="m182.064 189.097c13.896-13.074 17.486-29.355 6.449-45.657-20.042-29.601-60.807-45.862-76.688-32.445-5.997 5.067-8.41 14.342-7.704 25.251 23.675 29.926 59.061 50.481 77.943 52.851z" fill="url(#SVGID_1_)"/><path d="m179.64 191.266c.842-.712 1.646-1.436 2.424-2.169-17.706-35.177-53.403-49.057-77.943-52.851 1.163 17.98 10.802 40.403 26.883 55.779 15.025 14.367 32.755 12.657 48.636-.759z" fill="url(#SVGID_2_)"/></g><g><path d="m333.94 189.097c-13.896-13.074-17.486-29.355-6.448-45.657 20.042-29.601 60.807-45.862 76.688-32.445 5.997 5.067 8.409 14.342 7.704 25.251-23.676 29.926-59.062 50.481-77.944 52.851z" fill="url(#SVGID_3_)"/><path d="m336.364 191.266c-.842-.712-1.646-1.436-2.424-2.169 17.706-35.177 53.403-49.057 77.943-52.851-1.163 17.98-10.802 40.403-26.883 55.779-15.025 14.367-32.755 12.657-48.636-.759z" fill="url(#SVGID_4_)"/></g><path d="m332.397 30.078c36.342 38.97 10.568 86.295-11.812 99.78-14.604 6.909-34.915 14.839-62.583 14.839s-47.979-7.93-62.583-14.839c-21.236-10.045-30.307-35.403-20.262-56.639s35.403-30.311 56.639-20.261c8.928 4.223 16.078 6.668 26.206 6.668 22.671 0 38.023-3.794 42.025-20.569 3.546-14.869 21.946-20.158 32.37-8.979z" fill="url(#SVGID_5_)"/><path d="m185.706 183.491-33.801-92.869c-2.728-7.494-9.919-12.53-17.895-12.53h-26.512c-9.665 0-17.5-7.835-17.5-17.5s7.835-17.5 17.5-17.5h26.512c22.634 0 43.043 14.29 50.785 35.56l33.802 92.869c3.305 9.082-1.377 19.124-10.46 22.43-9.082 3.308-19.126-1.38-22.431-10.46z" fill="#fcc435"/><path d="m258.002 220.294c-42.802 0-73.64-11.857-98.16-23.455-21.236-10.045-30.308-35.403-20.264-56.639 10.045-21.237 35.401-30.309 56.639-20.264 15.635 7.396 34.594 15.286 61.785 15.286s46.15-7.89 61.785-15.286c21.237-10.041 46.594-.971 56.639 20.264 10.045 21.236.973 46.594-20.263 56.639-24.521 11.598-55.359 23.455-98.161 23.455z" fill="url(#SVGID_6_)"/><path d="m313.853 477.84v-24.16c-15.002 0-20.987-22.379-20.987-56.795h-69.728c0 34.417-5.985 56.795-20.987 56.795v24.16z" fill="url(#SVGID_7_)"/><path d="m258.002 416.722c96.255 0 122.43-129.138 129.357-206.366 1.573-17.537-14.732-31.32-31.781-26.924-31.008 7.996-68.454 14.073-97.575 14.073s-66.567-6.077-97.575-14.073c-17.049-4.396-33.354 9.387-31.781 26.924 6.925 77.228 33.1 206.366 129.355 206.366z" fill="url(#SVGID_8_)"/><path d="m384.685 234.643c1.108-8.451 1.979-16.573 2.664-24.191 1.58-17.578-14.684-31.426-31.774-27.019-31.008 7.996-68.453 14.073-97.574 14.073s-66.566-6.077-97.574-14.073c-17.09-4.407-33.353 9.441-31.773 27.019.685 7.618 1.556 15.739 2.664 24.191 33.374 11.861 87.54 22.841 126.683 22.841 39.144.001 93.311-10.98 126.684-22.841z" fill="url(#SVGID_9_)"/><path d="m323.384 502h-130.764c-13.343 0-24.16-10.817-24.16-24.16 0-13.343 10.817-24.16 24.16-24.16h130.764c13.343 0 24.16 10.817 24.16 24.16.001 13.343-10.816 24.16-24.16 24.16z" fill="url(#SVGID_10_)"/><g><path d="m208.856 122.649c1.166 16.488 22.654 29.688 49.042 29.777 27.172.091 49.247-13.755 49.304-30.926.035-10.444-1.715-24.111-4.77-38.498-35.903-.597-62.357 9.086-93.576 39.647z" fill="url(#SVGID_11_)"/><path d="m287.037 33.428c-25.578 2.638-49.666 10.472-69.763 35.228-5.222 19.266-8.426 38.699-8.472 52.514-.002.496.02.988.054 1.478 29.069-7.2 61.908-19.332 93.576-39.647-3.586-16.883-8.973-34.752-15.395-49.573z" fill="url(#SVGID_12_)"/><path d="m287.037 33.428c-8.354-19.279-18.459-33.394-28.629-33.428-15.838-.053-31.748 34.03-41.134 68.656 22.734-7.435 46.95-18.577 69.763-35.228z" fill="url(#SVGID_13_)"/></g><g><ellipse cx="170.116" cy="288.578" fill="#eaadcd" rx="14.936" ry="12.003"/><ellipse cx="345.888" cy="288.578" fill="#eaadcd" rx="14.936" ry="12.003"/><ellipse cx="195.723" cy="258.96" fill="#fff" rx="29.618" ry="29.618" transform="matrix(.383 -.924 .924 .383 -118.425 340.685)"/><ellipse cx="320.281" cy="258.96" fill="#fff" rx="29.618" ry="29.618" transform="matrix(.371 -.929 .929 .371 -39.107 460.158)"/><g fill="#3b3b44"><g><ellipse cx="195.723" cy="258.96" rx="17.652" ry="17.652" transform="matrix(.189 -.982 .982 .189 -95.577 402.18)"/><ellipse cx="320.281" cy="258.96" rx="17.652" ry="17.652" transform="matrix(.29 -.957 .957 .29 -20.38 490.456)"/></g><path d="m258.002 289.519c-5.248 0-10.495-1.984-14.776-5.954-2.025-1.877-2.145-5.041-.267-7.065s5.041-2.145 7.066-.267c4.697 4.353 11.257 4.353 15.954 0 2.023-1.879 5.188-1.759 7.066.267 1.878 2.024 1.758 5.189-.267 7.065-4.281 3.97-9.529 5.954-14.776 5.954z"/></g></g><path d="m231.557 180.018c1.031-8.644-5.031-16.523-13.65-17.738-16.07-2.264-33.199-5.633-49.49-9.834-4.731-1.22-9.586-1.839-14.432-1.839-6.244 0-12.392 1.045-18.221 3.008-1.251 11.075 1.934 22.178 8.688 30.88 4.839-1.977 10.364-2.509 15.975-1.062 16.593 4.279 35.027 8.004 53.043 10.545 8.87 1.25 17.026-5.065 18.087-13.96z" fill="#997bce"/><g fill="#dff7fa"><path d="m287.046 389.978c-3.626 0-7.124-1.977-8.898-5.424-2.529-4.909-.598-10.939 4.311-13.469 1.419-.73 2.84-1.55 4.222-2.435 4.652-2.977 10.835-1.619 13.813 3.032 2.977 4.651 1.62 10.836-3.032 13.814-1.906 1.22-3.874 2.353-5.846 3.37-1.465.755-3.029 1.112-4.57 1.112z"/><path d="m319.444 357.715c-1.805 0-3.63-.487-5.275-1.512-4.688-2.918-6.124-9.085-3.205-13.773 3.319-5.332 6.503-11.344 9.464-17.867 2.282-5.029 8.212-7.256 13.239-4.974 5.029 2.283 7.256 8.21 4.973 13.239-3.32 7.314-6.918 14.101-10.696 20.17-1.896 3.044-5.16 4.717-8.5 4.717z"/></g></g></svg>