<svg id="Capa_1" enable-background="new 0 0 502 502" height="512" viewBox="0 0 502 502" width="512" xmlns="http://www.w3.org/2000/svg" xmlns:xlink="http://www.w3.org/1999/xlink"><linearGradient id="lg1"><stop offset="0" stop-color="#cdd4d4"/><stop offset="1" stop-color="#f3f3f3"/></linearGradient><linearGradient id="SVGID_1_" gradientUnits="userSpaceOnUse" x1="338.304" x2="392.404" xlink:href="#lg1" y1="360.72" y2="360.72"/><linearGradient id="lg2"><stop offset="0" stop-color="#e08243"/><stop offset="1" stop-color="#f0bb78"/></linearGradient><linearGradient id="SVGID_2_" gradientUnits="userSpaceOnUse" x1="393.415" x2="393.415" xlink:href="#lg2" y1="417.653" y2="366.323"/><linearGradient id="lg3"><stop offset="0" stop-color="#7ed99e"/><stop offset=".2532" stop-color="#81daa3"/><stop offset=".5725" stop-color="#88ddb3"/><stop offset=".9261" stop-color="#95e2cd"/><stop offset="1" stop-color="#98e3d3"/></linearGradient><linearGradient id="SVGID_3_" gradientUnits="userSpaceOnUse" x1="136.677" x2="31.18" xlink:href="#lg3" y1="394.375" y2="394.375"/><linearGradient id="lg4"><stop offset="0" stop-color="#b39bdb"/><stop offset="1" stop-color="#d0c3e8"/></linearGradient><linearGradient id="SVGID_4_" gradientUnits="userSpaceOnUse" x1="132.945" x2="10.814" xlink:href="#lg4" y1="174.499" y2="174.499"/><linearGradient id="SVGID_5_" gradientUnits="userSpaceOnUse" x1="222.112" x2="222.112" xlink:href="#lg4" y1="98.928" y2="14.66"/><linearGradient id="SVGID_6_" gradientUnits="userSpaceOnUse" x1="316.74" x2="316.74" xlink:href="#lg1" y1="135.249" y2="50.942"/><linearGradient id="SVGID_7_" gradientUnits="userSpaceOnUse" x1="231.059" x2="231.059" xlink:href="#lg1" y1="269.815" y2="499.008"/><linearGradient id="lg5"><stop offset="0" stop-color="#d9e0e0"/><stop offset="1" stop-color="#f3f3f3"/></linearGradient><linearGradient id="SVGID_8_" gradientUnits="userSpaceOnUse" x1="51.318" x2="375.574" xlink:href="#lg5" y1="206.72" y2="206.72"/><linearGradient id="SVGID_9_" gradientUnits="userSpaceOnUse" x1="237.4" x2="341.443" y1="112.235" y2="112.235"><stop offset="0" stop-color="#f4d952"/><stop offset="1" stop-color="#f9edaf"/></linearGradient><linearGradient id="SVGID_10_" gradientUnits="userSpaceOnUse" x1="237.396" x2="320.494" y1="71.866" y2="71.866"><stop offset="0" stop-color="#ec6f80"/><stop offset="1" stop-color="#eca0aa"/></linearGradient><linearGradient id="SVGID_11_" gradientUnits="userSpaceOnUse" x1="253.691" x2="317.789" xlink:href="#lg3" y1="30.883" y2="30.883"/><linearGradient id="SVGID_12_" gradientUnits="userSpaceOnUse" x1="165.194" x2="165.194" xlink:href="#lg1" y1="188.555" y2="88.76"/><linearGradient id="SVGID_13_" gradientUnits="userSpaceOnUse" x1="235.398" x2="235.398" xlink:href="#lg5" y1="382.49" y2="348.863"/><linearGradient id="lg6"><stop offset="0" stop-color="#74d2e8"/><stop offset="1" stop-color="#baeaf5"/></linearGradient><linearGradient id="SVGID_14_" gradientUnits="userSpaceOnUse" x1="45.142" x2="45.142" xlink:href="#lg6" y1="193.178" y2="53.121"/><linearGradient id="lg7"><stop offset="0" stop-color="#53aae6"/><stop offset="1" stop-color="#a4d2f0"/></linearGradient><linearGradient id="SVGID_15_" gradientUnits="userSpaceOnUse" x1="45.112" x2="45.112" xlink:href="#lg7" y1="67.544" y2="151.552"/><linearGradient id="SVGID_16_" gradientUnits="userSpaceOnUse" x1="456.858" x2="456.858" xlink:href="#lg6" y1="193.178" y2="53.121"/><linearGradient id="SVGID_17_" gradientUnits="userSpaceOnUse" x1="456.829" x2="456.829" xlink:href="#lg7" y1="67.544" y2="151.552"/><linearGradient id="SVGID_18_" gradientUnits="userSpaceOnUse" x1="281.674" x2="281.674" xlink:href="#lg2" y1="417.653" y2="366.323"/><g><path d="m404.521 352.354c-23.826-21.144-55.736-21.024-87.862-21.024-14.838 0-26.878 12.017-26.901 26.86-.023 14.857 12.002 26.921 26.86 26.944 27.156.057 40.397-.388 49.013 4.977 17.891-1.346 38.89-15.854 38.89-37.757z" fill="url(#SVGID_1_)"/><path d="m416.228 365.478c-3.626-5.105-7.546-9.431-11.707-13.123-17.189 3.346-34.97 22.906-38.89 37.756 2.572 1.602 4.737 3.716 6.731 6.523 8.587 12.089 25.372 14.975 37.51 6.356 12.114-8.605 14.959-25.399 6.356-37.512z" fill="url(#SVGID_2_)"/><path d="m147.346 445.18c28.696-13.381 41.112-47.492 27.73-76.189-13.381-28.696-47.492-41.112-76.189-27.73-24.73 11.532-39.107 39.829-67.676 41.281-9.944.505-15.909 11.366-10.542 19.752 31.678 49.504 89.739 60.11 126.677 42.886z" fill="url(#SVGID_3_)"/><g fill="#a7f2d2"><path d="m103.647 441.917c-.345 0-.693-.018-1.044-.055-4.378-.454-8.841-1.263-13.265-2.404-5.348-1.379-8.564-6.833-7.185-12.181 1.38-5.348 6.83-8.569 12.181-7.185 3.464.893 6.94 1.524 10.332 1.877 5.493.569 9.485 5.484 8.915 10.978-.533 5.143-4.875 8.97-9.934 8.97z"/><path d="m58.038 423.148c-2.2 0-4.415-.723-6.263-2.209-5.577-4.487-10.716-9.628-15.275-15.278-3.468-4.298-2.795-10.594 1.503-14.061 4.299-3.468 10.594-2.795 14.062 1.503 3.663 4.54 7.783 8.663 12.248 12.255 4.303 3.463 4.984 9.757 1.522 14.061-1.976 2.453-4.874 3.729-7.797 3.729z"/></g><path d="m216.92 151.538c.132-41.921-34.13-77.389-76.052-77.399-42.022-.01-76.09 34.053-76.09 76.072 0 13.149-.129 39.241-20.893 51.361-19.325 11.281-19.456 39.362-.265 50.87 41.694 25 102.503 33.981 151.574 1.093 0 .001 21.483-24.575 21.726-101.997z" fill="url(#SVGID_4_)"/><circle cx="222.112" cy="91.83" fill="url(#SVGID_5_)" r="76.072"/><path d="m341.335 55.352c-22.274-8.107-59.499 25.337-69.297 64.901-5.698 23.009 6.043 39.581 28.318 47.688 22.274 8.107 41.92 2.96 52.346-18.329 17.926-36.606 10.908-86.153-11.367-94.26z" fill="url(#SVGID_6_)"/><path d="m128.27 385.382c0 32.722-5.202 58.709-15.434 79.446-6.782 13.745 6.817 28.543 21.082 22.937 6.659-2.617 13.215-4.658 21.529-4.658 23.169 0 18.902 15.9 50.945 15.9s39.165-15.9 62.213-15.9c13.623 0 22.56 1.795 29.254 5.475 8.901 4.893 20.131 2.672 26.311-5.388 17.743-23.139 26.814-54.604 26.814-97.812h-.001c1.345-30.853-11.285-73.398-54.712-115.568h-113.19c-43.427 42.17-56.058 84.714-54.712 115.568z" fill="url(#SVGID_7_)"/><path d="m444.855 232.481c-3.023 57.778-46.761 89.127-162.196 89.127s-157.714-45.301-157.714-110.936 44.548-118.842 131.65-118.842c87.103 0 192.128 66.745 188.26 140.651z" fill="url(#SVGID_8_)"/><g><ellipse cx="214.866" cy="221.056" fill="#eaadcd" rx="14.936" ry="12.003"/><ellipse cx="390.637" cy="221.056" fill="#eaadcd" rx="14.936" ry="12.003"/><circle cx="240.472" cy="191.438" fill="#fff" r="29.618"/><ellipse cx="252.438" cy="191.438" fill="#3b3b44" rx="17.652" ry="17.652" transform="matrix(.228 -.974 .974 .228 8.481 393.572)"/><circle cx="365.03" cy="191.438" fill="#fff" r="29.618"/><g fill="#3b3b44"><ellipse cx="376.933" cy="191.438" rx="17.652" ry="17.652" transform="matrix(.707 -.707 .707 .707 -24.966 322.603)"/><ellipse cx="343.59" cy="264.196" rx="13.252" ry="17.352"/></g></g><g><path d="m239.773 106.255c-1.522 15.084 15.835 30.372 39.671 34.575 24.544 4.328 46.658-4.737 49.392-20.247 1.663-9.434 2.217-22.06 1.704-35.539-32.356-6.15-57.777-1.532-90.767 21.211z" fill="url(#SVGID_9_)"/><path d="m274.196 108.722c-1.985-.979-3.513-1.994-4.566-2.861.256-1.078.553-2.21.868-3.364-10.141-.899-18.257-.689-30.724 3.758-1.106 10.961 7.753 22.029 21.827 28.874 8.7 4.231 19.036-1.068 20.715-10.595l.017-.095c1.142-6.474-2.241-12.807-8.137-15.717z" fill="#fcb500"/><path d="m324.372 37.834c-23.529-1.612-46.523 1.704-68.555 20.939-7.73 16.596-13.662 33.659-15.862 46.138-.079.448-.137.896-.182 1.345 27.397-1.965 58.972-7.799 90.767-21.212-.603-15.82-2.679-32.812-6.168-47.21z" fill="url(#SVGID_10_)"/><path d="m269.902 61.806c-7.434-2.952-15.872.611-18.927 8.003-5.328 12.89-9.307 25.385-11.021 35.102-.079.448-.135.896-.18 1.344 9.768-.7 20.074-1.906 30.724-3.758 1.739-6.364 4.348-13.808 7.513-21.474 3.12-7.554-.513-16.201-8.109-19.217z" fill="#e05d6f"/><path d="m324.372 37.834c-4.539-18.729-11.465-33.065-20.652-34.685-14.306-2.523-34.01 25.796-47.903 55.624 21.709-3.168 45.335-9.455 68.555-20.939z" fill="url(#SVGID_11_)"/></g><path d="m140.598 56.428c22.275-8.107 59.499 25.337 69.297 64.901 5.698 23.009-6.043 39.58-28.317 47.688-22.275 8.107-41.92 2.96-52.346-18.329-17.927-36.606-10.908-86.153 11.366-94.26z" fill="url(#SVGID_12_)"/><path d="m292.779 352.354c-23.826-21.144-55.736-21.024-87.862-21.024-14.837 0-26.878 12.017-26.901 26.86-.023 14.857 12.002 26.921 26.86 26.944 27.156.057 40.397-.388 49.013 4.977 17.891-1.346 38.89-15.854 38.89-37.757z" fill="url(#SVGID_13_)"/><path d="m90.283 112.938c0 25.153-20.559 45.505-45.79 45.167-27.031-.362-47.21-24.716-44.194-51.581 2.377-21.17 15.94-35.959 21.313-55.625 3.38-12.369 18.079-17.425 28.227-9.587 25.399 19.616 40.444 52.58 40.444 71.626z" fill="url(#SVGID_14_)"/><circle cx="45.112" cy="112.938" fill="url(#SVGID_15_)" r="25.121"/><path d="m502 112.938c0 25.153-20.559 45.505-45.79 45.167-27.031-.362-47.21-24.716-44.194-51.581 2.377-21.17 15.94-35.959 21.313-55.625 3.38-12.369 18.078-17.425 28.227-9.587 25.398 19.616 40.444 52.58 40.444 71.626z" fill="url(#SVGID_16_)"/><circle cx="456.828" cy="112.938" fill="url(#SVGID_17_)" r="25.121"/><path d="m304.487 365.478c-3.626-5.105-7.546-9.431-11.707-13.123-17.189 3.346-34.971 22.906-38.89 37.756 2.572 1.602 4.738 3.716 6.731 6.523 8.587 12.089 25.372 14.975 37.51 6.356 12.113-8.605 14.959-25.399 6.356-37.512z" fill="url(#SVGID_18_)"/></g></svg>