<svg id="Capa_1" enable-background="new 0 0 502 502" height="512" viewBox="0 0 502 502" width="512" xmlns="http://www.w3.org/2000/svg" xmlns:xlink="http://www.w3.org/1999/xlink"><linearGradient id="lg1"><stop offset="0" stop-color="#cdd4d4"/><stop offset="1" stop-color="#f3f3f3"/></linearGradient><linearGradient id="SVGID_1_" gradientUnits="userSpaceOnUse" x1="165.5" x2="165.5" xlink:href="#lg1" y1="124.261" y2="64.364"/><linearGradient id="lg2"><stop offset="0" stop-color="#d5738e"/><stop offset="1" stop-color="#e6a3c1"/></linearGradient><linearGradient id="SVGID_2_" gradientTransform="matrix(1 -.003 .003 1 1073.569 2.743)" gradientUnits="userSpaceOnUse" x1="-888.158" x2="-943.383" xlink:href="#lg2" y1="109.124" y2="109.124"/><linearGradient id="SVGID_3_" gradientTransform="matrix(-1 0 0 1 -1825.019 0)" gradientUnits="userSpaceOnUse" x1="-2161.519" x2="-2161.519" xlink:href="#lg1" y1="124.261" y2="64.364"/><linearGradient id="SVGID_4_" gradientTransform="matrix(-1 -.003 -.003 1 -771.569 2.743)" gradientUnits="userSpaceOnUse" x1="-1088.156" x2="-1143.381" xlink:href="#lg2" y1="108.464" y2="108.464"/><linearGradient id="SVGID_5_" gradientUnits="userSpaceOnUse" x1="252.885" x2="252.885" y1="297.08" y2="351.444"><stop offset="0" stop-color="#b39bdb"/><stop offset="1" stop-color="#d0c3e8"/></linearGradient><linearGradient id="SVGID_6_" gradientUnits="userSpaceOnUse" x1="251" x2="251" y1="323.585" y2="85.658"><stop offset="0" stop-color="#d9e0e0"/><stop offset="1" stop-color="#f3f3f3"/></linearGradient><linearGradient id="SVGID_7_" gradientTransform="matrix(1 .003 -.003 1 -10.673 .89)" gradientUnits="userSpaceOnUse" x1="262.054" x2="262.054" y1="142.222" y2="75.185"><stop offset="0" stop-color="#f4d952"/><stop offset="1" stop-color="#f9edaf"/></linearGradient><linearGradient id="SVGID_8_" gradientTransform="matrix(1 .003 -.003 1 -10.673 .89)" gradientUnits="userSpaceOnUse" x1="213.146" x2="311.314" y1="68.407" y2="68.407"><stop offset="0" stop-color="#ec6f80"/><stop offset="1" stop-color="#eca0aa"/></linearGradient><linearGradient id="SVGID_9_" gradientTransform="matrix(1 .003 -.003 1 -10.673 .89)" gradientUnits="userSpaceOnUse" x1="229.028" x2="281.578" y1="29.156" y2="29.156"><stop offset="0" stop-color="#7ed99e"/><stop offset=".2532" stop-color="#81daa3"/><stop offset=".5725" stop-color="#88ddb3"/><stop offset=".9261" stop-color="#95e2cd"/><stop offset="1" stop-color="#98e3d3"/></linearGradient><g><path d="m242.765 499.323c-4.27-3.848-4.612-10.43-.762-14.7 39.65-43.989 28.698-61.65 14.833-84.008-11.482-18.516-25.773-41.561-5.411-77.542 2.832-5.003 9.181-6.764 14.186-3.932 5.002 2.832 6.763 9.183 3.932 14.186-14.286 25.24-5.782 38.954 4.985 56.316 7.521 12.128 16.045 25.874 15.83 43.89-.237 19.729-10.688 40.392-32.892 65.027-3.835 4.256-10.418 4.624-14.701.763z" fill="#fcb500"/><g><path d="m195.037 133.009c12.607-11.862 15.864-26.633 5.85-41.422-18.183-26.856-55.167-41.608-69.575-29.436-5.441 4.596-7.629 13.011-6.989 22.909 21.479 27.15 53.583 45.799 70.714 47.949z" fill="url(#SVGID_1_)"/><path d="m192.837 134.977c.764-.646 1.493-1.303 2.2-1.968-16.064-31.914-48.45-44.507-70.714-47.949 1.055 16.312 9.8 36.656 24.389 50.605 13.632 13.035 29.717 11.484 44.125-.688z" fill="url(#SVGID_2_)"/></g><g><path d="m306.963 133.009c-12.607-11.862-15.864-26.633-5.85-41.422 18.183-26.856 55.167-41.608 69.575-29.436 5.441 4.596 7.629 13.011 6.989 22.909-21.479 27.15-53.583 45.799-70.714 47.949z" fill="url(#SVGID_3_)"/><path d="m309.163 134.977c-.764-.646-1.493-1.303-2.2-1.968 16.064-31.914 48.449-44.507 70.714-47.949-1.055 16.312-9.8 36.656-24.389 50.605-13.632 13.035-29.718 11.484-44.125-.688z" fill="url(#SVGID_4_)"/></g><path d="m288.125 305.178c16.415 9.853 32.983 38.601 25.165 51.16-11.519 18.506-41.298 0-60.406 0s-48.886 18.506-60.406 0c-7.817-12.559 8.751-41.307 25.165-51.16z" fill="url(#SVGID_5_)"/><path d="m367.49 175.886c0-64.336-52.154-116.49-116.49-116.49s-116.49 52.154-116.49 116.49 52.154 140.897 116.49 140.897 116.49-76.561 116.49-140.897z" fill="url(#SVGID_6_)"/><g><path d="m206.834 110.222c1.048 14.818 20.358 26.68 44.073 26.76 24.419.082 44.257-12.361 44.309-27.792.031-9.386-1.541-21.668-4.287-34.597-32.267-.537-56.04 8.164-84.095 35.629z" fill="url(#SVGID_7_)"/><path d="m277.093 30.041c-22.986 2.37-44.634 9.411-62.694 31.659-4.693 17.314-7.572 34.778-7.614 47.194-.002.445.018.888.049 1.328 26.124-6.47 55.635-17.373 84.094-35.63-3.222-15.173-8.063-31.232-13.835-44.551z" fill="url(#SVGID_8_)"/><path d="m277.093 30.041c-7.508-17.325-16.588-30.01-25.728-30.041-14.234-.048-28.531 30.582-36.966 61.7 20.431-6.682 42.192-16.695 62.694-31.659z" fill="url(#SVGID_9_)"/></g><g><ellipse cx="163.114" cy="183.151" fill="#eaadcd" rx="14.936" ry="12.003"/><ellipse cx="338.886" cy="183.151" fill="#eaadcd" rx="14.936" ry="12.003"/><circle cx="188.721" cy="153.533" fill="#fff" r="29.618"/><circle cx="313.279" cy="153.533" fill="#fff" r="29.618"/><g fill="#3b3b44"><g><circle cx="188.721" cy="153.533" r="17.652"/><circle cx="313.279" cy="153.533" r="17.652"/></g><path d="m251 184.094c-5.247 0-10.495-1.985-14.775-5.955-2.025-1.877-2.145-5.041-.267-7.066 1.877-2.025 5.042-2.145 7.065-.267 4.697 4.354 11.256 4.354 15.953 0 2.023-1.877 5.188-1.758 7.065.267 1.878 2.025 1.759 5.189-.267 7.066-4.279 3.969-9.527 5.955-14.774 5.955z"/></g></g><path d="m251 342.782c5.871 0 11.646-.48 17.307-1.401 8.144-1.324 12.943-9.893 9.931-17.574-2.232-5.69-8.124-9.062-14.157-8.084-4.294.696-8.658 1.059-13.081 1.059-13.092 0-25.675-3.184-37.42-8.779-6.455 5.054-12.607 12.615-16.939 20.511 16.654 9.028 34.979 14.268 54.359 14.268z" fill="#997bce"/><g fill="#fff"><path d="m299.012 274.057c-2.583 0-5.165-.995-7.122-2.98-3.877-3.933-3.831-10.265.103-14.142 1.47-1.449 2.939-2.99 4.367-4.582 3.688-4.112 10.011-4.455 14.121-.766 4.111 3.688 4.454 10.011.766 14.121-1.7 1.896-3.454 3.735-5.215 5.471-1.948 1.92-4.485 2.878-7.02 2.878z"/><path d="m325.518 235.748c-1.41 0-2.843-.299-4.206-.933-5.009-2.327-7.183-8.273-4.856-13.282 2.14-4.605 4.012-9.333 5.564-14.052 1.727-5.246 7.379-8.1 12.625-6.373s8.1 7.379 6.373 12.625c-1.796 5.457-3.957 10.916-6.424 16.226-1.694 3.645-5.305 5.789-9.076 5.789z"/></g></g></svg>