<svg id="Capa_1" enable-background="new 0 0 502 502" height="512" viewBox="0 0 502 502" width="512" xmlns="http://www.w3.org/2000/svg" xmlns:xlink="http://www.w3.org/1999/xlink"><linearGradient id="lg1"><stop offset="0" stop-color="#cdd4d4"/><stop offset="1" stop-color="#f3f3f3"/></linearGradient><linearGradient id="SVGID_1_" gradientUnits="userSpaceOnUse" x1="259.591" x2="259.591" xlink:href="#lg1" y1="120.776" y2="62.662"/><linearGradient id="lg2"><stop offset="0" stop-color="#d5738e"/><stop offset="1" stop-color="#e6a3c1"/></linearGradient><linearGradient id="SVGID_2_" gradientTransform="matrix(1 -.003 .003 1 1075.654 6.914)" gradientUnits="userSpaceOnUse" x1="-796.733" x2="-850.314" xlink:href="#lg2" y1="102.051" y2="102.051"/><linearGradient id="SVGID_3_" gradientTransform="matrix(-1 0 0 1 -1213.335 0)" gradientUnits="userSpaceOnUse" x1="-1641.934" x2="-1641.934" xlink:href="#lg1" y1="120.776" y2="62.662"/><linearGradient id="SVGID_4_" gradientTransform="matrix(-1 -.003 -.003 1 -161.97 6.914)" gradientUnits="userSpaceOnUse" x1="-571.241" x2="-624.822" xlink:href="#lg2" y1="102.796" y2="102.796"/><linearGradient id="SVGID_5_" gradientUnits="userSpaceOnUse" x1="190.557" x2="190.557" y1="560.21" y2="237.47"><stop offset="0" stop-color="#d9e0e0"/><stop offset="1" stop-color="#f3f3f3"/></linearGradient><linearGradient id="lg3"><stop offset="0" stop-color="#ec6f80"/><stop offset="1" stop-color="#eca0aa"/></linearGradient><linearGradient id="SVGID_6_" gradientUnits="userSpaceOnUse" x1="312.046" x2="312.046" xlink:href="#lg3" y1="457.106" y2="295.208"/><linearGradient id="SVGID_7_" gradientUnits="userSpaceOnUse" x1="138.272" x2="138.272" y1="273.03" y2="156.007"><stop offset="0" stop-color="#b39bdb"/><stop offset="1" stop-color="#d0c3e8"/></linearGradient><linearGradient id="SVGID_8_" gradientUnits="userSpaceOnUse" x1="344.095" x2="344.095" y1="324.829" y2="62.653"><stop offset="0" stop-color="#74d2e8"/><stop offset="1" stop-color="#baeaf5"/></linearGradient><linearGradient id="SVGID_9_" gradientTransform="matrix(1 .003 -.003 1 -12.759 -3.281)" gradientUnits="userSpaceOnUse" x1="357.271" x2="357.271" y1="154.928" y2="83.771"><stop offset="0" stop-color="#f4d952"/><stop offset="1" stop-color="#f9edaf"/></linearGradient><linearGradient id="SVGID_10_" gradientTransform="matrix(1 .003 -.003 1 -12.759 -3.281)" gradientUnits="userSpaceOnUse" x1="305.357" x2="409.559" xlink:href="#lg3" y1="76.576" y2="76.576"/><linearGradient id="SVGID_11_" gradientTransform="matrix(1 .003 -.003 1 -12.759 -3.281)" gradientUnits="userSpaceOnUse" x1="322.215" x2="377.995" y1="34.913" y2="34.913"><stop offset="0" stop-color="#7ed99e"/><stop offset=".2532" stop-color="#81daa3"/><stop offset=".5725" stop-color="#88ddb3"/><stop offset=".9261" stop-color="#95e2cd"/><stop offset="1" stop-color="#98e3d3"/></linearGradient><g><g><path d="m288.249 129.263c12.232-11.508 15.391-25.84 5.676-40.189-17.642-26.056-53.525-40.369-67.503-28.559-5.279 4.46-7.402 12.624-6.781 22.227 20.839 26.342 51.987 44.435 68.608 46.521z" fill="url(#SVGID_1_)"/><path d="m286.115 131.172c.741-.626 1.449-1.264 2.134-1.909-15.585-30.964-47.007-43.181-68.608-46.521 1.023 15.826 9.508 35.565 23.663 49.099 13.225 12.646 28.832 11.141 42.811-.669z" fill="url(#SVGID_2_)"/></g><g><path d="m399.941 129.263c-12.232-11.508-15.391-25.84-5.676-40.189 17.641-26.056 53.525-40.369 67.503-28.559 5.279 4.46 7.402 12.624 6.781 22.227-20.839 26.342-51.987 44.435-68.608 46.521z" fill="url(#SVGID_3_)"/><path d="m402.075 131.172c-.741-.626-1.449-1.264-2.134-1.909 15.585-30.964 47.007-43.181 68.608-46.521-1.023 15.826-9.508 35.565-23.663 49.099-13.226 12.646-28.832 11.141-42.811-.669z" fill="url(#SVGID_4_)"/></g><path d="m321.645 385.812-66.375-24.461-16.479 16.479c-16.853 16.853-44.019 3.362-64.328-16.947-20.31-20.31-33.801-47.475-16.947-64.328l16.479-16.479-26.124-68.038-66.375-24.46c-7.76 7.76-16.479 16.479-16.479 16.479-48.597 48.597-47.799 120.986 48.744 217.529s168.932 97.342 217.529 48.744l16.479-16.479z" fill="url(#SVGID_5_)"/><path d="m323.02 429.102-16.479 16.478c-14.412 14.412-29.95 21.419-47.502 21.42-22.541.001-49.169-11.356-78.44-33.23-7.375-5.511-17.758-4.382-23.759 2.6-6.587 7.664-5.358 19.336 2.737 25.386 73.966 55.286 131.135 49.152 171.713 8.573l16.479-16.479-8.27-18.505z" fill="#c9d0d6"/><path d="m265.345 351.276s-5.33 5.33-10.075 10.075l92.499 92.499 10.075-10.075c14.638-14.638 14.638-38.371 0-53.009l-39.49-39.49c-14.638-14.638-38.371-14.638-53.009 0z" fill="url(#SVGID_6_)"/><path d="m91.57 177.502s-5.33 5.33-10.075 10.075l92.499 92.499 10.075-10.075c14.638-14.638 14.638-38.371 0-53.009l-39.49-39.49c-14.638-14.638-38.371-14.638-53.009 0z" fill="url(#SVGID_7_)"/><path d="m344.095 70.535c-67.479 0-122.181 45.582-122.181 101.81 0 25.039 10.851 47.964 28.844 65.695 4.072 4.013 5.585 9.966 3.941 15.442-2.018 6.723-4.415 13.271-6.911 19.13-5.075 11.914 4.209 24.995 17.117 23.952 24.939-2.015 45.603-10.132 59.902-19.996 2.907-2.005 6.399-2.935 9.924-2.711 3.091.197 6.214.298 9.365.298 67.479 0 122.181-45.582 122.181-101.811-.001-56.227-54.703-101.809-122.182-101.809z" fill="url(#SVGID_8_)"/><g><path d="m297.214 116.997c1.112 15.728 21.61 28.32 46.782 28.405 25.92.087 46.977-13.121 47.032-29.501.033-9.962-1.636-23-4.55-36.724-34.25-.57-59.484 8.667-89.264 37.82z" fill="url(#SVGID_9_)"/><path d="m371.792 31.887c-24.399 2.516-47.377 9.989-66.548 33.605-4.982 18.378-8.038 36.916-8.082 50.094-.002.473.019.942.052 1.41 27.729-6.868 59.055-18.441 89.263-37.82-3.42-16.105-8.559-33.151-14.685-47.289z" fill="url(#SVGID_10_)"/><path d="m371.792 31.887c-7.97-18.39-17.608-31.855-27.31-31.887-15.108-.051-30.285 32.462-39.238 65.492 21.687-7.092 44.786-17.721 66.548-33.605z" fill="url(#SVGID_11_)"/></g><path d="m323.02 429.102 24.749 24.749 5.215-5.215c6.834-6.834 6.834-17.914 0-24.749-6.834-6.834-17.914-6.834-24.749 0z" fill="#e05d6f"/><g fill="#dff7fa"><path d="m403.617 236.991c-3.23 0-6.399-1.562-8.327-4.449-3.066-4.594-1.828-10.803 2.766-13.869 1.448-.966 2.88-1.991 4.258-3.046 4.385-3.357 10.662-2.523 14.019 1.861 3.357 4.386 2.523 10.662-1.862 14.02-1.719 1.316-3.507 2.595-5.312 3.8-1.705 1.138-3.634 1.683-5.542 1.683z"/><path d="m432.933 201.343c-1.115 0-2.249-.188-3.36-.585-5.202-1.856-7.914-7.577-6.058-12.779 1.833-5.135 2.762-10.395 2.762-15.634 0-5.522 4.477-10 10-10s10 4.478 10 10c0 7.536-1.32 15.058-3.925 22.356-1.46 4.09-5.311 6.642-9.419 6.642z"/></g></g></svg>