<svg id="Capa_1" enable-background="new 0 0 502 502" height="512" viewBox="0 0 502 502" width="512" xmlns="http://www.w3.org/2000/svg" xmlns:xlink="http://www.w3.org/1999/xlink"><linearGradient id="lg1"><stop offset="0" stop-color="#cdd4d4"/><stop offset="1" stop-color="#f3f3f3"/></linearGradient><linearGradient id="SVGID_1_" gradientTransform="matrix(-1 0 0 1 -1825.019 0)" gradientUnits="userSpaceOnUse" x1="-2202.804" x2="-2202.804" xlink:href="#lg1" y1="169.442" y2="106.892"/><linearGradient id="lg2"><stop offset="0" stop-color="#d5738e"/><stop offset="1" stop-color="#e6a3c1"/></linearGradient><linearGradient id="SVGID_2_" gradientTransform="matrix(-1 -.003 -.003 1 -773.654 2.743)" gradientUnits="userSpaceOnUse" x1="-1130.775" x2="-1188.448" xlink:href="#lg2" y1="153.086" y2="153.086"/><linearGradient id="SVGID_3_" gradientUnits="userSpaceOnUse" x1="154.285" x2="154.285" xlink:href="#lg1" y1="169.442" y2="106.892"/><linearGradient id="SVGID_4_" gradientTransform="matrix(1 -.003 .003 1 1105.725 2.743)" gradientUnits="userSpaceOnUse" x1="-930.778" x2="-988.45" xlink:href="#lg2" y1="153.746" y2="153.746"/><linearGradient id="lg3"><stop offset="0" stop-color="#d9e0e0"/><stop offset="1" stop-color="#f3f3f3"/></linearGradient><linearGradient id="SVGID_5_" gradientUnits="userSpaceOnUse" x1="119.308" x2="119.308" xlink:href="#lg3" y1="428.844" y2="265.167"/><linearGradient id="lg4"><stop offset="0" stop-color="#f4d952"/><stop offset="1" stop-color="#f9edaf"/></linearGradient><linearGradient id="SVGID_7_" gradientUnits="userSpaceOnUse" x1="-43.258" x2="448.112" xlink:href="#lg4" y1="278.211" y2="278.211"/><linearGradient id="lg5"><stop offset="0" stop-color="#f4c22c"/><stop offset="1" stop-color="#f9e198"/></linearGradient><linearGradient id="SVGID_8_" gradientUnits="userSpaceOnUse" x1="349.404" x2="349.404" xlink:href="#lg5" y1="279.785" y2="142.065"/><linearGradient id="SVGID_9_" gradientUnits="userSpaceOnUse" x1="333.951" x2="333.951" xlink:href="#lg5" y1="384.397" y2="301.788"/><linearGradient id="SVGID_10_" gradientUnits="userSpaceOnUse" x1="195.431" x2="91.486" xlink:href="#lg5" y1="177.169" y2="177.169"/><linearGradient id="SVGID_11_" gradientUnits="userSpaceOnUse" x1="261.507" x2="58.575" xlink:href="#lg5" y1="370.442" y2="370.442"/><linearGradient id="SVGID_12_" gradientUnits="userSpaceOnUse" x1="382.693" x2="382.693" xlink:href="#lg3" y1="546.939" y2="383.262"/><linearGradient id="SVGID_13_" gradientUnits="userSpaceOnUse" x1="266.064" x2="266.064" xlink:href="#lg4" y1="170.917" y2="80.642"/><linearGradient id="SVGID_14_" gradientTransform="matrix(1 .003 -.003 1 -12.759 .89)" gradientUnits="userSpaceOnUse" x1="221.886" x2="337.038" y1="84.647" y2="84.647"><stop offset="0" stop-color="#ec6f80"/><stop offset="1" stop-color="#eca0aa"/></linearGradient><linearGradient id="SVGID_15_" gradientTransform="matrix(1 .003 -.003 1 -12.759 .89)" gradientUnits="userSpaceOnUse" x1="240.515" x2="302.157" y1="38.606" y2="38.606"><stop offset="0" stop-color="#7ed99e"/><stop offset=".2532" stop-color="#81daa3"/><stop offset=".5725" stop-color="#88ddb3"/><stop offset=".9261" stop-color="#95e2cd"/><stop offset="1" stop-color="#98e3d3"/></linearGradient><g><g><path d="m346.939 178.578c-13.166-12.387-16.567-27.813-6.11-43.258 18.989-28.046 57.612-43.452 72.658-30.74 5.682 4.8 7.967 13.588 7.299 23.924-22.431 28.354-55.957 47.829-73.847 50.074z" fill="url(#SVGID_1_)"/><path d="m349.236 180.633c-.798-.674-1.56-1.361-2.297-2.055 16.776-33.328 50.596-46.479 73.847-50.074-1.102 17.035-10.235 38.28-25.47 52.848-14.236 13.613-31.034 11.993-46.08-.719z" fill="url(#SVGID_2_)"/></g><g><path d="m185.131 178.578c13.166-12.387 16.567-27.813 6.11-43.258-18.989-28.046-57.612-43.452-72.658-30.74-5.682 4.8-7.968 13.588-7.299 23.924 22.431 28.354 55.957 47.829 73.847 50.074z" fill="url(#SVGID_3_)"/><path d="m182.834 180.633c.798-.674 1.56-1.361 2.297-2.055-16.775-33.328-50.596-46.479-73.848-50.074 1.102 17.035 10.235 38.28 25.47 52.848 14.237 13.613 31.035 11.993 46.081-.719z" fill="url(#SVGID_4_)"/></g><path d="m190.949 379.746c26.136 0 47.996-21.386 47.662-47.52-.307-24.074-18.75-43.77-42.258-46.064-4.754-.464-8.924-3.408-10.847-7.78-11.192-25.443-36.62-43.209-66.199-43.209s-55.007 17.766-66.199 43.209c-1.923 4.372-6.093 7.316-10.847 7.78-23.516 2.294-41.958 22.001-42.258 46.077-.326 26.127 21.534 47.507 47.662 47.507z" fill="url(#SVGID_5_)"/><path d="m190.949 379.746c26.136 0 47.996-21.386 47.662-47.52-.307-24.074-18.75-43.77-42.258-46.064-4.754-.464-8.924-3.408-10.847-7.78-11.192-25.443-36.62-43.209-66.199-43.209s-55.007 17.766-66.199 43.209c-1.923 4.372-6.093 7.316-10.847 7.78-23.516 2.294-41.958 22.001-42.258 46.077-.326 26.127 21.534 47.507 47.662 47.507z" fill="url(#SVGID_5_)"/><path d="m266.035 113.32c-30.501 0-59.061 8.291-83.568 22.728-8.3 25.947-24.535 51.376-59.808 60.679-13.689 24.035-21.515 51.844-21.515 81.483 0 27.13 6.555 52.729 18.163 75.302 48.557-6.143 91.408 44.806 97.114 81.987 15.659 4.935 32.324 7.602 49.614 7.602 91.067 0 164.891-73.824 164.891-164.891 0-91.066-73.824-164.89-164.891-164.89z" fill="url(#SVGID_7_)"/><circle cx="349.404" cy="222.061" fill="url(#SVGID_8_)" r="46.04"/><circle cx="333.951" cy="351.437" fill="url(#SVGID_9_)" r="26.81"/><path d="m122.66 196.728c7.68 12.908 21.763 21.561 37.873 21.561 24.326 0 44.047-19.72 44.047-44.046 0-16.338-8.9-30.59-22.112-38.193-24.849 14.637-45.525 35.598-59.808 60.678z" fill="url(#SVGID_10_)"/><path d="m184.984 305.385c-30.805 0-56.879 20.23-65.677 48.128 19.959 38.812 54.865 68.673 97.114 81.987 22.215-11.424 37.421-34.557 37.421-61.257.001-38.029-30.828-68.858-68.858-68.858z" fill="url(#SVGID_11_)"/><path d="m454.334 497.841c26.136 0 47.996-21.386 47.662-47.52-.307-24.074-18.75-43.77-42.258-46.064-4.754-.464-8.924-3.408-10.847-7.78-11.192-25.443-36.62-43.209-66.199-43.209s-55.007 17.766-66.199 43.209c-1.923 4.372-6.093 7.316-10.847 7.78-23.516 2.294-41.958 22.001-42.258 46.077-.326 26.127 21.533 47.507 47.662 47.507z" fill="url(#SVGID_12_)"/><g><path d="m214.227 133.45c1.229 17.381 23.881 31.296 51.697 31.39 28.644.096 51.914-14.5 51.974-32.601.037-11.009-1.808-25.417-5.029-40.583-37.846-.629-65.732 9.578-98.642 41.794z" fill="url(#SVGID_13_)"/><path d="m296.642 39.397c-26.963 2.781-52.356 11.039-73.541 37.136-5.505 20.309-8.882 40.795-8.931 55.358-.002.523.021 1.041.057 1.559 30.643-7.59 65.26-20.379 98.643-41.794-3.779-17.799-9.457-36.635-16.228-52.259z" fill="url(#SVGID_14_)"/><path d="m296.642 39.397c-8.807-20.323-19.458-35.202-30.179-35.238-16.696-.056-33.467 35.873-43.362 72.374 23.966-7.838 49.493-19.583 73.541-37.136z" fill="url(#SVGID_15_)"/></g><g><ellipse cx="178.178" cy="224.531" fill="#eaadcd" rx="14.936" ry="12.003"/><ellipse cx="353.949" cy="224.531" fill="#eaadcd" rx="14.936" ry="12.003"/><circle cx="203.785" cy="194.913" fill="#fff" r="29.618"/><circle cx="328.342" cy="194.913" fill="#fff" r="29.618"/><g fill="#3b3b44"><g><circle cx="203.785" cy="194.913" r="17.652"/><circle cx="328.342" cy="194.913" r="17.652"/></g><path d="m266.064 225.473c-5.248 0-10.494-1.984-14.775-5.954-2.025-1.877-2.145-5.041-.267-7.066 1.876-2.025 5.042-2.143 7.065-.267 4.698 4.355 11.258 4.355 15.954-.001 2.024-1.874 5.189-1.757 7.066.268s1.758 5.189-.268 7.066c-4.279 3.969-9.529 5.954-14.775 5.954z"/></g></g><path d="m83.205 281.033c-9.735.875-16.914 9.562-15.84 19.277 3.177 28.741 12.476 55.663 26.554 79.437h42.191c-18.334-23.427-30.465-51.937-33.934-83.065-1.061-9.522-9.43-16.507-18.971-15.649z" fill="#d2d9e0"/><g fill="#fff"><path d="m464.017 474.954c-3.291 0-6.513-1.622-8.423-4.596-2.985-4.647-1.639-10.833 3.008-13.818 1.075-.691 1.961-1.603 2.563-2.635 2.778-4.772 8.901-6.391 13.673-3.612 4.773 2.778 6.391 8.899 3.612 13.673-2.185 3.756-5.31 7.007-9.037 9.4-1.674 1.075-3.546 1.588-5.396 1.588z"/><path d="m423.435 477.841h-24.93c-5.522 0-10-4.478-10-10s4.478-10 10-10h24.93c5.523 0 10 4.478 10 10s-4.477 10-10 10z"/></g></g></svg>