<svg id="Capa_1" enable-background="new 0 0 502 502" height="512" viewBox="0 0 502 502" width="512" xmlns="http://www.w3.org/2000/svg" xmlns:xlink="http://www.w3.org/1999/xlink"><linearGradient id="lg1"><stop offset="0" stop-color="#7ed99e"/><stop offset=".2532" stop-color="#81daa3"/><stop offset=".5725" stop-color="#88ddb3"/><stop offset=".9261" stop-color="#95e2cd"/><stop offset="1" stop-color="#98e3d3"/></linearGradient><linearGradient id="SVGID_1_" gradientUnits="userSpaceOnUse" x1="159.96" x2="58.997" xlink:href="#lg1" y1="361.163" y2="361.163"/><linearGradient id="lg2"><stop offset="0" stop-color="#cdd4d4"/><stop offset="1" stop-color="#f3f3f3"/></linearGradient><linearGradient id="SVGID_2_" gradientUnits="userSpaceOnUse" x1="295.874" x2="295.874" xlink:href="#lg2" y1="366.655" y2="477.488"/><linearGradient id="lg3"><stop offset="0" stop-color="#e08243"/><stop offset="1" stop-color="#f0bb78"/></linearGradient><linearGradient id="SVGID_3_" gradientUnits="userSpaceOnUse" x1="274.585" x2="324.024" xlink:href="#lg3" y1="482.664" y2="482.664"/><linearGradient id="lg4"><stop offset="0" stop-color="#d9e0e0"/><stop offset="1" stop-color="#f3f3f3"/></linearGradient><linearGradient id="SVGID_4_" gradientUnits="userSpaceOnUse" x1="198.924" x2="198.924" xlink:href="#lg4" y1="357.307" y2="501.999"/><linearGradient id="SVGID_5_" gradientUnits="userSpaceOnUse" x1="203.941" x2="203.941" xlink:href="#lg2" y1="357.307" y2="483.858"/><linearGradient id="SVGID_6_" gradientUnits="userSpaceOnUse" x1="149.092" x2="201.864" xlink:href="#lg3" y1="478.041" y2="478.041"/><linearGradient id="SVGID_7_" gradientUnits="userSpaceOnUse" x1="348.394" x2="418.584" xlink:href="#lg2" y1="328.418" y2="328.418"/><linearGradient id="SVGID_8_" gradientUnits="userSpaceOnUse" x1="429.329" x2="429.329" xlink:href="#lg3" y1="374.026" y2="327.986"/><linearGradient id="SVGID_9_" gradientUnits="userSpaceOnUse" x1="156.388" x2="39.506" y1="164.136" y2="164.136"><stop offset="0" stop-color="#b39bdb"/><stop offset="1" stop-color="#d0c3e8"/></linearGradient><linearGradient id="SVGID_10_" gradientUnits="userSpaceOnUse" x1="332.283" x2="332.283" xlink:href="#lg2" y1="126.573" y2="45.889"/><linearGradient id="SVGID_11_" gradientUnits="userSpaceOnUse" x1="258.532" x2="258.532" xlink:href="#lg2" y1="245.978" y2="414.774"/><linearGradient id="SVGID_12_" gradientUnits="userSpaceOnUse" x1="78.269" x2="388.589" xlink:href="#lg4" y1="194.971" y2="194.971"/><linearGradient id="SVGID_13_" gradientUnits="userSpaceOnUse" x1="345.424" x2="345.424" xlink:href="#lg1" y1="258.593" y2="281.272"/><linearGradient id="SVGID_14_" gradientUnits="userSpaceOnUse" x1="233.913" x2="233.913" y1="147.604" y2="24.207"><stop offset="0" stop-color="#d5738e"/><stop offset="1" stop-color="#e6a3c1"/></linearGradient><linearGradient id="SVGID_15_" gradientUnits="userSpaceOnUse" x1="256.445" x2="355.915" y1="104.548" y2="104.548"><stop offset="0" stop-color="#f4d952"/><stop offset="1" stop-color="#f9edaf"/></linearGradient><linearGradient id="SVGID_16_" gradientUnits="userSpaceOnUse" x1="256.35" x2="335.876" y1="65.914" y2="65.914"><stop offset="0" stop-color="#ec6f80"/><stop offset="1" stop-color="#eca0aa"/></linearGradient><linearGradient id="SVGID_17_" gradientUnits="userSpaceOnUse" x1="271.945" x2="333.288" xlink:href="#lg1" y1="26.692" y2="26.692"/><linearGradient id="SVGID_18_" gradientUnits="userSpaceOnUse" x1="187.251" x2="187.251" xlink:href="#lg2" y1="177.587" y2="82.082"/><linearGradient id="SVGID_19_" gradientUnits="userSpaceOnUse" x1="256.925" x2="256.925" xlink:href="#lg4" y1="370.109" y2="311.227"/><linearGradient id="SVGID_20_" gradientUnits="userSpaceOnUse" x1="248.038" x2="248.038" xlink:href="#lg4" y1="356.888" y2="310.009"/><linearGradient id="SVGID_21_" gradientUnits="userSpaceOnUse" x1="290.013" x2="290.013" xlink:href="#lg3" y1="403.28" y2="354.073"/><g><path d="m170.17 409.784c27.463-12.806 39.345-45.451 26.539-72.914s-45.451-39.345-72.914-26.539c-23.668 11.036-37.426 38.118-64.767 39.506-9.516.483-15.225 10.877-10.089 18.903 30.315 47.378 85.881 57.528 121.231 41.044z" fill="url(#SVGID_1_)"/><g fill="#a7f2d2"><path d="m128.35 407.092c-.345 0-.693-.018-1.044-.055-4.208-.435-8.5-1.214-12.758-2.311-5.348-1.38-8.565-6.833-7.186-12.181 1.379-5.349 6.833-8.562 12.18-7.187 3.298.851 6.605 1.451 9.826 1.786 5.494.569 9.485 5.484 8.916 10.978-.533 5.143-4.875 8.97-9.934 8.97z"/><path d="m84.7 389.13c-2.2 0-4.415-.723-6.263-2.209-5.361-4.314-10.301-9.256-14.683-14.686-3.468-4.298-2.795-10.594 1.502-14.061 4.299-3.468 10.594-2.795 14.062 1.503 3.486 4.319 7.408 8.244 11.657 11.663 4.303 3.463 4.983 9.758 1.521 14.061-1.975 2.453-4.872 3.729-7.796 3.729z"/></g><path d="m286.048 473.07c17.629 9.021 40.772 3.269 50.782-8.601-6.063-40.697-23.336-68.206-32.924-83.466l-1.395-2.225c-7.525-12.064-23.406-15.744-35.471-8.218-12.064 7.526-15.743 23.406-8.217 35.47l1.483 2.365c8.115 12.918 21.376 34.034 25.742 64.675z" fill="url(#SVGID_2_)"/><path d="m314.958 501.866c14.147-1.429 24.456-14.057 23.027-28.204-.317-3.138-.709-6.198-1.155-9.193-12.685-3.52-39.285 1.589-50.782 8.601.269 1.888.508 3.809.706 5.77 1.434 14.193 14.114 24.461 28.204 23.026z" fill="url(#SVGID_3_)"/><path d="m166.932 497.005c-11.462-8.414-13.932-24.527-5.518-35.989 23.093-31.457 26.544-38.651 28.554-79.237.703-14.202 12.788-25.132 26.987-24.441 14.202.704 25.144 12.786 24.441 26.988-2.565 51.8-10.057 68.452-38.474 107.161-8.389 11.427-24.493 13.957-35.99 5.518z" fill="url(#SVGID_4_)"/><path d="m216.955 357.338c-14.199-.691-26.284 10.239-26.987 24.441-1.853 37.419-4.945 46.468-23.512 72.304.976 19.572 23.955 31.875 42.2 29.477 23.711-33.316 30.357-51.114 32.74-99.234.703-14.202-10.239-26.284-24.441-26.988z" fill="url(#SVGID_5_)"/><path d="m166.455 454.083c-1.571 2.186-3.24 4.478-5.042 6.933-8.414 11.462-5.944 27.575 5.518 35.988 11.497 8.44 27.601 5.91 35.99-5.518 2.019-2.75 3.92-5.378 5.734-7.926-5.31-10.245-25.235-24.595-42.2-29.477z" fill="url(#SVGID_6_)"/><path d="m416.497 369.117c3.437-13.585 0-41.844-8.526-51.104-26.844.525-38.076-16.449-64.156-28.381-12.929-5.919-28.207-.229-34.123 12.7-5.915 12.93-.229 28.208 12.701 34.123 20.35 9.31 44.783 36.838 94.104 32.662z" fill="url(#SVGID_7_)"/><path d="m421.256 316.518c-4.855.95-9.242 1.416-13.285 1.495-2.14 12.234-2.847 37.525 8.526 51.104 4.659-.394 9.534-1.065 14.654-2.067 13.953-2.733 23.051-16.259 20.318-30.213-2.732-13.955-16.256-23.044-30.213-20.319z" fill="url(#SVGID_8_)"/><path d="m236.754 142.162c.126-40.119-32.663-74.063-72.783-74.072-40.216-.009-72.82 32.589-72.82 72.803 0 12.584-.123 37.554-19.995 49.154-18.495 10.796-18.62 37.671-.254 48.683 39.902 23.925 98.098 32.521 145.059 1.046.001-.001 20.56-23.52 20.793-97.614z" fill="url(#SVGID_9_)"/><path d="m355.822 50.109c-21.317-7.759-56.942 24.248-66.318 62.112-5.453 22.02 5.783 37.879 27.1 45.638s40.119 2.832 50.096-17.541c17.156-35.033 10.439-82.45-10.878-90.209z" fill="url(#SVGID_10_)"/><path d="m312.695 255.354c66.277 64.358 57.61 129.633 39.256 148.98s-48.431 28.104-93.419 28.104-75.065-8.757-93.419-28.104-27.02-84.622 39.256-148.98z" fill="url(#SVGID_11_)"/><path d="m454.893 219.626c-2.894 55.294-44.751 85.297-155.225 85.297s-150.935-43.355-150.935-106.168 42.632-113.735 125.991-113.735 183.87 63.876 180.169 134.606z" fill="url(#SVGID_12_)"/><path d="m345.424 292.567c-6.019 0-10.899-4.88-10.899-10.899v-30.668h21.797v30.669c0 6.019-4.879 10.898-10.898 10.898z" fill="url(#SVGID_13_)"/><g><ellipse cx="226.667" cy="211.132" fill="#eaadcd" rx="14.936" ry="12.003"/><ellipse cx="402.438" cy="211.132" fill="#eaadcd" rx="14.936" ry="12.003"/><circle cx="252.273" cy="181.514" fill="#fff" r="29.618"/><circle cx="376.831" cy="181.514" fill="#fff" r="29.618"/><path d="m262.057 191.944c-2.647.001-5.213-1.404-6.579-3.888-.94-1.71-2.554-1.895-3.204-1.895s-2.264.186-3.204 1.895c-1.996 3.629-6.558 4.952-10.186 2.959-3.63-1.996-4.955-6.556-2.959-10.186 3.279-5.964 9.544-9.669 16.349-9.669s13.07 3.705 16.349 9.669c1.996 3.63.671 8.189-2.959 10.186-1.147.63-2.386.929-3.607.929z" fill="#3b3b44"/><path d="m367.047 191.944c-1.222 0-2.461-.299-3.607-.929-3.63-1.996-4.955-6.556-2.959-10.186 3.279-5.964 9.543-9.669 16.349-9.669h.001c6.806.001 13.07 3.705 16.348 9.669 1.996 3.63.67 8.19-2.96 10.186-3.628 1.996-8.189.67-10.185-2.959-.94-1.71-2.554-1.895-3.204-1.895s-2.264.186-3.205 1.895c-1.364 2.484-3.931 3.888-6.578 3.888z" fill="#3b3b44"/><g><path d="m369.651 262.784h-23.342c-6.508 0-11.784-5.276-11.784-11.784 0-6.508 5.276-11.784 11.784-11.784h23.342c6.508 0 11.784 5.276 11.784 11.784 0 6.508-5.276 11.784-11.784 11.784z" fill="#3b3b44"/></g></g><path d="m259.548 20.018c-11.579-.876-22.331 2.537-30.853 8.808-2.994 2.203-6.708 3.262-10.388 2.734-26.811-3.847-51.68 16.544-52.518 44.203-.74 24.451 18.096 45.551 42.488 47.397 11.902.901 22.931-2.731 31.561-9.339 2.645-2.026 6.027-2.755 9.322-2.255 26.946 4.082 52.035-16.368 52.876-44.151.74-24.45-18.096-45.551-42.488-47.397z" fill="url(#SVGID_14_)"/><path d="m197.856 98.397c-5.523 0-10-4.478-10-10 0-5.406 4.29-9.81 9.651-9.994 4.707-2.06 14.302-16.54 32.967-22.246 5.285-1.617 10.873 1.359 12.486 6.641 1.615 5.281-1.358 10.872-6.64 12.486-17.392 5.317-23.13 23.113-38.464 23.113zm0-20c-.001 0-.003 0-.004 0z" fill="#db6985"/><g><path d="m345.49 78.525c-30.965-5.885-55.293-1.466-86.865 20.3h.002c6.95 8.826 11.188 17.583 20.876 27.62 5.071 2.469 10.845 4.368 17.088 5.469 23.489 4.142 44.652-4.534 47.27-19.377 1.591-9.029 2.121-21.112 1.629-34.012z" fill="url(#SVGID_15_)"/><path d="m291.569 101.186c-1.9-.937-3.362-1.909-4.369-2.738.245-1.032.529-2.115.831-3.22-9.705-.86-17.472-.66-29.404 3.596-1.059 10.49 7.419 21.082 20.888 27.633 8.326 4.049 18.218-1.022 19.825-10.139l.016-.091c1.093-6.196-2.146-12.256-7.787-15.041z" fill="#fcb500"/><path d="m339.588 33.344c-22.517-1.543-44.524 1.631-65.608 20.039-1.638 3.517-3.185 7.054-4.635 10.562l.001.001c-.701 12.203-8.263 32.894-10.719 34.879l-.002-.001v.001c26.219-1.881 56.437-7.463 86.866-20.3-.577-15.14-2.564-31.401-5.903-45.181z" fill="url(#SVGID_16_)"/><path d="m287.459 56.286c-7.114-2.825-15.19.585-18.113 7.659-5.099 12.336-8.907 24.294-10.547 33.593-.076.428-.129.858-.172 1.286 9.348-.67 19.211-1.824 29.404-3.596 1.665-6.091 4.161-13.215 7.19-20.551 2.984-7.229-.493-15.505-7.762-18.391z" fill="#e05d6f"/><path d="m339.588 33.344c-4.344-17.924-10.973-31.644-19.764-33.194-13.691-2.414-32.548 24.687-45.845 53.233 20.776-3.032 43.387-9.048 65.609-20.039z" fill="url(#SVGID_17_)"/></g><path d="m163.712 51.139c21.317-7.759 56.942 24.248 66.318 62.112 5.453 22.02-5.783 37.879-27.1 45.638s-40.119 2.833-50.096-17.541c-17.155-35.033-10.439-82.45 10.878-90.209z" fill="url(#SVGID_18_)"/><path d="m275.139 391.931c-14.172-12.383-27.8-33.116-55.368-35.268-14.176-1.106-24.771-13.494-23.664-27.671 1.107-14.176 13.498-24.773 27.671-23.664 48.449 3.781 72.834 36.987 85.239 47.825 10.708 9.355 11.805 25.619 2.45 36.328-9.366 10.72-25.633 11.794-36.328 2.45z" fill="url(#SVGID_19_)"/><path d="m262.203 379.324c20.944-1.216 35.654-15.732 37.845-34.932-14.142-14.17-37.495-36.037-76.271-39.063-14.173-1.109-26.564 9.487-27.671 23.664-1.106 14.176 9.489 26.564 23.665 27.671 19.337 1.508 31.813 12.16 42.432 22.66z" fill="url(#SVGID_20_)"/><path d="m309.016 353.154c-2.477-2.164-5.441-5.227-8.968-8.762-15.607 5.372-31.963 24.055-37.845 34.932 4.52 4.469 8.705 8.91 12.936 12.607 10.696 9.344 26.962 8.27 36.328-2.45 9.354-10.709 8.257-26.973-2.451-36.327z" fill="url(#SVGID_21_)"/></g></svg>