<svg id="Capa_1" enable-background="new 0 0 502 502" height="512" viewBox="0 0 502 502" width="512" xmlns="http://www.w3.org/2000/svg" xmlns:xlink="http://www.w3.org/1999/xlink"><linearGradient id="lg1"><stop offset="0" stop-color="#cdd4d4"/><stop offset="1" stop-color="#f3f3f3"/></linearGradient><linearGradient id="SVGID_1_" gradientTransform="matrix(-1 0 0 1 -1213.335 0)" gradientUnits="userSpaceOnUse" x1="-1671.286" x2="-1671.286" xlink:href="#lg1" y1="318.77" y2="254.864"/><linearGradient id="lg2"><stop offset="0" stop-color="#d5738e"/><stop offset="1" stop-color="#e6a3c1"/></linearGradient><linearGradient id="SVGID_2_" gradientTransform="matrix(-1 -.003 -.003 1 -164.056 6.914)" gradientUnits="userSpaceOnUse" x1="-601.369" x2="-660.291" xlink:href="#lg2" y1="299.775" y2="299.775"/><linearGradient id="SVGID_3_" gradientUnits="userSpaceOnUse" x1="44.049" x2="44.049" xlink:href="#lg1" y1="318.77" y2="254.864"/><linearGradient id="SVGID_4_" gradientTransform="matrix(1 -.003 .003 1 866.056 6.914)" gradientUnits="userSpaceOnUse" x1="-801.367" x2="-860.289" xlink:href="#lg2" y1="299.115" y2="299.115"/><linearGradient id="SVGID_5_" gradientUnits="userSpaceOnUse" x1="251" x2="251" y1="338.758" y2="200.302"><stop offset="0" stop-color="#b39bdb"/><stop offset="1" stop-color="#d0c3e8"/></linearGradient><linearGradient id="lg3"><stop offset="0" stop-color="#f4d952"/><stop offset="1" stop-color="#f9edaf"/></linearGradient><linearGradient id="SVGID_6_" gradientUnits="userSpaceOnUse" x1="251" x2="251" xlink:href="#lg3" y1="440.353" y2="320.457"/><linearGradient id="SVGID_7_" gradientTransform="matrix(1 .003 -.003 1 -14.845 -3.281)" gradientUnits="userSpaceOnUse" x1="266.54" x2="266.54" xlink:href="#lg3" y1="242.344" y2="164.094"/><linearGradient id="SVGID_8_" gradientTransform="matrix(1 .003 -.003 1 -14.845 -3.281)" gradientUnits="userSpaceOnUse" x1="209.452" x2="324.041" y1="156.182" y2="156.182"><stop offset="0" stop-color="#ec6f80"/><stop offset="1" stop-color="#eca0aa"/></linearGradient><linearGradient id="lg4"><stop offset="0" stop-color="#7ed99e"/><stop offset=".2532" stop-color="#81daa3"/><stop offset=".5725" stop-color="#88ddb3"/><stop offset=".9261" stop-color="#95e2cd"/><stop offset="1" stop-color="#98e3d3"/></linearGradient><linearGradient id="SVGID_9_" gradientTransform="matrix(1 .003 -.003 1 -14.845 -3.281)" gradientUnits="userSpaceOnUse" x1="227.99" x2="289.331" xlink:href="#lg4" y1="110.366" y2="110.366"/><linearGradient id="lg5"><stop offset="0" stop-color="#74d2e8"/><stop offset="1" stop-color="#baeaf5"/></linearGradient><linearGradient id="SVGID_10_" gradientUnits="userSpaceOnUse" x1="129.56" x2="129.56" xlink:href="#lg5" y1="328.985" y2="256.536"/><linearGradient id="SVGID_11_" gradientTransform="matrix(-1 0 0 1 702 0)" gradientUnits="userSpaceOnUse" x1="329.56" x2="329.56" xlink:href="#lg5" y1="328.985" y2="256.536"/><linearGradient id="SVGID_12_" gradientUnits="userSpaceOnUse" x1="251" x2="251" xlink:href="#lg4" y1="325.936" y2="272.965"/><g><g><path d="m426.438 328.104c-13.451-12.655-16.926-28.415-6.242-44.195 19.4-28.653 58.86-44.393 74.232-31.406 5.805 4.904 8.14 13.882 7.457 24.443-22.917 28.967-57.17 48.863-75.447 51.158z" fill="url(#SVGID_1_)"/><path d="m428.784 330.203c-.815-.689-1.593-1.39-2.347-2.099 17.139-34.05 51.693-47.486 75.447-51.158-1.125 17.404-10.456 39.109-26.022 53.992-14.544 13.907-31.705 12.252-47.078-.735z" fill="url(#SVGID_2_)"/></g><g><path d="m75.562 328.104c13.451-12.655 16.925-28.415 6.242-44.195-19.4-28.653-58.86-44.393-74.232-31.406-5.805 4.904-8.14 13.882-7.457 24.443 22.917 28.967 57.17 48.863 75.447 51.158z" fill="url(#SVGID_3_)"/><path d="m73.215 330.203c.815-.689 1.593-1.39 2.347-2.099-17.139-34.05-51.692-47.486-75.447-51.158 1.125 17.404 10.456 39.109 26.021 53.992 14.545 13.907 31.707 12.252 47.079-.735z" fill="url(#SVGID_4_)"/></g><path d="m65.799 350.129c-16.347-44.732-24.856-109.213-23.659-155.871.528-20.586 25.085-30.92 40.151-16.881l51.915 48.376c8.99 8.378 22.928 8.378 31.919 0l68.597-63.921c9.17-8.545 23.386-8.545 32.555 0l68.597 63.921c8.991 8.378 22.928 8.378 31.919 0l51.915-48.376c15.066-14.039 39.623-3.704 40.151 16.881 1.197 46.657-7.312 111.139-23.659 155.871z" fill="url(#SVGID_5_)"/><path d="m251 430.117c-60.27 0-164.491-7.355-200.206-15.94-23.621-5.678-38.166-29.429-32.489-53.05s29.429-38.165 53.049-32.489c24.011 5.772 117.222 13.505 179.646 13.505s155.635-7.732 179.646-13.504c23.622-5.681 47.371 8.869 53.049 32.489s-8.868 47.372-32.489 53.05c-35.715 8.584-139.936 15.939-200.206 15.939z" fill="url(#SVGID_6_)"/><g><path d="m199.446 200.542c1.223 17.296 23.764 31.143 51.445 31.236 28.504.095 51.66-14.429 51.72-32.441.036-10.956-1.799-25.293-5.004-40.384-37.663-.627-65.413 9.53-98.161 41.589z" fill="url(#SVGID_7_)"/><path d="m281.458 106.949c-26.831 2.767-52.1 10.985-73.181 36.955-5.478 20.21-8.839 40.595-8.888 55.087-.002.52.021 1.036.057 1.551 30.493-7.553 64.941-20.279 98.161-41.589-3.762-17.712-9.412-36.457-16.149-52.004z" fill="url(#SVGID_8_)"/><path d="m281.458 106.949c-8.764-20.223-19.363-35.03-30.032-35.066-16.614-.056-33.303 35.698-43.149 72.02 23.848-7.799 49.249-19.487 73.181-36.954z" fill="url(#SVGID_9_)"/></g><ellipse cx="129.56" cy="283.171" fill="url(#SVGID_10_)" rx="20.002" ry="24.315"/><ellipse cx="372.44" cy="283.171" fill="url(#SVGID_11_)" rx="20.002" ry="24.315"/><ellipse cx="251" cy="288.189" fill="url(#SVGID_12_)" rx="27.748" ry="33.732"/><path d="m237.035 244.741c1.887-6.944-1.993-14.207-8.858-16.363-16.399-5.151-27.869-15.635-28.732-27.835-.036-.515-.059-1.031-.057-1.551.005-1.389.049-2.848.114-4.34l-23.731 22.113c6.713 17.032 22.935 30.545 44.139 37.295 7.32 2.329 15.111-1.907 17.125-9.319z" fill="#997bce"/><g fill="#fffde3"><path d="m405.403 401.011c-5.013 0-9.336-3.76-9.922-8.859-.63-5.486 3.306-10.445 8.793-11.076 3.379-.389 6.632-.782 9.741-1.182 5.484-.69 10.489 3.169 11.191 8.646.703 5.478-3.167 10.488-8.646 11.191-3.192.409-6.533.814-10.003 1.213-.387.045-.773.067-1.154.067z"/><path d="m333.929 407.146c-5.236 0-9.637-4.073-9.97-9.371-.348-5.512 3.839-10.262 9.351-10.609 10.32-.65 20.628-1.392 30.637-2.204 5.499-.435 10.329 3.653 10.776 9.157.447 5.505-3.653 10.33-9.158 10.776-10.128.823-20.558 1.573-30.997 2.232-.215.013-.428.019-.639.019z"/></g></g></svg>