<svg id="Capa_1" enable-background="new 0 0 502 502" height="512" viewBox="0 0 502 502" width="512" xmlns="http://www.w3.org/2000/svg" xmlns:xlink="http://www.w3.org/1999/xlink"><linearGradient id="lg1"><stop offset="0" stop-color="#7ed99e"/><stop offset=".2532" stop-color="#81daa3"/><stop offset=".5725" stop-color="#88ddb3"/><stop offset=".9261" stop-color="#95e2cd"/><stop offset="1" stop-color="#98e3d3"/></linearGradient><linearGradient id="SVGID_1_" gradientTransform="matrix(.707 .707 -.707 .707 -125.84 -341.081)" gradientUnits="userSpaceOnUse" x1="660.246" x2="660.246" xlink:href="#lg1" y1="90.411" y2="-141.122"/><linearGradient id="lg2"><stop offset="0" stop-color="#cdd4d4"/><stop offset="1" stop-color="#f3f3f3"/></linearGradient><linearGradient id="SVGID_2_" gradientUnits="userSpaceOnUse" x1="75.87" x2="75.87" xlink:href="#lg2" y1="202.713" y2="115.154"/><linearGradient id="lg3"><stop offset="0" stop-color="#d5738e"/><stop offset="1" stop-color="#e6a3c1"/></linearGradient><linearGradient id="SVGID_3_" gradientTransform="matrix(1 -.003 .003 1 1077.74 4.828)" gradientUnits="userSpaceOnUse" x1="-972.835" x2="-1053.565" xlink:href="#lg3" y1="180.841" y2="180.841"/><linearGradient id="SVGID_4_" gradientTransform="matrix(-1 0 0 1 -1625.019 0)" gradientUnits="userSpaceOnUse" x1="-2051.149" x2="-2051.149" xlink:href="#lg2" y1="202.713" y2="115.154"/><linearGradient id="SVGID_5_" gradientTransform="matrix(-1 -.003 -.003 1 -575.74 4.828)" gradientUnits="userSpaceOnUse" x1="-972.834" x2="-1053.565" xlink:href="#lg3" y1="180.841" y2="180.841"/><linearGradient id="SVGID_6_" gradientUnits="userSpaceOnUse" x1="89.09" x2="399.926" xlink:href="#lg1" y1="415.552" y2="415.552"/><linearGradient id="lg4"><stop offset="0" stop-color="#f4d952"/><stop offset="1" stop-color="#f9edaf"/></linearGradient><linearGradient id="SVGID_7_" gradientUnits="userSpaceOnUse" x1="45.336" x2="572.914" xlink:href="#lg4" y1="306.277" y2="306.277"/><linearGradient id="SVGID_8_" gradientUnits="userSpaceOnUse" x1="45.287" x2="517.519" y1="205.857" y2="205.857"><stop offset="0" stop-color="#b39bdb"/><stop offset="1" stop-color="#d0c3e8"/></linearGradient><linearGradient id="SVGID_9_" gradientTransform="matrix(1 .003 -.003 1 -14.845 -1.195)" gradientUnits="userSpaceOnUse" x1="266.463" x2="266.463" xlink:href="#lg4" y1="230.578" y2="123.366"/><linearGradient id="SVGID_10_" gradientTransform="matrix(1 .003 -.003 1 -14.845 -1.195)" gradientUnits="userSpaceOnUse" x1="188.246" x2="345.246" y1="112.526" y2="112.526"><stop offset="0" stop-color="#ec6f80"/><stop offset="1" stop-color="#eca0aa"/></linearGradient><linearGradient id="SVGID_11_" gradientTransform="matrix(1 .003 -.003 1 -14.845 -1.195)" gradientUnits="userSpaceOnUse" x1="213.644" x2="297.689" xlink:href="#lg1" y1="49.752" y2="49.752"/><g><path d="m318.891 63.309c-19.678 19.678-31.616 44.221-38.857 66.94-11.101 34.832 21.684 67.617 56.516 56.516 22.719-7.241 47.262-19.179 66.94-38.857s31.616-44.22 38.857-66.94c11.101-34.832-21.684-67.617-56.516-56.516-22.719 7.241-47.262 19.179-66.94 38.857z" fill="url(#SVGID_1_)"/><path d="m324.724 142.075c-4.491-4.491-4.491-11.773 0-16.264l46.519-46.519c4.492-4.49 11.771-4.49 16.264 0 4.491 4.491 4.491 11.772 0 16.264l-46.519 46.519c-4.494 4.492-11.772 4.491-16.264 0z" fill="#05c95a"/><g><path d="m119.048 215.501c18.43-17.339 23.19-38.933 8.552-60.553-26.58-39.259-80.645-60.824-101.707-43.03-7.954 6.719-11.153 19.021-10.217 33.489 31.399 39.69 78.329 66.951 103.372 70.094z" fill="url(#SVGID_2_)"/><path d="m115.832 218.378c1.117-.944 2.183-1.905 3.215-2.876-23.482-46.653-70.825-65.061-103.372-70.093 1.542 23.845 14.326 53.585 35.653 73.976 19.929 19.054 43.442 16.786 64.504-1.007z" fill="url(#SVGID_3_)"/></g><g><path d="m382.952 215.501c-18.43-17.339-23.19-38.933-8.552-60.553 26.58-39.259 80.645-60.824 101.707-43.03 7.954 6.719 11.153 19.021 10.217 33.489-31.399 39.69-78.329 66.951-103.372 70.094z" fill="url(#SVGID_4_)"/><path d="m386.168 218.378c-1.117-.944-2.183-1.905-3.216-2.876 23.482-46.653 70.825-65.061 103.372-70.093-1.542 23.845-14.327 53.585-35.653 73.976-19.928 19.054-43.441 16.786-64.503-1.007z" fill="url(#SVGID_5_)"/></g><path d="m417.704 391.219c-62.931-75.414-269.049-84.942-340.039-13.217 33.983 71.304 88.101 123.998 125.144 123.998 12.474 0 23.162-6.679 31.687-14.03 9.518-8.209 23.491-8.209 33.009 0 8.524 7.351 19.213 14.03 31.687 14.03 34.714 0 84.43-46.276 118.512-110.781z" fill="url(#SVGID_6_)"/><path d="m186.886 460.537c-13.666-8.429-33.45-25.85-54.188-56.515-5.353-7.915-10.314-16.079-14.905-24.403-6.338-3.775-14.604-6.59-21.303-6.84-6.699-.251-12.26 1.803-18.821 5.224 24.484 51.376 59.418 93.09 90.892 112.391 9.73 5.967 22.48 1.086 25.837-9.823 2.342-7.613-.733-15.853-7.512-20.034z" fill="#05c95a"/><path d="m417.704 391.219c21.647-40.969 36.972-89.289 38.152-137.783-99.578-9.574-350.686-69.77-409.572 4.456 1.763 41.874 13.909 83.449 31.381 120.109 87.473 11.24 234.388-37.699 340.039 13.218z" fill="url(#SVGID_7_)"/><path d="m81.481 337.184c-10.094 2.785-15.47 13.756-11.533 23.444.201.488.407.973.611 1.46.412.987.828 1.972 1.248 2.953.296.692.593 1.383.894 2.072.583 1.338 1.172 2.672 1.77 3.998.302.671.611 1.337.917 2.005.401.876.805 1.749 1.212 2.619.325.695.65 1.39.979 2.082.029.062.06.123.089.184 12.294 1.579 25.762 1.97 40.124 1.616-5.805-10.523-11.007-21.308-15.515-32.242-3.365-8.164-12.282-12.54-20.796-10.191z" fill="#fcb500"/><path d="m337.905 129.611c-34.433.061-65.399 14.894-86.905 38.496-21.506-23.603-52.472-38.435-86.905-38.496-65.932-.117-118.975 55.473-118.016 121.398.033 2.295.108 4.589.205 6.883 82.713-53.833 297.29 79.782 409.572-4.456.02-.809.052-1.618.064-2.427.96-65.925-52.083-121.515-118.015-121.398z" fill="url(#SVGID_8_)"/><g><path d="m180.364 176.278c1.676 23.698 32.559 42.67 70.485 42.797 39.054.131 70.78-19.77 70.863-44.448.05-15.01-2.465-34.654-6.856-55.331-51.601-.859-89.622 13.058-134.492 56.982z" fill="url(#SVGID_9_)"/><path d="m292.731 48.045c-36.762 3.791-71.383 15.05-100.267 50.632-7.506 27.69-12.11 55.621-12.177 75.477-.002.712.028 1.42.078 2.125 41.78-10.348 88.977-27.784 134.492-56.983-5.154-24.267-12.896-49.95-22.126-71.251z" fill="url(#SVGID_10_)"/><path d="m292.731 48.045c-12.008-27.709-26.53-47.996-41.148-48.045-22.764-.076-45.63 48.91-59.12 98.677 32.676-10.687 67.479-26.701 100.268-50.632z" fill="url(#SVGID_11_)"/></g><g><path d="m420.765 306.109c-.67 0-1.35-.067-2.031-.208-5.409-1.116-8.889-6.405-7.773-11.815.529-2.564 1.023-5.158 1.47-7.711.95-5.44 6.13-9.077 11.572-8.129 5.44.951 9.08 6.132 8.129 11.572-.48 2.752-1.014 5.547-1.583 8.309-.977 4.727-5.14 7.982-9.784 7.982z" fill="#fffde3"/><path d="m425.899 258.325c-5.478 0-9.943-4.412-9.998-9.901-.088-8.94-1.627-17.69-4.573-26.008-1.845-5.206.881-10.922 6.086-12.766 5.204-1.848 10.921.88 12.766 6.086 3.686 10.405 5.611 21.337 5.721 32.49.055 5.522-4.378 10.044-9.9 10.098-.034.001-.068.001-.102.001z" fill="#e1cef5"/></g><g><ellipse cx="163.114" cy="282.399" fill="#eaadcd" rx="14.936" ry="12.003"/><ellipse cx="338.886" cy="282.399" fill="#eaadcd" rx="14.936" ry="12.003"/><circle cx="188.721" cy="252.781" fill="#fff" r="29.618"/><ellipse cx="176.756" cy="252.781" fill="#3b3b44" rx="17.652" ry="17.652" transform="matrix(.707 -.707 .707 .707 -126.973 199.023)"/><circle cx="313.279" cy="252.781" fill="#fff" r="29.618"/><g fill="#3b3b44"><ellipse cx="301.313" cy="252.781" rx="17.652" ry="17.652" transform="matrix(.447 -.895 .895 .447 -59.417 409.502)"/><path d="m258.59 259.975h-15.181c-3.007 0-5.658 1.976-6.506 4.862-2.672 9.09-5.742 27.748 14.097 27.748 19.838 0 16.769-18.659 14.097-27.748-.849-2.886-3.499-4.862-6.507-4.862z"/></g></g></g></svg>