<svg id="Capa_1" enable-background="new 0 0 502 502" height="512" viewBox="0 0 502 502" width="512" xmlns="http://www.w3.org/2000/svg" xmlns:xlink="http://www.w3.org/1999/xlink"><linearGradient id="lg1"><stop offset="0" stop-color="#7ed99e"/><stop offset=".2532" stop-color="#81daa3"/><stop offset=".5725" stop-color="#88ddb3"/><stop offset=".9261" stop-color="#95e2cd"/><stop offset="1" stop-color="#98e3d3"/></linearGradient><linearGradient id="SVGID_1_" gradientTransform="matrix(-1 0 0 1 101.538 0)" gradientUnits="userSpaceOnUse" x1="-240.935" x2="-331.53" xlink:href="#lg1" y1="324.073" y2="324.073"/><linearGradient id="lg2"><stop offset="0" stop-color="#cdd4d4"/><stop offset="1" stop-color="#f3f3f3"/></linearGradient><linearGradient id="SVGID_2_" gradientUnits="userSpaceOnUse" x1="168.001" x2="101.7" xlink:href="#lg2" y1="276.817" y2="276.817"/><linearGradient id="lg3"><stop offset="0" stop-color="#e08243"/><stop offset="1" stop-color="#f0bb78"/></linearGradient><linearGradient id="SVGID_3_" gradientUnits="userSpaceOnUse" x1="109.142" x2="109.142" xlink:href="#lg3" y1="280.627" y2="247.576"/><linearGradient id="lg4"><stop offset="0" stop-color="#b39bdb"/><stop offset="1" stop-color="#d0c3e8"/></linearGradient><linearGradient id="SVGID_4_" gradientTransform="matrix(-1 0 0 1 101.538 0)" gradientUnits="userSpaceOnUse" x1="-244.14" x2="-349.019" xlink:href="#lg4" y1="147.28" y2="147.28"/><linearGradient id="SVGID_5_" gradientTransform="matrix(-1 0 0 1 101.538 0)" gradientUnits="userSpaceOnUse" x1="-167.569" x2="-167.569" xlink:href="#lg4" y1="82.383" y2="10.019"/><linearGradient id="SVGID_6_" gradientTransform="matrix(-1 0 0 1 102 0)" gradientUnits="userSpaceOnUse" x1="-85.846" x2="-85.846" xlink:href="#lg2" y1="113.574" y2="41.176"/><linearGradient id="SVGID_7_" gradientTransform="matrix(-1 0 0 1 101.538 0)" gradientUnits="userSpaceOnUse" x1="-152.486" x2="-152.486" xlink:href="#lg2" y1="220.717" y2="372.179"/><linearGradient id="lg5"><stop offset="0" stop-color="#d9e0e0"/><stop offset="1" stop-color="#f3f3f3"/></linearGradient><linearGradient id="SVGID_8_" gradientTransform="matrix(-1 0 0 1 101.538 0)" gradientUnits="userSpaceOnUse" x1="-314.236" x2="-35.785" xlink:href="#lg5" y1="174.949" y2="174.949"/><linearGradient id="SVGID_9_" gradientTransform="matrix(-1 0 0 1 102 0)" gradientUnits="userSpaceOnUse" x1="-153.978" x2="-64.633" y1="93.811" y2="93.811"><stop offset="0" stop-color="#f4d952"/><stop offset="1" stop-color="#f9edaf"/></linearGradient><linearGradient id="SVGID_10_" gradientTransform="matrix(-1 0 0 1 101.538 0)" gradientUnits="userSpaceOnUse" x1="-154.444" x2="-83.084" y1="59.145" y2="59.145"><stop offset="0" stop-color="#ec6f80"/><stop offset="1" stop-color="#eca0aa"/></linearGradient><linearGradient id="SVGID_11_" gradientTransform="matrix(-1 0 0 1 101.538 0)" gradientUnits="userSpaceOnUse" x1="-140.45" x2="-85.407" xlink:href="#lg1" y1="23.95" y2="23.95"/><linearGradient id="SVGID_12_" gradientTransform="matrix(-1 0 0 1 102 0)" gradientUnits="userSpaceOnUse" x1="-215.985" x2="-215.985" xlink:href="#lg2" y1="159.35" y2="73.652"/><linearGradient id="SVGID_13_" gradientTransform="matrix(1 -.028 -.028 -1 4293.093 -9923.531)" gradientUnits="userSpaceOnUse" x1="-4237.125" x2="-4237.125" xlink:href="#lg5" y1="-10127.426" y2="-10009.812"/><linearGradient id="SVGID_14_" gradientUnits="userSpaceOnUse" x1="328.858" x2="328.858" xlink:href="#lg5" y1="312.466" y2="265.426"/><linearGradient id="SVGID_15_" gradientUnits="userSpaceOnUse" x1="256.296" x2="256.296" y1="325.084" y2="482.685"><stop offset="0" stop-color="#efc27b"/><stop offset="1" stop-color="#f3d5a6"/></linearGradient><linearGradient id="SVGID_16_" gradientUnits="userSpaceOnUse" x1="256.296" x2="256.296" xlink:href="#lg4" y1="459.473" y2="323.672"/><linearGradient id="SVGID_17_" gradientUnits="userSpaceOnUse" x1="356.431" x2="356.431" xlink:href="#lg3" y1="252.881" y2="219.802"/><g><path d="m333.311 367.701c-24.643-11.491-35.304-40.783-23.813-65.426s40.783-35.304 65.426-23.813c21.237 9.903 33.583 34.203 58.116 35.449 8.539.434 13.661 9.76 9.053 16.962-27.202 42.512-77.062 51.619-108.782 36.828z" fill="url(#SVGID_1_)"/><path d="m189.805 261.006c-22.166-2.4-41.445-9.129-53.569-18.322-15.818.789-33.962 11.713-33.962 36.907 19.847 16.5 48.591 27.577 82.141 31.21 13.635 1.486 26.093-8.349 27.592-22.202 1.489-13.751-8.451-26.105-22.202-27.593z" fill="url(#SVGID_2_)"/><path d="m127.457 233.925c-8.049-11.245-23.692-13.838-34.94-5.786-11.246 8.05-13.837 23.693-5.786 34.94 4.275 5.972 9.502 11.49 15.543 16.513 10.498-5.5 28.697-25.759 33.962-36.907-3.589-2.721-6.557-5.656-8.779-8.76z" fill="url(#SVGID_3_)"/><path d="m273.565 127.562c-.113-35.999 29.309-66.457 65.309-66.466 36.086-.009 65.342 29.242 65.342 65.326 0 11.292.111 33.697 17.941 44.106 16.595 9.688 16.708 33.802.227 43.684-35.804 21.468-88.023 29.181-130.162.939 0 .001-18.448-21.104-18.657-87.589z" fill="url(#SVGID_4_)"/><circle cx="269.106" cy="76.289" fill="url(#SVGID_5_)" r="65.326"/><path d="m166.725 44.963c19.128-6.962 51.094 21.758 59.508 55.733 4.893 19.759-5.189 33.989-24.317 40.951s-35.999 2.542-44.951-15.74c-15.395-31.434-9.368-73.982 9.76-80.944z" fill="url(#SVGID_6_)"/><path d="m205.423 229.131c-59.47 57.749-51.693 116.32-35.225 133.68 16.469 17.36 43.458 25.218 83.825 25.218s67.356-7.858 83.825-25.218 24.246-75.931-35.225-133.68z" fill="url(#SVGID_7_)"/><path d="m77.828 197.071c2.596 49.616 40.155 76.537 139.284 76.537s135.435-38.902 135.435-95.265-38.254-102.055-113.053-102.055c-74.798.001-164.987 57.317-161.666 120.783z" fill="url(#SVGID_8_)"/><g><ellipse cx="114.263" cy="192.045" fill="#eaadcd" rx="14.936" ry="12.003"/><ellipse cx="290.034" cy="192.045" fill="#eaadcd" rx="14.936" ry="12.003"/><circle cx="139.87" cy="162.428" fill="#fff" r="29.618"/><ellipse cx="127.904" cy="162.428" fill="#3b3b44" rx="17.652" ry="17.652" transform="matrix(.707 -.707 .707 .707 -77.391 138.016)"/><circle cx="264.427" cy="162.428" fill="#fff" r="29.618"/><g fill="#3b3b44"><ellipse cx="252.462" cy="162.428" rx="17.652" ry="17.652" transform="matrix(.23 -.973 .973 .23 36.375 370.817)"/><path d="m173.379 211.826h-15.181c-3.007 0-5.658 1.976-6.506 4.862-2.672 9.09-5.742 27.748 14.097 27.748 19.838 0 16.769-18.659 14.097-27.748-.849-2.886-3.5-4.862-6.507-4.862z"/></g></g><g><path d="m253.94 88.676c1.307 12.953-13.598 26.081-34.067 29.691-21.077 3.716-40.067-4.068-42.415-17.387-1.428-8.101-1.904-18.943-1.463-30.519 27.785-5.281 49.615-1.315 77.945 18.215z" fill="url(#SVGID_9_)"/><path d="m224.38 90.795c1.704-.841 3.017-1.713 3.921-2.457-.22-.926-.475-1.897-.746-2.889 8.709-.772 15.678-.592 26.384 3.227.95 9.413-6.657 18.917-18.743 24.795-7.471 3.633-16.347-.917-17.789-9.098l-.015-.082c-.981-5.56 1.925-10.998 6.988-13.496z" fill="#fcb500"/><path d="m181.292 29.92c20.205-1.385 39.951 1.463 58.871 17.981 6.638 14.252 11.732 28.905 13.621 39.621.068.385.117.77.156 1.155-23.527-1.688-50.641-6.697-77.945-18.215.518-13.587 2.301-28.178 5.297-40.542z" fill="url(#SVGID_10_)"/><path d="m228.067 50.506c6.384-2.535 13.63.525 16.253 6.873 4.575 11.069 7.992 21.799 9.464 30.143.068.384.116.77.155 1.154-8.388-.602-17.238-1.636-26.384-3.227-1.494-5.465-3.734-11.858-6.452-18.441-2.678-6.487.441-13.913 6.964-16.502z" fill="#e05d6f"/><path d="m181.292 29.92c3.897-16.083 9.845-28.394 17.734-29.785 12.285-2.166 29.206 22.152 41.136 47.766-18.641-2.721-38.93-8.119-58.87-17.981z" fill="url(#SVGID_11_)"/></g><path d="m339.106 45.887c-19.128-6.962-51.094 21.758-59.508 55.733-4.893 19.759 5.189 33.989 24.317 40.951s35.999 2.542 44.951-15.74c15.394-31.434 9.368-73.982-9.76-80.944z" fill="url(#SVGID_12_)"/><path d="m293.327 310.246c-10.066-9.484-10.538-25.333-1.055-35.401 15.569-16.524 18.781-24.732 45.365-65.4 7.567-11.577 23.087-14.829 34.664-7.26 11.577 7.567 14.827 23.086 7.259 34.664-26.51 40.557-31.437 51.755-50.833 72.342-9.452 10.033-25.301 10.57-35.4 1.055z" fill="url(#SVGID_13_)"/><path d="m329.217 222.441c-19.074 29.692-23.198 37.815-36.944 52.405-9.484 10.067-9.012 25.917 1.054 35.401 10.1 9.515 25.948 8.978 35.401-1.055 17.465-18.538 23.206-29.474 43.531-61.077-8.232-13.562-25.778-27.329-43.042-25.674z" fill="url(#SVGID_14_)"/><path d="m415.083 380.205h-317.575v78.382c0 23.976 19.437 43.413 43.413 43.413h230.749c23.976 0 43.413-19.437 43.413-43.413z" fill="url(#SVGID_15_)"/><path d="m145.897 323.827c24.794 1.724 48.975 14.946 110.399 14.946s85.604-13.222 110.399-14.946c36.086-2.509 67.498 25.788 67.685 61.961.179 34.656-27.86 62.806-62.475 62.806-16.29 0-31.117-6.239-42.234-16.455-6.82-6.268-17.65-5.424-23.164 2.019-11.378 15.359-29.628 25.316-50.211 25.316s-38.833-9.957-50.211-25.316c-5.514-7.443-16.344-8.287-23.164-2.019-11.117 10.216-25.944 16.455-42.234 16.455-34.614 0-62.654-28.15-62.475-62.806.187-36.173 31.599-64.47 67.685-61.961z" fill="url(#SVGID_16_)"/><path d="m78.018 80.539-22.792-22.792c-4.491-4.491-4.491-11.772 0-16.264 4.492-4.49 11.771-4.49 16.264 0l22.792 22.792c4.491 4.491 4.491 11.772 0 16.264-4.493 4.491-11.771 4.49-16.264 0z" fill="#71c4d1"/><path d="m427.767 74.054c-4.491-4.491-4.491-11.772 0-16.264l25.658-25.658c4.492-4.49 11.772-4.49 16.264 0 4.491 4.491 4.491 11.772 0 16.264l-25.658 25.658c-4.493 4.491-11.771 4.49-16.264 0z" fill="#05c95a"/><path d="m457.032 269.083h-30.582c-6.352 0-11.5-5.148-11.5-11.5s5.148-11.5 11.5-11.5h30.582c6.352 0 11.5 5.148 11.5 11.5s-5.148 11.5-11.5 11.5z" fill="#ffe05c"/><path d="m77.21 310.211h-36.768c-6.352 0-11.5-5.148-11.5-11.5s5.148-11.5 11.5-11.5h36.768c6.352 0 11.5 5.148 11.5 11.5 0 6.351-5.149 11.5-11.5 11.5z" fill="#e05d6f"/><path d="m372.301 202.186c-11.576-7.57-27.097-4.318-34.664 7.259-3.111 4.76-5.892 9.06-8.42 12.996 8.812 9.412 26.041 21.456 43.042 25.673 2.247-3.493 4.663-7.228 7.302-11.264 7.567-11.578 4.316-27.098-7.26-34.664z" fill="url(#SVGID_17_)"/><path d="m308.135 451.409c-4.072-5.232-11.471-6.287-16.967-2.579-9.957 6.719-21.954 10.644-34.872 10.644-20.583 0-38.833-9.958-50.211-25.316-5.514-7.443-16.344-8.287-23.164-2.019-11.117 10.216-25.944 16.455-42.234 16.455-16.756 0-31.959-6.609-43.178-17.347v27.34c0 1.254.065 2.493.17 3.72 12.975 7.352 27.681 11.287 43.008 11.287 18.728 0 36.756-5.947 51.687-16.908 16.433 17.552 39.674 27.788 63.923 27.788 17.619 0 34.706-5.408 49.036-15.098 5.957-4.03 7.219-12.291 2.802-17.967z" fill="#eab975"/><g fill="#e1cef5"><path d="m385.908 368.825c-1.506-1.203-3.16-2.22-4.919-3.022-5.025-2.292-7.241-8.224-4.949-13.248 2.293-5.025 8.229-7.238 13.248-4.949 3.254 1.484 6.316 3.366 9.104 5.594 4.315 3.448 5.018 9.74 1.57 14.055-3.442 4.307-9.734 5.022-14.054 1.57z"/><path d="m313.188 364.794c-1.005-5.431 2.583-10.647 8.014-11.652 8.241-1.525 15.187-3.121 22.164-4.758 5.377-1.268 10.758 2.074 12.02 7.451s-2.074 10.758-7.451 12.02c-6.934 1.627-14.428 3.35-23.094 4.953-5.393 1.003-10.641-2.551-11.653-8.014z"/></g></g></svg>